<?xml version="1.0" encoding="UTF-8"?>
<svg xmlns="http://www.w3.org/2000/svg" xmlns:xlink="http://www.w3.org/1999/xlink" width="0" height="0">

<symbol id="arrow-curve"  viewBox="0 0 60 102">
<path d="M0.668995 3.3765C0.548209 3.12818 0.651601 2.82895 0.899927 2.70817L4.94662 0.739859C5.19495 0.619073 5.49417 0.722465 5.61496 0.970791C5.73574 1.21912 5.63235 1.51834 5.38403 1.63912L1.78696 3.38873L3.53657 6.9858C3.65736 7.23412 3.55396 7.53335 3.30564 7.65413C3.05731 7.77492 2.75809 7.67153 2.6373 7.4232L0.668995 3.3765ZM1.28192 2.68522C42.9709 17.0902 58.7886 42.3549 59.3318 63.7503C59.8733 85.0798 45.1611 102.562 25.9797 100.928L26.0645 99.9319C44.4742 101.5 58.8634 84.7036 58.3321 63.7757C57.8024 42.9136 42.3728 17.9415 0.955334 3.63038L1.28192 2.68522Z"  />
</symbol>

<symbol id="icon-apple" viewBox="0 0 14 13">
<path d="M9.69355 0C9.72381 0 9.75406 0 9.78603 0C9.86024 0.916787 9.51031 1.60181 9.08503 2.09788C8.66773 2.59052 8.09631 3.06833 7.1721 2.99583C7.11045 2.09217 7.46095 1.45795 7.88567 0.963026C8.27956 0.501778 9.00168 0.0913362 9.69355 0Z"/>
<path d="M12.491 9.41079C12.491 9.41992 12.491 9.42791 12.491 9.43648C12.2313 10.2231 11.8608 10.8973 11.4087 11.5229C10.9959 12.0909 10.4902 12.8553 9.58708 12.8553C8.80673 12.8553 8.2884 12.3535 7.48863 12.3398C6.64263 12.3261 6.17739 12.7594 5.40389 12.8684C5.3154 12.8684 5.22692 12.8684 5.14015 12.8684C4.57215 12.7862 4.11376 12.3364 3.77981 11.9311C2.79509 10.7335 2.03415 9.18644 1.89258 7.20673C1.89258 7.01264 1.89258 6.81912 1.89258 6.62503C1.95252 5.20818 2.64096 4.0562 3.55604 3.49791C4.03898 3.20107 4.70288 2.94818 5.44213 3.06121C5.75895 3.1103 6.08263 3.21876 6.36634 3.32608C6.63521 3.42941 6.97144 3.61265 7.28998 3.60295C7.50576 3.59667 7.7204 3.48421 7.93789 3.40486C8.57497 3.17481 9.19948 2.91107 10.0226 3.03495C11.0119 3.18451 11.7141 3.62407 12.1479 4.30224C11.3111 4.83484 10.6494 5.63746 10.7625 7.00807C10.8629 8.2531 11.5868 8.98151 12.491 9.41079Z"  />
</symbol>

<symbol id="icon-arrow-round-pick"  viewBox="0 0 24 15">
<path fill-rule="evenodd" clip-rule="evenodd" d="M20.252 6.93852C20.1153 6.86102 19.9818 6.78212 19.8528 6.70322C18.557 5.91111 17.4319 4.87633 16.4938 3.69647C16.1333 3.24454 15.7658 2.73828 15.4861 2.2458C15.2161 1.77025 14.9872 1.23903 14.9872 0.755859L15.9384 0.755859C15.9384 0.978463 16.0582 1.32708 16.3132 1.77608C16.5585 2.20805 16.8924 2.67093 17.2376 3.10352C18.1143 4.20633 19.1583 5.16384 20.3488 5.89163C20.8016 6.1684 21.2931 6.43373 21.7738 6.62871C22.2598 6.82582 22.7046 6.93852 23.0723 6.93852L23.0723 7.8897C22.7046 7.8897 22.2595 8.00241 21.7735 8.19952C21.2927 8.39449 20.8012 8.6598 20.349 8.93647C19.1583 9.66529 18.1147 10.6223 17.2379 11.7234C16.8928 12.1564 16.5587 12.6202 16.3133 13.0526C16.0582 13.5022 15.9384 13.8508 15.9384 14.0724L14.9872 14.0724C14.9872 13.5901 15.2161 13.0588 15.486 12.5832C15.7657 12.0904 16.1332 11.5834 16.4938 11.1309C17.8041 9.68699 18.6266 8.9769 20.2518 7.8897L20.252 6.93852Z"/>
<path d="M0.243982 6.93852L0.243982 7.8897L20.2518 7.8897L20.252 6.93852L0.243982 6.93852Z"/>
</symbol>

<symbol id="icon-arrow-triangle"   viewBox="0 0 14 11">
<path d="M7 11L0.937822 0.5L13.0622 0.499999L7 11Z" />
</symbol>

<symbol id="icon-arrow-up"   viewBox="0 0 13 13">
<path d="M9.586 2L0.979 10.607L2.393 12.021L11 3.414V11H13V0H2V2H9.586Z"  />
</symbol>

<symbol id="icon-branch-stroke"  viewBox="0 0 99 206">
<g opacity="0.5">
<mask id="path-1-inside-1_6588_253">
<path d="M81.1365 144.046C73.7104 150.055 72.9013 156.026 72.8207 157.669C71.6323 158.487 70.5244 159.218 69.5134 159.867C70.9642 157.011 72.3189 154.108 73.5498 151.151C75.5792 146.125 77.2781 140.974 78.6337 135.743C78.7853 135.167 78.9316 134.592 79.067 134.018C80.1082 129.724 81.7656 125.59 84.1207 121.831C84.2807 121.577 84.4357 121.329 84.5849 121.076L84.5799 121.082C105.622 107.498 93.6935 84.1116 93.6935 84.1116C94.433 89.4249 89.5227 93.9108 84.9057 104.062C80.9726 112.705 82.9484 118.393 83.6294 119.895C82.6362 121.696 81.7019 123.272 80.8889 124.586C81.1263 123.001 81.342 121.417 81.5298 119.824C82.1689 114.472 82.3369 109.077 82.1913 103.706L82.124 101.694C82.1106 101.024 82.0807 100.351 82.0187 99.6847L81.7051 95.6687C81.5699 94.3325 81.3811 93.0058 81.2243 91.6713C81.1353 91.0075 81.0729 90.3363 80.9623 89.6743L80.6249 87.6885C80.3991 86.3755 80.372 85.0308 80.5371 83.7085L81.5244 75.9466L81.5252 75.9573C96.0727 55.7151 76.2604 38.3261 76.2604 38.3261C78.93 42.9885 76.0244 48.9319 75.5005 60.0379C75.0564 69.4903 79.0127 74.0515 80.1999 75.203C79.916 77.4576 79.5996 79.4304 79.3044 81.0419L79.0306 79.8132C78.7719 78.4974 78.353 77.221 78.014 75.9223L77.4791 73.9843C77.3044 73.338 77.1243 72.6922 76.9017 72.0604C76.0486 69.5196 75.2541 66.9634 74.2212 64.4905L73.4904 62.6215L73.1251 61.6897L72.712 60.7724L71.0552 57.1143C70.0223 54.9955 68.9523 52.8903 67.8199 50.8223C65.7888 47.1078 64.3969 43.0747 63.8364 38.8903C63.7075 37.9185 63.5527 36.9647 63.3887 36.0332L63.3895 36.0439C70.2238 12.1854 45.6201 2.39068 45.6201 2.39068C49.7238 5.89386 49.0029 12.4489 52.2873 23.0675C55.0803 32.1042 60.3678 35.085 61.884 35.776C62.5851 38.8868 63.0364 41.5075 63.3074 43.3375C63.2646 43.2764 63.2269 43.2096 63.1841 43.1486L62.0871 41.4695C61.723 40.9078 61.3074 40.3825 60.9225 39.8332L58.5681 36.5841L56.0597 33.4545C55.6391 32.9349 55.2288 32.4091 54.7978 31.8957L53.4643 30.3961C52.0902 28.7925 50.6494 27.2423 49.1687 25.7383L49.1741 25.7378C47.0946 23.5189 44.2365 20.2987 41.792 18.0012C40.6434 16.9271 39.621 15.725 38.8313 14.3652C27.3892 -5.37794 3.73925 2.28856 3.73925 2.28856C9.17768 2.20417 13.0528 7.54978 22.6702 13.2969C30.2751 17.8393 35.9668 17.0857 38.021 16.5646C38.2758 16.625 38.586 16.6972 38.8462 16.7572L41.8223 19.3886C45.7232 23.015 49.4839 26.7974 52.8353 30.9178L54.116 32.4376C54.5312 32.9577 54.9256 33.4901 55.3304 34.0163L57.7382 37.1807L58.7672 38.6827C56.2181 36.8656 53.667 35.3062 51.1664 33.979L51.1722 33.9839C36.56 13.8999 13.3772 26.8045 13.3772 26.8045C18.7244 25.815 23.4634 30.438 33.9354 34.492C42.8437 37.9445 48.5205 35.7218 50.0136 34.9765C53.605 36.6955 56.62 38.417 58.3646 39.4603C59.465 40.1196 60.4195 41.005 61.0848 42.0903C61.0853 42.0956 61.0911 42.1005 61.0969 42.1054L62.1349 43.7946C64.9848 48.2549 67.366 52.9883 69.5513 57.7907L71.0877 61.4368L71.4675 62.346L71.8053 63.2746L72.4809 65.1318C73.4364 67.5894 74.1532 70.1248 74.9227 72.64C75.1287 73.2677 75.2864 73.9046 75.4386 74.5419L75.4465 74.5735C73.6357 72.2422 71.7603 70.1306 69.8633 68.2353L69.8691 68.2402C61.8688 44.7921 35.8999 50.4517 35.8999 50.4517C41.3034 51.0462 44.4569 56.8403 53.2552 63.7519C60.7395 69.6292 66.8214 69.14 68.4698 68.8601C70.5065 70.7336 72.1862 72.4206 73.4342 73.7283C75.1674 75.5452 76.3844 77.7944 76.8072 80.2564C76.8081 80.2671 76.8093 80.2831 76.8155 80.2933L77.5693 84.162L77.7578 85.1291L77.898 86.1054L78.1784 88.0581L78.4583 90.0054C78.5515 90.6527 78.5964 91.3092 78.663 91.964C78.7849 93.2691 78.9343 94.5774 79.0291 95.8846L79.233 99.818C79.278 100.474 79.2901 101.128 79.286 101.783L79.301 103.751C79.3017 106.595 79.215 109.435 79.0136 112.268C78.2653 109.961 77.4338 107.773 76.526 105.724L76.5318 105.729C77.5533 80.9758 51.2842 77.1235 51.2842 77.1235C56.1073 79.5827 56.9568 86.1161 62.6566 95.6754C67.5131 103.815 73.3589 105.496 74.9992 105.818C75.7326 107.295 76.371 108.666 76.9101 109.88C78.2376 112.861 78.7239 116.149 78.2591 119.379C78.255 119.395 78.2562 119.411 78.252 119.428C77.5075 124.611 76.5051 129.766 75.0363 134.797C73.5895 139.831 71.8197 144.768 69.7353 149.573C69.1135 150.969 68.4577 152.346 67.7848 153.714C68.0215 150.915 68.0656 148.229 67.9727 145.671L67.9735 145.682C78.1112 122.98 55.1422 109.891 55.1422 109.891C58.7104 113.93 57.0686 120.321 58.8192 131.297C60.3081 140.635 65.1165 144.318 66.5173 145.206C66.5447 145.564 66.5721 145.921 66.5987 146.268C67.0197 152.25 65.6142 158.247 62.4793 163.398C62.4651 163.426 62.4505 163.449 62.4309 163.477C59.7234 167.962 56.6105 172.193 53.3101 176.252C52.4618 177.247 51.6716 178.291 50.7717 179.253L48.1394 182.165C48.0933 182.131 48.1049 182.14 48.0588 182.106C48.8072 180.518 49.4704 178.953 50.0645 177.409L50.0649 177.414C68.3089 160.332 52.3145 139.46 52.3145 139.46C54.0108 144.553 49.9932 149.828 47.2922 160.633C44.9948 169.823 47.9756 175.067 48.9117 176.421C48.4425 177.821 47.9864 179.107 47.552 180.252C46.4948 183.061 44.8253 185.618 42.5817 187.64C42.5717 187.652 42.5612 187.658 42.5458 187.67C38.6947 191.214 34.6545 194.564 30.3404 197.532C27.8301 199.27 25.2585 200.916 22.6361 202.469C23.6828 201.222 24.6533 199.976 25.5314 198.732L25.5264 198.738C43.4972 188.797 35.0823 169.02 35.0823 169.02C35.3863 173.407 31.1153 176.796 26.7612 184.844C23.0549 191.693 24.3448 196.453 24.8116 197.715C24.267 198.558 23.7445 199.334 23.2554 200.048C21.6452 202.386 19.4874 204.321 16.944 205.627C16.9336 205.633 16.9178 205.639 16.9074 205.646C12.2426 208.014 7.4296 210.083 2.50684 211.855L2.45401 211.875L2.43819 211.882C1.10513 212.373 0.191179 213.647 0.265976 215.047C0.395276 217.441 2.75037 218.785 4.79452 217.991C9.94962 215.986 14.9774 213.669 19.8297 211.05C24.6749 208.41 29.3014 205.4 33.7411 202.153C36.415 200.21 38.9856 198.124 41.4618 195.944C44.8299 192.98 48.9951 191.048 53.4375 190.317L53.4321 190.318C77.4795 197.328 87.8744 173.158 87.8744 173.158C84.2439 177.167 77.6184 176.384 66.794 179.506C57.5821 182.162 54.4605 187.345 53.7313 188.829C51.5042 189.294 49.5284 189.632 47.8995 189.884C49.2873 188.476 50.6224 187.019 51.9695 185.577L54.6407 182.463C55.5469 181.442 56.3484 180.333 57.2077 179.267C60.5425 174.948 63.6632 170.463 66.3572 165.733C66.4098 165.638 66.4677 165.542 66.5202 165.447C67.8438 163.132 69.7464 161.201 72.0441 159.813C72.4182 159.585 72.787 159.357 73.1557 159.129L73.1507 159.135C98.0919 156.245 98.0381 130.025 98.0381 130.025C96.2756 135.127 89.8581 136.985 81.1365 144.046Z"/>
</mask>
<path d="M81.1365 144.046C73.7104 150.055 72.9013 156.026 72.8207 157.669C71.6323 158.487 70.5244 159.218 69.5134 159.867C70.9642 157.011 72.3189 154.108 73.5498 151.151C75.5792 146.125 77.2781 140.974 78.6337 135.743C78.7853 135.167 78.9316 134.592 79.067 134.018C80.1082 129.724 81.7656 125.59 84.1207 121.831C84.2807 121.577 84.4357 121.329 84.5849 121.076L84.5799 121.082C105.622 107.498 93.6935 84.1116 93.6935 84.1116C94.433 89.4249 89.5227 93.9108 84.9057 104.062C80.9726 112.705 82.9484 118.393 83.6294 119.895C82.6362 121.696 81.7019 123.272 80.8889 124.586C81.1263 123.001 81.342 121.417 81.5298 119.824C82.1689 114.472 82.3369 109.077 82.1913 103.706L82.124 101.694C82.1106 101.024 82.0807 100.351 82.0187 99.6847L81.7051 95.6687C81.5699 94.3325 81.3811 93.0058 81.2243 91.6713C81.1353 91.0075 81.0729 90.3363 80.9623 89.6743L80.6249 87.6885C80.3991 86.3755 80.372 85.0308 80.5371 83.7085L81.5244 75.9466L81.5252 75.9573C96.0727 55.7151 76.2604 38.3261 76.2604 38.3261C78.93 42.9885 76.0244 48.9319 75.5005 60.0379C75.0564 69.4903 79.0127 74.0515 80.1999 75.203C79.916 77.4576 79.5996 79.4304 79.3044 81.0419L79.0306 79.8132C78.7719 78.4974 78.353 77.221 78.014 75.9223L77.4791 73.9843C77.3044 73.338 77.1243 72.6922 76.9017 72.0604C76.0486 69.5196 75.2541 66.9634 74.2212 64.4905L73.4904 62.6215L73.1251 61.6897L72.712 60.7724L71.0552 57.1143C70.0223 54.9955 68.9523 52.8903 67.8199 50.8223C65.7888 47.1078 64.3969 43.0747 63.8364 38.8903C63.7075 37.9185 63.5527 36.9647 63.3887 36.0332L63.3895 36.0439C70.2238 12.1854 45.6201 2.39068 45.6201 2.39068C49.7238 5.89386 49.0029 12.4489 52.2873 23.0675C55.0803 32.1042 60.3678 35.085 61.884 35.776C62.5851 38.8868 63.0364 41.5075 63.3074 43.3375C63.2646 43.2764 63.2269 43.2096 63.1841 43.1486L62.0871 41.4695C61.723 40.9078 61.3074 40.3825 60.9225 39.8332L58.5681 36.5841L56.0597 33.4545C55.6391 32.9349 55.2288 32.4091 54.7978 31.8957L53.4643 30.3961C52.0902 28.7925 50.6494 27.2423 49.1687 25.7383L49.1741 25.7378C47.0946 23.5189 44.2365 20.2987 41.792 18.0012C40.6434 16.9271 39.621 15.725 38.8313 14.3652C27.3892 -5.37794 3.73925 2.28856 3.73925 2.28856C9.17768 2.20417 13.0528 7.54978 22.6702 13.2969C30.2751 17.8393 35.9668 17.0857 38.021 16.5646C38.2758 16.625 38.586 16.6972 38.8462 16.7572L41.8223 19.3886C45.7232 23.015 49.4839 26.7974 52.8353 30.9178L54.116 32.4376C54.5312 32.9577 54.9256 33.4901 55.3304 34.0163L57.7382 37.1807L58.7672 38.6827C56.2181 36.8656 53.667 35.3062 51.1664 33.979L51.1722 33.9839C36.56 13.8999 13.3772 26.8045 13.3772 26.8045C18.7244 25.815 23.4634 30.438 33.9354 34.492C42.8437 37.9445 48.5205 35.7218 50.0136 34.9765C53.605 36.6955 56.62 38.417 58.3646 39.4603C59.465 40.1196 60.4195 41.005 61.0848 42.0903C61.0853 42.0956 61.0911 42.1005 61.0969 42.1054L62.1349 43.7946C64.9848 48.2549 67.366 52.9883 69.5513 57.7907L71.0877 61.4368L71.4675 62.346L71.8053 63.2746L72.4809 65.1318C73.4364 67.5894 74.1532 70.1248 74.9227 72.64C75.1287 73.2677 75.2864 73.9046 75.4386 74.5419L75.4465 74.5735C73.6357 72.2422 71.7603 70.1306 69.8633 68.2353L69.8691 68.2402C61.8688 44.7921 35.8999 50.4517 35.8999 50.4517C41.3034 51.0462 44.4569 56.8403 53.2552 63.7519C60.7395 69.6292 66.8214 69.14 68.4698 68.8601C70.5065 70.7336 72.1862 72.4206 73.4342 73.7283C75.1674 75.5452 76.3844 77.7944 76.8072 80.2564C76.8081 80.2671 76.8093 80.2831 76.8155 80.2933L77.5693 84.162L77.7578 85.1291L77.898 86.1054L78.1784 88.0581L78.4583 90.0054C78.5515 90.6527 78.5964 91.3092 78.663 91.964C78.7849 93.2691 78.9343 94.5774 79.0291 95.8846L79.233 99.818C79.278 100.474 79.2901 101.128 79.286 101.783L79.301 103.751C79.3017 106.595 79.215 109.435 79.0136 112.268C78.2653 109.961 77.4338 107.773 76.526 105.724L76.5318 105.729C77.5533 80.9758 51.2842 77.1235 51.2842 77.1235C56.1073 79.5827 56.9568 86.1161 62.6566 95.6754C67.5131 103.815 73.3589 105.496 74.9992 105.818C75.7326 107.295 76.371 108.666 76.9101 109.88C78.2376 112.861 78.7239 116.149 78.2591 119.379C78.255 119.395 78.2562 119.411 78.252 119.428C77.5075 124.611 76.5051 129.766 75.0363 134.797C73.5895 139.831 71.8197 144.768 69.7353 149.573C69.1135 150.969 68.4577 152.346 67.7848 153.714C68.0215 150.915 68.0656 148.229 67.9727 145.671L67.9735 145.682C78.1112 122.98 55.1422 109.891 55.1422 109.891C58.7104 113.93 57.0686 120.321 58.8192 131.297C60.3081 140.635 65.1165 144.318 66.5173 145.206C66.5447 145.564 66.5721 145.921 66.5987 146.268C67.0197 152.25 65.6142 158.247 62.4793 163.398C62.4651 163.426 62.4505 163.449 62.4309 163.477C59.7234 167.962 56.6105 172.193 53.3101 176.252C52.4618 177.247 51.6716 178.291 50.7717 179.253L48.1394 182.165C48.0933 182.131 48.1049 182.14 48.0588 182.106C48.8072 180.518 49.4704 178.953 50.0645 177.409L50.0649 177.414C68.3089 160.332 52.3145 139.46 52.3145 139.46C54.0108 144.553 49.9932 149.828 47.2922 160.633C44.9948 169.823 47.9756 175.067 48.9117 176.421C48.4425 177.821 47.9864 179.107 47.552 180.252C46.4948 183.061 44.8253 185.618 42.5817 187.64C42.5717 187.652 42.5612 187.658 42.5458 187.67C38.6947 191.214 34.6545 194.564 30.3404 197.532C27.8301 199.27 25.2585 200.916 22.6361 202.469C23.6828 201.222 24.6533 199.976 25.5314 198.732L25.5264 198.738C43.4972 188.797 35.0823 169.02 35.0823 169.02C35.3863 173.407 31.1153 176.796 26.7612 184.844C23.0549 191.693 24.3448 196.453 24.8116 197.715C24.267 198.558 23.7445 199.334 23.2554 200.048C21.6452 202.386 19.4874 204.321 16.944 205.627C16.9336 205.633 16.9178 205.639 16.9074 205.646C12.2426 208.014 7.4296 210.083 2.50684 211.855L2.45401 211.875L2.43819 211.882C1.10513 212.373 0.191179 213.647 0.265976 215.047C0.395276 217.441 2.75037 218.785 4.79452 217.991C9.94962 215.986 14.9774 213.669 19.8297 211.05C24.6749 208.41 29.3014 205.4 33.7411 202.153C36.415 200.21 38.9856 198.124 41.4618 195.944C44.8299 192.98 48.9951 191.048 53.4375 190.317L53.4321 190.318C77.4795 197.328 87.8744 173.158 87.8744 173.158C84.2439 177.167 77.6184 176.384 66.794 179.506C57.5821 182.162 54.4605 187.345 53.7313 188.829C51.5042 189.294 49.5284 189.632 47.8995 189.884C49.2873 188.476 50.6224 187.019 51.9695 185.577L54.6407 182.463C55.5469 181.442 56.3484 180.333 57.2077 179.267C60.5425 174.948 63.6632 170.463 66.3572 165.733C66.4098 165.638 66.4677 165.542 66.5202 165.447C67.8438 163.132 69.7464 161.201 72.0441 159.813C72.4182 159.585 72.787 159.357 73.1557 159.129L73.1507 159.135C98.0919 156.245 98.0381 130.025 98.0381 130.025C96.2756 135.127 89.8581 136.985 81.1365 144.046Z"  stroke-width="2" mask="url(#path-1-inside-1_6588_253)"/>
</g>
</symbol>

<symbol id="icon-change" viewBox="0 0 18 18" fill="none">
<path d="M1.0752 11.4448L17.5735 11.4448L11.9022 17.6317"  stroke-width="0.648126" stroke-linecap="round" stroke-linejoin="round"/>
<path d="M17.5735 7.32031L1.0752 7.32031L6.7465 1.13344" stroke-width="0.648126" stroke-linecap="round" stroke-linejoin="round"/>
</symbol>

<symbol id="icon-chart-stroke"  viewBox="0 0 45 45" >
  <path fill-rule="evenodd" clip-rule="evenodd" d="M12.7273 1.97727C6.79021 1.97727 1.97727 6.79021 1.97727 12.7273V32.2727C1.97727 38.2098 6.79021 43.0227 12.7273 43.0227H32.2727C38.2098 43.0227 43.0227 38.2098 43.0227 32.2727V12.7273C43.0227 6.79021 38.2098 1.97727 32.2727 1.97727H12.7273ZM0.0227273 12.7273C0.0227273 5.71075 5.71075 0.0227273 12.7273 0.0227273H32.2727C39.2893 0.0227273 44.9773 5.71075 44.9773 12.7273V32.2727C44.9773 39.2893 39.2893 44.9773 32.2727 44.9773H12.7273C5.71075 44.9773 0.0227273 39.2893 0.0227273 32.2727V12.7273ZM14.682 30.3178V10.7724C14.682 9.69291 13.8069 8.81783 12.7275 8.81783C11.648 8.81783 10.7729 9.69291 10.7729 10.7724V30.3178C10.7729 31.3973 11.648 32.2724 12.7275 32.2724C13.8069 32.2724 14.682 31.3973 14.682 30.3178ZM12.7275 6.86328C10.5685 6.86328 8.81836 8.61344 8.81836 10.7724V30.3178C8.81836 32.4768 10.5685 34.2269 12.7275 34.2269C14.8864 34.2269 16.6365 32.4768 16.6365 30.3178V10.7724C16.6365 8.61344 14.8864 6.86328 12.7275 6.86328ZM24.4545 22.5009V30.3191C24.4545 31.3985 23.5794 32.2736 22.4999 32.2736C21.4204 32.2736 20.5454 31.3985 20.5454 30.3191V22.5009C20.5454 21.4214 21.4204 20.5463 22.4999 20.5463C23.5794 20.5463 24.4545 21.4214 24.4545 22.5009ZM18.5908 22.5009C18.5908 20.342 20.341 18.5918 22.4999 18.5918C24.6588 18.5918 26.409 20.342 26.409 22.5009V30.3191C26.409 32.478 24.6588 34.2282 22.4999 34.2282C20.341 34.2282 18.5908 32.478 18.5908 30.3191V22.5009ZM34.2269 30.3175V16.6357C34.2269 15.5562 33.3518 14.6811 32.2724 14.6811C31.1929 14.6811 30.3178 15.5562 30.3178 16.6357V30.3175C30.3178 31.3969 31.1929 32.272 32.2724 32.272C33.3518 32.272 34.2269 31.3969 34.2269 30.3175ZM32.2724 12.7266C30.1134 12.7266 28.3633 14.4767 28.3633 16.6357V30.3175C28.3633 32.4764 30.1134 34.2266 32.2724 34.2266C34.4313 34.2266 36.1815 32.4764 36.1815 30.3175V16.6357C36.1815 14.4767 34.4313 12.7266 32.2724 12.7266ZM14.6816 37.1594C14.1419 37.1594 13.7044 37.597 13.7044 38.1367C13.7044 38.6765 14.1419 39.114 14.6816 39.114H32.2725C32.8123 39.114 33.2498 38.6765 33.2498 38.1367C33.2498 37.597 32.8123 37.1594 32.2725 37.1594H14.6816Z"  />
</symbol>
 

<symbol id="icon-chat-fill" viewBox="0 0 15 15"  >
  <path fill-rule="evenodd" clip-rule="evenodd" d="M14.7139 7.5C14.7139 3.35791 11.5798 0 7.71387 0C3.84792 0 0.713874 3.35791 0.713874 7.5C0.713874 8.6986 0.976944 9.83372 1.44448 10.8398C1.51415 10.9898 1.52913 11.1433 1.49657 11.2723L1.10913 12.8253C0.843456 13.8886 1.75118 14.8612 2.74355 14.5765L4.19304 14.1607C4.32947 14.1261 4.473 14.1459 4.59676 14.2165C5.56502 14.7332 6.63218 15.0014 7.71387 15C11.5798 15 14.7139 11.6421 14.7139 7.5Z" />
</symbol>

 

<symbol id="icon-check-circle" viewBox="0 0 20 20" >
<g>
<rect id="Rectangle 2165" width="20" height="20" rx="10"/>
<path id="Vector" d="M13.3016 7.18732C13.5096 7.43708 13.5096 7.84269 13.3016 8.09245L9.04056 13.2075C8.8325 13.4573 8.49461 13.4573 8.28656 13.2075L6.15604 10.65C5.94799 10.4002 5.94799 9.99463 6.15604 9.74487C6.3641 9.49511 6.70199 9.49511 6.91005 9.74487L8.66439 11.8489L12.5492 7.18732C12.7573 6.93756 13.0952 6.93756 13.3032 7.18732H13.3016Z" fill="#fff"/>
</g>
</symbol>

<symbol id="icon-document" viewBox="0 0 48 49">
  <path fill-rule="evenodd" clip-rule="evenodd" d="M13.8206 2.31132H28.5625C29.5803 2.31132 30.4053 3.12228 30.4053 4.12264V6.83962V8.65094V9.5566C30.4053 10.557 29.5803 11.3679 28.5625 11.3679H13.8206C12.8029 11.3679 11.9778 10.557 11.9778 9.5566L11.9778 8.65094V6.83962L11.9778 4.12264C11.9778 3.12228 12.8029 2.31132 13.8206 2.31132ZM10.1351 6.9781V4.12264C10.1351 2.12191 11.7851 0.5 13.8206 0.5H28.5625C30.598 0.5 32.248 2.12191 32.248 4.12264V6.9781C37.6702 7.80106 41.8918 12.1984 42.3432 17.6442C43.8242 17.503 45.3555 17.9899 46.4898 19.1049C48.5034 21.0842 48.5034 24.2932 46.4898 26.2725L42.3831 30.3091V36.7264C42.3831 43.2288 37.0205 48.5 30.4053 48.5H11.9778C5.36266 48.5 0 43.2288 0 36.7264V18.6132C0 12.7268 4.39478 7.84935 10.1351 6.9781ZM32.248 8.81521C36.8183 9.64038 40.3159 13.479 40.53 18.1579C40.0495 18.395 39.5989 18.7107 39.1979 19.1049L27.4639 30.6387C25.2176 32.8467 23.9557 35.8414 23.9557 38.9639V40.3491V41.2547H24.8771H26.2862C29.463 41.2547 32.5096 40.0143 34.7559 37.8063L40.5404 32.1204V36.7264C40.5404 42.2284 36.0028 46.6887 30.4053 46.6887H11.9778C6.38038 46.6887 1.84275 42.2284 1.84275 36.7264V18.6132C1.84275 13.7298 5.41745 9.66699 10.1351 8.81521V9.5566C10.1351 11.5573 11.7851 13.1792 13.8206 13.1792H28.5625C30.598 13.1792 32.248 11.5573 32.248 9.5566V8.81521ZM42.3831 19.4632C43.3773 19.3268 44.4223 19.6343 45.1868 20.3857C46.4808 21.6576 46.4808 23.7198 45.1868 24.9917L42.3831 27.7475L40.5404 29.5588L33.4528 36.5255C31.5521 38.3938 28.9742 39.4434 26.2862 39.4434H25.7984V38.9639C25.7984 36.3218 26.8662 33.7878 28.7669 31.9195L40.5009 20.3857L40.5404 20.3475L40.7754 20.1361C41.2198 19.7365 41.7866 19.4992 42.3831 19.4632ZM9.21373 20.4245C9.21373 19.9243 9.62624 19.5189 10.1351 19.5189H31.3267C31.8355 19.5189 32.248 19.9243 32.248 20.4245C32.248 20.9247 31.8355 21.3302 31.3267 21.3302H10.1351C9.62624 21.3302 9.21373 20.9247 9.21373 20.4245ZM9.21373 25.8585C9.21373 25.3583 9.62624 24.9528 10.1351 24.9528H23.9557C24.4645 24.9528 24.8771 25.3583 24.8771 25.8585C24.8771 26.3587 24.4645 26.7642 23.9557 26.7642H10.1351C9.62624 26.7642 9.21373 26.3587 9.21373 25.8585ZM9.21373 31.2925C9.21373 30.7923 9.62624 30.3868 10.1351 30.3868H17.5061C18.0149 30.3868 18.4275 30.7923 18.4275 31.2925C18.4275 31.7926 18.0149 32.1981 17.5061 32.1981H10.1351C9.62624 32.1981 9.21373 31.7926 9.21373 31.2925Z" />
</symbol>



<symbol id="icon-eart" viewBox="0 0 12 16">
  <path d="M6 12.5C5.60703 12.5001 5.22635 12.363 4.92362 12.1125C4.6209 11.8619 4.41511 11.5136 4.34175 11.1275C3.23779 10.7875 2.26575 10.1148 1.5585 9.20151C1.024 8.51321 0.656728 7.71013 0.485665 6.85562C0.314601 6.00111 0.344422 5.11854 0.572775 4.27753C0.801129 3.43651 1.22177 2.66006 1.80151 2.00941C2.38126 1.35876 3.10425 0.85171 3.91347 0.52826C4.72269 0.204809 5.59599 0.0738031 6.46449 0.145575C7.333 0.217346 8.17295 0.489933 8.91809 0.941833C9.66323 1.39373 10.2932 2.01259 10.7583 2.74958C11.2233 3.48657 11.5108 4.32154 11.598 5.18863C11.6284 5.49801 11.373 5.75001 11.0625 5.75001C10.752 5.75001 10.5034 5.49688 10.4663 5.18863C10.3658 4.39307 10.0547 3.63878 9.56496 3.00382C9.07523 2.36886 8.42474 1.8763 7.68077 1.57709C6.93681 1.27788 6.12641 1.1829 5.33343 1.30198C4.54044 1.42105 3.79368 1.74986 3.17041 2.25438C2.54713 2.75889 2.06999 3.42079 1.78836 4.17157C1.50672 4.92236 1.43081 5.73477 1.5685 6.52474C1.70618 7.31471 2.05245 8.05353 2.57147 8.66477C3.0905 9.27602 3.76342 9.73747 4.52063 10.0014C4.66378 9.74022 4.8735 9.5216 5.12849 9.36772C5.38347 9.21383 5.67464 9.13018 5.97243 9.12524C6.27021 9.1203 6.56399 9.19426 6.82394 9.3396C7.08389 9.48495 7.30074 9.6965 7.45247 9.95277C7.6042 10.209 7.68541 10.5009 7.68784 10.7987C7.69028 11.0965 7.61385 11.3897 7.46633 11.6484C7.3188 11.9071 7.10544 12.1222 6.8479 12.2718C6.59036 12.4213 6.29782 12.5001 6 12.5ZM1.5 10.8125V10.7821C1.19254 10.5065 0.910873 10.2033 0.658502 9.87651C0.473249 10.1535 0.374565 10.4793 0.375001 10.8125V11.375C0.375001 13.5924 2.4675 15.875 6 15.875C9.5325 15.875 11.625 13.5924 11.625 11.375V10.8125C11.625 10.365 11.4472 9.93573 11.1307 9.61926C10.8143 9.3028 10.3851 9.12501 9.9375 9.12501H8.25C8.49638 9.45126 8.67188 9.83376 8.75625 10.25H9.9375C10.0867 10.25 10.2298 10.3093 10.3352 10.4148C10.4407 10.5202 10.5 10.6633 10.5 10.8125V11.375C10.5 12.9928 8.889 14.75 6 14.75C3.111 14.75 1.5 12.9928 1.5 11.375V10.8125ZM6 8.00001C5.35613 7.99907 4.7316 8.21996 4.2315 8.62551C3.73957 8.32425 3.33341 7.90151 3.05206 7.39793C2.77072 6.89434 2.62365 6.32685 2.625 5.75001C2.62517 5.16161 2.77916 4.58348 3.0717 4.07295C3.36425 3.56243 3.78518 3.13726 4.29274 2.83962C4.8003 2.54198 5.37686 2.3822 5.96523 2.37614C6.5536 2.37007 7.13333 2.51794 7.64692 2.80506C8.16051 3.09219 8.59011 3.50859 8.89311 4.01298C9.19611 4.51736 9.36198 5.0922 9.37427 5.68047C9.38655 6.26874 9.24483 6.85001 8.96316 7.3666C8.68149 7.8832 8.26965 8.31719 7.7685 8.62551C7.26841 8.21996 6.64387 7.99907 6 8.00001ZM3.75 5.75001C3.75 6.34674 3.98705 6.91904 4.40901 7.341C4.83097 7.76295 5.40326 8.00001 6 8.00001C6.59674 8.00001 7.16903 7.76295 7.59099 7.341C8.01295 6.91904 8.25 6.34674 8.25 5.75001C8.25 5.15327 8.01295 4.58097 7.59099 4.15902C7.16903 3.73706 6.59674 3.50001 6 3.50001C5.40326 3.50001 4.83097 3.73706 4.40901 4.15902C3.98705 4.58097 3.75 5.15327 3.75 5.75001Z"  />
</symbol>

<symbol id="icon-gift" viewBox="0 0 14 14">
  <path fill-rule="evenodd" clip-rule="evenodd" d="M6.96708 0.729126C5.62016 0.729126 4.56491 0.729126 3.74124 0.839959C2.89891 0.953126 2.23391 1.18996 1.71183 1.71146C1.18974 2.23354 0.953492 2.89854 0.840326 3.74146C0.729492 4.56454 0.729492 5.61979 0.729492 6.96671V7.03321C0.729492 8.38013 0.729492 9.43538 0.840326 10.259C0.953492 11.1014 1.19033 11.7664 1.71183 12.2885C2.23391 12.8105 2.89891 13.0468 3.74183 13.16C4.56491 13.2708 5.62016 13.2708 6.96708 13.2708H7.03358C8.38049 13.2708 9.43574 13.2708 10.2594 13.16C11.1017 13.0468 11.7667 12.81 12.2888 12.2885C12.8109 11.7664 13.0472 11.1014 13.1603 10.2585C13.2712 9.43538 13.2712 8.38013 13.2712 7.03321V6.96671C13.2712 5.61979 13.2712 4.56454 13.1603 3.74088C13.0472 2.89854 12.8103 2.23354 12.2888 1.71146C11.7667 1.18938 11.1017 0.953126 10.2588 0.839959C9.43574 0.729126 8.38049 0.729126 7.03358 0.729126H6.96708ZM6.56283 1.60413C5.39966 1.60529 4.53458 1.61579 3.85849 1.70679C3.11241 1.80713 2.66266 1.99846 2.33016 2.33038C1.99824 2.66288 1.80749 3.11204 1.70716 3.85813C1.61674 4.53421 1.60566 5.39929 1.60449 6.56246H4.03349C3.82402 6.30079 3.67359 5.99694 3.59249 5.67171C3.27808 4.41579 4.41616 3.27771 5.67208 3.59213C5.99729 3.67326 6.30114 3.82369 6.56283 4.03313V1.60413ZM1.60449 7.43746C1.60566 8.60063 1.61616 9.46571 1.70716 10.1418C1.80749 10.8879 1.99883 11.3376 2.33074 11.6701C2.66324 12.002 3.11241 12.1928 3.85849 12.2931C4.53458 12.3835 5.39966 12.3946 6.56283 12.3958V8.23896C6.33266 8.69937 5.97879 9.08657 5.54089 9.35713C5.103 9.6277 4.5984 9.77094 4.08366 9.77079C3.96763 9.77079 3.85635 9.7247 3.7743 9.64265C3.69225 9.56061 3.64616 9.44933 3.64616 9.33329C3.64616 9.21726 3.69225 9.10598 3.7743 9.02393C3.85635 8.94189 3.96763 8.89579 4.08366 8.89579C4.51044 8.89578 4.92474 8.75182 5.25956 8.48718C5.59438 8.22254 5.83015 7.8527 5.92874 7.43746H5.84824H1.60449ZM7.43783 12.3958C8.60099 12.3946 9.46608 12.3841 10.1422 12.2931C10.8882 12.1928 11.338 12.0015 11.6705 11.6695C12.0024 11.337 12.1932 10.8879 12.2935 10.1418C12.3839 9.46571 12.395 8.60063 12.3962 7.43746H8.07191C8.1705 7.8527 8.40627 8.22254 8.74109 8.48718C9.07591 8.75182 9.49021 8.89578 9.91699 8.89579C10.033 8.89579 10.1443 8.94189 10.2264 9.02393C10.3084 9.10598 10.3545 9.21726 10.3545 9.33329C10.3545 9.44933 10.3084 9.56061 10.2264 9.64265C10.1443 9.7247 10.033 9.77079 9.91699 9.77079C9.40225 9.77094 8.89765 9.6277 8.45976 9.35713C8.02186 9.08657 7.668 8.69937 7.43783 8.23896V12.3958ZM12.3962 6.56246H9.96716C10.1768 6.30081 10.3274 5.99696 10.4087 5.67171C10.7226 4.41579 9.58449 3.27771 8.32916 3.59213C8.00373 3.67314 7.69967 3.82358 7.43783 4.03313V1.60413C8.60099 1.60529 9.46608 1.61579 10.1422 1.70679C10.8882 1.80713 11.338 1.99846 11.6705 2.33038C12.0024 2.66288 12.1932 3.11204 12.2935 3.85813C12.3839 4.53421 12.395 5.39929 12.3962 6.56246ZM7.43783 6.56246V5.85079C7.43852 5.52653 7.5474 5.21177 7.74721 4.95638C7.94702 4.70099 8.22634 4.51957 8.54091 4.44088C8.68161 4.40574 8.82901 4.40762 8.96876 4.44635C9.10852 4.48508 9.23586 4.55933 9.33841 4.66188C9.44095 4.76442 9.5152 4.89177 9.55393 5.03152C9.59266 5.17128 9.59455 5.31868 9.55941 5.45938C9.48076 5.77376 9.29952 6.05293 9.04437 6.25272C8.78922 6.45251 8.47472 6.56151 8.15066 6.56246H7.43783ZM6.56283 5.84904C6.56174 5.52508 6.45269 5.21072 6.25291 4.95569C6.05313 4.70065 5.77402 4.5195 5.45974 4.44088C5.31904 4.40574 5.17164 4.40762 5.03189 4.44635C4.89214 4.48508 4.76479 4.55933 4.66224 4.66188C4.5597 4.76442 4.48545 4.89177 4.44672 5.03152C4.40799 5.17128 4.4061 5.31868 4.44124 5.45938C4.51989 5.77376 4.70113 6.05293 4.95628 6.25272C5.21143 6.45251 5.52593 6.56151 5.84999 6.56246H6.56283V5.84904Z"  />
</symbol>

<symbol id="icon-people" viewBox="0 0 12 14" >
  <path fill-rule="evenodd" clip-rule="evenodd" d="M0 1V0H12V1H9.5V4.5C9.5 5.42826 9.13125 6.3185 8.47487 6.97487C7.8185 7.63125 6.92826 8 6 8C5.07174 8 4.1815 7.63125 3.52513 6.97487C2.86875 6.3185 2.5 5.42826 2.5 4.5V1H0ZM8.5 1H3.5V2.5H8.5V1ZM4.23223 6.26777C4.70107 6.73661 5.33696 7 6 7C6.66304 7 7.29893 6.73661 7.76777 6.26777C8.23661 5.79893 8.5 5.16304 8.5 4.5V3.5H3.5V4.5C3.5 5.16304 3.76339 5.79893 4.23223 6.26777ZM10 14H11V12.5C10.9989 11.5721 10.6299 10.6824 9.97371 10.0263C9.31756 9.37015 8.42793 9.00106 7.5 9H4.5C3.57207 9.00106 2.68244 9.37015 2.02629 10.0263C1.37015 10.6824 1.00106 11.5721 1 12.5V14H2V12.5C2.00079 11.8372 2.26444 11.2018 2.73311 10.7331C3.20178 10.2644 3.8372 10.0008 4.5 10H7.5C8.1628 10.0008 8.79822 10.2644 9.26689 10.7331C9.73556 11.2018 9.99921 11.8372 10 12.5V14ZM0.146446 2.14645C0.240215 2.05268 0.367392 2 0.5 2C0.632608 2 0.759785 2.05268 0.853554 2.14645C0.947321 2.24022 1 2.36739 1 2.5V7H0V2.5C0 2.36739 0.0526791 2.24022 0.146446 2.14645Z" />
</symbol>



<symbol id="icon-round-arrow"  viewBox="0 0 144 141">
  <path d="M0.468119 4.47177C0.289121 4.26151 0.314463 3.94594 0.524736 3.76694L3.95124 0.849909C4.16151 0.670909 4.47707 0.696248 4.65608 0.90652C4.83508 1.11679 4.80974 1.43235 4.59947 1.61135L1.55369 4.20427L4.1466 7.25006C4.3256 7.46032 4.30026 7.77589 4.08999 7.95489C3.87973 8.1339 3.56416 8.10855 3.38516 7.89828L0.468119 4.47177ZM0.888874 3.64926C86.7544 10.5455 128.848 50.5781 140.265 90.5916C151.663 130.542 132.41 170.489 95.6455 176.708L95.4787 175.722C131.479 169.632 150.591 130.43 139.303 90.8659C128.033 51.3655 86.388 11.5193 0.808823 4.64606L0.888874 3.64926Z" />
</symbol>

<symbol id="icon-search-code" viewBox="0 0 20 20" >
  <path fill-rule="evenodd" clip-rule="evenodd" d="M18 9.5C18 14.1944 14.1944 18 9.5 18C4.80558 18 1 14.1944 1 9.5C1 4.80558 4.80558 1 9.5 1C14.1944 1 18 4.80558 18 9.5ZM15.8547 16.5618C14.1714 18.0775 11.9435 19 9.5 19C4.25329 19 0 14.7467 0 9.5C0 4.25329 4.25329 0 9.5 0C14.7467 0 19 4.25329 19 9.5C19 11.9435 18.0775 14.1714 16.5618 15.8547L19.3536 18.6464C19.5488 18.8417 19.5488 19.1583 19.3536 19.3536C19.1583 19.5488 18.8417 19.5488 18.6464 19.3536L15.8547 16.5618ZM5.64645 10.3536C5.45118 10.1583 5.45118 9.84171 5.64645 9.64645L7.64645 7.64645C7.84171 7.45118 8.15829 7.45118 8.35355 7.64645C8.54882 7.84171 8.54882 8.15829 8.35355 8.35355L6.70711 10L8.35355 11.6464C8.54882 11.8417 8.54882 12.1583 8.35355 12.3536C8.15829 12.5488 7.84171 12.5488 7.64645 12.3536L5.64645 10.3536ZM11.3536 7.64645L13.3536 9.64645C13.5488 9.84171 13.5488 10.1583 13.3536 10.3536L11.3536 12.3536C11.1583 12.5488 10.8417 12.5488 10.6464 12.3536C10.4512 12.1583 10.4512 11.8417 10.6464 11.6464L12.2929 10L10.6464 8.35355C10.4512 8.15829 10.4512 7.84171 10.6464 7.64645C10.8417 7.45118 11.1583 7.45118 11.3536 7.64645Z"/>
</symbol>
 
<symbol id="icon-starr" width="20" height="19" viewBox="0 0 20 19" fill="none">
<path d="M10 0.75L12.2451 7.65983H19.5106L13.6327 11.9303L15.8779 18.8402L10 14.5697L4.12215 18.8402L6.36729 11.9303L0.489435 7.65983H7.75486L10 0.75Z" fill="#FFC452"/>
</symbol>

<symbol id="icon-starr" viewBox="0 0 20 19">
<path d="M10 0.75L12.2451 7.65983H19.5106L13.6327 11.9303L15.8779 18.8402L10 14.5697L4.12215 18.8402L6.36729 11.9303L0.489435 7.65983H7.75486L10 0.75Z"/>
</symbol>

<symbol id="icon-verify" viewBox="0 0 45 45">
  <path fill-rule="evenodd" clip-rule="evenodd" d="M12.7273 1.97727C6.79021 1.97727 1.97727 6.79021 1.97727 12.7273V32.2727C1.97727 38.2098 6.79021 43.0227 12.7273 43.0227H32.2727C38.2098 43.0227 43.0227 38.2098 43.0227 32.2727V12.7273C43.0227 6.79021 38.2098 1.97727 32.2727 1.97727H12.7273ZM0.0227273 12.7273C0.0227273 5.71075 5.71075 0.0227273 12.7273 0.0227273H32.2727C39.2893 0.0227273 44.9773 5.71075 44.9773 12.7273V32.2727C44.9773 39.2893 39.2893 44.9773 32.2727 44.9773H12.7273C5.71075 44.9773 0.0227273 39.2893 0.0227273 32.2727V12.7273ZM28.1476 18.4677C28.5386 18.8578 28.5392 19.491 28.1491 19.8819L21.5424 26.5023C21.3547 26.6904 21.0998 26.7961 20.8341 26.796C20.5683 26.7958 20.3135 26.6899 20.126 26.5016L16.8295 23.1914C16.4398 22.8001 16.4411 22.1669 16.8324 21.7772C17.2238 21.3875 17.8569 21.3888 18.2467 21.7801L20.8353 24.3795L26.7334 18.4692C27.1235 18.0782 27.7567 18.0776 28.1476 18.4677ZM21.43 10.1834C21.9959 9.69957 22.9909 9.69256 23.5792 10.1851L25.7334 12.0393L25.7346 12.0404C26.0556 12.3182 26.4639 12.5314 26.8488 12.6752C27.2342 12.8192 27.6842 12.9265 28.1118 12.9265H30.4371C31.3347 12.9265 32.0771 13.6688 32.0771 14.5665V16.8918C32.0771 17.3139 32.185 17.764 32.3278 18.148C32.4703 18.5317 32.6832 18.9455 32.9631 19.2689L32.9643 19.2702L34.8202 21.4263L34.8211 21.4273C35.304 21.9934 35.3107 22.9875 34.8185 23.5755L32.9643 25.7296L32.9633 25.7307C32.6855 26.0517 32.4722 26.4601 32.3284 26.845C32.1844 27.2305 32.0771 27.6804 32.0771 28.1081V30.4334C32.0771 31.331 31.3347 32.0733 30.4371 32.0733H28.1118C27.6897 32.0733 27.2396 32.1813 26.8556 32.324C26.4719 32.4666 26.0583 32.6794 25.7348 32.9593L25.7334 32.9605L23.5772 34.8164L23.576 34.8175C23.0099 35.3003 22.0159 35.3069 21.4281 34.8147L19.2739 32.9605L19.2721 32.9589C18.9512 32.6814 18.5431 32.4684 18.1585 32.3247C17.7731 32.1806 17.3231 32.0733 16.8955 32.0733H14.5291C13.6315 32.0733 12.8892 31.331 12.8892 30.4334V28.0944C12.8892 27.6716 12.7808 27.225 12.6406 26.8462C12.4999 26.4659 12.2929 26.0621 12.0282 25.7444L12.0282 25.7444L12.0223 25.7373L10.1789 23.5662L10.1775 23.5646C9.69866 22.9931 9.69865 22.0068 10.1774 21.4352L10.1789 21.4335L12.0222 19.2625L12.0223 19.2626L12.0282 19.2555C12.2929 18.9378 12.4999 18.5339 12.6406 18.1537C12.7808 17.7749 12.8892 17.3283 12.8892 16.9055V14.5528C12.8892 13.6552 13.6315 12.9129 14.5291 12.9129H16.8955C17.3176 12.9129 17.7676 12.8049 18.1517 12.6622C18.5347 12.5198 18.9476 12.3075 19.2708 12.0283L21.4297 10.1837L21.43 10.1834ZM24.8716 8.65876C23.5446 7.54026 21.4512 7.53409 20.1305 8.66311L20.1303 8.66335L17.9694 10.5097L17.9693 10.5097L17.964 10.5143C17.8773 10.5894 17.6966 10.6976 17.4551 10.7874C17.2133 10.8772 17.0068 10.9129 16.8955 10.9129H14.5291C12.5269 10.9129 10.8892 12.5506 10.8892 14.5528V16.9055C10.8892 17.0162 10.8539 17.2193 10.765 17.4594C10.6775 17.6958 10.571 17.8789 10.494 17.9724L8.65108 20.1428L8.64788 20.1466C7.54185 21.4624 7.54185 23.5374 8.64788 24.8532L8.65108 24.8569L10.494 27.0275C10.571 27.1209 10.6775 27.304 10.765 27.5405C10.8539 27.7806 10.8892 27.9837 10.8892 28.0944V30.4334C10.8892 32.4356 12.5269 34.0733 14.5291 34.0733H16.8955C17.015 34.0733 17.2216 34.1096 17.4585 34.1982C17.6955 34.2867 17.8748 34.3946 17.964 34.4719L17.9666 34.4741L20.1278 36.3344L20.1277 36.3344L20.1357 36.3411C21.4628 37.4597 23.5563 37.4658 24.877 36.3365L24.8795 36.3344L27.0407 34.4741L27.0432 34.4719C27.1299 34.3968 27.3106 34.2886 27.5522 34.1988C27.7939 34.109 28.0005 34.0733 28.1118 34.0733H30.4371C32.4393 34.0733 34.0771 32.4356 34.0771 30.4334V28.1081C34.0771 27.9885 34.1134 27.782 34.2019 27.545C34.2904 27.308 34.3983 27.1287 34.4756 27.0395L34.4778 27.0369L36.3381 24.8758L36.3382 24.8758L36.3448 24.8679C37.4634 23.5407 37.4695 21.4472 36.3402 20.1265L36.3381 20.124L34.4778 17.9629L34.4756 17.9604C34.4005 17.8737 34.2923 17.693 34.2025 17.4514C34.1127 17.2097 34.0771 17.0031 34.0771 16.8918V14.5665C34.0771 12.5643 32.4393 10.9265 30.4371 10.9265H28.1118C27.9923 10.9265 27.7857 10.8902 27.5487 10.8017C27.3117 10.7132 27.1324 10.6053 27.0432 10.528L27.0407 10.5258L24.8795 8.66549L24.8795 8.66544L24.8716 8.65876Z"  />
</symbol>


 <symbol id="icon-wallet-stroke" viewBox="0 0 45 38"  >
  <path fill-rule="evenodd" clip-rule="evenodd" d="M12.5 0.0227273C5.60899 0.0227273 0.0227273 5.60899 0.0227273 12.5V24.4545C0.0227273 31.4711 5.71075 37.1591 12.7273 37.1591H32.2727C39.2893 37.1591 44.9773 31.4711 44.9773 24.4545V12.5C44.9773 5.60899 39.391 0.0227273 32.5 0.0227273H12.5ZM42.9779 11.5227H2.02205C2.51506 6.16936 7.01797 1.97727 12.5 1.97727H32.5C37.982 1.97727 42.4849 6.16936 42.9779 11.5227ZM1.97727 13.4773H43.0227V24.4545C43.0227 30.3916 38.2098 35.2045 32.2727 35.2045H12.7273C6.79021 35.2045 1.97727 30.3916 1.97727 24.4545V13.4773ZM7.84109 20.5449C7.84109 20.0052 8.27863 19.5676 8.81836 19.5676H12.7275C13.2672 19.5676 13.7047 20.0052 13.7047 20.5449C13.7047 21.0847 13.2672 21.5222 12.7275 21.5222H8.81836C8.27863 21.5222 7.84109 21.0847 7.84109 20.5449ZM15.6593 20.5449C15.6593 20.0052 16.0968 19.5676 16.6365 19.5676H21.5229C22.0626 19.5676 22.5002 20.0052 22.5002 20.5449C22.5002 21.0847 22.0626 21.5222 21.5229 21.5222H16.6365C16.0968 21.5222 15.6593 21.0847 15.6593 20.5449ZM23.4775 20.5449C23.4775 20.0052 23.915 19.5676 24.4547 19.5676H35.2047C35.7445 19.5676 36.182 20.0052 36.182 20.5449C36.182 21.0847 35.7445 21.5222 35.2047 21.5222H24.4547C23.915 21.5222 23.4775 21.0847 23.4775 20.5449ZM36.1824 26.4082C36.1824 25.8685 35.7448 25.4309 35.2051 25.4309H31.296C30.7563 25.4309 30.3187 25.8685 30.3187 26.4082C30.3187 26.9479 30.7563 27.3855 31.296 27.3855H35.2051C35.7448 27.3855 36.1824 26.9479 36.1824 26.4082ZM28.3642 26.4082C28.3642 25.8685 27.9266 25.4309 27.3869 25.4309H22.5005C21.9608 25.4309 21.5233 25.8685 21.5233 26.4082C21.5233 26.9479 21.9608 27.3855 22.5005 27.3855H27.3869C27.9266 27.3855 28.3642 26.9479 28.3642 26.4082ZM20.546 26.4082C20.546 25.8685 20.1084 25.4309 19.5687 25.4309H8.81871C8.27898 25.4309 7.84144 25.8685 7.84144 26.4082C7.84144 26.9479 8.27898 27.3855 8.81871 27.3855H19.5687C20.1084 27.3855 20.546 26.9479 20.546 26.4082Z"  />
</symbol>

<symbol id="icon-refer-frend" viewBox="0 0 65 61">
  <path fill-rule="evenodd" clip-rule="evenodd" d="M50.4775 27C57.3811 27 62.9775 21.4036 62.9775 14.5C62.9775 7.59644 57.3811 2 50.4775 2C43.574 2 37.9775 7.59644 37.9775 14.5C37.9775 21.4036 43.574 27 50.4775 27ZM52.9545 28.7893C59.7826 27.614 64.9775 21.6637 64.9775 14.5C64.9775 6.49187 58.4857 0 50.4775 0C43.6679 0 37.9547 4.69407 36.3971 11.0229H12.7045C5.68802 11.0229 0 16.711 0 23.7275V43.7221C0 50.4906 5.48693 55.9775 12.2554 55.9775H12.7833C13.0631 55.9775 13.3259 56.1116 13.4901 56.3381L14.0734 57.1426C17.3364 61.6432 24.1733 61.2172 26.8523 56.3463C26.9774 56.1188 27.2164 55.9775 27.476 55.9775H40.25C47.2665 55.9775 52.9545 50.2895 52.9545 43.2729V28.7893ZM51 28.9908C50.8266 28.9969 50.6524 29 50.4775 29C42.4694 29 35.9775 22.5081 35.9775 14.5C35.9775 13.9858 36.0043 13.4779 36.0565 12.9775H12.7045C6.76748 12.9775 1.95455 17.7904 1.95455 23.7275V43.7221C1.95455 49.4111 6.5664 54.0229 12.2554 54.0229H12.7833C13.6895 54.0229 14.5407 54.4572 15.0725 55.1908L15.6558 55.9953C18.0774 59.3355 23.1514 59.0193 25.1397 55.4044C25.6083 54.5523 26.5036 54.0229 27.476 54.0229H40.25C46.1871 54.0229 51 49.21 51 43.2729V28.9908ZM55.4194 11.278C55.8182 11.6601 55.8317 12.2932 55.4495 12.6919L49.6995 18.6919L48.9927 19.4294L48.2704 18.7071L45.2704 15.7071C44.8799 15.3166 44.8799 14.6834 45.2704 14.2929C45.661 13.9024 46.2941 13.9024 46.6846 14.2929L48.9623 16.5706L54.0056 11.3081C54.3877 10.9094 55.0207 10.8959 55.4194 11.278ZM25.9775 30C28.739 30 30.9775 27.7614 30.9775 25C30.9775 22.2386 28.739 20 25.9775 20C23.2161 20 20.9775 22.2386 20.9775 25C20.9775 27.7614 23.2161 30 25.9775 30ZM25.9775 32C29.8435 32 32.9775 28.866 32.9775 25C32.9775 21.134 29.8435 18 25.9775 18C22.1115 18 18.9775 21.134 18.9775 25C18.9775 28.866 22.1115 32 25.9775 32ZM38.9775 45.5C38.9775 45.6675 38.9742 45.8341 38.9677 46H36.9658C36.9736 45.8343 36.9775 45.6676 36.9775 45.5C36.9775 39.701 32.2765 35 26.4775 35C20.6785 35 15.9775 39.701 15.9775 45.5C15.9775 45.6676 15.9815 45.8343 15.9892 46H13.9874C13.9808 45.8341 13.9775 45.6675 13.9775 45.5C13.9775 38.5964 19.574 33 26.4775 33C33.3811 33 38.9775 38.5964 38.9775 45.5Z"  />
</symbol>


<symbol id="icon-wifi" viewBox="0 0 36 26" >
<path d="M18 25.5C16.95 25.5 16.0625 25.1375 15.3375 24.4125C14.6125 23.6875 14.25 22.8 14.25 21.75C14.25 20.7 14.6125 19.8125 15.3375 19.0875C16.0625 18.3625 16.95 18 18 18C19.05 18 19.9375 18.3625 20.6625 19.0875C21.3875 19.8125 21.75 20.7 21.75 21.75C21.75 22.8 21.3875 23.6875 20.6625 24.4125C19.9375 25.1375 19.05 25.5 18 25.5ZM9.525 17.025L6.375 13.8C7.85 12.325 9.5815 11.1565 11.5695 10.2945C13.5575 9.4325 15.701 9.001 18 9C20.3 9 22.444 9.4375 24.432 10.3125C26.42 11.1875 28.151 12.375 29.625 13.875L26.475 17.025C25.375 15.925 24.1 15.0625 22.65 14.4375C21.2 13.8125 19.65 13.5 18 13.5C16.35 13.5 14.8 13.8125 13.35 14.4375C11.9 15.0625 10.625 15.925 9.525 17.025ZM3.15 10.65L0 7.5C2.3 5.15 4.9875 3.3125 8.0625 1.9875C11.1375 0.6625 14.45 0 18 0C21.55 0 24.8625 0.6625 27.9375 1.9875C31.0125 3.3125 33.7 5.15 36 7.5L32.85 10.65C30.925 8.725 28.694 7.219 26.157 6.132C23.62 5.045 20.901 4.501 18 4.5C15.1 4.5 12.3815 5.044 9.8445 6.132C7.3075 7.22 5.076 8.726 3.15 10.65Z"  />
</symbol>

<symbol id="icon-android"  viewBox="0 0 12 13">
<path d="M10.5635 4.41135C10.3661 4.41135 10.1769 4.48975 10.0373 4.62931C9.89771 4.76886 9.81934 4.95814 9.81934 5.1555V8.528C9.81934 8.72536 9.89771 8.91465 10.0373 9.05422C10.1769 9.19379 10.3661 9.27216 10.5635 9.27216C10.7609 9.27216 10.9502 9.19379 11.0897 9.05422C11.2293 8.91465 11.3077 8.72536 11.3077 8.528V5.1555C11.3077 4.95814 11.2293 4.76886 11.0897 4.62931C10.9502 4.48975 10.7609 4.41135 10.5635 4.41135Z" />
<path d="M0.968776 4.41135C0.771414 4.41135 0.582126 4.48975 0.442571 4.62931C0.303016 4.76886 0.224609 4.95814 0.224609 5.1555V8.528C0.224609 8.72536 0.303016 8.91465 0.442571 9.05422C0.582126 9.19379 0.771414 9.27216 0.968776 9.27216C1.16614 9.27216 1.35543 9.19379 1.49498 9.05422C1.63454 8.91465 1.71294 8.72536 1.71294 8.528V5.1555C1.71294 4.95814 1.63454 4.76886 1.49498 4.62931C1.35543 4.48975 1.16614 4.41135 0.968776 4.41135Z"  />
<path d="M2.25098 4.41135V9.478C2.25098 9.58923 2.27288 9.69943 2.31546 9.80218C2.35803 9.90494 2.42042 9.99836 2.49908 10.077C2.57774 10.1557 2.67112 10.218 2.7739 10.2606C2.87666 10.3032 2.98681 10.3251 3.09806 10.3251H3.63639V12.1222C3.63639 12.3195 3.71479 12.5088 3.85436 12.6484C3.99391 12.788 4.1832 12.8663 4.38056 12.8663C4.57792 12.8663 4.76721 12.788 4.90678 12.6484C5.04635 12.5088 5.12473 12.3195 5.12473 12.1222V10.3251H6.40723V12.1222C6.40723 12.3195 6.4856 12.5088 6.62517 12.6484C6.76474 12.788 6.95403 12.8663 7.15139 12.8663C7.34876 12.8663 7.53804 12.788 7.67761 12.6484C7.81718 12.5088 7.89556 12.3195 7.89556 12.1222V10.3251H8.43389C8.65857 10.3251 8.87398 10.2359 9.03287 10.077C9.19176 9.91816 9.28098 9.70267 9.28098 9.478V4.41135H2.25098Z"  />
<path d="M9.18598 3.35839C8.95299 2.57671 8.43627 1.91033 7.73723 1.49006L7.61848 1.41881L7.49181 1.35548L7.63431 1.11006L8.05389 0.318394C8.06181 0.295839 8.06228 0.271313 8.05516 0.248482C8.04803 0.225658 8.03371 0.205748 8.01431 0.191727H7.95889C7.93871 0.192638 7.91891 0.198084 7.9011 0.207679C7.88329 0.217274 7.86785 0.230764 7.85598 0.247144L7.42848 0.983394L7.29389 1.22881L7.16723 1.17339L7.03264 1.12589C6.21224 0.841163 5.31971 0.841163 4.49931 1.12589L4.37264 1.17339L4.23806 1.22881L4.10348 0.983394L3.67598 0.191727C3.66869 0.178736 3.65893 0.167296 3.64723 0.158081C3.63554 0.148858 3.62214 0.142026 3.60781 0.137989C3.59347 0.133943 3.57847 0.132764 3.56369 0.134513C3.5489 0.136263 3.53459 0.14091 3.5216 0.148185C3.5086 0.155469 3.49717 0.16523 3.48795 0.176931C3.47872 0.188624 3.4719 0.202027 3.46786 0.216356C3.46382 0.230693 3.46263 0.245687 3.46439 0.260476C3.46614 0.275264 3.47078 0.289569 3.47806 0.30256L3.89764 1.09423L4.04014 1.33964L3.91348 1.40298L3.79473 1.47423C3.09234 1.89622 2.57712 2.56998 2.35389 3.35839C2.2921 3.56412 2.25751 3.77704 2.25098 3.99173H9.28098C9.27322 3.77772 9.24131 3.56526 9.18598 3.35839ZM4.18264 2.93881C4.12001 2.93881 4.05879 2.92024 4.00671 2.88544C3.95464 2.85065 3.91405 2.80119 3.89008 2.74333C3.86611 2.68547 3.85984 2.6218 3.87206 2.56037C3.88428 2.49894 3.91443 2.44251 3.95872 2.39823C4.00301 2.35394 4.05944 2.32378 4.12086 2.31156C4.18229 2.29935 4.24598 2.30562 4.30385 2.32958C4.36172 2.35355 4.41112 2.39414 4.44595 2.44622C4.48071 2.4983 4.49931 2.55951 4.49931 2.62214C4.49931 2.70613 4.46598 2.78668 4.40653 2.84607C4.34715 2.90545 4.26664 2.93881 4.18264 2.93881ZM7.34931 2.93881C7.28669 2.93881 7.22541 2.92024 7.1734 2.88544C7.12131 2.85065 7.0807 2.80119 7.05671 2.74333C7.0328 2.68547 7.02647 2.6218 7.03874 2.56037C7.05093 2.49894 7.08109 2.44251 7.12543 2.39823C7.16968 2.35394 7.22613 2.32378 7.28756 2.31156C7.34899 2.29935 7.41264 2.30562 7.47051 2.32958C7.52838 2.35355 7.57778 2.39414 7.61262 2.44622C7.64737 2.4983 7.66598 2.55951 7.66598 2.62214C7.66598 2.70613 7.63265 2.78668 7.57319 2.84607C7.51382 2.90545 7.43331 2.93881 7.34931 2.93881Z"  />
</symbol>

<symbol id="icon-windows"   viewBox="0 0 13 13">
<g clip-path="url(#clip0_6175_887)">
<path fill-rule="evenodd" clip-rule="evenodd" d="M5.79611 6.76045C5.79912 7.95979 5.80273 9.99752 5.80574 11.5813C7.97416 11.8745 10.1426 12.1768 12.3074 12.5C12.3074 10.6092 12.3098 8.72674 12.3074 6.92773C10.1372 6.92773 7.96754 6.76045 5.79611 6.76045ZM0.308594 6.76104V10.833C1.94408 11.0537 3.57957 11.2646 5.21205 11.5057C5.21506 9.93033 5.21085 8.35454 5.21085 6.7792C3.57656 6.7822 1.94288 6.75564 0.308594 6.76104ZM0.308594 2.20596V6.2665C1.94408 6.2707 3.57957 6.24595 5.21506 6.24775C5.21386 4.67602 5.21386 3.10621 5.21205 1.53447C3.57536 1.73896 1.93867 1.9553 0.308594 2.20596ZM12.3086 6.18301C10.1414 6.1914 7.97416 6.22445 5.80574 6.23105C5.80453 4.63353 5.80453 3.03792 5.80574 1.4416C7.96995 1.11118 10.139 0.800432 12.3074 0.5C12.3086 2.39496 12.3074 4.28805 12.3086 6.18301Z" />
</g>
<defs>
<clipPath>
<rect width="12" height="12" transform="translate(0.308594 0.5)"/>
</clipPath>
</defs>
</symbol>

<symbol id="triangl-arrow"  viewBox="0 0 6 5">
<path d="M3 4.5L0.401924 4.89399e-07L5.59808 3.51373e-08L3 4.5Z"  />
</symbol>

</svg>
