<svg width="60" height="102" viewBox="0 0 60 102" fill="none" xmlns="http://www.w3.org/2000/svg">
<path d="M0.668995 3.3765C0.548209 3.12818 0.651601 2.82895 0.899927 2.70817L4.94662 0.739859C5.19495 0.619073 5.49417 0.722465 5.61496 0.970791C5.73574 1.21912 5.63235 1.51834 5.38403 1.63912L1.78696 3.38873L3.53657 6.9858C3.65736 7.23412 3.55396 7.53335 3.30564 7.65413C3.05731 7.77492 2.75809 7.67153 2.6373 7.4232L0.668995 3.3765ZM1.28192 2.68522C42.9709 17.0902 58.7886 42.3549 59.3318 63.7503C59.8733 85.0798 45.1611 102.562 25.9797 100.928L26.0645 99.9319C44.4742 101.5 58.8634 84.7036 58.3321 63.7757C57.8024 42.9136 42.3728 17.9415 0.955334 3.63038L1.28192 2.68522Z" fill="#4B4B4B"/>
</svg>
