<svg width="99" height="206" viewBox="0 0 99 206" fill="none" xmlns="http://www.w3.org/2000/svg">
<g id="Vector" opacity="0.5">
<mask id="path-1-inside-1_6588_253" fill="white">
<path d="M81.1365 144.046C73.7104 150.055 72.9013 156.026 72.8207 157.669C71.6323 158.487 70.5244 159.218 69.5134 159.867C70.9642 157.011 72.3189 154.108 73.5498 151.151C75.5792 146.125 77.2781 140.974 78.6337 135.743C78.7853 135.167 78.9316 134.592 79.067 134.018C80.1082 129.724 81.7656 125.59 84.1207 121.831C84.2807 121.577 84.4357 121.329 84.5849 121.076L84.5799 121.082C105.622 107.498 93.6935 84.1116 93.6935 84.1116C94.433 89.4249 89.5227 93.9108 84.9057 104.062C80.9726 112.705 82.9484 118.393 83.6294 119.895C82.6362 121.696 81.7019 123.272 80.8889 124.586C81.1263 123.001 81.342 121.417 81.5298 119.824C82.1689 114.472 82.3369 109.077 82.1913 103.706L82.124 101.694C82.1106 101.024 82.0807 100.351 82.0187 99.6847L81.7051 95.6687C81.5699 94.3325 81.3811 93.0058 81.2243 91.6713C81.1353 91.0075 81.0729 90.3363 80.9623 89.6743L80.6249 87.6885C80.3991 86.3755 80.372 85.0308 80.5371 83.7085L81.5244 75.9466L81.5252 75.9573C96.0727 55.7151 76.2604 38.3261 76.2604 38.3261C78.93 42.9885 76.0244 48.9319 75.5005 60.0379C75.0564 69.4903 79.0127 74.0515 80.1999 75.203C79.916 77.4576 79.5996 79.4304 79.3044 81.0419L79.0306 79.8132C78.7719 78.4974 78.353 77.221 78.014 75.9223L77.4791 73.9843C77.3044 73.338 77.1243 72.6922 76.9017 72.0604C76.0486 69.5196 75.2541 66.9634 74.2212 64.4905L73.4904 62.6215L73.1251 61.6897L72.712 60.7724L71.0552 57.1143C70.0223 54.9955 68.9523 52.8903 67.8199 50.8223C65.7888 47.1078 64.3969 43.0747 63.8364 38.8903C63.7075 37.9185 63.5527 36.9647 63.3887 36.0332L63.3895 36.0439C70.2238 12.1854 45.6201 2.39068 45.6201 2.39068C49.7238 5.89386 49.0029 12.4489 52.2873 23.0675C55.0803 32.1042 60.3678 35.085 61.884 35.776C62.5851 38.8868 63.0364 41.5075 63.3074 43.3375C63.2646 43.2764 63.2269 43.2096 63.1841 43.1486L62.0871 41.4695C61.723 40.9078 61.3074 40.3825 60.9225 39.8332L58.5681 36.5841L56.0597 33.4545C55.6391 32.9349 55.2288 32.4091 54.7978 31.8957L53.4643 30.3961C52.0902 28.7925 50.6494 27.2423 49.1687 25.7383L49.1741 25.7378C47.0946 23.5189 44.2365 20.2987 41.792 18.0012C40.6434 16.9271 39.621 15.725 38.8313 14.3652C27.3892 -5.37794 3.73925 2.28856 3.73925 2.28856C9.17768 2.20417 13.0528 7.54978 22.6702 13.2969C30.2751 17.8393 35.9668 17.0857 38.021 16.5646C38.2758 16.625 38.586 16.6972 38.8462 16.7572L41.8223 19.3886C45.7232 23.015 49.4839 26.7974 52.8353 30.9178L54.116 32.4376C54.5312 32.9577 54.9256 33.4901 55.3304 34.0163L57.7382 37.1807L58.7672 38.6827C56.2181 36.8656 53.667 35.3062 51.1664 33.979L51.1722 33.9839C36.56 13.8999 13.3772 26.8045 13.3772 26.8045C18.7244 25.815 23.4634 30.438 33.9354 34.492C42.8437 37.9445 48.5205 35.7218 50.0136 34.9765C53.605 36.6955 56.62 38.417 58.3646 39.4603C59.465 40.1196 60.4195 41.005 61.0848 42.0903C61.0853 42.0956 61.0911 42.1005 61.0969 42.1054L62.1349 43.7946C64.9848 48.2549 67.366 52.9883 69.5513 57.7907L71.0877 61.4368L71.4675 62.346L71.8053 63.2746L72.4809 65.1318C73.4364 67.5894 74.1532 70.1248 74.9227 72.64C75.1287 73.2677 75.2864 73.9046 75.4386 74.5419L75.4465 74.5735C73.6357 72.2422 71.7603 70.1306 69.8633 68.2353L69.8691 68.2402C61.8688 44.7921 35.8999 50.4517 35.8999 50.4517C41.3034 51.0462 44.4569 56.8403 53.2552 63.7519C60.7395 69.6292 66.8214 69.14 68.4698 68.8601C70.5065 70.7336 72.1862 72.4206 73.4342 73.7283C75.1674 75.5452 76.3844 77.7944 76.8072 80.2564C76.8081 80.2671 76.8093 80.2831 76.8155 80.2933L77.5693 84.162L77.7578 85.1291L77.898 86.1054L78.1784 88.0581L78.4583 90.0054C78.5515 90.6527 78.5964 91.3092 78.663 91.964C78.7849 93.2691 78.9343 94.5774 79.0291 95.8846L79.233 99.818C79.278 100.474 79.2901 101.128 79.286 101.783L79.301 103.751C79.3017 106.595 79.215 109.435 79.0136 112.268C78.2653 109.961 77.4338 107.773 76.526 105.724L76.5318 105.729C77.5533 80.9758 51.2842 77.1235 51.2842 77.1235C56.1073 79.5827 56.9568 86.1161 62.6566 95.6754C67.5131 103.815 73.3589 105.496 74.9992 105.818C75.7326 107.295 76.371 108.666 76.9101 109.88C78.2376 112.861 78.7239 116.149 78.2591 119.379C78.255 119.395 78.2562 119.411 78.252 119.428C77.5075 124.611 76.5051 129.766 75.0363 134.797C73.5895 139.831 71.8197 144.768 69.7353 149.573C69.1135 150.969 68.4577 152.346 67.7848 153.714C68.0215 150.915 68.0656 148.229 67.9727 145.671L67.9735 145.682C78.1112 122.98 55.1422 109.891 55.1422 109.891C58.7104 113.93 57.0686 120.321 58.8192 131.297C60.3081 140.635 65.1165 144.318 66.5173 145.206C66.5447 145.564 66.5721 145.921 66.5987 146.268C67.0197 152.25 65.6142 158.247 62.4793 163.398C62.4651 163.426 62.4505 163.449 62.4309 163.477C59.7234 167.962 56.6105 172.193 53.3101 176.252C52.4618 177.247 51.6716 178.291 50.7717 179.253L48.1394 182.165C48.0933 182.131 48.1049 182.14 48.0588 182.106C48.8072 180.518 49.4704 178.953 50.0645 177.409L50.0649 177.414C68.3089 160.332 52.3145 139.46 52.3145 139.46C54.0108 144.553 49.9932 149.828 47.2922 160.633C44.9948 169.823 47.9756 175.067 48.9117 176.421C48.4425 177.821 47.9864 179.107 47.552 180.252C46.4948 183.061 44.8253 185.618 42.5817 187.64C42.5717 187.652 42.5612 187.658 42.5458 187.67C38.6947 191.214 34.6545 194.564 30.3404 197.532C27.8301 199.27 25.2585 200.916 22.6361 202.469C23.6828 201.222 24.6533 199.976 25.5314 198.732L25.5264 198.738C43.4972 188.797 35.0823 169.02 35.0823 169.02C35.3863 173.407 31.1153 176.796 26.7612 184.844C23.0549 191.693 24.3448 196.453 24.8116 197.715C24.267 198.558 23.7445 199.334 23.2554 200.048C21.6452 202.386 19.4874 204.321 16.944 205.627C16.9336 205.633 16.9178 205.639 16.9074 205.646C12.2426 208.014 7.4296 210.083 2.50684 211.855L2.45401 211.875L2.43819 211.882C1.10513 212.373 0.191179 213.647 0.265976 215.047C0.395276 217.441 2.75037 218.785 4.79452 217.991C9.94962 215.986 14.9774 213.669 19.8297 211.05C24.6749 208.41 29.3014 205.4 33.7411 202.153C36.415 200.21 38.9856 198.124 41.4618 195.944C44.8299 192.98 48.9951 191.048 53.4375 190.317L53.4321 190.318C77.4795 197.328 87.8744 173.158 87.8744 173.158C84.2439 177.167 77.6184 176.384 66.794 179.506C57.5821 182.162 54.4605 187.345 53.7313 188.829C51.5042 189.294 49.5284 189.632 47.8995 189.884C49.2873 188.476 50.6224 187.019 51.9695 185.577L54.6407 182.463C55.5469 181.442 56.3484 180.333 57.2077 179.267C60.5425 174.948 63.6632 170.463 66.3572 165.733C66.4098 165.638 66.4677 165.542 66.5202 165.447C67.8438 163.132 69.7464 161.201 72.0441 159.813C72.4182 159.585 72.787 159.357 73.1557 159.129L73.1507 159.135C98.0919 156.245 98.0381 130.025 98.0381 130.025C96.2756 135.127 89.8581 136.985 81.1365 144.046Z"/>
</mask>
<path d="M81.1365 144.046C73.7104 150.055 72.9013 156.026 72.8207 157.669C71.6323 158.487 70.5244 159.218 69.5134 159.867C70.9642 157.011 72.3189 154.108 73.5498 151.151C75.5792 146.125 77.2781 140.974 78.6337 135.743C78.7853 135.167 78.9316 134.592 79.067 134.018C80.1082 129.724 81.7656 125.59 84.1207 121.831C84.2807 121.577 84.4357 121.329 84.5849 121.076L84.5799 121.082C105.622 107.498 93.6935 84.1116 93.6935 84.1116C94.433 89.4249 89.5227 93.9108 84.9057 104.062C80.9726 112.705 82.9484 118.393 83.6294 119.895C82.6362 121.696 81.7019 123.272 80.8889 124.586C81.1263 123.001 81.342 121.417 81.5298 119.824C82.1689 114.472 82.3369 109.077 82.1913 103.706L82.124 101.694C82.1106 101.024 82.0807 100.351 82.0187 99.6847L81.7051 95.6687C81.5699 94.3325 81.3811 93.0058 81.2243 91.6713C81.1353 91.0075 81.0729 90.3363 80.9623 89.6743L80.6249 87.6885C80.3991 86.3755 80.372 85.0308 80.5371 83.7085L81.5244 75.9466L81.5252 75.9573C96.0727 55.7151 76.2604 38.3261 76.2604 38.3261C78.93 42.9885 76.0244 48.9319 75.5005 60.0379C75.0564 69.4903 79.0127 74.0515 80.1999 75.203C79.916 77.4576 79.5996 79.4304 79.3044 81.0419L79.0306 79.8132C78.7719 78.4974 78.353 77.221 78.014 75.9223L77.4791 73.9843C77.3044 73.338 77.1243 72.6922 76.9017 72.0604C76.0486 69.5196 75.2541 66.9634 74.2212 64.4905L73.4904 62.6215L73.1251 61.6897L72.712 60.7724L71.0552 57.1143C70.0223 54.9955 68.9523 52.8903 67.8199 50.8223C65.7888 47.1078 64.3969 43.0747 63.8364 38.8903C63.7075 37.9185 63.5527 36.9647 63.3887 36.0332L63.3895 36.0439C70.2238 12.1854 45.6201 2.39068 45.6201 2.39068C49.7238 5.89386 49.0029 12.4489 52.2873 23.0675C55.0803 32.1042 60.3678 35.085 61.884 35.776C62.5851 38.8868 63.0364 41.5075 63.3074 43.3375C63.2646 43.2764 63.2269 43.2096 63.1841 43.1486L62.0871 41.4695C61.723 40.9078 61.3074 40.3825 60.9225 39.8332L58.5681 36.5841L56.0597 33.4545C55.6391 32.9349 55.2288 32.4091 54.7978 31.8957L53.4643 30.3961C52.0902 28.7925 50.6494 27.2423 49.1687 25.7383L49.1741 25.7378C47.0946 23.5189 44.2365 20.2987 41.792 18.0012C40.6434 16.9271 39.621 15.725 38.8313 14.3652C27.3892 -5.37794 3.73925 2.28856 3.73925 2.28856C9.17768 2.20417 13.0528 7.54978 22.6702 13.2969C30.2751 17.8393 35.9668 17.0857 38.021 16.5646C38.2758 16.625 38.586 16.6972 38.8462 16.7572L41.8223 19.3886C45.7232 23.015 49.4839 26.7974 52.8353 30.9178L54.116 32.4376C54.5312 32.9577 54.9256 33.4901 55.3304 34.0163L57.7382 37.1807L58.7672 38.6827C56.2181 36.8656 53.667 35.3062 51.1664 33.979L51.1722 33.9839C36.56 13.8999 13.3772 26.8045 13.3772 26.8045C18.7244 25.815 23.4634 30.438 33.9354 34.492C42.8437 37.9445 48.5205 35.7218 50.0136 34.9765C53.605 36.6955 56.62 38.417 58.3646 39.4603C59.465 40.1196 60.4195 41.005 61.0848 42.0903C61.0853 42.0956 61.0911 42.1005 61.0969 42.1054L62.1349 43.7946C64.9848 48.2549 67.366 52.9883 69.5513 57.7907L71.0877 61.4368L71.4675 62.346L71.8053 63.2746L72.4809 65.1318C73.4364 67.5894 74.1532 70.1248 74.9227 72.64C75.1287 73.2677 75.2864 73.9046 75.4386 74.5419L75.4465 74.5735C73.6357 72.2422 71.7603 70.1306 69.8633 68.2353L69.8691 68.2402C61.8688 44.7921 35.8999 50.4517 35.8999 50.4517C41.3034 51.0462 44.4569 56.8403 53.2552 63.7519C60.7395 69.6292 66.8214 69.14 68.4698 68.8601C70.5065 70.7336 72.1862 72.4206 73.4342 73.7283C75.1674 75.5452 76.3844 77.7944 76.8072 80.2564C76.8081 80.2671 76.8093 80.2831 76.8155 80.2933L77.5693 84.162L77.7578 85.1291L77.898 86.1054L78.1784 88.0581L78.4583 90.0054C78.5515 90.6527 78.5964 91.3092 78.663 91.964C78.7849 93.2691 78.9343 94.5774 79.0291 95.8846L79.233 99.818C79.278 100.474 79.2901 101.128 79.286 101.783L79.301 103.751C79.3017 106.595 79.215 109.435 79.0136 112.268C78.2653 109.961 77.4338 107.773 76.526 105.724L76.5318 105.729C77.5533 80.9758 51.2842 77.1235 51.2842 77.1235C56.1073 79.5827 56.9568 86.1161 62.6566 95.6754C67.5131 103.815 73.3589 105.496 74.9992 105.818C75.7326 107.295 76.371 108.666 76.9101 109.88C78.2376 112.861 78.7239 116.149 78.2591 119.379C78.255 119.395 78.2562 119.411 78.252 119.428C77.5075 124.611 76.5051 129.766 75.0363 134.797C73.5895 139.831 71.8197 144.768 69.7353 149.573C69.1135 150.969 68.4577 152.346 67.7848 153.714C68.0215 150.915 68.0656 148.229 67.9727 145.671L67.9735 145.682C78.1112 122.98 55.1422 109.891 55.1422 109.891C58.7104 113.93 57.0686 120.321 58.8192 131.297C60.3081 140.635 65.1165 144.318 66.5173 145.206C66.5447 145.564 66.5721 145.921 66.5987 146.268C67.0197 152.25 65.6142 158.247 62.4793 163.398C62.4651 163.426 62.4505 163.449 62.4309 163.477C59.7234 167.962 56.6105 172.193 53.3101 176.252C52.4618 177.247 51.6716 178.291 50.7717 179.253L48.1394 182.165C48.0933 182.131 48.1049 182.14 48.0588 182.106C48.8072 180.518 49.4704 178.953 50.0645 177.409L50.0649 177.414C68.3089 160.332 52.3145 139.46 52.3145 139.46C54.0108 144.553 49.9932 149.828 47.2922 160.633C44.9948 169.823 47.9756 175.067 48.9117 176.421C48.4425 177.821 47.9864 179.107 47.552 180.252C46.4948 183.061 44.8253 185.618 42.5817 187.64C42.5717 187.652 42.5612 187.658 42.5458 187.67C38.6947 191.214 34.6545 194.564 30.3404 197.532C27.8301 199.27 25.2585 200.916 22.6361 202.469C23.6828 201.222 24.6533 199.976 25.5314 198.732L25.5264 198.738C43.4972 188.797 35.0823 169.02 35.0823 169.02C35.3863 173.407 31.1153 176.796 26.7612 184.844C23.0549 191.693 24.3448 196.453 24.8116 197.715C24.267 198.558 23.7445 199.334 23.2554 200.048C21.6452 202.386 19.4874 204.321 16.944 205.627C16.9336 205.633 16.9178 205.639 16.9074 205.646C12.2426 208.014 7.4296 210.083 2.50684 211.855L2.45401 211.875L2.43819 211.882C1.10513 212.373 0.191179 213.647 0.265976 215.047C0.395276 217.441 2.75037 218.785 4.79452 217.991C9.94962 215.986 14.9774 213.669 19.8297 211.05C24.6749 208.41 29.3014 205.4 33.7411 202.153C36.415 200.21 38.9856 198.124 41.4618 195.944C44.8299 192.98 48.9951 191.048 53.4375 190.317L53.4321 190.318C77.4795 197.328 87.8744 173.158 87.8744 173.158C84.2439 177.167 77.6184 176.384 66.794 179.506C57.5821 182.162 54.4605 187.345 53.7313 188.829C51.5042 189.294 49.5284 189.632 47.8995 189.884C49.2873 188.476 50.6224 187.019 51.9695 185.577L54.6407 182.463C55.5469 181.442 56.3484 180.333 57.2077 179.267C60.5425 174.948 63.6632 170.463 66.3572 165.733C66.4098 165.638 66.4677 165.542 66.5202 165.447C67.8438 163.132 69.7464 161.201 72.0441 159.813C72.4182 159.585 72.787 159.357 73.1557 159.129L73.1507 159.135C98.0919 156.245 98.0381 130.025 98.0381 130.025C96.2756 135.127 89.8581 136.985 81.1365 144.046Z" stroke="black" stroke-width="2" mask="url(#path-1-inside-1_6588_253)"/>
</g>
</svg>
