<svg width="29" height="29" viewBox="0 0 29 29" fill="none" xmlns="http://www.w3.org/2000/svg">
<path fill-rule="evenodd" clip-rule="evenodd" d="M22.7878 3.83376L22.0483 3.09425C22.4081 2.73831 22.6781 2.48132 22.9152 2.30105C23.2067 2.07858 23.3785 2.02642 23.5273 2.02642C23.6754 2.02642 23.8472 2.07858 24.1387 2.30105C24.444 2.53349 24.8046 2.8925 25.3393 3.42718L26.4485 4.53644C26.984 5.07113 27.3422 5.43168 27.5747 5.73699C27.7971 6.0285 27.8493 6.20034 27.8493 6.34839C27.8493 6.49721 27.7971 6.66905 27.5747 6.96055C27.3422 7.2651 26.9832 7.62642 26.4485 8.1611L19.7914 14.8174C19.2575 15.3529 18.8962 15.7111 18.5917 15.9436C18.3002 16.166 18.1283 16.2182 17.9795 16.2182C17.8314 16.2182 17.6596 16.166 17.3681 15.9436C17.0628 15.7111 16.7022 15.3521 16.1676 14.8174L15.0583 13.7082C14.5228 13.1735 14.1646 12.8129 13.9322 12.5076C13.7097 12.2161 13.6575 12.0443 13.6575 11.8962C13.6575 11.7474 13.7097 11.5756 13.9322 11.2841C14.1124 11.047 14.3694 10.777 14.7254 10.4172L15.4649 11.156C15.5175 11.2125 15.5811 11.2578 15.6516 11.2893C15.7222 11.3207 15.7984 11.3376 15.8756 11.339C15.9529 11.3403 16.0296 11.3261 16.1013 11.2972C16.1729 11.2683 16.238 11.2252 16.2926 11.1706C16.3473 11.1159 16.3903 11.0508 16.4193 10.9792C16.4482 10.9076 16.4624 10.8308 16.4611 10.7536C16.4597 10.6763 16.4428 10.6001 16.4113 10.5296C16.3799 10.459 16.3345 10.3955 16.278 10.3428L15.5393 9.60329L16.3524 8.79014L17.6343 10.0712C17.687 10.1278 17.7505 10.1731 17.8211 10.2046C17.8916 10.236 17.9678 10.2529 18.0451 10.2543C18.1223 10.2556 18.1991 10.2414 18.2707 10.2125C18.3423 10.1835 18.4074 10.1405 18.4621 10.0858C18.5167 10.0312 18.5598 9.96613 18.5887 9.89449C18.6176 9.82285 18.6318 9.74612 18.6305 9.66887C18.6291 9.59161 18.6122 9.51543 18.5808 9.44485C18.5493 9.37428 18.504 9.31076 18.4474 9.25809L17.1664 7.97546L17.9795 7.16231L18.7198 7.90181C18.7729 7.95674 18.8364 8.00054 18.9066 8.03066C18.9768 8.06078 19.0523 8.07661 19.1287 8.07724C19.2051 8.07787 19.2808 8.06328 19.3515 8.03432C19.4222 8.00535 19.4864 7.9626 19.5404 7.90856C19.5944 7.85451 19.6371 7.79025 19.666 7.71953C19.6949 7.64881 19.7094 7.57304 19.7087 7.49665C19.708 7.42026 19.6921 7.34477 19.6619 7.27459C19.6318 7.20441 19.5879 7.14094 19.5329 7.0879L18.7934 6.34839L19.6073 5.53524L20.8892 6.81634C20.9983 6.91796 21.1425 6.97329 21.2916 6.97066C21.4406 6.96803 21.5828 6.90765 21.6883 6.80224C21.7937 6.69682 21.854 6.55461 21.8567 6.40556C21.8593 6.25651 21.804 6.11225 21.7024 6.00318L20.4213 4.72055L21.2344 3.9074L21.9739 4.64691C22.0824 4.75177 22.2277 4.80983 22.3785 4.80859C22.5294 4.80735 22.6737 4.74691 22.7804 4.64028C22.8872 4.53366 22.9477 4.38939 22.9491 4.23853C22.9505 4.08768 22.8926 3.94232 22.7878 3.83376ZM23.5273 0.875732C23.0256 0.875732 22.6114 1.08516 22.2171 1.38587C21.8435 1.67124 21.4285 2.08625 20.9299 2.58488L14.216 9.29875C13.7174 9.79738 13.3024 10.2124 13.017 10.586C12.7163 10.9803 12.5068 11.3945 12.5068 11.8962C12.5068 12.3972 12.7163 12.8122 13.017 13.2057C13.3024 13.5793 13.7174 13.9951 14.216 14.4937L15.382 15.6597L15.3928 15.6705C15.8874 16.1643 16.2991 16.5754 16.67 16.8587C17.0636 17.1595 17.4786 17.3689 17.9795 17.3689C18.4812 17.3689 18.8954 17.1595 19.2897 16.8587C19.6633 16.5734 20.0783 16.1584 20.577 15.6597L20.577 15.6597L27.2908 8.94587C27.7895 8.44724 28.2045 8.03223 28.4899 7.65864C28.7906 7.26434 29 6.85009 29 6.34839C29 5.84746 28.7906 5.43244 28.4899 5.03891C28.2045 4.66532 27.7895 4.24954 27.2908 3.75091L26.1248 2.58488L26.1141 2.57417C25.6195 2.08031 25.2077 1.66919 24.8368 1.38587C24.4433 1.08516 24.0283 0.875732 23.5273 0.875732ZM6.26592 8.14017L6.67275 7.73334L7.07958 8.14017L10.6125 11.6731L19.818 20.8786L19.9865 21.0471V21.2854V27.4555V28.0836L19.3609 28.0287L13.6883 27.5311L13.4798 27.5128L13.3317 27.3648L4.83457 18.8676L4.4272 20.4156L8.37332 24.3617L7.55966 25.1754L3.37988 20.9956L3.14621 20.7619L3.2303 20.4423L3.8926 17.9256L0.593351 14.6264L0.186523 14.2196L0.593351 13.8127L6.26592 8.14017ZM9.392 12.0799L4.53309 16.9388L1.81384 14.2196L6.67275 9.36065L9.392 12.0799ZM5.34675 17.7525L10.2057 12.8936L18.5975 21.2854L13.7386 26.1443L5.34675 17.7525ZM18.8358 26.8275V22.6744L15.0176 26.4926L18.8358 26.8275Z" fill="black"/>
</svg>
