<svg width="36" height="26" viewBox="0 0 36 26" fill="none" xmlns="http://www.w3.org/2000/svg">
<path id="Vector" d="M18 25.5C16.95 25.5 16.0625 25.1375 15.3375 24.4125C14.6125 23.6875 14.25 22.8 14.25 21.75C14.25 20.7 14.6125 19.8125 15.3375 19.0875C16.0625 18.3625 16.95 18 18 18C19.05 18 19.9375 18.3625 20.6625 19.0875C21.3875 19.8125 21.75 20.7 21.75 21.75C21.75 22.8 21.3875 23.6875 20.6625 24.4125C19.9375 25.1375 19.05 25.5 18 25.5ZM9.525 17.025L6.375 13.8C7.85 12.325 9.5815 11.1565 11.5695 10.2945C13.5575 9.4325 15.701 9.001 18 9C20.3 9 22.444 9.4375 24.432 10.3125C26.42 11.1875 28.151 12.375 29.625 13.875L26.475 17.025C25.375 15.925 24.1 15.0625 22.65 14.4375C21.2 13.8125 19.65 13.5 18 13.5C16.35 13.5 14.8 13.8125 13.35 14.4375C11.9 15.0625 10.625 15.925 9.525 17.025ZM3.15 10.65L0 7.5C2.3 5.15 4.9875 3.3125 8.0625 1.9875C11.1375 0.6625 14.45 0 18 0C21.55 0 24.8625 0.6625 27.9375 1.9875C31.0125 3.3125 33.7 5.15 36 7.5L32.85 10.65C30.925 8.725 28.694 7.219 26.157 6.132C23.62 5.045 20.901 4.501 18 4.5C15.1 4.5 12.3815 5.044 9.8445 6.132C7.3075 7.22 5.076 8.726 3.15 10.65Z" fill="black"/>
</svg>
