<svg xmlns="http://www.w3.org/2000/svg" width="956" height="455" viewBox="0 0 956 455" fill="none">
  <path d="M606.119 385.809C634.81 355.464 661.11 353.947 668.298 354.149C672.263 349.245 675.822 344.662 678.988 340.474C666.051 345.836 652.946 350.763 639.644 355.133C617.052 362.287 594.03 367.958 570.773 372.106C568.214 372.573 565.659 373.017 563.112 373.414C544.045 376.507 525.471 382.339 508.295 391.339C507.133 391.951 505.999 392.543 504.845 393.108L504.872 393.088C438.584 480.228 340.671 420.368 340.671 420.368C363.58 425.38 384.784 405.488 430.581 388.781C469.575 374.547 493.702 385.073 500.022 388.546C508.204 384.823 515.387 381.282 521.389 378.181C514.399 378.681 507.423 379.088 500.419 379.371C476.877 380.356 453.305 379.272 429.946 376.83L421.198 375.859C418.283 375.576 415.357 375.219 412.475 374.724L395.077 372.006C389.299 370.967 383.58 369.698 377.816 368.565C374.953 367.954 372.048 367.456 369.2 366.751L360.659 364.612C355.012 363.186 349.16 362.616 343.341 362.89L309.179 364.581L309.225 364.588C216.103 421.182 146.981 328.977 146.981 328.977C166.403 342.182 193.286 331.518 241.868 332.972C283.216 334.217 301.764 352.996 306.383 358.558C316.306 358.079 325.01 357.364 332.134 356.62L326.87 355.013C321.223 353.443 315.801 351.188 310.254 349.273L301.987 346.289C299.229 345.31 296.475 344.308 293.796 343.125C283.009 338.552 272.136 334.229 261.705 328.895L253.805 325.08L249.867 323.175L246.007 321.066L230.621 312.613C221.734 307.398 212.919 302.026 204.286 296.395C188.78 286.292 171.67 278.868 153.621 275.017C149.428 274.128 145.324 273.132 141.319 272.104L141.365 272.111C35.0775 293.869 0.667123 183.337 0.667123 183.337C14.5547 202.402 43.3674 201.466 88.5436 219.355C126.99 234.57 138.203 258.618 140.704 265.459C154.027 269.562 165.297 272.411 173.182 274.208C172.93 274.001 172.652 273.814 172.4 273.607L165.451 268.26C163.126 266.485 160.976 264.496 158.711 262.634L145.342 251.279L132.546 239.293C130.423 237.284 128.269 235.319 126.177 233.268L120.089 226.951C113.562 220.422 107.291 213.621 101.234 206.661L101.23 206.685C92.2586 196.874 79.1852 183.334 69.994 171.906C65.6992 166.538 60.8041 161.678 55.1428 157.778C-27.0571 101.263 14.3166 0.764491 14.3166 0.764491C12.1185 24.4396 34.1133 43.1285 55.9255 86.9803C73.1645 121.655 67.9644 146.208 65.0017 154.986C65.1794 156.118 65.3897 157.494 65.5637 158.648L76.0309 172.505C90.524 190.728 105.744 208.391 122.575 224.385L128.768 230.479C130.895 232.463 133.083 234.362 135.24 236.303L148.222 247.862L154.422 252.853C147.36 241.131 141.422 229.487 136.479 218.141L136.498 218.168C53.8794 147.722 117.926 51.0223 117.926 51.0223C111.814 73.9953 130.369 96.2059 144.514 143.213C156.564 183.201 144.965 207.196 141.214 213.453C147.498 229.685 153.986 243.405 157.947 251.36C160.45 256.378 163.988 260.836 168.494 264.101C168.517 264.105 168.537 264.132 168.556 264.159L175.569 269.251C194.05 283.174 213.879 295.145 234.075 306.286L249.45 314.209L253.285 316.171L257.218 317.955L265.086 321.525C275.475 326.517 286.285 330.494 296.988 334.695C299.655 335.804 302.378 336.705 305.104 337.583L305.239 337.628C295.688 328.952 287.115 320.067 279.493 311.161L279.513 311.188C180.006 268.427 213.413 157.146 213.413 157.146C214.186 180.897 238.378 196.592 265.541 237.266C288.639 271.864 284.46 298.207 282.685 305.298C290.166 314.805 296.953 322.694 302.233 328.574C309.569 336.739 318.962 342.8 329.55 345.472C329.597 345.479 329.666 345.49 329.709 345.52L346.316 350.108L350.468 351.255L354.677 352.194L363.093 354.073L371.486 355.949C374.276 356.573 377.122 356.99 379.954 357.5C385.601 358.471 391.253 359.562 396.919 360.415L413.994 362.628C416.84 363.045 419.685 363.318 422.541 363.52L431.114 364.248C443.51 365.208 455.917 365.786 468.333 365.861C458.527 361.824 449.269 357.463 440.648 352.817L440.667 352.844C332.435 348.966 324.485 233.175 324.485 233.175C333.581 255.024 361.771 260.925 401.517 288.985C435.358 312.891 440.718 338.936 441.568 346.194C447.759 349.887 453.523 353.131 458.629 355.889C471.175 362.679 485.346 365.905 499.577 364.966C499.65 364.953 499.72 364.964 499.793 364.951C522.634 363.451 545.44 360.817 567.861 356.108C590.291 351.497 612.403 345.444 634.049 337.976C640.342 335.736 646.565 333.341 652.752 330.869C640.476 330.959 628.752 330.247 617.636 328.981L617.682 328.988C515.324 365.534 466.004 261.018 466.004 261.018C482.408 277.929 510.817 272.924 558.064 284.248C598.262 293.88 612.7 316.077 616.099 322.481C617.647 322.721 619.195 322.961 620.697 323.193C646.629 327.041 673.241 322.934 696.747 311.004C696.874 310.951 696.978 310.895 697.108 310.819C717.564 300.528 737.056 288.384 755.857 275.366C760.48 272.003 765.297 268.91 769.791 265.312L783.367 254.819C783.234 254.606 783.273 254.66 783.141 254.448C775.967 257.175 768.921 259.539 761.992 261.609L762.015 261.612C681.42 335.38 595.835 258.644 595.835 258.644C617.462 267.752 641.802 252.016 689.805 243.88C730.635 236.96 752.489 251.716 758.074 256.252C764.333 254.678 770.093 253.123 775.229 251.615C787.828 247.952 799.534 241.536 809.104 232.438C809.157 232.398 809.188 232.355 809.245 232.292C825.988 216.699 841.947 200.217 856.338 182.413C864.756 172.057 872.795 161.402 880.447 150.496C874.66 154.638 868.903 158.448 863.184 161.857L863.211 161.837C813.838 236.818 730.47 193.485 730.47 193.485C749.488 196.287 765.698 178.812 802.241 162.543C833.339 148.694 853.653 155.918 858.995 158.377C862.85 156.287 866.409 154.271 869.688 152.38C880.418 146.149 889.579 137.395 896.125 126.749C896.155 126.705 896.19 126.639 896.22 126.596C908.113 107.061 918.75 86.78 928.129 65.9203L928.235 65.6969L928.269 65.6301C930.859 59.9853 936.719 56.4305 942.795 57.2277C953.185 58.5969 958.251 69.3139 954.102 77.9561C943.63 99.7501 931.841 120.884 918.792 141.151C905.654 161.381 890.98 180.533 875.334 198.79C865.963 209.791 856.008 220.293 845.672 230.352C831.619 244.034 821.796 261.538 817.118 280.654L817.121 280.631C839.584 387.801 730.737 424.973 730.737 424.973C749.435 410.499 748.253 381.358 765.5 335.23C780.179 295.974 803.816 284.112 810.533 281.434C813.309 271.883 815.447 263.386 817.091 256.371C810.489 261.946 803.688 267.274 796.949 272.66L782.481 283.255C777.726 286.861 772.621 289.981 767.687 293.368C747.74 306.449 727.143 318.542 705.62 328.692C705.186 328.888 704.749 329.109 704.316 329.305C693.781 334.296 684.724 341.938 677.9 351.485C676.781 353.039 675.665 354.57 674.549 356.101L674.576 356.081C653.584 463.815 539.324 454.756 539.324 454.756C562.155 448.791 572.409 421.445 606.119 385.809Z" fill="black" fill-opacity="0.04"/>
</svg>