<svg xmlns="http://www.w3.org/2000/svg" width="20" height="21" viewBox="0 0 20 21" fill="none">
  <path d="M19.0002 19.2534L14.6572 14.9104M14.6572 14.9104C15.4001 14.1675 15.9894 13.2856 16.3914 12.3149C16.7935 11.3443 17.0004 10.304 17.0004 9.25338C17.0004 8.20278 16.7935 7.16246 16.3914 6.19183C15.9894 5.2212 15.4001 4.33927 14.6572 3.59638C13.9143 2.85349 13.0324 2.2642 12.0618 1.86215C11.0911 1.46011 10.0508 1.25317 9.00021 1.25317C7.9496 1.25317 6.90929 1.46011 5.93866 1.86215C4.96803 2.2642 4.08609 2.85349 3.34321 3.59638C1.84288 5.09671 1 7.13159 1 9.25338C1 11.3752 1.84288 13.41 3.34321 14.9104C4.84354 16.4107 6.87842 17.2536 9.00021 17.2536C11.122 17.2536 13.1569 16.4107 14.6572 14.9104Z" stroke="black" stroke-width="2" stroke-linecap="round" stroke-linejoin="round"/>
</svg>