<svg xmlns="http://www.w3.org/2000/svg" width="44" height="44" viewBox="0 0 44 44" fill="none">
  <rect width="44" height="44" rx="22" fill="white"/>
  <path d="M27 29H26V27.5C25.9992 26.8372 25.7356 26.2018 25.2669 25.7331C24.7982 25.2644 24.1628 25.0008 23.5 25H20.5C19.8372 25.0008 19.2018 25.2644 18.7331 25.7331C18.2644 26.2018 18.0008 26.8372 18 27.5V29H17V27.5C17.0011 26.5721 17.3701 25.6824 18.0263 25.0263C18.6824 24.3701 19.5721 24.0011 20.5 24H23.5C24.4279 24.0011 25.3176 24.3701 25.9737 25.0263C26.6299 25.6824 26.9989 26.5721 27 27.5V29ZM16.5 17C16.3674 17 16.2402 17.0527 16.1464 17.1464C16.0527 17.2402 16 17.3674 16 17.5V22H17V17.5C17 17.3674 16.9473 17.2402 16.8536 17.1464C16.7598 17.0527 16.6326 17 16.5 17Z" fill="black"/>
  <path d="M16 15V16H18.5V19.5C18.5 20.4283 18.8687 21.3185 19.5251 21.9749C20.1815 22.6313 21.0717 23 22 23C22.9283 23 23.8185 22.6313 24.4749 21.9749C25.1313 21.3185 25.5 20.4283 25.5 19.5V16H28V15H16ZM19.5 16H24.5V17.5H19.5V16ZM22 22C21.337 22 20.7011 21.7366 20.2322 21.2678C19.7634 20.7989 19.5 20.163 19.5 19.5V18.5H24.5V19.5C24.5 20.163 24.2366 20.7989 23.7678 21.2678C23.2989 21.7366 22.663 22 22 22Z" fill="black"/>
</svg>