<svg xmlns="http://www.w3.org/2000/svg" width="48" height="48" viewBox="0 0 48 48" fill="none">
  <path fill-rule="evenodd" clip-rule="evenodd" d="M17.0028 40.9409C26.3789 44.7997 37.1079 40.3271 40.9667 30.951C44.8256 21.5749 40.353 10.8459 30.9769 6.98706C21.6008 3.12821 10.8718 7.60082 7.01294 16.9769C3.1541 26.353 7.62671 37.082 17.0028 40.9409ZM24.3055 31.0512C23.9435 31.0568 23.6454 30.7679 23.6398 30.4058L23.5613 25.3595L18.5165 25.4379C18.1544 25.4435 17.8563 25.1546 17.8507 24.7925C17.8451 24.4305 18.134 24.1324 18.4961 24.1268L23.5409 24.0483L23.4625 19.0027C23.4568 18.6406 23.7458 18.3425 24.1079 18.3369C24.4699 18.3313 24.768 18.6202 24.7736 18.9823L24.8521 24.0279L29.8992 23.9495C30.2613 23.9438 30.5594 24.2328 30.565 24.5949C30.5706 24.9569 30.2817 25.255 29.9196 25.2606L24.8725 25.3391L24.9509 30.3854C24.9566 30.7475 24.6676 31.0456 24.3055 31.0512Z" fill="#81C9FF"/>
</svg>