<svg xmlns="http://www.w3.org/2000/svg" width="144" height="141" viewBox="0 0 144 141" fill="none">
  <path d="M0.468119 4.47177C0.289121 4.26151 0.314463 3.94594 0.524736 3.76694L3.95124 0.849909C4.16151 0.670909 4.47707 0.696248 4.65608 0.90652C4.83508 1.11679 4.80974 1.43235 4.59947 1.61135L1.55369 4.20427L4.1466 7.25006C4.3256 7.46032 4.30026 7.77589 4.08999 7.95489C3.87973 8.1339 3.56416 8.10855 3.38516 7.89828L0.468119 4.47177ZM0.888874 3.64926C86.7544 10.5455 128.848 50.5781 140.265 90.5916C151.663 130.542 132.41 170.489 95.6455 176.708L95.4787 175.722C131.479 169.632 150.591 130.43 139.303 90.8659C128.033 51.3655 86.388 11.5193 0.808823 4.64606L0.888874 3.64926Z" fill="#4B4B4B"/>
</svg>