<svg xmlns="http://www.w3.org/2000/svg" width="12" height="16" viewBox="0 0 12 16" fill="none">
  <path d="M6 12.5C5.60703 12.5001 5.22635 12.363 4.92362 12.1125C4.6209 11.8619 4.41511 11.5136 4.34175 11.1275C3.23779 10.7875 2.26575 10.1148 1.5585 9.20151C1.024 8.51321 0.656728 7.71013 0.485665 6.85562C0.314601 6.00111 0.344422 5.11854 0.572775 4.27753C0.801129 3.43651 1.22177 2.66006 1.80151 2.00941C2.38126 1.35876 3.10425 0.85171 3.91347 0.52826C4.72269 0.204809 5.59599 0.0738031 6.46449 0.145575C7.333 0.217346 8.17295 0.489933 8.91809 0.941833C9.66323 1.39373 10.2932 2.01259 10.7583 2.74958C11.2233 3.48657 11.5108 4.32154 11.598 5.18863C11.6284 5.49801 11.373 5.75001 11.0625 5.75001C10.752 5.75001 10.5034 5.49688 10.4663 5.18863C10.3658 4.39307 10.0547 3.63878 9.56496 3.00382C9.07523 2.36886 8.42474 1.8763 7.68077 1.57709C6.93681 1.27788 6.12641 1.1829 5.33343 1.30198C4.54044 1.42105 3.79368 1.74986 3.17041 2.25438C2.54713 2.75889 2.06999 3.42079 1.78836 4.17157C1.50672 4.92236 1.43081 5.73477 1.5685 6.52474C1.70618 7.31471 2.05245 8.05353 2.57147 8.66477C3.0905 9.27602 3.76342 9.73747 4.52063 10.0014C4.66378 9.74022 4.8735 9.5216 5.12849 9.36772C5.38347 9.21383 5.67464 9.13018 5.97243 9.12524C6.27021 9.1203 6.56399 9.19426 6.82394 9.3396C7.08389 9.48495 7.30074 9.6965 7.45247 9.95277C7.6042 10.209 7.68541 10.5009 7.68784 10.7987C7.69028 11.0965 7.61385 11.3897 7.46633 11.6484C7.3188 11.9071 7.10544 12.1222 6.8479 12.2718C6.59036 12.4213 6.29782 12.5001 6 12.5ZM1.5 10.8125V10.7821C1.19254 10.5065 0.910873 10.2033 0.658502 9.87651C0.473249 10.1535 0.374565 10.4793 0.375001 10.8125V11.375C0.375001 13.5924 2.4675 15.875 6 15.875C9.5325 15.875 11.625 13.5924 11.625 11.375V10.8125C11.625 10.365 11.4472 9.93573 11.1307 9.61926C10.8143 9.3028 10.3851 9.12501 9.9375 9.12501H8.25C8.49638 9.45126 8.67188 9.83376 8.75625 10.25H9.9375C10.0867 10.25 10.2298 10.3093 10.3352 10.4148C10.4407 10.5202 10.5 10.6633 10.5 10.8125V11.375C10.5 12.9928 8.889 14.75 6 14.75C3.111 14.75 1.5 12.9928 1.5 11.375V10.8125ZM6 8.00001C5.35613 7.99907 4.7316 8.21996 4.2315 8.62551C3.73957 8.32425 3.33341 7.90151 3.05206 7.39793C2.77072 6.89434 2.62365 6.32685 2.625 5.75001C2.62517 5.16161 2.77916 4.58348 3.0717 4.07295C3.36425 3.56243 3.78518 3.13726 4.29274 2.83962C4.8003 2.54198 5.37686 2.3822 5.96523 2.37614C6.5536 2.37007 7.13333 2.51794 7.64692 2.80506C8.16051 3.09219 8.59011 3.50859 8.89311 4.01298C9.19611 4.51736 9.36198 5.0922 9.37427 5.68047C9.38655 6.26874 9.24483 6.85001 8.96316 7.3666C8.68149 7.8832 8.26965 8.31719 7.7685 8.62551C7.26841 8.21996 6.64387 7.99907 6 8.00001ZM3.75 5.75001C3.75 6.34674 3.98705 6.91904 4.40901 7.341C4.83097 7.76295 5.40326 8.00001 6 8.00001C6.59674 8.00001 7.16903 7.76295 7.59099 7.341C8.01295 6.91904 8.25 6.34674 8.25 5.75001C8.25 5.15327 8.01295 4.58097 7.59099 4.15902C7.16903 3.73706 6.59674 3.50001 6 3.50001C5.40326 3.50001 4.83097 3.73706 4.40901 4.15902C3.98705 4.58097 3.75 5.15327 3.75 5.75001Z" fill="black"/>
</svg>