<svg xmlns="http://www.w3.org/2000/svg" width="30" height="31" viewBox="0 0 30 31" fill="none">
  <path d="M15 0.218994C11.0227 0.218994 7.20469 1.80032 4.39453 4.61235C1.58148 7.4255 0.000779226 11.2407 0 15.219C0 19.1956 1.58203 23.0136 4.39453 25.8256C7.20469 28.6377 11.0227 30.219 15 30.219C18.9773 30.219 22.7953 28.6377 25.6055 25.8256C28.418 23.0136 30 19.1956 30 15.219C30 11.2424 28.418 7.42438 25.6055 4.61235C22.7953 1.80032 18.9773 0.218994 15 0.218994Z" fill="#F6FBFF"/>
  <path d="M19.9999 7.21899H18.5537V19.5883H19.9999V7.21899Z" fill="#1976D2"/>
  <path d="M17.8466 12.9111H16.4004V23.2804H17.8466V12.9111Z" fill="#1E88E5"/>
  <path d="M15.7225 12.1418H14.2764V19.588H15.7225V12.1418Z" fill="#2196F3"/>
  <path d="M13.5692 10.0496H12.123V15.7419H13.5692V10.0496Z" fill="#42A5F5"/>
  <path d="M11.4462 13.8035H10V17.6804H11.4462V13.8035Z" fill="#64B5F6"/>
</svg>