<svg width="24" height="15" viewBox="0 0 24 15" fill="none" xmlns="http://www.w3.org/2000/svg">
<path fill-rule="evenodd" clip-rule="evenodd" d="M20.252 6.93852C20.1153 6.86102 19.9818 6.78212 19.8528 6.70322C18.557 5.91111 17.4319 4.87633 16.4938 3.69647C16.1333 3.24454 15.7658 2.73828 15.4861 2.2458C15.2161 1.77025 14.9872 1.23903 14.9872 0.755859L15.9384 0.755859C15.9384 0.978463 16.0582 1.32708 16.3132 1.77608C16.5585 2.20805 16.8924 2.67093 17.2376 3.10352C18.1143 4.20633 19.1583 5.16384 20.3488 5.89163C20.8016 6.1684 21.2931 6.43373 21.7738 6.62871C22.2598 6.82582 22.7046 6.93852 23.0723 6.93852L23.0723 7.8897C22.7046 7.8897 22.2595 8.00241 21.7735 8.19952C21.2927 8.39449 20.8012 8.6598 20.349 8.93647C19.1583 9.66529 18.1147 10.6223 17.2379 11.7234C16.8928 12.1564 16.5587 12.6202 16.3133 13.0526C16.0582 13.5022 15.9384 13.8508 15.9384 14.0724L14.9872 14.0724C14.9872 13.5901 15.2161 13.0588 15.486 12.5832C15.7657 12.0904 16.1332 11.5834 16.4938 11.1309C17.8041 9.68699 18.6266 8.9769 20.2518 7.8897L20.252 6.93852Z" fill="black"/>
<path d="M0.243982 6.93852L0.243982 7.8897L20.2518 7.8897L20.252 6.93852L0.243982 6.93852Z" fill="black"/>
</svg>
