<svg xmlns="http://www.w3.org/2000/svg" width="48" height="49" viewBox="0 0 48 49" fill="none">
<path fill-rule="evenodd" clip-rule="evenodd" d="M13.8206 2.31132H28.5625C29.5803 2.31132 30.4053 3.12228 30.4053 4.12264V6.83962V8.65094V9.5566C30.4053 10.557 29.5803 11.3679 28.5625 11.3679H13.8206C12.8029 11.3679 11.9778 10.557 11.9778 9.5566L11.9778 8.65094V6.83962L11.9778 4.12264C11.9778 3.12228 12.8029 2.31132 13.8206 2.31132ZM10.1351 6.97809V4.12264C10.1351 2.12191 11.7851 0.5 13.8206 0.5H28.5625C30.598 0.5 32.248 2.12191 32.248 4.12264V6.97809C37.6702 7.80106 41.8918 12.1984 42.3432 17.6442C43.8242 17.503 45.3555 17.9899 46.4898 19.1049C48.5034 21.0842 48.5034 24.2932 46.4898 26.2725L42.3831 30.3091V36.7264C42.3831 43.2288 37.0205 48.5 30.4053 48.5H11.9778C5.36266 48.5 0 43.2288 0 36.7264V18.6132C0 12.7268 4.39478 7.84935 10.1351 6.97809ZM32.248 8.81521C36.8183 9.64038 40.3159 13.479 40.53 18.1579C40.0495 18.395 39.5989 18.7107 39.1979 19.1049L27.4639 30.6387C25.2176 32.8467 23.9557 35.8414 23.9557 38.9639V40.3491V41.2547H24.8771H26.2862C29.463 41.2547 32.5096 40.0143 34.7559 37.8063L40.5404 32.1204V36.7264C40.5404 42.2284 36.0028 46.6887 30.4053 46.6887H11.9778C6.38038 46.6887 1.84275 42.2284 1.84275 36.7264V18.6132C1.84275 13.7298 5.41745 9.66699 10.1351 8.81521V9.5566C10.1351 11.5573 11.7851 13.1792 13.8206 13.1792H28.5625C30.598 13.1792 32.248 11.5573 32.248 9.5566V8.81521ZM42.3831 19.4632C43.3773 19.3268 44.4223 19.6343 45.1868 20.3857C46.4808 21.6576 46.4808 23.7198 45.1868 24.9917L42.3831 27.7475L40.5404 29.5588L33.4528 36.5255C31.5521 38.3938 28.9742 39.4434 26.2862 39.4434H25.7984V38.9639C25.7984 36.3217 26.8662 33.7878 28.7669 31.9195L40.5009 20.3857L40.5404 20.3475L40.7754 20.1361C41.2198 19.7365 41.7866 19.4992 42.3831 19.4632V19.4632ZM9.21373 20.4245C9.21373 19.9243 9.62624 19.5189 10.1351 19.5189H31.3267C31.8355 19.5189 32.248 19.9243 32.248 20.4245C32.248 20.9247 31.8355 21.3302 31.3267 21.3302H10.1351C9.62624 21.3302 9.21373 20.9247 9.21373 20.4245ZM9.21373 25.8585C9.21373 25.3583 9.62624 24.9528 10.1351 24.9528H23.9557C24.4645 24.9528 24.8771 25.3583 24.8771 25.8585C24.8771 26.3587 24.4645 26.7642 23.9557 26.7642H10.1351C9.62624 26.7642 9.21373 26.3587 9.21373 25.8585ZM9.21373 31.2925C9.21373 30.7923 9.62624 30.3868 10.1351 30.3868H17.5061C18.0149 30.3868 18.4275 30.7923 18.4275 31.2925C18.4275 31.7926 18.0149 32.1981 17.5061 32.1981H10.1351C9.62624 32.1981 9.21373 31.7926 9.21373 31.2925Z" fill="#42A5F5"/>
</svg>