<svg width="105" height="47" viewBox="0 0 105 47" fill="none" xmlns="http://www.w3.org/2000/svg">
<path d="M25.4466 46.6081C20.843 46.6081 16.6628 45.6027 12.9059 43.592C9.14903 41.5812 6.2123 38.8297 4.09574 35.3374C1.97918 31.7921 0.920898 27.8236 0.920898 23.4317C0.920898 19.0399 1.97918 15.0978 4.09574 11.6054C6.2123 8.06019 9.14903 5.28221 12.9059 3.27147C16.6628 1.26074 20.843 0.255371 25.4466 0.255371C25.9008 0.255371 81.1165 0.264937 81.5616 0.284067C85.68 0.461067 89.4105 1.45687 92.7532 3.27147C96.5101 5.28221 99.4469 8.06019 101.563 11.6054C103.68 15.0978 104.738 19.0399 104.738 23.4317C104.738 27.8236 103.68 31.7921 101.563 35.3374C99.4469 38.8297 96.5101 41.5812 92.7532 43.592C89.4105 45.4066 85.68 46.4024 81.5616 46.5794C81.1165 46.5985 25.9008 46.6081 25.4466 46.6081ZM25.4466 39.9409C25.9028 39.9409 81.1185 39.9262 81.5616 39.8967C84.2021 39.7209 86.6098 39.0213 88.7847 37.7979C91.3245 36.3692 93.3088 34.4114 94.7375 31.9244C96.2191 29.4375 96.9599 26.6066 96.9599 23.4317C96.9599 20.2569 96.2191 17.426 94.7375 14.939C93.3088 12.4521 91.3245 10.4942 88.7847 9.06556C86.6098 7.84218 84.2021 7.14259 81.5616 6.96679C81.1185 6.93729 25.9028 6.92254 25.4466 6.92254C22.2717 6.92254 19.4144 7.63688 16.8745 9.06556C14.3346 10.4942 12.3239 12.4521 10.8423 14.939C9.4136 17.426 8.69926 20.2569 8.69926 23.4317C8.69926 26.6066 9.4136 29.4375 10.8423 31.9244C12.3239 34.4114 14.3346 36.3692 16.8745 37.7979C19.4144 39.2266 22.2717 39.9409 25.4466 39.9409Z" fill="#232323"/>
</svg>
