<svg width="13" height="13" viewBox="0 0 13 13" fill="none" xmlns="http://www.w3.org/2000/svg">
<g clip-path="url(#clip0_6175_887)">
<path fill-rule="evenodd" clip-rule="evenodd" d="M5.79611 6.76045C5.79912 7.95979 5.80273 9.99752 5.80574 11.5813C7.97416 11.8745 10.1426 12.1768 12.3074 12.5C12.3074 10.6092 12.3098 8.72674 12.3074 6.92773C10.1372 6.92773 7.96754 6.76045 5.79611 6.76045ZM0.308594 6.76104V10.833C1.94408 11.0537 3.57957 11.2646 5.21205 11.5057C5.21506 9.93033 5.21085 8.35454 5.21085 6.7792C3.57656 6.7822 1.94288 6.75564 0.308594 6.76104ZM0.308594 2.20596V6.2665C1.94408 6.2707 3.57957 6.24595 5.21506 6.24775C5.21386 4.67602 5.21386 3.10621 5.21205 1.53447C3.57536 1.73896 1.93867 1.9553 0.308594 2.20596ZM12.3086 6.18301C10.1414 6.1914 7.97416 6.22445 5.80574 6.23105C5.80453 4.63353 5.80453 3.03792 5.80574 1.4416C7.96995 1.11118 10.139 0.800432 12.3074 0.5C12.3086 2.39496 12.3074 4.28805 12.3086 6.18301Z" fill="black"/>
</g>
<defs>
<clipPath id="clip0_6175_887">
<rect width="12" height="12" fill="white" transform="translate(0.308594 0.5)"/>
</clipPath>
</defs>
</svg>
