<svg width="147" height="57" viewBox="0 0 147 57" fill="none" xmlns="http://www.w3.org/2000/svg">
<g clip-path="url(#clip0_5238_1647)">
<path d="M50.4266 14.7712H53.2266L61.0266 33.5713H57.2266L55.3266 28.6713H48.4266L46.5266 33.5713H42.7266L50.4266 14.7712ZM54.0266 25.3712L51.9266 19.8712L49.8266 25.3712H54.0266Z" fill="#2196F3"/>
<path d="M63.0264 14.7712H68.2263C76.8263 14.7712 78.3264 20.5712 78.3264 24.2712C78.3264 26.2712 77.8264 33.5713 68.3264 33.5713H63.0264V14.7712ZM68.2263 30.2712C70.1263 30.2712 74.8264 30.0712 74.8264 24.3712C74.8264 18.4712 69.9264 18.2712 68.0264 18.2712H66.5264V30.2712H68.2263Z" fill="#2196F3"/>
<path d="M80.8266 14.7712H86.2266C92.5266 14.7712 93.3266 18.9712 93.3266 20.7712C93.3266 23.7712 91.3266 26.3713 88.2266 26.6713L93.5266 33.5713H89.2266L84.3266 26.6713H84.2266V33.5713H80.7266V14.7712H80.8266ZM84.3266 23.7712H86.4266C87.2266 23.7712 89.9266 23.6713 89.9266 20.9713C89.9266 18.2713 87.2266 18.1713 86.4266 18.1713H84.3266V23.7712Z" fill="#2196F3"/>
<path d="M114.427 24.3712C114.427 29.7712 110.127 34.1713 104.527 34.1713C98.927 34.1713 94.627 29.8712 94.627 24.3712C94.627 18.9712 98.927 14.5713 104.527 14.5713C110.127 14.5713 114.427 18.8712 114.427 24.3712ZM110.927 24.2712C110.927 20.7712 108.227 17.8712 104.527 17.8712C100.827 17.8712 98.127 20.7712 98.127 24.2712C98.127 27.8712 100.927 30.7712 104.527 30.7712C108.227 30.6712 110.927 27.7712 110.927 24.2712Z" fill="#2196F3"/>
<path d="M32.5262 -0.0288086H27.8262V40.1711H32.5262V-0.0288086Z" fill="#1976D2"/>
<path d="M25.5262 18.4712H20.8262V52.1711H25.5262V18.4712Z" fill="#1E88E5"/>
<path d="M18.6267 15.9712H13.9268V40.1711H18.6267V15.9712Z" fill="#2196F3"/>
<path d="M11.6267 9.17114H6.92676V27.6711H11.6267V9.17114Z" fill="#42A5F5"/>
<path d="M4.72635 21.3711H0.0263672V33.9712H4.72635V21.3711Z" fill="#64B5F6"/>
<path d="M119.231 14.8091H128.831V18.2091H122.731V22.5091H128.531V25.9091H122.731V33.6091H119.231V14.8091Z" fill="#F44336"/>
<path d="M136.331 24.2091L129.831 14.8091H133.931L138.431 21.3091L142.931 14.8091H147.031L140.531 24.2091L147.031 33.6091H142.831L138.331 27.1091L133.831 33.6091H129.831L136.331 24.2091Z" fill="#F44336"/>
<path d="M46.4188 37.9V47H45.2313V37.9H46.4188ZM49.3438 37.9V38.8875H42.3125V37.9H49.3438ZM51.675 37.4V47H50.5188V37.4H51.675ZM51.4 43.3625L50.9188 43.3437C50.9229 42.8812 50.9917 42.4542 51.125 42.0625C51.2583 41.6667 51.4458 41.3229 51.6875 41.0312C51.9292 40.7396 52.2167 40.5146 52.55 40.3562C52.8875 40.1937 53.2604 40.1125 53.6688 40.1125C54.0021 40.1125 54.3021 40.1583 54.5688 40.25C54.8354 40.3375 55.0625 40.4792 55.25 40.675C55.4417 40.8708 55.5875 41.125 55.6875 41.4375C55.7875 41.7458 55.8375 42.1229 55.8375 42.5687V47H54.675V42.5562C54.675 42.2021 54.6229 41.9187 54.5188 41.7062C54.4146 41.4896 54.2625 41.3333 54.0625 41.2375C53.8625 41.1375 53.6167 41.0875 53.325 41.0875C53.0375 41.0875 52.775 41.1479 52.5375 41.2687C52.3042 41.3896 52.1021 41.5562 51.9313 41.7687C51.7646 41.9812 51.6333 42.225 51.5375 42.5C51.4458 42.7708 51.4 43.0583 51.4 43.3625ZM60.375 47.125C59.9042 47.125 59.4771 47.0458 59.0938 46.8875C58.7146 46.725 58.3875 46.4979 58.1125 46.2062C57.8417 45.9146 57.6333 45.5687 57.4875 45.1687C57.3417 44.7687 57.2688 44.3312 57.2688 43.8562V43.5937C57.2688 43.0437 57.35 42.5542 57.5125 42.125C57.675 41.6917 57.8958 41.325 58.175 41.025C58.4542 40.725 58.7708 40.4979 59.125 40.3437C59.4792 40.1896 59.8458 40.1125 60.225 40.1125C60.7083 40.1125 61.125 40.1958 61.475 40.3625C61.8292 40.5292 62.1188 40.7625 62.3438 41.0625C62.5688 41.3583 62.7354 41.7083 62.8438 42.1125C62.9521 42.5125 63.0063 42.95 63.0063 43.425V43.9437H57.9563V43H61.85V42.9125C61.8333 42.6125 61.7708 42.3208 61.6625 42.0375C61.5583 41.7542 61.3917 41.5208 61.1625 41.3375C60.9333 41.1542 60.6208 41.0625 60.225 41.0625C59.9625 41.0625 59.7208 41.1187 59.5 41.2312C59.2792 41.3396 59.0896 41.5021 58.9313 41.7187C58.7729 41.9354 58.65 42.2 58.5625 42.5125C58.475 42.825 58.4313 43.1854 58.4313 43.5937V43.8562C58.4313 44.1771 58.475 44.4792 58.5625 44.7625C58.6542 45.0417 58.7854 45.2875 58.9563 45.5C59.1313 45.7125 59.3417 45.8792 59.5875 46C59.8375 46.1208 60.1208 46.1812 60.4375 46.1812C60.8458 46.1812 61.1917 46.0979 61.475 45.9312C61.7583 45.7646 62.0063 45.5417 62.2188 45.2625L62.9188 45.8187C62.7729 46.0396 62.5875 46.25 62.3625 46.45C62.1375 46.65 61.8604 46.8125 61.5313 46.9375C61.2063 47.0625 60.8208 47.125 60.375 47.125ZM71.075 38.7062L68.0625 47H66.8312L70.3 37.9H71.0937L71.075 38.7062ZM73.6 47L70.5812 38.7062L70.5625 37.9H71.3562L74.8375 47H73.6ZM73.4437 43.6312V44.6187H68.3312V43.6312H73.4437ZM77.0375 41.3V47H75.8813V40.2375H77.0063L77.0375 41.3ZM79.15 40.2L79.1438 41.275C79.0479 41.2542 78.9563 41.2417 78.8688 41.2375C78.7854 41.2292 78.6896 41.225 78.5813 41.225C78.3146 41.225 78.0792 41.2667 77.875 41.35C77.6708 41.4333 77.4979 41.55 77.3563 41.7C77.2146 41.85 77.1021 42.0292 77.0188 42.2375C76.9396 42.4417 76.8875 42.6667 76.8625 42.9125L76.5375 43.1C76.5375 42.6917 76.5771 42.3083 76.6563 41.95C76.7396 41.5917 76.8667 41.275 77.0375 41C77.2083 40.7208 77.425 40.5042 77.6875 40.35C77.9542 40.1917 78.2708 40.1125 78.6375 40.1125C78.7208 40.1125 78.8167 40.1229 78.925 40.1437C79.0333 40.1604 79.1083 40.1792 79.15 40.2ZM83.3625 40.2375V41.125H79.7063V40.2375H83.3625ZM80.9438 38.5937H82.1V45.325C82.1 45.5542 82.1354 45.7271 82.2063 45.8437C82.2771 45.9604 82.3688 46.0375 82.4813 46.075C82.5938 46.1125 82.7146 46.1312 82.8438 46.1312C82.9396 46.1312 83.0396 46.1229 83.1438 46.1062C83.2521 46.0854 83.3333 46.0687 83.3875 46.0562L83.3938 47C83.3021 47.0292 83.1813 47.0563 83.0313 47.0813C82.8854 47.1104 82.7083 47.125 82.5 47.125C82.2167 47.125 81.9563 47.0688 81.7188 46.9562C81.4813 46.8437 81.2917 46.6562 81.15 46.3937C81.0125 46.1271 80.9438 45.7687 80.9438 45.3187V38.5937ZM89.275 37.9V47H88.0688V37.9H89.275ZM93.0875 41.9937V42.9812H89.0125V41.9937H93.0875ZM93.7063 37.9V38.8875H89.0125V37.9H93.7063ZM94.525 43.6937V43.55C94.525 43.0625 94.5958 42.6104 94.7375 42.1937C94.8792 41.7729 95.0833 41.4083 95.35 41.1C95.6167 40.7875 95.9396 40.5458 96.3188 40.375C96.6979 40.2 97.1229 40.1125 97.5938 40.1125C98.0688 40.1125 98.4958 40.2 98.875 40.375C99.2583 40.5458 99.5833 40.7875 99.85 41.1C100.121 41.4083 100.327 41.7729 100.469 42.1937C100.61 42.6104 100.681 43.0625 100.681 43.55V43.6937C100.681 44.1812 100.61 44.6333 100.469 45.05C100.327 45.4667 100.121 45.8312 99.85 46.1437C99.5833 46.4521 99.2604 46.6937 98.8813 46.8687C98.5063 47.0396 98.0813 47.125 97.6063 47.125C97.1313 47.125 96.7042 47.0396 96.325 46.8687C95.9458 46.6937 95.6208 46.4521 95.35 46.1437C95.0833 45.8312 94.8792 45.4667 94.7375 45.05C94.5958 44.6333 94.525 44.1812 94.525 43.6937ZM95.6813 43.55V43.6937C95.6813 44.0312 95.7208 44.35 95.8 44.65C95.8792 44.9458 95.9979 45.2083 96.1563 45.4375C96.3188 45.6667 96.5208 45.8479 96.7625 45.9812C97.0042 46.1104 97.2854 46.175 97.6063 46.175C97.9229 46.175 98.2 46.1104 98.4375 45.9812C98.6792 45.8479 98.8792 45.6667 99.0375 45.4375C99.1958 45.2083 99.3146 44.9458 99.3938 44.65C99.4771 44.35 99.5188 44.0312 99.5188 43.6937V43.55C99.5188 43.2167 99.4771 42.9021 99.3938 42.6062C99.3146 42.3062 99.1938 42.0417 99.0313 41.8125C98.8729 41.5792 98.6729 41.3958 98.4313 41.2625C98.1938 41.1292 97.9146 41.0625 97.5938 41.0625C97.2771 41.0625 96.9979 41.1292 96.7563 41.2625C96.5188 41.3958 96.3188 41.5792 96.1563 41.8125C95.9979 42.0417 95.8792 42.3062 95.8 42.6062C95.7208 42.9021 95.6813 43.2167 95.6813 43.55ZM108.594 37.9V47H107.406V37.9H108.594ZM111.519 37.9V38.8875H104.487V37.9H111.519ZM113.375 41.3V47H112.219V40.2375H113.344L113.375 41.3ZM115.488 40.2L115.481 41.275C115.385 41.2542 115.294 41.2417 115.206 41.2375C115.123 41.2292 115.027 41.225 114.919 41.225C114.652 41.225 114.417 41.2667 114.213 41.35C114.008 41.4333 113.835 41.55 113.694 41.7C113.552 41.85 113.44 42.0292 113.356 42.2375C113.277 42.4417 113.225 42.6667 113.2 42.9125L112.875 43.1C112.875 42.6917 112.915 42.3083 112.994 41.95C113.077 41.5917 113.204 41.275 113.375 41C113.546 40.7208 113.763 40.5042 114.025 40.35C114.292 40.1917 114.608 40.1125 114.975 40.1125C115.058 40.1125 115.154 40.1229 115.263 40.1437C115.371 40.1604 115.446 40.1792 115.488 40.2ZM120.294 45.8437V42.3625C120.294 42.0958 120.24 41.8646 120.131 41.6687C120.027 41.4687 119.869 41.3146 119.656 41.2062C119.444 41.0979 119.181 41.0437 118.869 41.0437C118.577 41.0437 118.321 41.0937 118.1 41.1937C117.883 41.2937 117.713 41.425 117.588 41.5875C117.467 41.75 117.406 41.925 117.406 42.1125H116.25C116.25 41.8708 116.313 41.6312 116.438 41.3937C116.563 41.1562 116.742 40.9417 116.975 40.75C117.213 40.5542 117.496 40.4 117.825 40.2875C118.158 40.1708 118.529 40.1125 118.938 40.1125C119.429 40.1125 119.863 40.1958 120.238 40.3625C120.617 40.5292 120.913 40.7812 121.125 41.1187C121.342 41.4521 121.45 41.8708 121.45 42.375V45.525C121.45 45.75 121.469 45.9896 121.506 46.2437C121.548 46.4979 121.608 46.7167 121.688 46.9V47H120.481C120.423 46.8667 120.377 46.6896 120.344 46.4687C120.31 46.2437 120.294 46.0354 120.294 45.8437ZM120.494 42.9L120.506 43.7125H119.338C119.008 43.7125 118.715 43.7396 118.456 43.7937C118.198 43.8437 117.981 43.9208 117.806 44.025C117.631 44.1292 117.498 44.2604 117.406 44.4187C117.315 44.5729 117.269 44.7542 117.269 44.9625C117.269 45.175 117.317 45.3687 117.413 45.5437C117.508 45.7187 117.652 45.8583 117.844 45.9625C118.04 46.0625 118.279 46.1125 118.563 46.1125C118.917 46.1125 119.229 46.0375 119.5 45.8875C119.771 45.7375 119.985 45.5542 120.144 45.3375C120.306 45.1208 120.394 44.9104 120.406 44.7062L120.9 45.2625C120.871 45.4375 120.792 45.6312 120.663 45.8437C120.533 46.0562 120.36 46.2604 120.144 46.4562C119.931 46.6479 119.677 46.8083 119.381 46.9375C119.09 47.0625 118.76 47.125 118.394 47.125C117.935 47.125 117.533 47.0354 117.188 46.8562C116.846 46.6771 116.579 46.4375 116.388 46.1375C116.2 45.8333 116.106 45.4937 116.106 45.1187C116.106 44.7562 116.177 44.4375 116.319 44.1625C116.46 43.8833 116.665 43.6521 116.931 43.4687C117.198 43.2812 117.519 43.1396 117.894 43.0437C118.269 42.9479 118.688 42.9 119.15 42.9H120.494ZM127.531 45.6875V37.4H128.694V47H127.631L127.531 45.6875ZM122.981 43.6937V43.5625C122.981 43.0458 123.044 42.5771 123.169 42.1562C123.298 41.7312 123.479 41.3667 123.713 41.0625C123.95 40.7583 124.231 40.525 124.556 40.3625C124.885 40.1958 125.252 40.1125 125.656 40.1125C126.081 40.1125 126.452 40.1875 126.769 40.3375C127.09 40.4833 127.36 40.6979 127.581 40.9812C127.806 41.2604 127.983 41.5979 128.113 41.9937C128.242 42.3896 128.331 42.8375 128.381 43.3375V43.9125C128.335 44.4083 128.246 44.8542 128.113 45.25C127.983 45.6458 127.806 45.9833 127.581 46.2625C127.36 46.5417 127.09 46.7562 126.769 46.9062C126.448 47.0521 126.073 47.125 125.644 47.125C125.248 47.125 124.885 47.0396 124.556 46.8687C124.231 46.6979 123.95 46.4583 123.713 46.15C123.479 45.8417 123.298 45.4792 123.169 45.0625C123.044 44.6417 122.981 44.1854 122.981 43.6937ZM124.144 43.5625V43.6937C124.144 44.0312 124.177 44.3479 124.244 44.6437C124.315 44.9396 124.423 45.2 124.569 45.425C124.715 45.65 124.9 45.8271 125.125 45.9562C125.35 46.0812 125.619 46.1437 125.931 46.1437C126.315 46.1437 126.629 46.0625 126.875 45.9C127.125 45.7375 127.325 45.5229 127.475 45.2562C127.625 44.9896 127.742 44.7 127.825 44.3875V42.8812C127.775 42.6521 127.702 42.4312 127.606 42.2187C127.515 42.0021 127.394 41.8104 127.244 41.6437C127.098 41.4729 126.917 41.3375 126.7 41.2375C126.488 41.1375 126.235 41.0875 125.944 41.0875C125.627 41.0875 125.354 41.1542 125.125 41.2875C124.9 41.4167 124.715 41.5958 124.569 41.825C124.423 42.05 124.315 42.3125 124.244 42.6125C124.177 42.9083 124.144 43.225 124.144 43.5625ZM131.75 40.2375V47H130.588V40.2375H131.75ZM130.5 38.4437C130.5 38.2562 130.556 38.0979 130.669 37.9687C130.785 37.8396 130.956 37.775 131.181 37.775C131.402 37.775 131.571 37.8396 131.688 37.9687C131.808 38.0979 131.869 38.2562 131.869 38.4437C131.869 38.6229 131.808 38.7771 131.688 38.9062C131.571 39.0312 131.402 39.0937 131.181 39.0937C130.956 39.0937 130.785 39.0312 130.669 38.9062C130.556 38.7771 130.5 38.6229 130.5 38.4437ZM134.762 41.6812V47H133.606V40.2375H134.7L134.762 41.6812ZM134.487 43.3625L134.006 43.3437C134.01 42.8812 134.079 42.4542 134.212 42.0625C134.346 41.6667 134.533 41.3229 134.775 41.0312C135.017 40.7396 135.304 40.5146 135.637 40.3562C135.975 40.1937 136.348 40.1125 136.756 40.1125C137.09 40.1125 137.39 40.1583 137.656 40.25C137.923 40.3375 138.15 40.4792 138.337 40.675C138.529 40.8708 138.675 41.125 138.775 41.4375C138.875 41.7458 138.925 42.1229 138.925 42.5687V47H137.762V42.5562C137.762 42.2021 137.71 41.9187 137.606 41.7062C137.502 41.4896 137.35 41.3333 137.15 41.2375C136.95 41.1375 136.704 41.0875 136.412 41.0875C136.125 41.0875 135.862 41.1479 135.625 41.2687C135.392 41.3896 135.19 41.5562 135.019 41.7687C134.852 41.9812 134.721 42.225 134.625 42.5C134.533 42.7708 134.487 43.0583 134.487 43.3625ZM145.063 40.2375H146.113V46.8562C146.113 47.4521 145.992 47.9604 145.75 48.3813C145.508 48.8021 145.171 49.1208 144.738 49.3375C144.308 49.5583 143.813 49.6688 143.25 49.6688C143.017 49.6688 142.742 49.6313 142.425 49.5563C142.113 49.4854 141.804 49.3625 141.5 49.1875C141.2 49.0167 140.948 48.7854 140.744 48.4938L141.35 47.8063C141.633 48.1479 141.929 48.3854 142.238 48.5188C142.55 48.6521 142.858 48.7188 143.163 48.7188C143.529 48.7188 143.846 48.65 144.113 48.5125C144.379 48.375 144.585 48.1708 144.731 47.9C144.881 47.6333 144.956 47.3042 144.956 46.9125V41.725L145.063 40.2375ZM140.406 43.6937V43.5625C140.406 43.0458 140.467 42.5771 140.588 42.1562C140.713 41.7312 140.89 41.3667 141.119 41.0625C141.352 40.7583 141.633 40.525 141.963 40.3625C142.292 40.1958 142.663 40.1125 143.075 40.1125C143.5 40.1125 143.871 40.1875 144.188 40.3375C144.508 40.4833 144.779 40.6979 145 40.9812C145.225 41.2604 145.402 41.5979 145.531 41.9937C145.66 42.3896 145.75 42.8375 145.8 43.3375V43.9125C145.754 44.4083 145.665 44.8542 145.531 45.25C145.402 45.6458 145.225 45.9833 145 46.2625C144.779 46.5417 144.508 46.7562 144.188 46.9062C143.867 47.0521 143.492 47.125 143.063 47.125C142.658 47.125 142.292 47.0396 141.963 46.8687C141.638 46.6979 141.358 46.4583 141.125 46.15C140.892 45.8417 140.713 45.4792 140.588 45.0625C140.467 44.6417 140.406 44.1854 140.406 43.6937ZM141.563 43.5625V43.6937C141.563 44.0312 141.596 44.3479 141.663 44.6437C141.733 44.9396 141.84 45.2 141.981 45.425C142.127 45.65 142.313 45.8271 142.538 45.9562C142.763 46.0812 143.031 46.1437 143.344 46.1437C143.727 46.1437 144.044 46.0625 144.294 45.9C144.544 45.7375 144.742 45.5229 144.888 45.2562C145.038 44.9896 145.154 44.7 145.238 44.3875V42.8812C145.192 42.6521 145.121 42.4312 145.025 42.2187C144.933 42.0021 144.813 41.8104 144.663 41.6437C144.517 41.4729 144.335 41.3375 144.119 41.2375C143.902 41.1375 143.648 41.0875 143.356 41.0875C143.04 41.0875 142.767 41.1542 142.538 41.2875C142.313 41.4167 142.127 41.5958 141.981 41.825C141.84 42.05 141.733 42.3125 141.663 42.6125C141.596 42.9083 141.563 43.225 141.563 43.5625Z" fill="#2196F3"/>
</g>
<defs>
<clipPath id="clip0_5238_1647">
<rect width="147" height="57" fill="white"/>
</clipPath>
</defs>
</svg>
