<svg width="172" height="151" viewBox="0 0 172 151" fill="none" xmlns="http://www.w3.org/2000/svg">
<path d="M170.82 140.686C171.282 140.988 171.412 141.608 171.11 142.07L166.183 149.602C165.881 150.064 165.261 150.193 164.799 149.891C164.336 149.589 164.207 148.969 164.509 148.507L168.888 141.812L162.194 137.433C161.731 137.13 161.602 136.51 161.904 136.048C162.207 135.586 162.826 135.457 163.288 135.759L170.82 140.686ZM170.477 142.501C86.2486 160.113 34.8011 133.243 12.8349 97.5248C-9.05842 61.9253 -1.5344 17.4751 32.309 0.907532L33.1884 2.70384C0.720434 18.5981 -6.93647 61.5578 14.5386 96.4771C35.9408 131.278 86.4111 158.035 170.068 140.544L170.477 142.501Z" fill="white"/>
</svg>
