<svg width="172" height="127" viewBox="0 0 172 127" fill="none" xmlns="http://www.w3.org/2000/svg">
<path d="M171.603 9.48076C172.021 9.11955 172.067 8.48805 171.706 8.07026L165.82 1.26192C165.458 0.844127 164.827 0.798249 164.409 1.15945C163.991 1.52065 163.946 2.15216 164.307 2.56995L169.539 8.62181L163.487 13.8539C163.069 14.2151 163.023 14.8466 163.385 15.2644C163.746 15.6822 164.377 15.7281 164.795 15.3669L171.603 9.48076ZM171.022 7.7269C89.2557 1.78685 37.6053 26.4879 14.3909 55.2991C2.79025 69.6966 -1.74085 85.1783 0.781491 98.3439C3.31313 111.558 12.9134 122.235 29.1149 127.003L29.6795 125.084C14.1038 120.501 5.11915 110.356 2.74577 97.9676C0.363081 85.5309 4.60679 70.6298 15.9482 56.554C38.618 28.4187 89.5208 3.81138 170.877 9.72165L171.022 7.7269Z" fill="white"/>
</svg>
