<svg width="1536" height="650" viewBox="0 0 1536 650" fill="none" xmlns="http://www.w3.org/2000/svg">
<path d="M166.357 592.41C198.391 606.989 206.788 627.542 208.592 633.328C213.586 635.148 218.212 636.733 222.416 638.113C214.606 629.264 207.095 620.163 199.976 610.752C188.098 594.697 177.284 577.893 167.621 560.485C166.549 558.573 165.497 556.658 164.484 554.735C156.807 540.379 147.08 527.166 135.211 515.932C134.406 515.174 133.623 514.431 132.858 513.666L132.881 513.682C45.2922 484.652 66.2531 390.231 66.2531 390.231C68.5193 409.864 90.1734 421.332 116.01 453.277C138.015 480.473 136.218 502.585 135.176 508.573C140.381 514.079 145.168 518.838 149.28 522.775C146.97 517.339 144.739 511.889 142.599 506.382C135.38 487.883 129.801 468.794 125.364 449.504L123.747 442.264C123.176 439.864 122.661 437.433 122.267 435L119.679 420.387C118.928 415.496 118.377 410.59 117.705 405.685C117.41 403.236 117.013 400.784 116.796 398.321L116.167 390.927C115.76 386.035 114.616 381.214 112.806 376.65L102.121 349.877L102.128 349.915C31.558 291.144 86.1739 210.835 86.1739 210.835C80.9555 229.929 96.8045 248.446 108.924 287.574C119.232 320.879 109.33 340.799 106.159 346.002C109.253 353.781 112.202 360.526 114.742 366.001L114.584 361.366C114.293 356.434 114.609 351.495 114.619 346.55L114.738 339.144C114.765 336.677 114.811 334.208 115.022 331.749C115.72 321.899 116.194 312.049 117.596 302.275L118.478 294.934L118.921 291.274L119.547 287.621L122.081 273.044C123.809 264.533 125.682 256.037 127.813 247.616C131.629 232.492 132.871 216.823 131.008 201.381C130.571 197.795 130.243 194.251 129.968 190.777L129.975 190.816C83.5782 112.026 162.293 54.3829 162.293 54.3829C150.89 70.6654 159.511 93.38 157.597 134.285C155.975 169.095 139.868 184.607 135.097 188.471C135.468 200.213 136.277 209.977 136.999 216.754C137.096 216.497 137.169 216.224 137.265 215.967L139.628 208.965C140.408 206.626 141.406 204.369 142.271 202.054L147.67 188.293L153.729 174.815C154.749 172.573 155.727 170.319 156.791 168.09L160.163 161.511C163.584 154.523 167.292 147.664 171.185 140.933L171.165 140.936C176.535 131.103 183.756 116.979 190.355 106.528C193.46 101.637 195.998 96.4062 197.559 90.8269C220.148 9.8477 311.577 15.3641 311.577 15.3641C292.102 20.0826 283.214 42.7257 254.215 72.1006C231.283 95.3213 210.287 97.8866 202.479 97.9239C201.626 98.3747 200.586 98.9184 199.714 99.3727L191.527 111.505C180.961 128.04 171.039 145.002 162.888 162.791L159.723 169.394C158.722 171.632 157.806 173.895 156.848 176.146L151.181 189.654L148.897 195.962C156.312 187.128 163.972 179.211 171.666 172.169L171.65 172.192C205.231 87.0711 299.828 111.702 299.828 111.702C279.843 113.108 267.207 133.971 233.598 158.096C205.011 178.632 182.711 175.943 176.698 174.663C165.475 184.109 156.31 193.032 151.051 198.363C147.734 201.731 145.147 205.77 143.776 210.255C143.779 210.274 143.763 210.297 143.747 210.32L141.603 217.303C135.555 235.842 131.431 254.922 128.069 274.068L125.954 288.491L125.439 292.084L125.091 295.708L124.395 302.956C123.255 312.603 123.039 322.308 122.616 331.989C122.46 334.418 122.486 336.836 122.531 339.249L122.532 339.369C126.839 329.383 131.579 320.12 136.596 311.61L136.58 311.632C143.473 220.615 241.321 216.833 241.321 216.833C222.597 223.941 216.697 247.517 191.695 280.29C170.425 308.16 148.281 312.029 142.143 312.552C136.608 321.114 132.174 328.681 128.929 334.497C124.424 342.578 122.16 351.723 122.924 360.895C122.931 360.933 122.941 360.992 122.928 361.034L123.81 375.528L124.031 379.152L124.432 382.763L125.234 389.987L126.033 397.191C126.298 399.586 126.743 401.969 127.11 404.365C127.88 409.133 128.555 413.937 129.423 418.687L132.326 432.905C132.772 435.288 133.332 437.631 133.951 439.963L135.714 446.997C138.337 457.141 141.267 467.191 144.6 477.11C145.139 468.189 146.085 459.616 147.433 451.473L147.417 451.496C120.927 364.149 211.066 326.164 211.066 326.164C196.133 339.387 199.133 363.474 187.627 402.83C177.817 436.343 158.518 447.735 152.965 450.396C151.712 456.341 150.701 461.823 149.898 466.648C147.914 478.506 149.215 490.685 153.854 501.774C153.884 501.829 153.894 501.887 153.924 501.942C161.364 519.742 169.697 537.203 179.579 553.792C189.386 570.413 200.255 586.387 212.125 601.603C215.631 606.008 219.241 610.314 222.903 614.571C219.476 604.809 216.839 595.267 214.81 586.059L214.817 586.098C157.705 514.483 227.549 446.598 227.549 446.598C218.55 464.297 230.305 485.578 234.191 526.34C237.499 561.02 223.749 578.597 219.572 583.057C219.804 584.357 220.036 585.657 220.261 586.918C224.281 608.644 234.829 628.737 250.765 644.216C250.841 644.303 250.914 644.37 251.01 644.453C264.806 657.949 279.815 670.17 295.333 681.6C299.277 684.366 303.059 687.361 307.156 689.96L319.232 697.916C319.365 697.752 319.333 697.798 319.466 697.634C315.331 692.66 311.521 687.689 307.977 682.731L307.98 682.75C227.142 638.659 264.926 549.454 264.926 549.454C263.577 569.186 282.774 584.29 302.381 620.335C319.057 650.995 313.266 672.451 311.177 678.143C314.142 682.703 316.956 686.869 319.562 690.552C325.926 699.596 334.24 707.174 344.109 712.317C344.156 712.349 344.198 712.361 344.264 712.39C361.272 721.476 378.773 729.694 396.901 736.301C407.458 740.182 418.149 743.678 428.936 746.798C424.052 743.317 419.441 739.768 415.16 736.141L415.183 736.157C341.911 717.288 353.671 638.981 353.671 638.981C356.636 654.909 374.998 663.055 397.956 687.742C417.497 708.75 417.289 726.919 416.789 731.85C419.509 734.352 422.089 736.639 424.493 738.736C432.394 745.587 441.876 750.498 452.153 752.807C452.196 752.819 452.258 752.828 452.301 752.841C471.125 756.983 490.201 759.92 509.395 761.696L509.602 761.719L509.664 761.728C514.872 762.25 519.308 765.95 520.333 771.013C522.082 779.67 514.922 786.638 506.898 785.692C486.661 783.3 466.59 779.678 446.866 774.814C427.147 769.869 407.868 763.405 389.036 755.922C377.705 751.458 366.612 746.391 355.767 740.9C341.019 733.437 324.379 730.39 307.86 731.884L307.879 731.881C228.579 779.081 169.194 702.464 169.194 702.464C185.844 713.414 208.753 704.507 250.242 705.65C285.55 706.623 301.467 722.225 305.439 726.848C313.811 726.451 321.17 725.832 327.212 725.226C320.963 721.486 314.856 717.521 308.72 713.62L296.319 704.982C292.145 702.176 288.262 698.959 284.214 695.951C268.333 683.624 253.063 670.509 239.088 656.124C238.813 655.832 238.518 655.544 238.243 655.252C231.385 648.217 222.817 643.085 213.34 640.255C211.795 639.787 210.27 639.316 208.745 638.845L208.768 638.861C117.141 651.571 93.1334 558.003 93.1334 558.003C104.129 574.574 128.733 575.275 166.357 592.41Z" fill="black" fill-opacity="0.04"/>
<path d="M1171.41 836.353C1136.21 836.774 1120.24 852.193 1116.26 856.76C1110.95 856.412 1106.08 855.996 1101.68 855.562C1112.39 850.616 1122.94 845.317 1133.25 839.578C1150.59 829.677 1167.26 818.662 1183.13 806.631C1184.88 805.313 1186.61 803.985 1188.32 802.634C1201.13 792.594 1215.36 784.427 1230.75 778.934C1231.8 778.565 1232.81 778.201 1233.82 777.81L1233.79 777.815C1325.65 786.579 1344.55 691.724 1344.55 691.724C1334.56 708.776 1310.12 710.536 1273.59 729.346C1242.49 745.357 1235.21 766.315 1233.75 772.215C1226.77 775.153 1220.47 777.577 1215.12 779.521C1219.43 775.479 1223.67 771.391 1227.84 767.216C1241.91 753.2 1254.72 737.983 1266.56 722.121L1270.96 716.149C1272.45 714.182 1273.9 712.165 1275.24 710.098L1283.5 697.77C1286.16 693.598 1288.65 689.331 1291.24 685.114C1292.5 682.991 1293.85 680.908 1295.04 678.741L1298.6 672.229C1300.94 667.917 1303.94 663.967 1307.43 660.521L1328.01 640.331L1327.99 640.364C1416.27 615.048 1398.68 519.534 1398.68 519.534C1395.76 539.11 1373.78 549.661 1346.91 580.578C1324.05 606.895 1325.07 629.117 1325.88 635.157C1319.91 641.028 1314.49 646.01 1309.96 649.996L1311.97 645.818C1314.23 641.422 1315.93 636.775 1317.91 632.246L1320.79 625.421C1321.76 623.154 1322.72 620.875 1323.52 618.54C1326.85 609.245 1330.39 600.041 1333.05 590.532L1335.2 583.459L1336.27 579.931L1337.17 576.335L1340.73 561.975C1342.59 553.49 1344.3 544.96 1345.75 536.395C1348.35 521.017 1353.54 506.178 1361.47 492.799C1363.32 489.694 1365.05 486.583 1366.7 483.516L1366.68 483.548C1440.91 430.165 1392.13 345.67 1392.13 345.67C1396 365.169 1378.95 382.476 1364.2 420.679C1351.65 453.185 1360.13 473.876 1362.94 479.336C1357.86 489.932 1353.18 498.54 1349.79 504.45C1349.8 504.176 1349.85 503.897 1349.86 503.622L1350.52 496.262C1350.75 493.807 1350.75 491.339 1350.89 488.872L1351.5 474.102L1351.39 459.326C1351.36 456.863 1351.38 454.406 1351.3 451.937L1350.87 444.557C1350.56 436.782 1349.93 429.011 1349.09 421.281L1349.1 421.292C1348.16 410.128 1347.24 394.292 1345.42 382.067C1344.55 376.339 1344.34 370.529 1345.16 364.794C1357.15 281.583 1271.27 249.754 1271.27 249.754C1287.19 261.927 1286.19 286.231 1300.87 324.807C1312.49 355.304 1330.67 366.12 1337.8 369.304C1338.4 370.06 1339.13 370.977 1339.74 371.745L1342.34 386.148C1345.34 405.54 1347.58 425.063 1347.86 444.629L1348.1 451.948C1348.11 454.399 1348.03 456.839 1348 459.285L1347.74 473.932L1347.29 480.625C1344.06 469.551 1340.25 459.217 1336.05 449.67L1336.05 449.698C1339.66 358.263 1243.16 342.646 1243.16 342.646C1260.88 351.994 1264.03 376.181 1285.05 411.812C1302.93 442.134 1324.42 448.669 1330.44 449.923C1336.9 463.093 1341.68 474.954 1344.35 481.954C1346.02 486.373 1346.76 491.112 1346.21 495.769C1346.2 495.786 1346.2 495.813 1346.21 495.841L1345.35 503.095C1343.41 522.499 1339.49 541.622 1334.84 560.497L1330.96 574.548L1329.98 578.044L1328.84 581.5L1326.55 588.413C1323.7 597.7 1319.99 606.668 1316.47 615.698C1315.63 617.983 1314.63 620.184 1313.62 622.375L1313.57 622.484C1313.66 611.609 1313.05 601.221 1311.9 591.41L1311.9 591.438C1342.31 505.372 1254.3 462.445 1254.3 462.445C1268.56 476.501 1264.45 500.454 1274.11 540.527C1282.33 574.609 1301.04 587.081 1306.44 590.035C1308.05 600.102 1309.06 608.815 1309.68 615.446C1310.54 624.657 1308.93 633.939 1304.53 642.023C1304.51 642.056 1304.47 642.105 1304.47 642.149L1297.82 655.056L1296.15 658.283L1294.33 661.426L1290.68 667.712L1287.04 673.982C1285.84 676.066 1284.47 678.067 1283.16 680.112C1280.54 684.164 1277.98 688.288 1275.27 692.285L1266.88 704.124C1265.51 706.124 1264.05 708.042 1262.55 709.927L1258.1 715.652C1251.61 723.877 1244.87 731.891 1237.82 739.623C1240.93 731.242 1243.52 723.016 1245.57 715.021L1245.57 715.049C1305.04 645.806 1237.88 574.691 1237.88 574.691C1246.21 592.814 1233.75 613.645 1228.41 654.299C1223.87 688.922 1236.93 707.13 1240.94 711.805C1239.69 717.75 1238.4 723.174 1237.19 727.913C1234.22 739.564 1228.12 750.183 1219.4 758.46C1219.36 758.498 1219.32 758.547 1219.27 758.585C1205.29 771.872 1190.62 784.489 1174.88 795.682C1159.21 806.936 1142.82 817.169 1125.82 826.306C1120.83 828.922 1115.79 831.406 1110.73 833.824C1117.8 826.274 1124.06 818.606 1129.63 810.999L1129.61 811.031C1210.75 768.536 1174.22 678.246 1174.22 678.246C1175.32 698.072 1155.98 712.804 1135.98 748.536C1118.97 778.935 1124.46 800.566 1126.49 806.331C1125.75 807.427 1125.01 808.523 1124.3 809.586C1111.86 827.845 1094.1 841.976 1073.27 849.714C1073.17 849.762 1073.08 849.794 1072.95 849.831C1054.89 856.616 1036.22 861.745 1017.41 865.946C1012.69 866.886 1008.02 868.101 1003.22 868.827L988.964 871.236C988.908 871.032 988.919 871.087 988.863 870.884C994.654 868 1000.15 864.988 1005.39 861.881L1005.38 861.897C1097.13 854.157 1098.54 757.29 1098.54 757.29C1091.81 775.889 1068.15 781.967 1035.67 807.043C1008.05 828.371 1004.69 850.34 1004.31 856.392C999.757 859.369 995.502 862.046 991.632 864.365C982.161 870.074 971.496 873.655 960.391 874.38C960.336 874.391 960.292 874.385 960.22 874.384C940.993 875.839 921.663 876.3 902.411 875.034C891.185 874.327 879.992 873.214 868.863 871.718C874.736 870.502 880.387 869.115 885.767 867.522L885.74 867.528C960.397 879.815 981.221 803.417 981.221 803.417C972.084 816.796 951.996 816.844 921.031 830.175C894.677 841.516 887.538 858.225 886.007 862.939C882.509 864.132 879.226 865.183 876.18 866.133C866.187 869.215 855.53 869.884 845.195 867.852C845.151 867.846 845.09 867.829 845.046 867.823C826.15 864.021 807.509 859.015 789.23 852.898L789.031 852.836L788.971 852.819C783.994 851.196 778.443 852.793 775.463 857.011C770.371 864.228 774.113 873.492 781.836 875.863C801.319 881.837 821.146 886.618 841.156 890.122C861.194 893.55 881.443 895.412 901.693 896.16C913.862 896.645 926.057 896.483 938.195 895.833C954.701 894.952 971.156 898.875 985.669 906.906L985.653 906.895C1039.18 982.07 1124.42 935.914 1124.42 935.914C1104.77 939.218 1087.4 921.828 1048.97 906.14C1016.27 892.788 995.414 900.646 989.916 903.274C982.415 899.534 975.93 895.999 970.646 893.008C977.873 892.106 985.061 890.94 992.248 889.846L1007.08 886.943C1012.03 886.06 1016.88 884.682 1021.8 883.562C1041.3 878.688 1060.57 872.846 1079.16 865.319C1079.53 865.164 1079.91 865.019 1080.28 864.863C1089.39 861.191 1099.3 859.951 1109.12 861.184C1110.72 861.379 1112.31 861.563 1113.89 861.747L1113.86 861.752C1192.58 910.339 1252.29 834.402 1252.29 834.402C1235.54 845.132 1212.75 835.849 1171.41 836.353Z" fill="black" fill-opacity="0.04"/>
</svg>
