<svg width="172" height="73" viewBox="0 0 172 73" fill="none" xmlns="http://www.w3.org/2000/svg">
<path d="M38.573 72.9161C31.2545 72.9161 24.6411 71.3382 18.7326 68.1826C12.8912 65.0269 8.29203 60.6963 4.93494 55.1906C1.64498 49.6178 0 43.3736 0 36.458C0 29.5424 1.64498 23.3318 4.93494 17.8262C8.29203 12.2534 12.8912 7.88917 18.7326 4.7335C24.6411 1.57783 31.2545 0 38.573 0C39.9491 0 135.676 0.223154 137 0.33473C142.717 0.816531 147.947 2.33858 152.69 4.90087C158.531 8.05653 163.13 12.4208 166.487 17.9935C169.844 23.4992 171.523 29.7098 171.523 36.6254C171.523 43.541 169.844 49.7852 166.487 55.358C163.13 60.8636 158.531 65.1943 152.69 68.3499C147.947 70.9122 142.717 72.4343 137 72.9161C135.676 73.0276 39.9491 72.9161 38.573 72.9161ZM38.573 59.0177C39.9683 59.0177 135.695 59.0795 137 58.8683C139.588 58.4493 141.998 57.615 144.23 56.3651C147.587 54.418 150.205 51.7323 152.085 48.3081C154.033 44.8839 155.006 40.9896 155.006 36.6254C155.006 32.2612 154.033 28.367 152.085 24.9427C150.205 21.5185 147.587 18.8664 144.23 16.9864C141.998 15.6919 139.588 14.8277 137 14.3939C135.695 14.1751 39.9683 13.8984 38.573 13.8984C34.4102 13.8984 30.6503 14.8719 27.2932 16.819C23.9361 18.699 21.284 21.3511 19.3369 24.7753C17.4569 28.1996 16.5169 32.0938 16.5169 36.458C16.5169 40.8223 17.4569 44.7165 19.3369 48.1407C21.284 51.565 23.9361 54.2506 27.2932 56.1977C30.6503 58.0777 34.4102 59.0177 38.573 59.0177Z" fill="#232323"/>
</svg>
