<svg width="103" height="72" viewBox="0 0 103 72" fill="none" xmlns="http://www.w3.org/2000/svg">
<path d="M10.4037 29.5031C10.4037 29.5031 12.3212 25.0042 9.08197 20.3099C5.83952 15.6124 0.940026 14.7888 0.940026 14.7888C0.940026 14.7888 -1.16627 20.1081 1.99154 24.6786C5.15261 29.2655 10.4037 29.5031 10.4037 29.5031Z" fill="url(#paint0_linear_5238_1740)"/>
<path d="M19.1493 30.0405C19.1493 30.0405 24.1074 28.3054 25.8198 23.0089C27.5354 17.7222 23.987 13.2395 23.987 13.2395C23.987 13.2395 19.5335 15.4304 17.7723 20.8603C16.0176 26.287 19.1493 30.0405 19.1493 30.0405Z" fill="url(#paint1_linear_5238_1740)"/>
<path d="M21.2341 35.8949C20.2054 41.5104 23.7962 44.8179 23.7962 44.8179C23.7962 44.8179 28.4873 42.4447 29.4998 36.9789C30.4992 31.5034 26.3973 27.5286 26.3973 27.5286C26.3973 27.5286 22.2726 30.2794 21.2341 35.8949Z" fill="url(#paint2_linear_5238_1740)"/>
<path d="M32.7797 54.3736C32.7797 54.3736 37.2299 51.5707 37.7215 46.0333C38.2033 40.496 33.7466 36.915 33.7466 36.915C33.7466 36.915 29.8921 40.0435 29.3908 45.7273C28.8927 51.408 32.7797 54.3736 32.7797 54.3736Z" fill="url(#paint3_linear_5238_1740)"/>
<path d="M44.5771 63.2792C44.5771 63.2792 48.0344 59.3109 46.908 53.8679C45.7751 48.4184 40.4752 46.2764 40.4752 46.2764C40.4752 46.2764 37.6853 50.3879 38.841 55.9741C39.9999 61.5636 44.5771 63.2792 44.5771 63.2792Z" fill="url(#paint4_linear_5238_1740)"/>
<path d="M14.2421 17.8021C14.2421 17.8021 18.3343 15.1294 18.2431 9.42274C18.1552 3.72258 14.5319 0.314209 14.5319 0.314209C14.5319 0.314209 9.83422 3.56633 9.92212 9.12976C10.01 14.6899 14.2421 17.8021 14.2421 17.8021Z" fill="url(#paint5_linear_5238_1740)"/>
<path d="M13.3933 40.8894C13.3933 40.8894 13.8947 36.0324 9.4184 32.5003C4.93561 28.965 0.0133257 29.6258 0.0133257 29.6258C0.0133257 29.6258 -0.439185 35.3293 3.92966 38.7702C8.30177 42.2144 13.3933 40.8894 13.3933 40.8894Z" fill="url(#paint6_linear_5238_1740)"/>
<path d="M20.181 51.6005C20.181 51.6005 19.5885 46.7467 14.4416 44.2987C9.28489 41.8474 4.63281 43.589 4.63281 43.589C4.63281 43.589 5.46296 49.2403 10.4796 51.6298C15.5094 54.016 20.181 51.6005 20.181 51.6005Z" fill="url(#paint7_linear_5238_1740)"/>
<path d="M20.6984 54.551C15.0469 53.7795 11.1338 56.833 11.1338 56.833C11.1338 56.833 13.6405 61.9765 19.1488 62.735C24.657 63.487 28.3748 59.7693 28.3748 59.7693C28.3748 59.7693 26.3531 55.329 20.6984 54.551Z" fill="url(#paint8_linear_5238_1740)"/>
<path d="M31.9034 63.1318C26.1998 63.0439 22.6904 66.5499 22.6904 66.5499C22.6904 66.5499 25.7864 71.3646 31.3467 71.4492C36.9103 71.5371 40.1561 67.4028 40.1561 67.4028C40.1561 67.4028 37.6135 63.2229 31.9034 63.1318Z" fill="url(#paint9_linear_5238_1740)"/>
<path d="M15.6338 20.8544L12.9643 20.314C12.9057 20.6037 7.53742 49.6123 49.3507 69.8314L50.5325 67.3834C10.7213 48.1311 15.4092 21.9612 15.6338 20.8544Z" fill="url(#paint10_linear_5238_1740)"/>
<path d="M92.5977 29.4852C92.5977 29.4852 97.8488 29.2476 101.01 24.664C104.171 20.0935 102.061 14.7742 102.061 14.7742C102.061 14.7742 97.1619 15.5978 93.9194 20.292C90.6802 24.9863 92.5977 29.4852 92.5977 29.4852Z" fill="url(#paint11_linear_5238_1740)"/>
<path d="M83.8535 30.0229C83.8535 30.0229 86.9885 26.2695 85.2338 20.8428C83.4726 15.4128 79.0191 13.2219 79.0191 13.2219C79.0191 13.2219 75.4706 17.7046 77.1863 22.9913C78.8954 28.2878 83.8535 30.0229 83.8535 30.0229Z" fill="url(#paint12_linear_5238_1740)"/>
<path d="M73.5065 36.964C74.5222 42.433 79.2101 44.803 79.2101 44.803C79.2101 44.803 82.8042 41.489 81.7722 35.88C80.7369 30.2645 76.609 27.5137 76.609 27.5137C76.609 27.5137 72.5071 31.4885 73.5065 36.964Z" fill="url(#paint13_linear_5238_1740)"/>
<path d="M69.2563 36.9006C69.2563 36.9006 64.7996 40.4815 65.2781 46.0189C65.7665 51.5563 70.2232 54.3592 70.2232 54.3592C70.2232 54.3592 74.1102 51.4033 73.6122 45.7129C73.1108 40.0225 69.2563 36.9006 69.2563 36.9006Z" fill="url(#paint14_linear_5238_1740)"/>
<path d="M56.0967 53.8505C54.9703 59.2935 58.4276 63.265 58.4276 63.265C58.4276 63.265 63.0048 61.5494 64.1638 55.96C65.3195 50.3737 62.5295 46.2622 62.5295 46.2622C62.5295 46.2622 57.2296 48.4108 56.0967 53.8505Z" fill="url(#paint15_linear_5238_1740)"/>
<path d="M88.7667 17.7867C88.7667 17.7867 92.9988 14.6746 93.0835 9.11438C93.1714 3.55095 88.4704 0.298828 88.4704 0.298828C88.4704 0.298828 84.8536 3.7072 84.7592 9.40736C84.6713 15.114 88.7667 17.7867 88.7667 17.7867Z" fill="url(#paint16_linear_5238_1740)"/>
<path d="M102.987 29.6105C102.987 29.6105 98.0644 28.9496 93.5816 32.485C89.1053 36.017 89.6066 40.8741 89.6066 40.8741C89.6066 40.8741 94.6949 42.1957 99.067 38.7548C103.439 35.3139 102.987 29.6105 102.987 29.6105Z" fill="url(#paint17_linear_5238_1740)"/>
<path d="M88.5626 44.2823C83.4157 46.7304 82.8232 51.5841 82.8232 51.5841C82.8232 51.5841 87.4981 53.9963 92.5213 51.6134C97.538 49.2305 98.3681 43.5694 98.3681 43.5694C98.3681 43.5694 93.7193 41.831 88.5626 44.2823Z" fill="url(#paint18_linear_5238_1740)"/>
<path d="M82.3043 54.5289C76.6528 55.3004 74.6279 59.7505 74.6279 59.7505C74.6279 59.7505 78.3489 63.4747 83.8539 62.7162C89.3622 61.9577 91.8722 56.8174 91.8722 56.8174C91.8722 56.8174 87.9591 53.7606 82.3043 54.5289Z" fill="url(#paint19_linear_5238_1740)"/>
<path d="M62.8496 67.3822C62.8496 67.3822 66.0921 71.5198 71.6589 71.4319C77.2193 71.344 80.312 66.5326 80.312 66.5326C80.312 66.5326 76.8026 63.0265 71.099 63.1144C65.3889 63.2088 62.8496 67.3822 62.8496 67.3822Z" fill="url(#paint20_linear_5238_1740)"/>
<path d="M90.0405 20.2957L87.371 20.836C87.5924 21.9429 92.2868 48.1128 52.4756 67.3651L53.6573 69.8131C95.4674 49.594 90.0959 20.5854 90.0405 20.2957Z" fill="url(#paint21_linear_5238_1740)"/>
<defs>
<linearGradient id="paint0_linear_5238_1740" x1="5.60958" y1="14.7888" x2="5.60958" y2="29.5031" gradientUnits="userSpaceOnUse">
<stop stop-color="white"/>
<stop offset="0.447917" stop-color="#C6C6C6"/>
</linearGradient>
<linearGradient id="paint1_linear_5238_1740" x1="21.7633" y1="13.2395" x2="21.7633" y2="30.0405" gradientUnits="userSpaceOnUse">
<stop stop-color="white"/>
<stop offset="0.447917" stop-color="#C6C6C6"/>
</linearGradient>
<linearGradient id="paint2_linear_5238_1740" x1="25.3527" y1="27.5286" x2="25.3527" y2="44.8179" gradientUnits="userSpaceOnUse">
<stop stop-color="white"/>
<stop offset="0.447917" stop-color="#C6C6C6"/>
</linearGradient>
<linearGradient id="paint3_linear_5238_1740" x1="33.5523" y1="36.915" x2="33.5523" y2="54.3736" gradientUnits="userSpaceOnUse">
<stop stop-color="white"/>
<stop offset="0.447917" stop-color="#C6C6C6"/>
</linearGradient>
<linearGradient id="paint4_linear_5238_1740" x1="42.8471" y1="46.2764" x2="42.8471" y2="63.2792" gradientUnits="userSpaceOnUse">
<stop stop-color="white"/>
<stop offset="0.447917" stop-color="#C6C6C6"/>
</linearGradient>
<linearGradient id="paint5_linear_5238_1740" x1="14.0828" y1="0.314209" x2="14.0828" y2="17.8021" gradientUnits="userSpaceOnUse">
<stop stop-color="white"/>
<stop offset="0.447917" stop-color="#C6C6C6"/>
</linearGradient>
<linearGradient id="paint6_linear_5238_1740" x1="6.70506" y1="29.5769" x2="6.70506" y2="41.1399" gradientUnits="userSpaceOnUse">
<stop stop-color="white"/>
<stop offset="0.447917" stop-color="#C6C6C6"/>
</linearGradient>
<linearGradient id="paint7_linear_5238_1740" x1="12.4069" y1="42.989" x2="12.4069" y2="52.6828" gradientUnits="userSpaceOnUse">
<stop stop-color="white"/>
<stop offset="0.447917" stop-color="#C6C6C6"/>
</linearGradient>
<linearGradient id="paint8_linear_5238_1740" x1="19.7543" y1="54.426" x2="19.7543" y2="62.8354" gradientUnits="userSpaceOnUse">
<stop stop-color="white"/>
<stop offset="0.447917" stop-color="#C6C6C6"/>
</linearGradient>
<linearGradient id="paint9_linear_5238_1740" x1="31.4232" y1="63.1301" x2="31.4232" y2="71.4506" gradientUnits="userSpaceOnUse">
<stop stop-color="white"/>
<stop offset="0.447917" stop-color="#C6C6C6"/>
</linearGradient>
<linearGradient id="paint10_linear_5238_1740" x1="31.6217" y1="20.314" x2="31.6217" y2="69.8314" gradientUnits="userSpaceOnUse">
<stop stop-color="white"/>
<stop offset="0.447917" stop-color="#C6C6C6"/>
</linearGradient>
<linearGradient id="paint11_linear_5238_1740" x1="97.3925" y1="14.7742" x2="97.3925" y2="29.4852" gradientUnits="userSpaceOnUse">
<stop stop-color="white"/>
<stop offset="0.447917" stop-color="#C6C6C6"/>
</linearGradient>
<linearGradient id="paint12_linear_5238_1740" x1="81.2426" y1="13.2219" x2="81.2426" y2="30.0229" gradientUnits="userSpaceOnUse">
<stop stop-color="white"/>
<stop offset="0.447917" stop-color="#C6C6C6"/>
</linearGradient>
<linearGradient id="paint13_linear_5238_1740" x1="77.654" y1="27.5137" x2="77.654" y2="44.803" gradientUnits="userSpaceOnUse">
<stop stop-color="white"/>
<stop offset="0.447917" stop-color="#C6C6C6"/>
</linearGradient>
<linearGradient id="paint14_linear_5238_1740" x1="69.4492" y1="36.9006" x2="69.4492" y2="54.3592" gradientUnits="userSpaceOnUse">
<stop stop-color="white"/>
<stop offset="0.447917" stop-color="#C6C6C6"/>
</linearGradient>
<linearGradient id="paint15_linear_5238_1740" x1="60.1577" y1="46.2622" x2="60.1577" y2="63.265" gradientUnits="userSpaceOnUse">
<stop stop-color="white"/>
<stop offset="0.447917" stop-color="#C6C6C6"/>
</linearGradient>
<linearGradient id="paint16_linear_5238_1740" x1="88.9212" y1="0.298828" x2="88.9212" y2="17.7867" gradientUnits="userSpaceOnUse">
<stop stop-color="white"/>
<stop offset="0.447917" stop-color="#C6C6C6"/>
</linearGradient>
<linearGradient id="paint17_linear_5238_1740" x1="96.2949" y1="29.5615" x2="96.2949" y2="41.1235" gradientUnits="userSpaceOnUse">
<stop stop-color="white"/>
<stop offset="0.447917" stop-color="#C6C6C6"/>
</linearGradient>
<linearGradient id="paint18_linear_5238_1740" x1="90.5957" y1="42.9714" x2="90.5957" y2="52.665" gradientUnits="userSpaceOnUse">
<stop stop-color="white"/>
<stop offset="0.447917" stop-color="#C6C6C6"/>
</linearGradient>
<linearGradient id="paint19_linear_5238_1740" x1="83.2501" y1="54.405" x2="83.2501" y2="62.8181" gradientUnits="userSpaceOnUse">
<stop stop-color="white"/>
<stop offset="0.447917" stop-color="#C6C6C6"/>
</linearGradient>
<linearGradient id="paint20_linear_5238_1740" x1="71.5808" y1="63.1128" x2="71.5808" y2="71.4333" gradientUnits="userSpaceOnUse">
<stop stop-color="white"/>
<stop offset="0.447917" stop-color="#C6C6C6"/>
</linearGradient>
<linearGradient id="paint21_linear_5238_1740" x1="71.3841" y1="20.2957" x2="71.3841" y2="69.8131" gradientUnits="userSpaceOnUse">
<stop stop-color="white"/>
<stop offset="0.447917" stop-color="#C6C6C6"/>
</linearGradient>
</defs>
</svg>
