<svg width="156" height="156" viewBox="0 0 156 156" fill="none" xmlns="http://www.w3.org/2000/svg">
<mask id="mask0_6776_2187" style="mask-type:alpha" maskUnits="userSpaceOnUse" x="3" y="3" width="149" height="149">
<path d="M151.881 77.7583C151.881 118.659 118.724 151.816 77.8232 151.816C36.9224 151.816 3.76562 118.659 3.76562 77.7583C3.76562 36.8574 36.9224 3.70068 77.8232 3.70068C118.724 3.70068 151.881 36.8574 151.881 77.7583ZM51.3312 77.7583C51.3312 92.3895 63.1921 104.25 77.8232 104.25C92.4544 104.25 104.315 92.3895 104.315 77.7583C104.315 63.1271 92.4544 51.2662 77.8232 51.2662C63.1921 51.2662 51.3312 63.1271 51.3312 77.7583Z" fill="#E3F3FF"/>
</mask>
<g mask="url(#mask0_6776_2187)">
<rect x="25.6768" y="125.316" width="83.3766" height="0.809481" transform="rotate(45 25.6768 125.316)" fill="#74C3FF"/>
<rect x="28.9141" y="122.078" width="83.3766" height="0.809481" transform="rotate(45 28.9141 122.078)" fill="#74C3FF"/>
<rect x="32.1523" y="118.84" width="83.3766" height="0.809481" transform="rotate(45 32.1523 118.84)" fill="#74C3FF"/>
<rect x="35.3896" y="115.602" width="83.3766" height="0.809481" transform="rotate(45 35.3896 115.602)" fill="#74C3FF"/>
<rect x="38.6289" y="112.364" width="83.3766" height="0.809481" transform="rotate(45 38.6289 112.364)" fill="#74C3FF"/>
<rect x="41.8672" y="109.126" width="83.3766" height="0.809481" transform="rotate(45 41.8672 109.126)" fill="#74C3FF"/>
<rect x="45.1045" y="105.888" width="83.3766" height="0.809481" transform="rotate(45 45.1045 105.888)" fill="#74C3FF"/>
<rect x="48.3428" y="102.65" width="83.3766" height="0.809481" transform="rotate(45 48.3428 102.65)" fill="#74C3FF"/>
<rect x="51.5801" y="99.4124" width="83.3766" height="0.809481" transform="rotate(45 51.5801 99.4124)" fill="#74C3FF"/>
<rect x="54.8184" y="96.1745" width="83.3766" height="0.809481" transform="rotate(45 54.8184 96.1745)" fill="#74C3FF"/>
<rect x="58.0557" y="92.9365" width="83.3766" height="0.809481" transform="rotate(45 58.0557 92.9365)" fill="#74C3FF"/>
<rect x="61.293" y="89.6986" width="83.3766" height="0.809481" transform="rotate(45 61.293 89.6986)" fill="#74C3FF"/>
<rect x="64.5322" y="86.4607" width="83.3766" height="0.809481" transform="rotate(45 64.5322 86.4607)" fill="#74C3FF"/>
<rect x="67.7695" y="83.2228" width="83.3766" height="0.809481" transform="rotate(45 67.7695 83.2228)" fill="#74C3FF"/>
<rect x="72.1699" y="81.0046" width="83.3766" height="0.809481" transform="rotate(45 72.1699 81.0046)" fill="#74C3FF"/>
<rect x="75.4072" y="77.7667" width="83.3766" height="0.809481" transform="rotate(45 75.4072 77.7667)" fill="#74C3FF"/>
<rect x="78.6455" y="74.5287" width="83.3766" height="0.809481" transform="rotate(45 78.6455 74.5287)" fill="#74C3FF"/>
<rect x="81.8828" y="71.2908" width="83.3766" height="0.809481" transform="rotate(45 81.8828 71.2908)" fill="#74C3FF"/>
<rect x="85.1221" y="68.0529" width="83.3766" height="0.809481" transform="rotate(45 85.1221 68.0529)" fill="#74C3FF"/>
<rect x="88.3594" y="64.8151" width="83.3766" height="0.809481" transform="rotate(45 88.3594 64.8151)" fill="#74C3FF"/>
<rect x="91.5977" y="61.577" width="83.3766" height="0.809481" transform="rotate(45 91.5977 61.577)" fill="#74C3FF"/>
<rect x="94.8359" y="58.3392" width="83.3766" height="0.809481" transform="rotate(45 94.8359 58.3392)" fill="#74C3FF"/>
<rect x="98.0723" y="55.1012" width="83.3766" height="0.809481" transform="rotate(45 98.0723 55.1012)" fill="#74C3FF"/>
<rect x="101.311" y="51.8634" width="83.3766" height="0.809481" transform="rotate(45 101.311 51.8634)" fill="#74C3FF"/>
<rect x="104.549" y="48.6253" width="83.3766" height="0.809481" transform="rotate(45 104.549 48.6253)" fill="#74C3FF"/>
<rect x="107.786" y="45.3875" width="83.3766" height="0.809481" transform="rotate(45 107.786 45.3875)" fill="#74C3FF"/>
<rect x="111.023" y="42.1495" width="83.3766" height="0.809481" transform="rotate(45 111.023 42.1495)" fill="#74C3FF"/>
<rect x="114.263" y="38.9116" width="83.3766" height="0.809481" transform="rotate(45 114.263 38.9116)" fill="#74C3FF"/>
</g>
<path d="M153.022 75.2721C152.589 62.1098 148.712 49.2912 141.777 38.0952C134.843 26.8991 125.095 17.7171 113.504 11.4651C101.913 5.21309 88.8854 2.1097 75.7208 2.46453C62.5562 2.81936 49.7147 6.62001 38.4775 13.4873C27.2404 20.3546 18.0004 30.0485 11.6794 41.6018C5.3584 53.1551 2.1774 66.1639 2.45375 79.3304C2.7301 92.4969 6.45413 105.361 13.2543 116.639C20.0545 127.917 29.6931 137.214 41.2085 143.604L65.1767 100.409C61.2145 98.2106 57.898 95.0114 55.5582 91.1309C53.2184 87.2504 51.937 82.8242 51.8419 78.2938C51.7468 73.7634 52.8414 69.2873 55.0163 65.3121C57.1912 61.3368 60.3706 58.0013 64.2371 55.6384C68.1036 53.2755 72.5221 51.9677 77.0518 51.8457C81.5815 51.7236 86.064 52.7914 90.0522 54.9426C94.0404 57.0938 97.3948 60.2532 99.7807 64.1055C102.167 67.9579 103.501 72.3685 103.65 76.8974L153.022 75.2721Z" fill="url(#paint0_linear_6776_2187)"/>
<defs>
<linearGradient id="paint0_linear_6776_2187" x1="8.00513" y1="4.69236" x2="314.155" y2="64.3389" gradientUnits="userSpaceOnUse">
<stop stop-color="#E3F3FF"/>
<stop offset="1" stop-color="#42A5F5"/>
</linearGradient>
</defs>
</svg>
