<svg width="149" height="149" viewBox="0 0 149 149" fill="none" xmlns="http://www.w3.org/2000/svg">
<mask id="mask0_6779_2258" style="mask-type:alpha" maskUnits="userSpaceOnUse" x="0" y="0" width="149" height="149">
<path d="M148.881 74.7583C148.881 115.659 115.724 148.816 74.8232 148.816C33.9224 148.816 0.765625 115.659 0.765625 74.7583C0.765625 33.8574 33.9224 0.700684 74.8232 0.700684C115.724 0.700684 148.881 33.8574 148.881 74.7583ZM43.9164 74.7583C43.9164 91.8277 57.7539 105.665 74.8232 105.665C91.8926 105.665 105.73 91.8277 105.73 74.7583C105.73 57.6889 91.8926 43.8515 74.8232 43.8515C57.7539 43.8515 43.9164 57.6889 43.9164 74.7583Z" fill="#E3F3FF"/>
</mask>
<g mask="url(#mask0_6779_2258)">
<rect x="-57.8506" y="99.2704" width="150.798" height="1.46406" transform="rotate(45 -57.8506 99.2704)" fill="#74C3FF"/>
<rect x="-51.9951" y="93.4144" width="150.798" height="1.46406" transform="rotate(45 -51.9951 93.4144)" fill="#74C3FF"/>
<rect x="-46.1387" y="87.558" width="150.798" height="1.46406" transform="rotate(45 -46.1387 87.558)" fill="#74C3FF"/>
<rect x="-40.2832" y="81.7019" width="150.798" height="1.46406" transform="rotate(45 -40.2832 81.7019)" fill="#74C3FF"/>
<rect x="-34.4248" y="75.8456" width="150.798" height="1.46406" transform="rotate(45 -34.4248 75.8456)" fill="#74C3FF"/>
<rect x="-28.5684" y="69.9894" width="150.798" height="1.46406" transform="rotate(45 -28.5684 69.9894)" fill="#74C3FF"/>
<rect x="-22.7129" y="64.1332" width="150.798" height="1.46406" transform="rotate(45 -22.7129 64.1332)" fill="#74C3FF"/>
<rect x="-16.8564" y="58.2769" width="150.798" height="1.46406" transform="rotate(45 -16.8564 58.2769)" fill="#74C3FF"/>
<rect x="-11.001" y="52.4205" width="150.798" height="1.46406" transform="rotate(45 -11.001 52.4205)" fill="#74C3FF"/>
<rect x="-5.14355" y="46.5645" width="150.798" height="1.46406" transform="rotate(45 -5.14355 46.5645)" fill="#74C3FF"/>
<rect x="0.710938" y="40.7081" width="150.798" height="1.46406" transform="rotate(45 0.710938 40.7081)" fill="#74C3FF"/>
<rect x="6.56641" y="34.8519" width="150.798" height="1.46406" transform="rotate(45 6.56641 34.8519)" fill="#74C3FF"/>
<rect x="12.4248" y="28.9956" width="150.798" height="1.46406" transform="rotate(45 12.4248 28.9956)" fill="#74C3FF"/>
<rect x="18.2803" y="23.1394" width="150.798" height="1.46406" transform="rotate(45 18.2803 23.1394)" fill="#74C3FF"/>
<rect x="26.2383" y="19.1275" width="150.798" height="1.46406" transform="rotate(45 26.2383 19.1275)" fill="#74C3FF"/>
<rect x="32.0938" y="13.2713" width="150.798" height="1.46406" transform="rotate(45 32.0938 13.2713)" fill="#74C3FF"/>
<rect x="37.9502" y="7.41492" width="150.798" height="1.46406" transform="rotate(45 37.9502 7.41492)" fill="#74C3FF"/>
<rect x="43.8057" y="1.55881" width="150.798" height="1.46406" transform="rotate(45 43.8057 1.55881)" fill="#74C3FF"/>
<rect x="49.6641" y="-4.29755" width="150.798" height="1.46406" transform="rotate(45 49.6641 -4.29755)" fill="#74C3FF"/>
<rect x="55.5195" y="-10.1535" width="150.798" height="1.46406" transform="rotate(45 55.5195 -10.1535)" fill="#74C3FF"/>
<rect x="61.376" y="-16.01" width="150.798" height="1.46406" transform="rotate(45 61.376 -16.01)" fill="#74C3FF"/>
<rect x="67.2334" y="-21.866" width="150.798" height="1.46406" transform="rotate(45 67.2334 -21.866)" fill="#74C3FF"/>
<rect x="73.0869" y="-27.7225" width="150.798" height="1.46406" transform="rotate(45 73.0869 -27.7225)" fill="#74C3FF"/>
<rect x="78.9434" y="-33.5785" width="150.798" height="1.46406" transform="rotate(45 78.9434 -33.5785)" fill="#74C3FF"/>
<rect x="84.7998" y="-39.435" width="150.798" height="1.46406" transform="rotate(45 84.7998 -39.435)" fill="#74C3FF"/>
<rect x="90.6553" y="-45.2911" width="150.798" height="1.46406" transform="rotate(45 90.6553 -45.2911)" fill="#74C3FF"/>
<rect x="96.5107" y="-51.1474" width="150.798" height="1.46406" transform="rotate(45 96.5107 -51.1474)" fill="#74C3FF"/>
<rect x="102.369" y="-57.0036" width="150.798" height="1.46406" transform="rotate(45 102.369 -57.0036)" fill="#74C3FF"/>
</g>
</svg>
