<svg width="141" height="59" viewBox="0 0 141 59" fill="none" xmlns="http://www.w3.org/2000/svg">
<g clip-path="url(#clip0_5997_2384)">
<mask id="mask0_5997_2384" style="mask-type:luminance" maskUnits="userSpaceOnUse" x="0" y="0" width="141" height="59">
<path d="M141 0H0V58.7028H141V0Z" fill="white"/>
</mask>
<g mask="url(#mask0_5997_2384)">
<path d="M45.0687 17.4963C45.7414 17.5779 46.3606 17.9017 46.8106 18.4071C47.2609 18.9126 47.511 19.5648 47.5133 20.2409V50.4199C47.5213 50.7841 47.4515 51.1456 47.3085 51.4807C47.1656 51.8157 46.9523 52.1168 46.6837 52.3631C46.2553 52.809 45.6849 53.0917 45.0701 53.1634V58.3377C45.0701 58.4339 45.0318 58.5269 44.9637 58.5953C44.8955 58.6642 44.8026 58.7029 44.7058 58.7034C44.6085 58.7034 44.5156 58.6647 44.4467 58.5963C44.3777 58.5278 44.338 58.4349 44.3376 58.3377V53.1634C43.7235 53.0912 43.1537 52.8081 42.7252 52.3631C42.4564 52.1168 42.2433 51.8162 42.1004 51.4811C41.9576 51.1461 41.8886 50.7841 41.8972 50.4199V20.2409C41.8989 19.5653 42.1476 18.9135 42.597 18.408C43.0463 17.9026 43.6655 17.5784 44.3376 17.4963V8.11839C44.338 8.02142 44.3777 7.9286 44.4467 7.86027C44.5157 7.79194 44.6087 7.75377 44.7058 7.75391C44.8025 7.75428 44.8941 7.79279 44.9623 7.86112C45.0305 7.92945 45.0701 8.02199 45.0701 8.11839L45.0687 17.4963Z" fill="url(#paint0_linear_5997_2384)"/>
<path d="M35.0557 9.74231C35.7271 9.82597 36.3451 10.1507 36.7942 10.6557C37.2432 11.1609 37.4927 11.8118 37.4961 12.4871V42.6661C37.5044 43.0299 37.4344 43.3912 37.2914 43.726C37.1485 44.0608 36.9354 44.3612 36.6667 44.6072C36.2396 45.0535 35.6699 45.3371 35.0557 45.4087V52.8854C35.0546 52.9816 35.0156 53.0737 34.9472 53.1416C34.8788 53.2096 34.786 53.2483 34.6895 53.2487C34.5926 53.2487 34.5002 53.2105 34.4317 53.1426C34.363 53.0741 34.3242 52.9816 34.3239 52.8854V45.4094C33.7095 45.3372 33.1392 45.0538 32.7115 44.6079C32.443 44.3618 32.2303 44.0614 32.0874 43.7266C31.9446 43.3919 31.8751 43.0305 31.8835 42.6668V12.4877C31.8861 11.8124 32.1356 11.1613 32.5847 10.656C33.0337 10.1508 33.6516 9.82626 34.3231 9.74301V0.365912C34.3231 0.268987 34.3616 0.176021 34.4303 0.107419C34.4988 0.0388174 34.5916 0.000184619 34.6888 0C34.7858 0.00036815 34.8794 0.0390599 34.9479 0.107622C35.0165 0.176184 35.0548 0.269044 35.055 0.365912L35.0557 9.74231Z" fill="url(#paint1_linear_5997_2384)"/>
<path d="M132.276 24.8429C131.961 24.8356 131.649 24.8929 131.356 25.0111C131.064 25.1293 130.8 25.3061 130.579 25.5304C130.359 25.7519 130.186 26.0148 130.069 26.3043C129.952 26.5937 129.895 26.9038 129.9 27.2156C129.889 27.651 130.01 28.0797 130.245 28.4465C130.48 28.8134 130.819 29.1019 131.22 29.2752C132.472 29.7381 133.752 30.1212 135.051 30.4225C136.544 30.7704 137.93 31.4648 139.103 32.4498C140.369 33.6604 141.004 35.3688 141.004 37.5998C141.007 38.6475 140.801 39.6856 140.401 40.6542C140 41.6228 139.412 42.5028 138.67 43.2437C137.928 43.9846 137.045 44.5718 136.075 44.9715C135.104 45.3712 134.066 45.5754 133.016 45.5725H127.034C126.671 45.5749 126.312 45.5035 125.976 45.3628C125.642 45.2222 125.339 45.0153 125.087 44.7544C124.82 44.5067 124.61 44.2054 124.468 43.8706C124.326 43.5357 124.257 43.1746 124.265 42.8111V42.7646C124.27 42.0307 124.563 41.3278 125.081 40.8063C125.598 40.2848 126.299 39.9858 127.034 39.9728H133.24C133.554 39.9766 133.866 39.9183 134.156 39.8006C134.446 39.683 134.71 39.5088 134.932 39.2882C135.154 39.0675 135.33 38.805 135.449 38.5156C135.569 38.2263 135.628 37.916 135.626 37.6032C135.625 37.1917 135.5 36.7902 135.268 36.4506C135.035 36.111 134.705 35.849 134.321 35.6992C134.093 35.5988 132.809 35.217 130.473 34.5605C128.967 34.2007 127.574 33.4772 126.414 32.4535C125.148 31.2217 124.516 29.4768 124.516 27.2191C124.524 25.1069 125.369 23.0835 126.865 21.5898C128.361 20.0961 130.389 19.2531 132.505 19.2443H136.727C137.467 19.2465 138.175 19.5409 138.698 20.0635C139.221 20.5859 139.515 21.2939 139.516 22.0322V22.0788C139.526 22.442 139.459 22.8032 139.318 23.1382C139.177 23.4732 138.964 23.7745 138.698 24.022C138.443 24.2869 138.137 24.4966 137.798 24.6387C137.458 24.7807 137.095 24.8521 136.727 24.8481L132.276 24.8429ZM97.6637 54.9679C96.9323 54.9589 96.2339 54.6654 95.7172 54.1491C95.2 53.6334 94.906 52.9359 94.8975 52.2064V32.364C94.9074 29.7642 95.6893 27.2257 97.1437 25.0689C98.599 22.9121 100.661 21.2336 103.071 20.2456C105.481 19.2574 108.129 19.0038 110.684 19.5169C113.238 20.03 115.582 21.2867 117.421 23.1284C119.261 24.9701 120.51 27.3141 121.015 29.8647C121.52 32.4153 121.258 35.058 120.26 37.4593C119.262 39.8605 117.572 41.913 115.405 43.3571C113.239 44.8011 110.692 45.5722 108.086 45.5732C104.764 45.5732 102.229 44.8109 100.51 43.2892V52.2064C100.497 52.9364 100.199 53.6334 99.681 54.1487C99.1634 54.6644 98.465 54.9579 97.7331 54.9679H97.6637ZM108.086 39.9256C109.088 39.9352 110.082 39.7467 111.01 39.3708C111.938 38.9949 112.783 38.4393 113.494 37.736C114.205 37.0325 114.77 36.1952 115.155 35.2727C115.541 34.3502 115.74 33.3605 115.74 32.3609C115.74 31.3613 115.541 30.3717 115.155 29.4492C114.77 28.5266 114.205 27.6897 113.494 26.9862C112.783 26.2828 111.938 25.7272 111.01 25.3513C110.082 24.9754 109.088 24.7867 108.086 24.7963C106.589 24.7998 105.126 25.2451 103.881 26.0759C102.636 26.9067 101.667 28.0861 101.091 29.4658C100.516 30.8455 100.362 32.3642 100.649 33.8308C100.936 35.2974 101.652 36.6463 102.706 37.7084C103.402 38.4261 104.239 38.9936 105.164 39.3749C106.091 39.7563 107.085 39.9436 108.086 39.9256ZM86.6555 16.2695C86.1294 16.2726 85.6094 16.1459 85.1441 15.9007C84.6788 15.6554 84.2815 15.2989 83.9875 14.8634C83.693 14.4278 83.5113 13.9266 83.458 13.404C83.4052 12.8815 83.4826 12.3541 83.6831 11.8686C83.8837 11.3829 84.2017 10.9542 84.608 10.6206C85.0143 10.287 85.497 10.0588 86.0128 9.95625C86.5291 9.8538 87.0632 9.88022 87.5667 10.0332C88.0702 10.1861 88.528 10.4612 88.8994 10.8332C89.2033 11.1244 89.4449 11.4739 89.61 11.8607C89.7752 12.2475 89.8611 12.6637 89.8611 13.0841C89.8611 13.5046 89.7752 13.9208 89.61 14.3076C89.4449 14.6944 89.2033 15.0439 88.8994 15.3351C88.6091 15.6352 88.2595 15.873 87.8735 16.0337C87.4875 16.1945 87.0736 16.2746 86.6555 16.2695ZM86.6801 19.2416C87.0439 19.2337 87.4058 19.3027 87.7413 19.4441C88.0769 19.5854 88.3784 19.7959 88.6266 20.0617C88.8894 20.3169 89.0966 20.6227 89.2377 20.9606C89.3788 21.2984 89.45 21.6612 89.4463 22.0271V42.8125C89.4378 43.5422 89.1433 44.2393 88.6266 44.7554C88.1094 45.2715 87.411 45.5652 86.6801 45.5739H86.6324C86.2653 45.579 85.9005 45.5094 85.5612 45.3686C85.2224 45.2279 84.9161 45.0192 84.6613 44.7557C84.3947 44.5078 84.1833 44.2067 84.0403 43.8719C83.8978 43.5372 83.8275 43.1763 83.8332 42.8125V22.0271C83.8318 21.6608 83.9035 21.2979 84.046 20.9602C84.1885 20.6226 84.398 20.317 84.6613 20.0617C84.9161 19.798 85.2224 19.5893 85.5612 19.4482C85.9005 19.3071 86.2648 19.2368 86.6324 19.2416H86.6801ZM55.4765 54.9683C54.7451 54.9594 54.0457 54.6654 53.5286 54.1496C53.0114 53.6338 52.716 52.9368 52.7061 52.2073V32.3647C52.716 29.7642 53.4979 27.225 54.9527 25.0675C56.4075 22.91 58.4706 21.231 60.881 20.2425C63.291 19.254 65.9406 19.0004 68.4954 19.5135C71.0502 20.0266 73.3945 21.2835 75.234 23.1256C77.0734 24.9677 78.3244 27.3121 78.8297 29.8633C79.3347 32.4145 79.0718 35.0578 78.0724 37.4596C77.0734 39.8614 75.3835 41.9138 73.2166 43.3581C71.0493 44.8022 68.5025 45.5733 65.8967 45.5739C62.5765 45.5739 60.0406 44.8115 58.3206 43.29V52.2073C58.3083 52.9368 58.012 53.6334 57.4938 54.1487C56.9762 54.6644 56.2773 54.9584 55.5459 54.9683H55.4765ZM65.8967 39.9263C66.8985 39.9359 67.8919 39.7475 68.8201 39.3715C69.7483 38.9956 70.5925 38.44 71.3041 37.7366C72.0157 37.0332 72.5801 36.1959 72.9656 35.2734C73.3511 34.3509 73.5493 33.3612 73.5493 32.3616C73.5493 31.362 73.3511 30.3724 72.9656 29.4499C72.5801 28.5272 72.0157 27.6903 71.3041 26.9869C70.5925 26.2836 69.7483 25.7279 68.8201 25.352C67.8919 24.9761 66.8985 24.7874 65.8967 24.797C64.3994 24.8012 62.9366 25.2469 61.6927 26.0779C60.4483 26.909 59.4776 28.0882 58.9029 29.4679C58.3286 30.8475 58.1752 32.3659 58.4626 33.8322C58.75 35.2984 59.4649 36.6472 60.5181 37.7091C61.2147 38.4265 62.0523 38.9937 62.9776 39.3749C63.903 39.7562 64.8958 39.9436 65.8967 39.9256V39.9263Z" fill="#5521A9"/>
<path d="M13.1884 24.8433C12.1876 24.8256 11.1937 25.0131 10.2687 25.3946C9.3436 25.7761 8.50694 26.3432 7.81058 27.0608C6.40247 28.4909 5.61347 30.4159 5.61347 32.4208C5.61347 34.4257 6.40247 36.3502 7.81058 37.7802C8.51157 38.4899 9.34959 39.0503 10.274 39.4273C11.1984 39.8044 12.1899 39.9906 13.1884 39.9739C14.186 39.9792 15.1747 39.7869 16.0974 39.4083C17.0201 39.0297 17.8583 38.472 18.5636 37.7679C19.2689 37.0639 19.8272 36.2276 20.2063 35.3068C20.5853 34.3858 20.7775 33.3986 20.7717 32.4031C20.7881 31.4085 20.5995 30.4213 20.2177 29.5023C19.836 28.5833 19.269 27.7521 18.5522 27.0608C17.8582 26.3441 17.0239 25.7775 16.1011 25.3959C15.1784 25.0144 14.1871 24.8264 13.1884 24.8433ZM13.1884 19.2409C14.9252 19.215 16.6489 19.5442 18.2533 20.2088C19.8576 20.8733 21.3084 21.8591 22.5164 23.1049C23.7629 24.3093 24.7493 25.7558 25.4149 27.3548C26.0804 28.9539 26.411 30.6718 26.3863 32.4031V42.8128C26.3939 43.1763 26.3246 43.537 26.183 43.8719C26.0413 44.2069 25.8305 44.5087 25.5643 44.7568C25.3118 45.0171 25.0091 45.2233 24.6745 45.3639C24.3398 45.5044 23.9802 45.5762 23.6171 45.5742H23.5473C23.1843 45.5775 22.8246 45.5065 22.4901 45.3659C22.1555 45.2253 21.8534 45.0182 21.6022 44.7568C21.3333 44.5103 21.1201 44.2092 20.9769 43.874C20.8337 43.5388 20.7638 43.1772 20.7717 42.8128C19.036 44.6538 16.5082 45.5742 13.1884 45.5742C11.4531 45.5996 9.73097 45.2697 8.12816 44.6057C6.52535 43.9416 5.07576 42.9573 3.86873 41.7129C2.64183 40.4924 1.66837 39.042 1.00417 37.4453C0.339952 35.8486 -0.00195312 34.1368 -0.00195312 32.408C-0.00195312 30.6791 0.339952 28.9678 1.00417 27.3711C1.66837 25.7744 2.64183 24.3241 3.86873 23.1036C5.07571 21.859 6.52525 20.8743 8.12807 20.2101C9.73088 19.546 11.453 19.2162 13.1884 19.2416V19.2409Z" fill="#5521A9"/>
</g>
</g>
<defs>
<linearGradient id="paint0_linear_5997_2384" x1="41.8965" y1="48.6158" x2="41.8965" y2="8.11056" gradientUnits="userSpaceOnUse">
<stop stop-color="#F50057"/>
<stop offset="1" stop-color="#651FFF"/>
</linearGradient>
<linearGradient id="paint1_linear_5997_2384" x1="31.8828" y1="0.266245" x2="31.8828" y2="52.6631" gradientUnits="userSpaceOnUse">
<stop stop-color="#F50057"/>
<stop offset="1" stop-color="#651FFF"/>
</linearGradient>
<clipPath id="clip0_5997_2384">
<rect width="141" height="58.7028" fill="white"/>
</clipPath>
</defs>
</svg>
