<svg width="147" height="53" viewBox="0 0 147 53" fill="none" xmlns="http://www.w3.org/2000/svg">
<g clip-path="url(#clip0_6175_1021)">
<path d="M50.4266 14.771H53.2266L61.0266 33.571H57.2266L55.3266 28.671H48.4266L46.5266 33.571H42.7266L50.4266 14.771ZM54.0266 25.371L51.9266 19.871L49.8266 25.371H54.0266Z" fill="#2196F3"/>
<path d="M63.0264 14.771H68.2263C76.8263 14.771 78.3264 20.571 78.3264 24.271C78.3264 26.271 77.8264 33.571 68.3264 33.571H63.0264V14.771ZM68.2263 30.271C70.1263 30.271 74.8264 30.071 74.8264 24.371C74.8264 18.471 69.9264 18.271 68.0264 18.271H66.5264V30.271H68.2263Z" fill="#2196F3"/>
<path d="M80.8266 14.771H86.2266C92.5266 14.771 93.3266 18.971 93.3266 20.771C93.3266 23.771 91.3266 26.371 88.2266 26.671L93.5266 33.571H89.2266L84.3266 26.671H84.2266V33.571H80.7266V14.771H80.8266ZM84.3266 23.771H86.4266C87.2266 23.771 89.9266 23.6711 89.9266 20.9711C89.9266 18.2711 87.2266 18.171 86.4266 18.171H84.3266V23.771Z" fill="#2196F3"/>
<path d="M114.427 24.371C114.427 29.771 110.127 34.171 104.527 34.171C98.927 34.171 94.627 29.871 94.627 24.371C94.627 18.971 98.927 14.571 104.527 14.571C110.127 14.571 114.427 18.871 114.427 24.371ZM110.927 24.271C110.927 20.771 108.227 17.871 104.527 17.871C100.827 17.871 98.127 20.771 98.127 24.271C98.127 27.871 100.927 30.771 104.527 30.771C108.227 30.671 110.927 27.771 110.927 24.271Z" fill="#2196F3"/>
<path d="M32.5262 -0.0289307H27.8262V40.171H32.5262V-0.0289307Z" fill="#1976D2"/>
<path d="M25.5262 18.4711H20.8262V52.171H25.5262V18.4711Z" fill="#1E88E5"/>
<path d="M18.6267 15.9711H13.9268V40.171H18.6267V15.9711Z" fill="#2196F3"/>
<path d="M11.6267 9.17102H6.92676V27.671H11.6267V9.17102Z" fill="#42A5F5"/>
<path d="M4.72635 21.371H0.0263672V33.9711H4.72635V21.371Z" fill="#64B5F6"/>
<path d="M119.231 14.809H128.831V18.209H122.731V22.509H128.531V25.9089H122.731V33.6089H119.231V14.809Z" fill="#F44336"/>
<path d="M136.331 24.209L129.831 14.809H133.931L138.431 21.309L142.931 14.809H147.031L140.531 24.209L147.031 33.6089H142.831L138.331 27.1089L133.831 33.6089H129.831L136.331 24.209Z" fill="#F44336"/>
</g>
<defs>
<clipPath id="clip0_6175_1021">
<rect width="146.9" height="52.1" fill="white"/>
</clipPath>
</defs>
</svg>
