<svg width="147" height="52" viewBox="0 0 147 52" fill="none" xmlns="http://www.w3.org/2000/svg">
<g clip-path="url(#clip0_6175_1293)">
<path d="M50.4266 14.7712H53.2266L61.0266 33.5713H57.2266L55.3266 28.6713H48.4266L46.5266 33.5713H42.7266L50.4266 14.7712ZM54.0266 25.3712L51.9266 19.8712L49.8266 25.3712H54.0266Z" fill="#2196F3"/>
<path d="M63.0264 14.7712H68.2263C76.8263 14.7712 78.3264 20.5712 78.3264 24.2712C78.3264 26.2712 77.8264 33.5713 68.3264 33.5713H63.0264V14.7712ZM68.2263 30.2712C70.1263 30.2712 74.8264 30.0712 74.8264 24.3712C74.8264 18.4712 69.9264 18.2712 68.0264 18.2712H66.5264V30.2712H68.2263Z" fill="#2196F3"/>
<path d="M80.8266 14.7712H86.2266C92.5266 14.7712 93.3266 18.9712 93.3266 20.7712C93.3266 23.7712 91.3266 26.3713 88.2266 26.6713L93.5266 33.5713H89.2266L84.3266 26.6713H84.2266V33.5713H80.7266V14.7712H80.8266ZM84.3266 23.7712H86.4266C87.2266 23.7712 89.9266 23.6713 89.9266 20.9713C89.9266 18.2713 87.2266 18.1713 86.4266 18.1713H84.3266V23.7712Z" fill="#2196F3"/>
<path d="M114.427 24.3712C114.427 29.7712 110.127 34.1713 104.527 34.1713C98.927 34.1713 94.627 29.8712 94.627 24.3712C94.627 18.9712 98.927 14.5713 104.527 14.5713C110.127 14.5713 114.427 18.8712 114.427 24.3712ZM110.927 24.2712C110.927 20.7712 108.227 17.8712 104.527 17.8712C100.827 17.8712 98.127 20.7712 98.127 24.2712C98.127 27.8712 100.927 30.7712 104.527 30.7712C108.227 30.6712 110.927 27.7712 110.927 24.2712Z" fill="#2196F3"/>
<path d="M32.5262 -0.0288086H27.8262V40.1711H32.5262V-0.0288086Z" fill="#1976D2"/>
<path d="M25.5262 18.4712H20.8262V52.1711H25.5262V18.4712Z" fill="#1E88E5"/>
<path d="M18.6267 15.9712H13.9268V40.1711H18.6267V15.9712Z" fill="#2196F3"/>
<path d="M11.6267 9.17114H6.92676V27.6711H11.6267V9.17114Z" fill="#42A5F5"/>
<path d="M4.72635 21.3711H0.0263672V33.9712H4.72635V21.3711Z" fill="#64B5F6"/>
<path d="M119.231 14.8091H128.831V18.2091H122.731V22.5091H128.531V25.9091H122.731V33.6091H119.231V14.8091Z" fill="#F44336"/>
<path d="M136.331 24.2091L129.831 14.8091H133.931L138.431 21.3091L142.931 14.8091H147.031L140.531 24.2091L147.031 33.6091H142.831L138.331 27.1091L133.831 33.6091H129.831L136.331 24.2091Z" fill="#F44336"/>
<path d="M44.8534 41.9922V49H43.9389V41.9922H44.8534ZM47.1059 41.9922V42.7527H41.6912V41.9922H47.1059ZM48.9012 41.6071V49H48.0107V41.6071H48.9012ZM48.6894 46.1988L48.3188 46.1844C48.322 45.8282 48.3749 45.4993 48.4776 45.1977C48.5803 44.8929 48.7247 44.6281 48.9108 44.4035C49.0969 44.1789 49.3183 44.0056 49.575 43.8837C49.8349 43.7586 50.1221 43.696 50.4365 43.696C50.6932 43.696 50.9242 43.7313 51.1296 43.8019C51.335 43.8693 51.5098 43.9784 51.6542 44.1292C51.8018 44.28 51.9141 44.4757 51.9911 44.7164C52.0681 44.9538 52.1067 45.2442 52.1067 45.5875V49H51.2114V45.5779C51.2114 45.3052 51.1713 45.087 51.0911 44.9233C51.0109 44.7565 50.8938 44.6362 50.7397 44.5624C50.5857 44.4854 50.3964 44.4468 50.1718 44.4468C49.9504 44.4468 49.7483 44.4934 49.5654 44.5864C49.3857 44.6795 49.23 44.8078 49.0985 44.9715C48.9701 45.1351 48.8691 45.3228 48.7953 45.5346C48.7247 45.7432 48.6894 45.9646 48.6894 46.1988ZM55.6009 49.0963C55.2384 49.0963 54.9095 49.0353 54.6143 48.9134C54.3223 48.7882 54.0704 48.6134 53.8586 48.3887C53.65 48.1641 53.4896 47.8978 53.3773 47.5898C53.265 47.2817 53.2088 46.9448 53.2088 46.579V46.3769C53.2088 45.9533 53.2714 45.5763 53.3966 45.2458C53.5217 44.9121 53.6918 44.6297 53.9067 44.3987C54.1217 44.1677 54.3656 43.9928 54.6383 43.8741C54.9111 43.7554 55.1934 43.696 55.4854 43.696C55.8576 43.696 56.1785 43.7602 56.448 43.8885C56.7208 44.0169 56.9438 44.1966 57.117 44.4276C57.2903 44.6554 57.4187 44.9249 57.5021 45.2362C57.5855 45.5442 57.6272 45.8811 57.6272 46.2469V46.6464H53.7383V45.9196H56.7368V45.8523C56.724 45.6212 56.6759 45.3966 56.5924 45.1784C56.5122 44.9602 56.3839 44.7806 56.2074 44.6394C56.0309 44.4982 55.7902 44.4276 55.4854 44.4276C55.2833 44.4276 55.0972 44.4709 54.9271 44.5575C54.757 44.641 54.611 44.7661 54.4891 44.933C54.3672 45.0998 54.2725 45.3036 54.2051 45.5442C54.1378 45.7849 54.1041 46.0624 54.1041 46.3769V46.579C54.1041 46.8261 54.1378 47.0587 54.2051 47.2769C54.2757 47.4919 54.3768 47.6812 54.5084 47.8449C54.6431 48.0085 54.8052 48.1369 54.9945 48.2299C55.187 48.323 55.4052 48.3695 55.6491 48.3695C55.9635 48.3695 56.2298 48.3053 56.448 48.177C56.6662 48.0486 56.8571 47.877 57.0208 47.662L57.5598 48.0903C57.4475 48.2604 57.3048 48.4224 57.1315 48.5765C56.9582 48.7305 56.7448 48.8556 56.4913 48.9519C56.2411 49.0481 55.9443 49.0963 55.6009 49.0963ZM63.8409 42.6131L61.521 49H60.5728L63.2441 41.9922H63.8553L63.8409 42.6131ZM65.7854 49L63.4607 42.6131L63.4462 41.9922H64.0575L66.7384 49H65.7854ZM65.665 46.4058V47.1662H61.728V46.4058H65.665ZM68.4325 44.6105V49H67.5421V43.7923H68.4085L68.4325 44.6105ZM70.0594 43.7634L70.0545 44.5912C69.9807 44.5752 69.9102 44.5656 69.8428 44.5624C69.7786 44.5559 69.7048 44.5527 69.6214 44.5527C69.416 44.5527 69.2347 44.5848 69.0775 44.649C68.9203 44.7132 68.7871 44.803 68.678 44.9185C68.5689 45.034 68.4823 45.172 68.4181 45.3324C68.3571 45.4897 68.317 45.6629 68.2978 45.8523L68.0475 45.9967C68.0475 45.6822 68.078 45.387 68.139 45.111C68.2031 44.8351 68.301 44.5912 68.4325 44.3795C68.5641 44.1645 68.731 43.9976 68.9331 43.8789C69.1385 43.757 69.3823 43.696 69.6647 43.696C69.7289 43.696 69.8027 43.704 69.8861 43.7201C69.9695 43.7329 70.0273 43.7473 70.0594 43.7634ZM73.3034 43.7923V44.4757H70.4877V43.7923H73.3034ZM71.4407 42.5264H72.3311V47.7101C72.3311 47.8866 72.3584 48.0197 72.4129 48.1096C72.4675 48.1994 72.5381 48.2588 72.6247 48.2877C72.7114 48.3165 72.8044 48.331 72.9039 48.331C72.9777 48.331 73.0547 48.3246 73.1349 48.3117C73.2183 48.2957 73.2809 48.2829 73.3226 48.2732L73.3274 49C73.2568 49.0225 73.1638 49.0433 73.0483 49.0626C72.936 49.085 72.7996 49.0963 72.6392 49.0963C72.421 49.0963 72.2204 49.0529 72.0375 48.9663C71.8546 48.8797 71.7086 48.7353 71.5995 48.5331C71.4937 48.3278 71.4407 48.0518 71.4407 47.7053V42.5264ZM82.323 45.2747V45.7175C82.323 46.2437 82.2573 46.7154 82.1257 47.1325C81.9941 47.5497 81.8048 47.9042 81.5578 48.1962C81.3107 48.4882 81.0139 48.7112 80.6673 48.8652C80.324 49.0193 79.939 49.0963 79.5122 49.0963C79.0983 49.0963 78.7181 49.0193 78.3715 48.8652C78.0282 48.7112 77.7298 48.4882 77.4763 48.1962C77.226 47.9042 77.0319 47.5497 76.8939 47.1325C76.7559 46.7154 76.6869 46.2437 76.6869 45.7175V45.2747C76.6869 44.7485 76.7543 44.2784 76.8891 43.8645C77.0271 43.4473 77.2212 43.0928 77.4715 42.8008C77.7218 42.5056 78.0186 42.281 78.3619 42.127C78.7084 41.9729 79.0887 41.8959 79.5026 41.8959C79.9293 41.8959 80.3144 41.9729 80.6577 42.127C81.0043 42.281 81.3011 42.5056 81.5481 42.8008C81.7984 43.0928 81.9893 43.4473 82.1209 43.8645C82.2557 44.2784 82.323 44.7485 82.323 45.2747ZM81.4037 45.7175V45.2651C81.4037 44.8479 81.3604 44.4789 81.2738 44.1581C81.1904 43.8372 81.0668 43.5677 80.9032 43.3495C80.7395 43.1313 80.539 42.966 80.3015 42.8537C80.0673 42.7414 79.801 42.6853 79.5026 42.6853C79.2138 42.6853 78.9523 42.7414 78.7181 42.8537C78.487 42.966 78.2881 43.1313 78.1212 43.3495C77.9576 43.5677 77.8308 43.8372 77.741 44.1581C77.6512 44.4789 77.6062 44.8479 77.6062 45.2651V45.7175C77.6062 46.1378 77.6512 46.51 77.741 46.8341C77.8308 47.155 77.9592 47.4261 78.126 47.6475C78.2961 47.8657 78.4967 48.031 78.7277 48.1433C78.9619 48.2556 79.2234 48.3117 79.5122 48.3117C79.8138 48.3117 80.0818 48.2556 80.316 48.1433C80.5502 48.031 80.7476 47.8657 80.908 47.6475C81.0716 47.4261 81.1952 47.155 81.2786 46.8341C81.362 46.51 81.4037 46.1378 81.4037 45.7175ZM84.9076 49H84.0172V43.2436C84.0172 42.8682 84.0846 42.5521 84.2194 42.2954C84.3574 42.0355 84.5547 41.8398 84.8114 41.7082C85.0681 41.5735 85.3729 41.5061 85.7259 41.5061C85.8285 41.5061 85.9312 41.5125 86.0339 41.5253C86.1398 41.5382 86.2425 41.5574 86.3419 41.5831L86.2938 42.3098C86.2264 42.2938 86.1494 42.2826 86.0628 42.2762C85.9794 42.2697 85.8959 42.2665 85.8125 42.2665C85.6232 42.2665 85.4595 42.305 85.3216 42.382C85.1868 42.4558 85.0841 42.5649 85.0135 42.7093C84.9429 42.8537 84.9076 43.0318 84.9076 43.2436V49ZM86.0146 43.7923V44.4757H83.1942V43.7923H86.0146ZM91.9828 41.9922V49H91.0684V41.9922H91.9828ZM94.2354 41.9922V42.7527H88.8207V41.9922H94.2354ZM95.6648 44.6105V49H94.7744V43.7923H95.6408L95.6648 44.6105ZM97.2916 43.7634L97.2868 44.5912C97.213 44.5752 97.1424 44.5656 97.0751 44.5624C97.0109 44.5559 96.9371 44.5527 96.8537 44.5527C96.6483 44.5527 96.467 44.5848 96.3098 44.649C96.1526 44.7132 96.0194 44.803 95.9103 44.9185C95.8012 45.034 95.7146 45.172 95.6504 45.3324C95.5894 45.4897 95.5493 45.6629 95.5301 45.8523L95.2798 45.9967C95.2798 45.6822 95.3103 45.387 95.3712 45.111C95.4354 44.8351 95.5333 44.5912 95.6648 44.3795C95.7964 44.1645 95.9632 43.9976 96.1654 43.8789C96.3707 43.757 96.6146 43.696 96.897 43.696C96.9611 43.696 97.0349 43.704 97.1184 43.7201C97.2018 43.7329 97.2596 43.7473 97.2916 43.7634ZM100.993 48.1096V45.4287C100.993 45.2234 100.951 45.0453 100.868 44.8945C100.788 44.7404 100.666 44.6217 100.502 44.5383C100.338 44.4549 100.136 44.4132 99.8955 44.4132C99.6709 44.4132 99.4736 44.4517 99.3035 44.5287C99.1367 44.6057 99.0051 44.7068 98.9088 44.8319C98.8158 44.957 98.7693 45.0918 98.7693 45.2362H97.8788C97.8788 45.0501 97.927 44.8656 98.0232 44.6827C98.1195 44.4998 98.2575 44.3345 98.4372 44.1869C98.62 44.0361 98.8382 43.9174 99.0917 43.8308C99.3484 43.7409 99.634 43.696 99.9485 43.696C100.327 43.696 100.661 43.7602 100.95 43.8885C101.242 44.0169 101.469 44.211 101.633 44.4709C101.8 44.7276 101.883 45.0501 101.883 45.4383V47.8641C101.883 48.0374 101.898 48.2219 101.927 48.4176C101.959 48.6134 102.005 48.7818 102.066 48.923V49H101.137C101.092 48.8973 101.057 48.761 101.031 48.5909C101.006 48.4176 100.993 48.2572 100.993 48.1096ZM101.147 45.8426L101.157 46.4683H100.256C100.003 46.4683 99.7768 46.4892 99.5778 46.5309C99.3789 46.5694 99.2121 46.6288 99.0773 46.709C98.9425 46.7892 98.8398 46.8903 98.7693 47.0122C98.6987 47.1309 98.6634 47.2705 98.6634 47.4309C98.6634 47.5946 98.7003 47.7438 98.7741 47.8786C98.8479 48.0133 98.9586 48.1208 99.1062 48.201C99.257 48.278 99.4415 48.3165 99.6597 48.3165C99.9324 48.3165 100.173 48.2588 100.382 48.1433C100.59 48.0278 100.755 47.8866 100.877 47.7197C101.003 47.5529 101.07 47.3908 101.08 47.2336L101.46 47.662C101.437 47.7967 101.376 47.9459 101.277 48.1096C101.177 48.2732 101.044 48.4305 100.877 48.5813C100.714 48.7289 100.518 48.8524 100.29 48.9519C100.066 49.0481 99.8121 49.0963 99.5297 49.0963C99.1768 49.0963 98.8671 49.0273 98.6008 48.8893C98.3377 48.7513 98.1323 48.5668 97.9847 48.3358C97.8403 48.1016 97.7681 47.8401 97.7681 47.5513C97.7681 47.2721 97.8227 47.0266 97.9318 46.8149C98.0409 46.5999 98.1981 46.4218 98.4035 46.2806C98.6088 46.1362 98.8559 46.0271 99.1447 45.9533C99.4335 45.8795 99.7559 45.8426 100.112 45.8426H101.147ZM106.566 47.9893V41.6071H107.462V49H106.643L106.566 47.9893ZM103.062 46.4539V46.3528C103.062 45.9549 103.111 45.594 103.207 45.2699C103.306 44.9426 103.446 44.6618 103.626 44.4276C103.809 44.1934 104.025 44.0137 104.275 43.8885C104.529 43.7602 104.811 43.696 105.122 43.696C105.45 43.696 105.735 43.7538 105.979 43.8693C106.226 43.9816 106.435 44.1468 106.605 44.365C106.778 44.58 106.915 44.8399 107.014 45.1447C107.113 45.4496 107.182 45.7945 107.221 46.1795V46.6223C107.186 47.0042 107.117 47.3475 107.014 47.6523C106.915 47.9572 106.778 48.2171 106.605 48.4321C106.435 48.647 106.226 48.8123 105.979 48.9278C105.732 49.0401 105.443 49.0963 105.113 49.0963C104.808 49.0963 104.529 49.0305 104.275 48.8989C104.025 48.7674 103.809 48.5829 103.626 48.3454C103.446 48.108 103.306 47.8288 103.207 47.508C103.111 47.1839 103.062 46.8325 103.062 46.4539ZM103.958 46.3528V46.4539C103.958 46.7138 103.983 46.9577 104.035 47.1855C104.089 47.4133 104.173 47.6138 104.285 47.7871C104.397 47.9604 104.54 48.0967 104.713 48.1962C104.887 48.2925 105.094 48.3406 105.334 48.3406C105.629 48.3406 105.872 48.278 106.061 48.1529C106.254 48.0278 106.408 47.8625 106.523 47.6572C106.639 47.4518 106.728 47.2288 106.793 46.9881V45.8282C106.754 45.6517 106.698 45.4817 106.624 45.318C106.554 45.1512 106.461 45.0036 106.345 44.8752C106.233 44.7437 106.093 44.6394 105.926 44.5624C105.763 44.4854 105.568 44.4468 105.344 44.4468C105.1 44.4468 104.89 44.4982 104.713 44.6009C104.54 44.7003 104.397 44.8383 104.285 45.0148C104.173 45.1881 104.089 45.3902 104.035 45.6212C103.983 45.8491 103.958 46.0929 103.958 46.3528ZM109.815 43.7923V49H108.92V43.7923H109.815ZM108.853 42.4109C108.853 42.2665 108.896 42.1446 108.983 42.0451C109.072 41.9457 109.204 41.8959 109.377 41.8959C109.547 41.8959 109.677 41.9457 109.767 42.0451C109.86 42.1446 109.907 42.2665 109.907 42.4109C109.907 42.5489 109.86 42.6676 109.767 42.7671C109.677 42.8634 109.547 42.9115 109.377 42.9115C109.204 42.9115 109.072 42.8634 108.983 42.7671C108.896 42.6676 108.853 42.5489 108.853 42.4109ZM112.135 44.9041V49H111.245V43.7923H112.087L112.135 44.9041ZM111.923 46.1988L111.553 46.1844C111.556 45.8282 111.609 45.4993 111.712 45.1977C111.814 44.8929 111.959 44.6281 112.145 44.4035C112.331 44.1789 112.552 44.0056 112.809 43.8837C113.069 43.7586 113.356 43.696 113.67 43.696C113.927 43.696 114.158 43.7313 114.364 43.8019C114.569 43.8693 114.744 43.9784 114.888 44.1292C115.036 44.28 115.148 44.4757 115.225 44.7164C115.302 44.9538 115.341 45.2442 115.341 45.5875V49H114.445V45.5779C114.445 45.3052 114.405 45.087 114.325 44.9233C114.245 44.7565 114.128 44.6362 113.974 44.5624C113.82 44.4854 113.63 44.4468 113.406 44.4468C113.184 44.4468 112.982 44.4934 112.799 44.5864C112.62 44.6795 112.464 44.8078 112.332 44.9715C112.204 45.1351 112.103 45.3228 112.029 45.5346C111.959 45.7432 111.923 45.9646 111.923 46.1988ZM120.067 43.7923H120.876V48.8893C120.876 49.3481 120.783 49.7396 120.596 50.0637C120.41 50.3878 120.15 50.6332 119.817 50.8001C119.486 50.9701 119.104 51.0552 118.671 51.0552C118.492 51.0552 118.28 51.0263 118.036 50.9685C117.795 50.914 117.558 50.8193 117.324 50.6846C117.093 50.553 116.898 50.3749 116.741 50.1503L117.208 49.6209C117.426 49.884 117.654 50.0669 117.892 50.1696C118.132 50.2723 118.37 50.3236 118.604 50.3236C118.886 50.3236 119.13 50.2706 119.335 50.1648C119.541 50.0589 119.7 49.9016 119.812 49.6931C119.927 49.4877 119.985 49.2342 119.985 48.9326V44.9378L120.067 43.7923ZM116.481 46.4539V46.3528C116.481 45.9549 116.528 45.594 116.621 45.2699C116.717 44.9426 116.854 44.6618 117.03 44.4276C117.21 44.1934 117.426 44.0137 117.68 43.8885C117.933 43.7602 118.219 43.696 118.536 43.696C118.864 43.696 119.149 43.7538 119.393 43.8693C119.64 43.9816 119.849 44.1468 120.019 44.365C120.192 44.58 120.329 44.8399 120.428 45.1447C120.527 45.4496 120.596 45.7945 120.635 46.1795V46.6223C120.6 47.0042 120.531 47.3475 120.428 47.6523C120.329 47.9572 120.192 48.2171 120.019 48.4321C119.849 48.647 119.64 48.8123 119.393 48.9278C119.146 49.0401 118.857 49.0963 118.527 49.0963C118.216 49.0963 117.933 49.0305 117.68 48.8989C117.429 48.7674 117.214 48.5829 117.035 48.3454C116.855 48.108 116.717 47.8288 116.621 47.508C116.528 47.1839 116.481 46.8325 116.481 46.4539ZM117.372 46.3528V46.4539C117.372 46.7138 117.397 46.9577 117.449 47.1855C117.503 47.4133 117.585 47.6138 117.694 47.7871C117.806 47.9604 117.949 48.0967 118.123 48.1962C118.296 48.2925 118.503 48.3406 118.743 48.3406C119.039 48.3406 119.283 48.278 119.475 48.1529C119.668 48.0278 119.82 47.8625 119.932 47.6572C120.048 47.4518 120.138 47.2288 120.202 46.9881V45.8282C120.166 45.6517 120.112 45.4817 120.038 45.318C119.968 45.1512 119.875 45.0036 119.759 44.8752C119.647 44.7437 119.507 44.6394 119.34 44.5624C119.173 44.4854 118.978 44.4468 118.753 44.4468C118.509 44.4468 118.299 44.4982 118.123 44.6009C117.949 44.7003 117.806 44.8383 117.694 45.0148C117.585 45.1881 117.503 45.3902 117.449 45.6212C117.397 45.8491 117.372 46.0929 117.372 46.3528Z" fill="#2196F3"/>
</g>
<defs>
<clipPath id="clip0_6175_1293">
<rect width="147" height="52" fill="white"/>
</clipPath>
</defs>
</svg>
