<svg width="143" height="26" viewBox="0 0 143 26" fill="none" xmlns="http://www.w3.org/2000/svg">
<g clip-path="url(#clip0_5997_2366)">
<path d="M12.9057 20.8142C16.3706 20.8142 19.1795 18.0054 19.1795 14.5404C19.1795 11.0755 16.3706 8.2666 12.9057 8.2666C9.44072 8.2666 6.63184 11.0755 6.63184 14.5404C6.63184 18.0054 9.44072 20.8142 12.9057 20.8142Z" fill="#E58613"/>
<path d="M12.9056 19.5388C15.6662 19.5388 17.904 17.3009 17.904 14.5404C17.904 11.7799 15.6662 9.54199 12.9056 9.54199C10.1451 9.54199 7.90723 11.7799 7.90723 14.5404C7.90723 17.3009 10.1451 19.5388 12.9056 19.5388Z" fill="white"/>
<path d="M14.8115 16.2341H14.0679V17.5147H12.7976V16.2341H10.2158V15.3253L12.8699 11.3596H14.0679V15.2478H14.8115V16.2341ZM12.7976 15.2014V14.0137C12.7976 13.9414 12.7976 13.864 12.7976 13.7762C12.7976 13.6884 12.7976 13.6006 12.7976 13.5077V13.2392C12.7976 13.1566 12.7976 13.0843 12.7976 13.0171C12.7976 12.95 12.7976 12.9087 12.7976 12.8829H12.7615L12.5911 13.2598C12.5291 13.3889 12.4517 13.5232 12.3742 13.6574L11.3415 15.2065L12.7976 15.2014Z" fill="black"/>
<path d="M12.9264 6.25784C14.3209 6.25784 15.4514 4.85686 15.4514 3.12868C15.4514 1.40049 14.3209 -0.000488281 12.9264 -0.000488281C11.5319 -0.000488281 10.4014 1.40049 10.4014 3.12868C10.4014 4.85686 11.5319 6.25784 12.9264 6.25784Z" fill="#678925"/>
<path d="M16.9437 8.82414C17.1369 8.30671 17.2821 7.77261 17.3774 7.22858C17.775 7.4248 18.0745 8.96872 18.0332 9.77425C19.1819 10.9916 19.8577 12.5794 19.9386 14.2511C20.7648 12.986 23.1865 4.23367 15.88 2.06494C16.2724 6.36109 13.3446 6.84647 13.0038 6.8568C12.663 6.86712 9.48738 6.4592 9.90564 2.1424C5.10345 3.19061 4.70069 7.61069 4.84011 9.23207C5.88188 8.63968 7.04257 8.28689 8.23778 8.19934C8.31687 7.84164 8.48167 7.5085 8.718 7.22858C8.718 7.61069 8.74382 7.82756 8.74898 8.14254C8.98135 8.11156 9.60098 8.0496 10.4065 8.01861C11.4799 7.6101 12.637 7.47087 13.7766 7.61309C14.9162 7.75532 16.0036 8.17468 16.9437 8.83447V8.82414Z" fill="#678925"/>
<path d="M25.5416 21.7068C26.2391 20.4992 25.5913 18.8196 24.0948 17.9552C22.5983 17.0909 20.8197 17.3691 20.1223 18.5767C19.4248 19.7843 20.0725 21.4639 21.569 22.3282C23.0655 23.1926 24.8441 22.9144 25.5416 21.7068Z" fill="#2F6FA8"/>
<path d="M19.5462 18.3306C19.7218 18.0207 21.6478 15.4854 25.1694 18.0207C26.6875 13.3322 23.0626 10.7916 21.5858 10.0842C21.5896 11.2853 21.3213 12.4717 20.801 13.5542C21.0677 13.8041 21.2712 14.1138 21.3948 14.4578L20.5841 14.0292C20.4963 14.241 20.2536 14.7831 19.8922 15.4751C19.7449 16.6311 19.313 17.7325 18.6353 18.6805C17.9576 19.6286 17.0552 20.3937 16.0091 20.9072C16.3337 21.2793 16.6876 21.6247 17.0677 21.9399C16.7372 22.1568 15.5186 21.7644 14.7595 21.3668C13.132 21.8043 11.4017 21.6468 9.87988 20.9227C11.1088 22.7196 17.0418 28.1673 22.2571 23.236C18.3379 21.4132 19.381 18.63 19.5462 18.3306Z" fill="#2F6FA8"/>
<path d="M5.68181 18.5577C4.97955 17.3494 3.20326 17.0758 1.70581 17.9381C0.208355 18.8004 -0.416445 20.4838 0.28581 21.6869C0.988064 22.89 2.76435 23.174 4.25665 22.3065C5.74894 21.439 6.39439 19.766 5.68181 18.5577Z" fill="#C1A840"/>
<path d="M5.87335 14.5868C5.87335 14.3183 5.87335 14.0705 5.91982 13.7916C5.36675 13.8841 4.82381 14.0293 4.29844 14.2254C4.26746 13.7658 5.53255 12.6763 6.23997 12.3458C6.62477 11.2007 7.29889 10.1744 8.19699 9.36639C8.50657 9.03982 8.85315 8.75043 9.22971 8.50407C8.26411 8.26137 -1.25763 10.4249 0.611605 18.0723C4.12804 15.5782 6.01793 17.8657 6.1935 18.1601C6.36906 18.4544 7.61866 21.4183 3.66848 23.2359C6.96804 26.8505 10.9957 24.9967 12.3331 24.0621C11.2894 23.4664 10.3943 22.642 9.71509 21.6507C9.36671 21.7537 8.99956 21.7766 8.64106 21.7178L9.4156 21.2014C9.302 21.0517 9.04382 20.6851 8.72884 20.2152C7.84672 19.5649 7.12903 18.7172 6.63319 17.7399C6.13736 16.7625 5.87714 15.6827 5.87335 14.5868Z" fill="#C1A840"/>
</g>
<path d="M44.9043 19.0981L44.8882 11.6329L41.1878 17.811H40.2547L36.5542 11.7295V19.0981H34.5592V7.83598H36.2807L40.7534 15.3012L45.1457 7.83598H46.8672L46.8832 19.0981H44.9043ZM57.8088 14.8507C57.8088 14.9901 57.7981 15.1886 57.7766 15.446H51.0354C51.1534 16.0788 51.4591 16.5829 51.9525 16.9583C52.4566 17.323 53.0787 17.5054 53.8188 17.5054C54.7627 17.5054 55.5403 17.1943 56.1517 16.5722L57.2296 17.811C56.8435 18.2723 56.3554 18.6208 55.7655 18.8568C55.1756 19.0928 54.5106 19.2108 53.7705 19.2108C52.8266 19.2108 51.9954 19.0231 51.2767 18.6477C50.5581 18.2723 50.0004 17.752 49.6035 17.087C49.2174 16.4113 49.0243 15.6498 49.0243 14.8024C49.0243 13.9658 49.212 13.215 49.5874 12.55C49.9736 11.8743 50.5045 11.3487 51.1802 10.9733C51.8559 10.5979 52.6175 10.4102 53.4648 10.4102C54.3014 10.4102 55.0469 10.5979 55.7012 10.9733C56.3662 11.338 56.881 11.8582 57.2457 12.5339C57.6211 13.1989 57.8088 13.9712 57.8088 14.8507ZM53.4648 12.0191C52.8213 12.0191 52.2743 12.2121 51.8238 12.5983C51.384 12.9737 51.1159 13.4778 51.0193 14.1106H55.8942C55.8084 13.4885 55.5456 12.9844 55.1059 12.5983C54.6661 12.2121 54.1191 12.0191 53.4648 12.0191ZM64.9051 18.6316C64.6691 18.8246 64.3795 18.9694 64.0363 19.066C63.7038 19.1625 63.3498 19.2108 62.9744 19.2108C62.0306 19.2108 61.3012 18.9641 60.7864 18.4707C60.2715 17.9773 60.0141 17.2587 60.0141 16.3148V12.18H58.5983V10.5711H60.0141V8.60825H62.0252V10.5711H64.3259V12.18H62.0252V16.2665C62.0252 16.6848 62.1271 17.0066 62.3309 17.2318C62.5347 17.4464 62.8296 17.5536 63.2158 17.5536C63.6663 17.5536 64.0417 17.4356 64.342 17.1997L64.9051 18.6316ZM69.8416 10.4102C71.1072 10.4102 72.0726 10.7159 72.7376 11.3273C73.4133 11.9279 73.7512 12.8396 73.7512 14.0623V19.0981H71.8527V18.0524C71.606 18.4278 71.252 18.7174 70.7908 18.9212C70.3403 19.1142 69.7933 19.2108 69.1498 19.2108C68.5062 19.2108 67.9431 19.1035 67.4604 18.889C66.9778 18.6637 66.6024 18.3581 66.3342 17.9719C66.0768 17.5751 65.9481 17.1299 65.9481 16.6366C65.9481 15.8643 66.2323 15.2476 66.8008 14.7863C67.38 14.3144 68.2863 14.0784 69.5198 14.0784H71.7401V13.9497C71.7401 13.3491 71.5577 12.8879 71.193 12.5661C70.8391 12.2443 70.3082 12.0834 69.6003 12.0834C69.1176 12.0834 68.6403 12.1585 68.1684 12.3087C67.7071 12.4588 67.3156 12.668 66.9939 12.9361L66.2055 11.4721C66.656 11.1288 67.1977 10.866 67.8305 10.6837C68.4633 10.5014 69.1337 10.4102 69.8416 10.4102ZM69.5681 17.7467C70.0722 17.7467 70.5173 17.6341 70.9035 17.4088C71.3003 17.1729 71.5792 16.8403 71.7401 16.4113V15.4138H69.6646C68.5062 15.4138 67.927 15.7946 67.927 16.5561C67.927 16.9208 68.0718 17.2104 68.3614 17.4249C68.651 17.6394 69.0532 17.7467 69.5681 17.7467ZM81.4967 18.6316C81.2607 18.8246 80.9711 18.9694 80.6279 19.066C80.2954 19.1625 79.9414 19.2108 79.566 19.2108C78.6221 19.2108 77.8928 18.9641 77.3779 18.4707C76.8631 17.9773 76.6057 17.2587 76.6057 16.3148V12.18H75.1899V10.5711H76.6057V8.60825H78.6168V10.5711H80.9175V12.18H78.6168V16.2665C78.6168 16.6848 78.7187 17.0066 78.9225 17.2318C79.1263 17.4464 79.4212 17.5536 79.8073 17.5536C80.2578 17.5536 80.6332 17.4356 80.9336 17.1997L81.4967 18.6316ZM85.0656 11.7617C85.6448 10.8607 86.6638 10.4102 88.1225 10.4102V12.3248C87.9509 12.2926 87.7954 12.2765 87.6559 12.2765C86.8729 12.2765 86.2616 12.5071 85.8218 12.9683C85.382 13.4188 85.1622 14.0731 85.1622 14.9311V19.0981H83.151V10.5067H85.0656V11.7617ZM93.0635 10.4102C94.3292 10.4102 95.2945 10.7159 95.9595 11.3273C96.6352 11.9279 96.9731 12.8396 96.9731 14.0623V19.0981H95.0746V18.0524C94.8279 18.4278 94.474 18.7174 94.0128 18.9212C93.5623 19.1142 93.0152 19.2108 92.3717 19.2108C91.7281 19.2108 91.165 19.1035 90.6824 18.889C90.1997 18.6637 89.8243 18.3581 89.5562 17.9719C89.2987 17.5751 89.17 17.1299 89.17 16.6366C89.17 15.8643 89.4543 15.2476 90.0227 14.7863C90.6019 14.3144 91.5083 14.0784 92.7417 14.0784H94.962V13.9497C94.962 13.3491 94.7797 12.8879 94.415 12.5661C94.061 12.2443 93.5301 12.0834 92.8222 12.0834C92.3395 12.0834 91.8622 12.1585 91.3903 12.3087C90.9291 12.4588 90.5376 12.668 90.2158 12.9361L89.4274 11.4721C89.8779 11.1288 90.4196 10.866 91.0524 10.6837C91.6852 10.5014 92.3556 10.4102 93.0635 10.4102ZM92.79 17.7467C93.2941 17.7467 93.7392 17.6341 94.1254 17.4088C94.5222 17.1729 94.8011 16.8403 94.962 16.4113V15.4138H92.8865C91.7281 15.4138 91.1489 15.7946 91.1489 16.5561C91.1489 16.9208 91.2937 17.2104 91.5833 17.4249C91.8729 17.6394 92.2752 17.7467 92.79 17.7467ZM108.047 7.16025V19.0981H106.116V17.988C105.784 18.3956 105.371 18.7013 104.878 18.9051C104.395 19.1089 103.859 19.2108 103.269 19.2108C102.443 19.2108 101.697 19.0284 101.032 18.6637C100.378 18.2991 99.8633 17.7842 99.4878 17.1192C99.1124 16.4435 98.9247 15.6712 98.9247 14.8024C98.9247 13.9336 99.1124 13.1667 99.4878 12.5017C99.8633 11.8367 100.378 11.3219 101.032 10.9572C101.697 10.5925 102.443 10.4102 103.269 10.4102C103.837 10.4102 104.357 10.5067 104.829 10.6998C105.301 10.8929 105.703 11.1825 106.036 11.5686V7.16025H108.047ZM103.51 17.4893C103.993 17.4893 104.427 17.382 104.813 17.1675C105.199 16.9422 105.505 16.6258 105.73 16.2182C105.956 15.8107 106.068 15.3387 106.068 14.8024C106.068 14.2661 105.956 13.7942 105.73 13.3866C105.505 12.979 105.199 12.668 104.813 12.4535C104.427 12.2282 103.993 12.1156 103.51 12.1156C103.027 12.1156 102.593 12.2282 102.207 12.4535C101.821 12.668 101.515 12.979 101.29 13.3866C101.065 13.7942 100.952 14.2661 100.952 14.8024C100.952 15.3387 101.065 15.8107 101.29 16.2182C101.515 16.6258 101.821 16.9422 102.207 17.1675C102.593 17.382 103.027 17.4893 103.51 17.4893ZM118.755 14.8507C118.755 14.9901 118.744 15.1886 118.722 15.446H111.981C112.099 16.0788 112.405 16.5829 112.898 16.9583C113.402 17.323 114.024 17.5054 114.765 17.5054C115.708 17.5054 116.486 17.1943 117.097 16.5722L118.175 17.811C117.789 18.2723 117.301 18.6208 116.711 18.8568C116.121 19.0928 115.456 19.2108 114.716 19.2108C113.772 19.2108 112.941 19.0231 112.223 18.6477C111.504 18.2723 110.946 17.752 110.549 17.087C110.163 16.4113 109.97 15.6498 109.97 14.8024C109.97 13.9658 110.158 13.215 110.533 12.55C110.919 11.8743 111.45 11.3487 112.126 10.9733C112.802 10.5979 113.563 10.4102 114.411 10.4102C115.247 10.4102 115.993 10.5979 116.647 10.9733C117.312 11.338 117.827 11.8582 118.191 12.5339C118.567 13.1989 118.755 13.9712 118.755 14.8507ZM114.411 12.0191C113.767 12.0191 113.22 12.2121 112.77 12.5983C112.33 12.9737 112.062 13.4778 111.965 14.1106H116.84C116.754 13.4885 116.491 12.9844 116.052 12.5983C115.612 12.2121 115.065 12.0191 114.411 12.0191ZM122.601 11.7617C123.18 10.8607 124.199 10.4102 125.658 10.4102V12.3248C125.486 12.2926 125.331 12.2765 125.191 12.2765C124.408 12.2765 123.797 12.5071 123.357 12.9683C122.917 13.4188 122.697 14.0731 122.697 14.9311V19.0981H120.686V10.5067H122.601V11.7617Z" fill="black"/>
<path d="M141.317 16.54H139.322V19.0981H137.295V16.54H131.117V15.092L136.667 7.83598H138.904L133.675 14.7703H137.359V12.5017H139.322V14.7703H141.317V16.54Z" fill="#E58613"/>
<defs>
<clipPath id="clip0_5997_2366">
<rect width="25.8182" height="25.3741" fill="white"/>
</clipPath>
</defs>
</svg>
