<svg width="147" height="52" viewBox="0 0 147 52" fill="none" xmlns="http://www.w3.org/2000/svg">
<g clip-path="url(#clip0_6175_1293)">
<path d="M50.4266 14.7712H53.2266L61.0266 33.5713H57.2266L55.3266 28.6713H48.4266L46.5266 33.5713H42.7266L50.4266 14.7712ZM54.0266 25.3712L51.9266 19.8712L49.8266 25.3712H54.0266Z" fill="#2196F3"/>
<path d="M63.0264 14.7712H68.2263C76.8263 14.7712 78.3264 20.5712 78.3264 24.2712C78.3264 26.2712 77.8264 33.5713 68.3264 33.5713H63.0264V14.7712ZM68.2263 30.2712C70.1263 30.2712 74.8264 30.0712 74.8264 24.3712C74.8264 18.4712 69.9264 18.2712 68.0264 18.2712H66.5264V30.2712H68.2263Z" fill="#2196F3"/>
<path d="M80.8266 14.7712H86.2266C92.5266 14.7712 93.3266 18.9712 93.3266 20.7712C93.3266 23.7712 91.3266 26.3713 88.2266 26.6713L93.5266 33.5713H89.2266L84.3266 26.6713H84.2266V33.5713H80.7266V14.7712H80.8266ZM84.3266 23.7712H86.4266C87.2266 23.7712 89.9266 23.6713 89.9266 20.9713C89.9266 18.2713 87.2266 18.1713 86.4266 18.1713H84.3266V23.7712Z" fill="#2196F3"/>
<path d="M114.427 24.3712C114.427 29.7712 110.127 34.1713 104.527 34.1713C98.927 34.1713 94.627 29.8712 94.627 24.3712C94.627 18.9712 98.927 14.5713 104.527 14.5713C110.127 14.5713 114.427 18.8712 114.427 24.3712ZM110.927 24.2712C110.927 20.7712 108.227 17.8712 104.527 17.8712C100.827 17.8712 98.127 20.7712 98.127 24.2712C98.127 27.8712 100.927 30.7712 104.527 30.7712C108.227 30.6712 110.927 27.7712 110.927 24.2712Z" fill="#2196F3"/>
<path d="M32.5262 -0.0288086H27.8262V40.1711H32.5262V-0.0288086Z" fill="#1976D2"/>
<path d="M25.5262 18.4712H20.8262V52.1711H25.5262V18.4712Z" fill="#1E88E5"/>
<path d="M18.6267 15.9712H13.9268V40.1711H18.6267V15.9712Z" fill="#2196F3"/>
<path d="M11.6267 9.17114H6.92676V27.6711H11.6267V9.17114Z" fill="#42A5F5"/>
<path d="M4.72635 21.3711H0.0263672V33.9712H4.72635V21.3711Z" fill="#64B5F6"/>
<path d="M119.231 14.8091H128.831V18.2091H122.731V22.5091H128.531V25.9091H122.731V33.6091H119.231V14.8091Z" fill="#F44336"/>
<path d="M136.331 24.2091L129.831 14.8091H133.931L138.431 21.3091L142.931 14.8091H147.031L140.531 24.2091L147.031 33.6091H142.831L138.331 27.1091L133.831 33.6091H129.831L136.331 24.2091Z" fill="#F44336"/>
<path d="M145.938 41.509H147V48.2034C147 48.806 146.878 49.3202 146.633 49.7458C146.389 50.1715 146.048 50.4939 145.609 50.713C145.175 50.9364 144.674 51.048 144.105 51.048C143.869 51.048 143.591 51.0101 143.27 50.9342C142.954 50.8626 142.642 50.7383 142.335 50.5613C142.031 50.3885 141.776 50.1546 141.57 49.8596L142.183 49.1642C142.47 49.5098 142.769 49.75 143.081 49.8849C143.397 50.0197 143.709 50.0872 144.016 50.0872C144.387 50.0872 144.707 50.0176 144.977 49.8786C145.247 49.7395 145.455 49.533 145.603 49.2591C145.755 48.9894 145.831 48.6564 145.831 48.2603V43.0135L145.938 41.509ZM141.229 45.0047V44.872C141.229 44.3494 141.29 43.8753 141.412 43.4497C141.538 43.0198 141.717 42.6511 141.949 42.3434C142.185 42.0358 142.47 41.7998 142.803 41.6354C143.135 41.4669 143.511 41.3826 143.928 41.3826C144.358 41.3826 144.733 41.4584 145.053 41.6101C145.377 41.7576 145.651 41.9747 145.875 42.2612C146.102 42.5436 146.281 42.885 146.412 43.2853C146.543 43.6857 146.633 44.1387 146.684 44.6444V45.226C146.638 45.7275 146.547 46.1784 146.412 46.5788C146.281 46.9791 146.102 47.3205 145.875 47.6029C145.651 47.8852 145.377 48.1022 145.053 48.254C144.728 48.4015 144.349 48.4752 143.915 48.4752C143.506 48.4752 143.135 48.3888 142.803 48.216C142.474 48.0432 142.191 47.8009 141.955 47.4891C141.719 47.1772 141.538 46.8106 141.412 46.3891C141.29 45.9635 141.229 45.502 141.229 45.0047ZM142.398 44.872V45.0047C142.398 45.3461 142.432 45.6664 142.499 45.9656C142.571 46.2648 142.678 46.5282 142.822 46.7558C142.969 46.9834 143.157 47.1625 143.384 47.2931C143.612 47.4195 143.884 47.4827 144.2 47.4827C144.587 47.4827 144.908 47.4006 145.16 47.2362C145.413 47.0719 145.613 46.8548 145.761 46.5851C145.913 46.3154 146.031 46.0225 146.115 45.7064V44.183C146.069 43.9512 145.997 43.7278 145.9 43.5129C145.807 43.2937 145.685 43.0999 145.533 42.9313C145.386 42.7585 145.203 42.6216 144.983 42.5204C144.764 42.4193 144.507 42.3687 144.212 42.3687C143.892 42.3687 143.616 42.4361 143.384 42.571C143.157 42.7016 142.969 42.8829 142.822 43.1146C142.678 43.3422 142.571 43.6077 142.499 43.9111C142.432 44.2104 142.398 44.5306 142.398 44.872Z" fill="#2196F3"/>
<path d="M135.521 42.9692V48.3488H134.352V41.509H135.458L135.521 42.9692ZM135.243 44.6697L134.756 44.6507C134.76 44.183 134.83 43.751 134.965 43.3549C135.1 42.9545 135.289 42.6068 135.534 42.3118C135.778 42.0168 136.069 41.7892 136.406 41.6291C136.747 41.4647 137.125 41.3826 137.538 41.3826C137.875 41.3826 138.178 41.4289 138.448 41.5216C138.718 41.6101 138.947 41.7534 139.137 41.9515C139.331 42.1496 139.478 42.4066 139.579 42.7227C139.681 43.0346 139.731 43.416 139.731 43.8669V48.3488H138.555V43.8542C138.555 43.496 138.503 43.2095 138.397 42.9945C138.292 42.7754 138.138 42.6174 137.936 42.5204C137.734 42.4193 137.485 42.3687 137.19 42.3687C136.899 42.3687 136.634 42.4298 136.393 42.552C136.157 42.6742 135.953 42.8428 135.78 43.0577C135.612 43.2727 135.479 43.5192 135.382 43.7974C135.289 44.0713 135.243 44.3621 135.243 44.6697Z" fill="#2196F3"/>
<path d="M132.473 41.509V48.3487H131.297V41.509H132.473ZM131.209 39.6947C131.209 39.5051 131.266 39.3449 131.38 39.2143C131.498 39.0836 131.67 39.0183 131.898 39.0183C132.121 39.0183 132.292 39.0836 132.41 39.2143C132.532 39.3449 132.593 39.5051 132.593 39.6947C132.593 39.8759 132.532 40.0318 132.41 40.1625C132.292 40.2889 132.121 40.3521 131.898 40.3521C131.67 40.3521 131.498 40.2889 131.38 40.1625C131.266 40.0318 131.209 39.8759 131.209 39.6947Z" fill="#2196F3"/>
<path d="M128.206 47.0211V38.6389H129.382V48.3486H128.308L128.206 47.0211ZM123.604 45.0046V44.8718C123.604 44.3493 123.668 43.8752 123.794 43.4495C123.925 43.0197 124.108 42.6509 124.344 42.3433C124.584 42.0356 124.869 41.7996 125.197 41.6353C125.53 41.4667 125.901 41.3824 126.31 41.3824C126.74 41.3824 127.115 41.4583 127.435 41.61C127.76 41.7575 128.034 41.9745 128.257 42.2611C128.485 42.5434 128.664 42.8848 128.794 43.2852C128.925 43.6855 129.016 44.1386 129.066 44.6443V45.2258C129.02 45.7273 128.929 46.1783 128.794 46.5786C128.664 46.979 128.485 47.3203 128.257 47.6027C128.034 47.8851 127.76 48.1021 127.435 48.2538C127.111 48.4013 126.731 48.4751 126.297 48.4751C125.897 48.4751 125.53 48.3887 125.197 48.2159C124.869 48.0431 124.584 47.8008 124.344 47.4889C124.108 47.1771 123.925 46.8104 123.794 46.389C123.668 45.9633 123.604 45.5019 123.604 45.0046ZM124.78 44.8718V45.0046C124.78 45.3459 124.814 45.6662 124.881 45.9654C124.953 46.2647 125.063 46.5281 125.21 46.7556C125.358 46.9832 125.545 47.1623 125.773 47.2929C126 47.4194 126.272 47.4826 126.588 47.4826C126.976 47.4826 127.294 47.4004 127.543 47.2361C127.796 47.0717 127.998 46.8547 128.15 46.5849C128.301 46.3152 128.419 46.0223 128.504 45.7063V44.1828C128.453 43.951 128.379 43.7277 128.282 43.5127C128.19 43.2936 128.067 43.0997 127.916 42.9312C127.768 42.7584 127.585 42.6214 127.366 42.5203C127.151 42.4191 126.896 42.3686 126.601 42.3686C126.281 42.3686 126.005 42.436 125.773 42.5708C125.545 42.7015 125.358 42.8827 125.21 43.1145C125.063 43.3421 124.953 43.6076 124.881 43.911C124.814 44.2102 124.78 44.5305 124.78 44.8718Z" fill="#2196F3"/>
<path d="M120.887 47.1793V43.6583C120.887 43.3886 120.832 43.1547 120.722 42.9566C120.617 42.7543 120.457 42.5984 120.242 42.4888C120.027 42.3792 119.762 42.3245 119.445 42.3245C119.15 42.3245 118.891 42.375 118.668 42.4762C118.449 42.5773 118.276 42.7101 118.15 42.8744C118.027 43.0388 117.966 43.2158 117.966 43.4054H116.797C116.797 43.161 116.86 42.9187 116.986 42.6785C117.113 42.4382 117.294 42.2212 117.53 42.0274C117.77 41.8293 118.057 41.6734 118.39 41.5596C118.727 41.4416 119.102 41.3826 119.515 41.3826C120.012 41.3826 120.451 41.4669 120.83 41.6354C121.213 41.804 121.513 42.059 121.727 42.4003C121.947 42.7375 122.056 43.161 122.056 43.6709V46.8569C122.056 47.0845 122.075 47.3268 122.113 47.5839C122.155 47.841 122.216 48.0622 122.296 48.2476V48.3488H121.076C121.017 48.2139 120.971 48.0348 120.937 47.8115C120.904 47.5839 120.887 47.3732 120.887 47.1793ZM121.089 44.2019L121.102 45.0237H119.92C119.587 45.0237 119.29 45.0511 119.028 45.1059C118.767 45.1565 118.548 45.2344 118.371 45.3398C118.194 45.4451 118.059 45.5779 117.966 45.738C117.874 45.894 117.827 46.0773 117.827 46.288C117.827 46.5029 117.876 46.6989 117.973 46.8759C118.069 47.0529 118.215 47.1941 118.409 47.2994C118.607 47.4006 118.849 47.4511 119.136 47.4511C119.494 47.4511 119.81 47.3753 120.084 47.2236C120.358 47.0719 120.575 46.8864 120.735 46.6673C120.899 46.4481 120.988 46.2353 121.001 46.0288L121.5 46.5914C121.47 46.7684 121.39 46.9644 121.26 47.1793C121.129 47.3942 120.954 47.6007 120.735 47.7988C120.52 47.9927 120.263 48.1549 119.964 48.2856C119.669 48.412 119.336 48.4752 118.965 48.4752C118.501 48.4752 118.095 48.3846 117.745 48.2034C117.399 48.0222 117.13 47.7799 116.936 47.4764C116.746 47.1688 116.651 46.8253 116.651 46.446C116.651 46.0794 116.723 45.757 116.866 45.4789C117.01 45.1965 117.216 44.9626 117.486 44.7772C117.756 44.5875 118.08 44.4442 118.459 44.3473C118.839 44.2504 119.262 44.2019 119.73 44.2019H121.089Z" fill="#2196F3"/>
<path d="M113.888 42.5836V48.3488H112.719V41.509H113.857L113.888 42.5836ZM116.025 41.4711L116.019 42.5584C115.922 42.5373 115.829 42.5246 115.74 42.5204C115.656 42.512 115.559 42.5078 115.45 42.5078C115.18 42.5078 114.942 42.5499 114.735 42.6342C114.529 42.7185 114.354 42.8365 114.211 42.9882C114.067 43.1399 113.954 43.3211 113.869 43.5319C113.789 43.7384 113.736 43.9659 113.711 44.2146L113.382 44.4042C113.382 43.9912 113.423 43.6035 113.503 43.2411C113.587 42.8786 113.715 42.5584 113.888 42.2802C114.061 41.9979 114.28 41.7787 114.546 41.6228C114.815 41.4626 115.136 41.3826 115.506 41.3826C115.591 41.3826 115.688 41.3931 115.797 41.4142C115.907 41.431 115.983 41.45 116.025 41.4711Z" fill="#2196F3"/>
<path d="M109.054 39.1445V48.3485H107.852V39.1445H109.054ZM112.012 39.1445V40.1433H104.9V39.1445H112.012Z" fill="#2196F3"/>
<path d="M99.7602 48.3486H98.5907V40.7881C98.5907 40.2951 98.6792 39.88 98.8562 39.5428C99.0374 39.2015 99.2966 38.9444 99.6338 38.7716C99.9709 38.5946 100.371 38.5061 100.835 38.5061C100.97 38.5061 101.105 38.5145 101.239 38.5314C101.378 38.5482 101.513 38.5735 101.644 38.6072L101.581 39.5618C101.492 39.5407 101.391 39.526 101.277 39.5175C101.168 39.5091 101.058 39.5049 100.949 39.5049C100.7 39.5049 100.485 39.5555 100.304 39.6566C100.127 39.7535 99.992 39.8968 99.8993 40.0865C99.8065 40.2761 99.7602 40.51 99.7602 40.7881V48.3486ZM101.214 41.5088V42.4064H97.5098V41.5088H101.214Z" fill="#2196F3"/>
<path d="M96.3663 43.456V44.0375C96.3663 44.7287 96.2799 45.3482 96.1071 45.896C95.9343 46.4439 95.6856 46.9096 95.3611 47.2931C95.0366 47.6766 94.6468 47.9694 94.1917 48.1717C93.7408 48.374 93.235 48.4752 92.6745 48.4752C92.1309 48.4752 91.6315 48.374 91.1764 48.1717C90.7254 47.9694 90.3335 47.6766 90.0006 47.2931C89.6719 46.9096 89.4169 46.4439 89.2357 45.896C89.0545 45.3482 88.9639 44.7287 88.9639 44.0375V43.456C88.9639 42.7648 89.0524 42.1474 89.2294 41.6038C89.4106 41.0559 89.6655 40.5902 89.9943 40.2067C90.323 39.819 90.7128 39.524 91.1637 39.3217C91.6189 39.1195 92.1183 39.0183 92.6619 39.0183C93.2224 39.0183 93.7281 39.1195 94.179 39.3217C94.6342 39.524 95.024 39.819 95.3485 40.2067C95.6772 40.5902 95.928 41.0559 96.1008 41.6038C96.2778 42.1474 96.3663 42.7648 96.3663 43.456ZM95.1589 44.0375V43.4433C95.1589 42.8955 95.102 42.4108 94.9882 41.9894C94.8786 41.568 94.7164 41.214 94.5014 40.9274C94.2865 40.6408 94.0231 40.4238 93.7113 40.2763C93.4036 40.1288 93.0538 40.055 92.6619 40.055C92.2826 40.055 91.9391 40.1288 91.6315 40.2763C91.3281 40.4238 91.0668 40.6408 90.8477 40.9274C90.6327 41.214 90.4663 41.568 90.3483 41.9894C90.2303 42.4108 90.1713 42.8955 90.1713 43.4433V44.0375C90.1713 44.5896 90.2303 45.0784 90.3483 45.5041C90.4663 45.9255 90.6348 46.2816 90.854 46.5724C91.0773 46.859 91.3407 47.076 91.6442 47.2235C91.9518 47.371 92.2953 47.4448 92.6745 47.4448C93.0707 47.4448 93.4226 47.371 93.7302 47.2235C94.0379 47.076 94.297 46.859 94.5078 46.5724C94.7227 46.2816 94.8849 45.9255 94.9945 45.5041C95.1041 45.0784 95.1589 44.5896 95.1589 44.0375Z" fill="#2196F3"/>
<path d="M84.5203 41.5085V42.4061H80.8223V41.5085H84.5203ZM82.0739 39.8459H83.2434V46.6541C83.2434 46.8859 83.2792 47.0608 83.3508 47.1788C83.4225 47.2968 83.5152 47.3748 83.629 47.4127C83.7428 47.4506 83.865 47.4696 83.9956 47.4696C84.0926 47.4696 84.1937 47.4612 84.2991 47.4443C84.4086 47.4232 84.4908 47.4064 84.5456 47.3937L84.5519 48.3483C84.4592 48.3778 84.337 48.4052 84.1853 48.4304C84.0378 48.4599 83.8587 48.4747 83.6479 48.4747C83.3614 48.4747 83.098 48.4178 82.8578 48.304C82.6176 48.1902 82.4258 48.0006 82.2825 47.7351C82.1434 47.4654 82.0739 47.1029 82.0739 46.6478V39.8459Z" fill="#2196F3"/>
<path d="M78.1206 42.5836V48.3488H76.9512V41.509H78.089L78.1206 42.5836ZM80.2573 41.4711L80.251 42.5584C80.154 42.5373 80.0613 42.5246 79.9728 42.5204C79.8885 42.512 79.7916 42.5078 79.682 42.5078C79.4123 42.5078 79.1742 42.5499 78.9677 42.6342C78.7612 42.7185 78.5863 42.8365 78.443 42.9882C78.2997 43.1399 78.186 43.3211 78.1017 43.5319C78.0216 43.7384 77.9689 43.9659 77.9436 44.2146L77.6149 44.4042C77.6149 43.9912 77.655 43.6035 77.735 43.2411C77.8193 42.8786 77.9478 42.5584 78.1206 42.2802C78.2934 41.9979 78.5126 41.7787 78.7781 41.6228C79.0478 41.4626 79.3681 41.3826 79.7389 41.3826C79.8232 41.3826 79.9201 41.3931 80.0297 41.4142C80.1393 41.431 80.2151 41.45 80.2573 41.4711Z" fill="#2196F3"/>
<path d="M72.0911 39.96L69.0441 48.3485H67.7988L71.3072 39.1445H72.11L72.0911 39.96ZM74.6449 48.3485L71.5917 39.96L71.5727 39.1445H72.3755L75.8966 48.3485H74.6449ZM74.4869 44.9413V45.9401H69.316V44.9413H74.4869Z" fill="#2196F3"/>
<path d="M61.2687 48.4752C60.7925 48.4752 60.3605 48.3951 59.9728 48.235C59.5893 48.0706 59.2585 47.841 58.9803 47.546C58.7064 47.251 58.4957 46.9012 58.3482 46.4966C58.2007 46.092 58.127 45.6495 58.127 45.1691V44.9036C58.127 44.3473 58.2091 43.8521 58.3735 43.4181C58.5378 42.9798 58.7612 42.6089 59.0436 42.3055C59.3259 42.0021 59.6462 41.7724 60.0044 41.6165C60.3626 41.4605 60.7335 41.3826 61.117 41.3826C61.6058 41.3826 62.0273 41.4669 62.3813 41.6354C62.7395 41.804 63.0324 42.04 63.2599 42.3434C63.4875 42.6426 63.6561 42.9966 63.7657 43.4054C63.8752 43.81 63.93 44.2525 63.93 44.7329V45.2576H58.8223V44.3031H62.7606V44.2146C62.7437 43.9111 62.6805 43.6161 62.5709 43.3296C62.4656 43.043 62.297 42.807 62.0652 42.6216C61.8334 42.4361 61.5173 42.3434 61.117 42.3434C60.8515 42.3434 60.6071 42.4003 60.3837 42.5141C60.1603 42.6237 59.9686 42.788 59.8085 43.0072C59.6483 43.2263 59.524 43.4939 59.4355 43.81C59.347 44.1261 59.3027 44.4906 59.3027 44.9036V45.1691C59.3027 45.4936 59.347 45.7991 59.4355 46.0857C59.5282 46.3681 59.661 46.6167 59.8337 46.8316C60.0107 47.0466 60.2236 47.2151 60.4722 47.3374C60.7251 47.4596 61.0116 47.5207 61.3319 47.5207C61.7449 47.5207 62.0947 47.4364 62.3813 47.2678C62.6678 47.0992 62.9186 46.8738 63.1335 46.5914L63.8415 47.154C63.694 47.3774 63.5065 47.5902 63.2789 47.7925C63.0513 47.9948 62.7711 48.1591 62.4382 48.2856C62.1094 48.412 61.7196 48.4752 61.2687 48.4752Z" fill="#2196F3"/>
<path d="M52.4693 38.6389V48.3486H51.2998V38.6389H52.4693ZM52.1911 44.6696L51.7044 44.6506C51.7086 44.1828 51.7781 43.7508 51.913 43.3547C52.0478 42.9543 52.2375 42.6067 52.4819 42.3117C52.7263 42.0167 53.0171 41.7891 53.3543 41.6289C53.6956 41.4646 54.0728 41.3824 54.4858 41.3824C54.8229 41.3824 55.1264 41.4288 55.3961 41.5215C55.6658 41.61 55.8955 41.7533 56.0851 41.9513C56.279 42.1494 56.4265 42.4065 56.5276 42.7226C56.6288 43.0344 56.6793 43.4158 56.6793 43.8667V48.3486H55.5036V43.8541C55.5036 43.4959 55.4509 43.2093 55.3455 42.9944C55.2402 42.7752 55.0863 42.6172 54.8841 42.5203C54.6818 42.4191 54.4331 42.3686 54.1381 42.3686C53.8473 42.3686 53.5818 42.4297 53.3416 42.5519C53.1056 42.6741 52.9012 42.8427 52.7284 43.0576C52.5599 43.2725 52.4271 43.5191 52.3302 43.7972C52.2375 44.0711 52.1911 44.3619 52.1911 44.6696Z" fill="#2196F3"/>
<path d="M47.1532 39.1445V48.3485H45.9521V39.1445H47.1532ZM50.1116 39.1445V40.1433H43V39.1445H50.1116Z" fill="#2196F3"/>
</g>
<defs>
<clipPath id="clip0_6175_1293">
<rect width="147" height="52" fill="white"/>
</clipPath>
</defs>
</svg>
