<svg width="1505" height="540" viewBox="0 0 1505 540" fill="none" xmlns="http://www.w3.org/2000/svg">
<path d="M163.072 492.377C194.473 506.266 202.705 525.846 204.473 531.358C209.368 533.093 213.903 534.603 218.024 535.917C210.368 527.487 203.005 518.816 196.026 509.851C184.383 494.555 173.783 478.547 164.311 461.963C163.26 460.141 162.229 458.316 161.236 456.485C153.71 442.808 144.176 430.22 132.541 419.518C131.751 418.795 130.985 418.088 130.234 417.359L130.257 417.374C44.3981 389.718 64.945 299.765 64.945 299.765C67.1665 318.469 88.3929 329.395 113.719 359.827C135.29 385.737 133.528 406.803 132.507 412.507C137.608 417.752 142.301 422.286 146.332 426.037C144.068 420.858 141.881 415.666 139.783 410.42C132.707 392.796 127.238 374.611 122.888 356.233L121.303 349.336C120.744 347.049 120.239 344.733 119.853 342.416L117.316 328.494C116.58 323.835 116.04 319.161 115.38 314.488C115.091 312.155 114.702 309.819 114.49 307.472L113.873 300.428C113.475 295.768 112.352 291.175 110.579 286.827L100.105 261.32L100.111 261.357C30.9352 205.366 84.4724 128.859 84.4724 128.859C79.3571 147.048 94.893 164.689 106.773 201.966C116.878 233.695 107.172 252.672 104.063 257.629C107.095 265.04 109.986 271.465 112.476 276.682L112.322 272.266C112.036 267.567 112.346 262.862 112.356 258.151L112.473 251.095C112.499 248.746 112.544 246.393 112.751 244.05C113.435 234.667 113.9 225.282 115.274 215.971L116.138 208.978L116.572 205.49L117.187 202.01L119.67 188.123C121.364 180.015 123.201 171.921 125.289 163.898C129.029 149.491 130.247 134.562 128.421 119.851C127.993 116.436 127.671 113.059 127.401 109.749L127.408 109.786C81.928 34.7253 159.088 -20.1905 159.088 -20.1905C147.91 -4.67855 156.361 16.9612 154.485 55.9308C152.895 89.0932 137.106 103.871 132.429 107.552C132.793 118.739 133.586 128.041 134.294 134.497C134.388 134.252 134.46 133.992 134.554 133.747L136.871 127.077C137.635 124.849 138.613 122.698 139.462 120.493L144.754 107.383L150.693 94.5427C151.693 92.4072 152.652 90.2599 153.694 88.1363L157 81.8683C160.354 75.2108 163.988 68.6767 167.805 62.2639L167.785 62.2672C173.048 52.8989 180.128 39.4438 186.596 29.4873C189.64 24.8277 192.127 19.8442 193.658 14.5289C215.8 -62.6183 305.424 -57.3629 305.424 -57.3629C286.333 -52.8677 277.621 -31.2961 249.195 -3.31123C226.716 18.8107 206.134 21.2546 198.481 21.2901C197.644 21.7195 196.625 22.2375 195.77 22.6703L187.745 34.2284C177.387 49.981 167.661 66.14 159.671 83.0879L156.569 89.3783C155.587 91.5104 154.69 93.6663 153.751 95.8104L148.195 108.68L145.957 114.689C153.225 106.273 160.734 98.7309 168.276 92.0222L168.26 92.0439C201.178 10.9509 293.907 34.4159 293.907 34.4159C274.316 35.7556 261.93 55.6312 228.984 78.6144C200.962 98.1789 179.103 95.6177 173.209 94.3981C162.207 103.397 153.223 111.898 148.068 116.977C144.817 120.185 142.281 124.033 140.936 128.305C140.94 128.324 140.924 128.346 140.908 128.367L138.807 135.02C132.878 152.682 128.835 170.859 125.54 189.099L123.467 202.84L122.962 206.263L122.621 209.715L121.939 216.62C120.821 225.811 120.609 235.056 120.194 244.279C120.042 246.594 120.067 248.896 120.111 251.196L120.113 251.31C124.334 241.796 128.981 232.972 133.899 224.864L133.883 224.886C140.64 138.175 236.555 134.572 236.555 134.572C218.201 141.344 212.418 163.805 187.909 195.026C167.059 221.578 145.353 225.263 139.336 225.762C133.91 233.919 129.564 241.128 126.383 246.669C121.967 254.367 119.747 263.079 120.496 271.817C120.503 271.854 120.513 271.909 120.501 271.95L121.366 285.758L121.582 289.21L121.975 292.651L122.761 299.532L123.544 306.395C123.804 308.677 124.241 310.947 124.6 313.231C125.355 317.773 126.016 322.349 126.867 326.875L129.713 340.42C130.15 342.69 130.699 344.922 131.306 347.144L133.034 353.845C135.605 363.509 138.477 373.083 141.745 382.533C142.273 374.034 143.201 365.867 144.522 358.109L144.506 358.131C118.539 274.917 206.898 238.729 206.898 238.729C192.26 251.327 195.201 274.274 183.921 311.768C174.305 343.695 155.388 354.548 149.944 357.083C148.716 362.747 147.725 367.969 146.938 372.566C144.994 383.863 146.269 395.465 150.815 406.03C150.845 406.082 150.855 406.138 150.885 406.19C158.177 423.147 166.346 439.783 176.033 455.586C185.646 471.421 196.3 486.639 207.935 501.135C211.372 505.331 214.911 509.434 218.501 513.489C215.142 504.189 212.557 495.099 210.568 486.326L210.575 486.363C154.591 418.138 223.055 353.464 223.055 353.464C214.234 370.326 225.757 390.6 229.566 429.433C232.808 462.472 219.33 479.218 215.235 483.466C215.463 484.705 215.69 485.943 215.911 487.145C219.851 507.842 230.191 526.984 245.813 541.732C245.887 541.814 245.959 541.878 246.053 541.957C259.576 554.814 274.289 566.457 289.5 577.346C293.366 579.982 297.074 582.835 301.09 585.311L312.927 592.89C313.058 592.734 313.026 592.778 313.157 592.622C309.103 587.883 305.368 583.147 301.894 578.423L301.898 578.442C222.656 536.438 259.694 451.454 259.694 451.454C258.371 470.251 277.19 484.641 296.409 518.981C312.756 548.189 307.079 568.63 305.031 574.053C307.938 578.397 310.696 582.367 313.251 585.875C319.489 594.491 327.639 601.711 337.313 606.61C337.359 606.64 337.401 606.652 337.465 606.679C354.137 615.336 371.293 623.165 389.062 629.459C399.411 633.156 409.891 636.487 420.465 639.459C415.677 636.143 411.157 632.762 406.961 629.306L406.983 629.321C335.159 611.346 346.687 536.744 346.687 536.744C349.593 551.918 367.592 559.679 390.097 583.198C409.251 603.211 409.048 620.521 408.558 625.219C411.224 627.602 413.753 629.781 416.109 631.779C423.854 638.306 433.149 642.984 443.223 645.183C443.265 645.195 443.326 645.204 443.368 645.216C461.821 649.162 480.52 651.96 499.334 653.652L499.537 653.674L499.599 653.683C504.704 654.18 509.052 657.705 510.057 662.528C511.771 670.776 504.752 677.413 496.887 676.513C477.05 674.234 457.375 670.783 438.04 666.149C418.711 661.438 399.813 655.281 381.353 648.151C370.246 643.898 359.371 639.071 348.741 633.84C334.284 626.73 317.973 623.827 301.78 625.251L301.799 625.248C224.065 670.214 165.853 597.223 165.853 597.223C182.174 607.655 204.631 599.17 245.3 600.258C279.911 601.185 295.514 616.049 299.406 620.453C307.614 620.075 314.827 619.486 320.75 618.908C314.624 615.345 308.638 611.567 302.623 607.851L290.467 599.622C286.375 596.949 282.569 593.884 278.601 591.018C263.034 579.275 248.065 566.78 234.367 553.076C234.097 552.798 233.808 552.523 233.538 552.246C226.815 545.543 218.416 540.654 209.127 537.958C207.613 537.512 206.117 537.063 204.622 536.614L204.645 536.629C114.828 548.739 91.2945 459.598 91.2945 459.598C102.073 475.385 126.191 476.053 163.072 492.377Z" fill="url(#paint0_linear_6175_1924)"/>
<path d="M1148.27 636.776C1113.77 637.177 1098.11 651.867 1094.21 656.218C1089.01 655.886 1084.23 655.49 1079.92 655.077C1090.42 650.365 1100.76 645.316 1110.86 639.848C1127.86 630.416 1144.21 619.922 1159.76 608.46C1161.48 607.205 1163.18 605.94 1164.85 604.653C1177.41 595.088 1191.36 587.307 1206.44 582.075C1207.47 581.723 1208.46 581.376 1209.45 581.003L1209.42 581.008C1299.47 589.358 1318 498.992 1318 498.992C1308.2 515.236 1284.24 516.913 1248.44 534.833C1217.95 550.086 1210.82 570.053 1209.38 575.673C1202.54 578.473 1196.36 580.782 1191.12 582.634C1195.34 578.783 1199.5 574.889 1203.59 570.911C1217.38 557.558 1229.93 543.061 1241.54 527.95L1245.85 522.26C1247.31 520.386 1248.74 518.465 1250.05 516.496L1258.15 504.751C1260.76 500.776 1263.19 496.711 1265.73 492.694C1266.97 490.672 1268.29 488.687 1269.46 486.623L1272.95 480.419C1275.25 476.311 1278.18 472.548 1281.61 469.264L1301.78 450.031L1301.76 450.062C1388.29 425.944 1371.06 334.949 1371.06 334.949C1368.19 353.599 1346.65 363.651 1320.31 393.105C1297.9 418.177 1298.9 439.347 1299.69 445.101C1293.84 450.694 1288.53 455.44 1284.08 459.238L1286.06 455.257C1288.27 451.07 1289.94 446.643 1291.88 442.328L1294.7 435.826C1295.66 433.666 1296.59 431.495 1297.37 429.27C1300.64 420.416 1304.11 411.646 1306.72 402.587L1308.83 395.849L1309.88 392.488L1310.76 389.063L1314.25 375.382C1316.07 367.299 1317.75 359.172 1319.16 351.013C1321.72 336.362 1326.8 322.225 1334.58 309.479C1336.39 306.522 1338.08 303.558 1339.7 300.635L1339.68 300.667C1412.45 249.81 1364.64 169.313 1364.64 169.313C1368.43 187.889 1351.71 204.377 1337.26 240.772C1324.95 271.74 1333.26 291.452 1336.01 296.654C1331.04 306.748 1326.45 314.949 1323.13 320.579C1323.14 320.318 1323.18 320.052 1323.2 319.791L1323.85 312.779C1324.07 310.44 1324.07 308.089 1324.21 305.739L1324.81 291.668L1324.7 277.59C1324.67 275.244 1324.69 272.903 1324.61 270.552L1324.19 263.52C1323.88 256.114 1323.27 248.71 1322.44 241.346L1322.46 241.357C1321.53 230.721 1320.63 215.634 1318.85 203.988C1318 198.531 1317.79 192.995 1318.59 187.532C1330.35 108.258 1246.16 77.9353 1246.16 77.9353C1261.76 89.5321 1260.78 112.686 1275.18 149.437C1286.57 178.491 1304.39 188.795 1311.37 191.828C1311.96 192.549 1312.68 193.422 1313.28 194.154L1315.83 207.875C1318.77 226.35 1320.96 244.949 1321.24 263.589L1321.47 270.561C1321.48 272.897 1321.41 275.222 1321.38 277.552L1321.12 291.506L1320.68 297.881C1317.52 287.331 1313.78 277.487 1309.66 268.392L1309.66 268.418C1313.2 181.31 1218.61 166.432 1218.61 166.432C1235.98 175.337 1239.06 198.38 1259.67 232.325C1277.19 261.212 1298.26 267.437 1304.16 268.632C1310.49 281.179 1315.18 292.479 1317.79 299.148C1319.44 303.357 1320.16 307.873 1319.62 312.309C1319.61 312.325 1319.61 312.351 1319.62 312.377L1318.78 319.288C1316.87 337.774 1313.03 355.992 1308.48 373.974L1304.67 387.36L1303.71 390.69L1302.59 393.983L1300.35 400.569C1297.56 409.417 1293.92 417.96 1290.47 426.562C1289.65 428.739 1288.67 430.837 1287.67 432.924L1287.62 433.028C1287.71 422.667 1287.12 412.771 1285.98 403.424L1285.99 403.451C1315.79 321.457 1229.52 280.562 1229.52 280.562C1243.51 293.953 1239.48 316.773 1248.95 354.949C1257 387.418 1275.34 399.3 1280.64 402.114C1282.22 411.705 1283.2 420.006 1283.81 426.323C1284.66 435.098 1283.07 443.941 1278.76 451.642C1278.74 451.673 1278.71 451.72 1278.7 451.762L1272.18 464.058L1270.55 467.132L1268.76 470.127L1265.19 476.116L1261.62 482.089C1260.44 484.075 1259.1 485.981 1257.82 487.929C1255.24 491.789 1252.74 495.718 1250.08 499.526L1241.86 510.804C1240.52 512.71 1239.09 514.537 1237.61 516.333L1233.25 521.787C1226.88 529.623 1220.28 537.258 1213.37 544.623C1216.41 536.639 1218.96 528.803 1220.97 521.186L1220.97 521.212C1279.27 455.247 1213.43 387.496 1213.43 387.496C1221.6 404.762 1209.38 424.607 1204.15 463.337C1199.69 496.321 1212.5 513.668 1216.43 518.122C1215.2 523.786 1213.94 528.953 1212.76 533.468C1209.85 544.567 1203.86 554.684 1195.32 562.569C1195.27 562.605 1195.24 562.652 1195.19 562.688C1181.48 575.346 1167.1 587.367 1151.68 598.03C1136.31 608.752 1120.25 618.5 1103.58 627.204C1098.7 629.697 1093.76 632.064 1088.79 634.367C1095.72 627.174 1101.86 619.869 1107.32 612.622L1107.3 612.653C1186.84 572.168 1151.03 486.151 1151.03 486.151C1152.11 505.039 1133.15 519.073 1113.55 553.115C1096.87 582.076 1102.25 602.682 1104.23 608.175C1103.51 609.219 1102.79 610.263 1102.09 611.276C1089.89 628.671 1072.49 642.134 1052.07 649.505C1051.97 649.551 1051.88 649.581 1051.76 649.617C1034.05 656.081 1015.76 660.967 997.318 664.969C992.686 665.865 988.11 667.022 983.407 667.714L969.43 670.009C969.375 669.815 969.386 669.867 969.331 669.673C975.007 666.926 980.39 664.057 985.53 661.096L985.519 661.112C1075.46 653.738 1076.84 561.454 1076.84 561.454C1070.25 579.174 1047.06 584.964 1015.22 608.853C988.138 629.172 984.849 650.102 984.473 655.867C980.01 658.703 975.839 661.254 972.045 663.463C962.762 668.901 952.307 672.313 941.422 673.004C941.368 673.014 941.324 673.008 941.254 673.008C922.406 674.394 903.458 674.833 884.586 673.627C873.583 672.953 862.61 671.893 851.701 670.468C857.458 669.31 862.998 667.988 868.272 666.471L868.245 666.476C941.428 678.182 961.84 605.399 961.84 605.399C952.883 618.145 933.192 618.191 902.838 630.89C877.005 641.695 870.008 657.613 868.506 662.105C865.078 663.24 861.86 664.242 858.874 665.147C849.079 668.084 838.631 668.721 828.501 666.785C828.457 666.779 828.398 666.763 828.354 666.757C809.832 663.135 791.559 658.366 773.641 652.539L773.446 652.479L773.387 652.463C768.509 650.917 763.067 652.438 760.146 656.457C755.155 663.333 758.822 672.158 766.393 674.417C785.491 680.108 804.926 684.662 824.542 688.001C844.184 691.267 864.033 693.041 883.883 693.753C895.812 694.215 907.766 694.061 919.664 693.442C935.844 692.603 951.974 696.34 966.2 703.991L966.184 703.98C1018.65 775.598 1102.21 731.626 1102.21 731.626C1082.95 734.774 1065.92 718.207 1028.25 703.261C996.199 690.541 975.753 698.027 970.363 700.531C963.01 696.967 956.654 693.6 951.474 690.75C958.558 689.891 965.604 688.781 972.65 687.738L987.188 684.973C992.042 684.131 996.797 682.818 1001.62 681.752C1020.74 677.108 1039.62 671.542 1057.84 664.372C1058.2 664.224 1058.58 664.086 1058.94 663.937C1067.88 660.439 1077.59 659.258 1087.21 660.432C1088.78 660.618 1090.34 660.793 1091.89 660.968L1091.86 660.973C1169.02 707.262 1227.55 634.918 1227.55 634.918C1211.14 645.139 1188.79 636.296 1148.27 636.776Z" fill="url(#paint1_linear_6175_1924)"/>
<defs>
<linearGradient id="paint0_linear_6175_1924" x1="-129.981" y1="-274.5" x2="251.341" y2="510.943" gradientUnits="userSpaceOnUse">
<stop stop-color="#D8E1E9"/>
<stop offset="1" stop-color="white" stop-opacity="0"/>
</linearGradient>
<linearGradient id="paint1_linear_6175_1924" x1="1734.69" y1="49.9197" x2="1063.08" y2="623.012" gradientUnits="userSpaceOnUse">
<stop stop-color="#929292"/>
<stop offset="0.743288" stop-color="white" stop-opacity="0"/>
</linearGradient>
</defs>
</svg>
