<svg width="25" height="25" viewBox="0 0 25 25" fill="none" xmlns="http://www.w3.org/2000/svg">
<path d="M3.45678 14.0555L4.18696 13.8842L3.45678 14.0555ZM3.45678 8.59841L4.18696 8.76969L3.45678 8.59841ZM18.9304 8.59842L19.6606 8.42714L18.9304 8.59842ZM18.9304 14.0555L19.6606 14.2267L18.9304 14.0555ZM13.9221 19.0637L13.7508 18.3336L13.9221 19.0637ZM8.46505 19.0637L8.29378 19.7939L8.46505 19.0637ZM8.46505 3.59014L8.29378 2.85996L8.46505 3.59014ZM13.9221 3.59014L14.0934 2.85996L13.9221 3.59014ZM20.6107 21.8047C20.9036 22.0976 21.3785 22.0976 21.6714 21.8047C21.9643 21.5119 21.9643 21.037 21.6714 20.7441L20.6107 21.8047ZM4.18696 13.8842C3.79242 12.2022 3.79242 10.4517 4.18696 8.76969L2.7266 8.42713C2.2792 10.3345 2.2792 12.3194 2.7266 14.2267L4.18696 13.8842ZM18.2002 8.76969C18.5947 10.4517 18.5947 12.2022 18.2002 13.8842L19.6606 14.2267C20.108 12.3194 20.1079 10.3345 19.6606 8.42714L18.2002 8.76969ZM13.7508 18.3336C12.0688 18.7281 10.3183 18.7281 8.63633 18.3336L8.29378 19.7939C10.2011 20.2413 12.1861 20.2413 14.0934 19.7939L13.7508 18.3336ZM8.63633 4.32032C10.3183 3.92578 12.0688 3.92578 13.7508 4.32032L14.0934 2.85996C12.1861 2.41256 10.2011 2.41257 8.29378 2.85996L8.63633 4.32032ZM8.63633 18.3336C6.42862 17.8157 4.70482 16.0919 4.18696 13.8842L2.7266 14.2267C3.37456 16.9891 5.53143 19.146 8.29378 19.7939L8.63633 18.3336ZM14.0934 19.7939C16.8557 19.146 19.0126 16.9891 19.6606 14.2267L18.2002 13.8842C17.6823 16.0919 15.9585 17.8157 13.7508 18.3336L14.0934 19.7939ZM13.7508 4.32032C15.9585 4.83818 17.6823 6.56198 18.2002 8.76969L19.6606 8.42714C19.0126 5.66479 16.8557 3.50792 14.0934 2.85996L13.7508 4.32032ZM8.29378 2.85996C5.53143 3.50792 3.37456 5.66478 2.7266 8.42713L4.18696 8.76969C4.70482 6.56198 6.42862 4.83818 8.63633 4.32032L8.29378 2.85996ZM16.9459 18.1399L20.6107 21.8047L21.6714 20.7441L18.0065 17.0792L16.9459 18.1399Z" fill="#363853"/>
</svg>
