<svg width="63" height="63" viewBox="0 0 63 63" fill="none" xmlns="http://www.w3.org/2000/svg">
<path d="M33.8543 15.7819C34.2084 15.9286 34.511 16.1769 34.7239 16.4956C34.9368 16.8143 35.0504 17.1889 35.0504 17.5722V27.9055C35.0504 28.4194 34.8463 28.9122 34.4829 29.2755C34.1196 29.6389 33.6268 29.843 33.1129 29.843C32.599 29.843 32.1062 29.6389 31.7429 29.2755C31.3795 28.9122 31.1754 28.4194 31.1754 27.9055V22.248L30.6071 22.8163C30.4297 23.0067 30.2158 23.1594 29.9781 23.2653C29.7405 23.3712 29.4839 23.4281 29.2238 23.4327C28.9636 23.4373 28.7052 23.3894 28.4639 23.292C28.2227 23.1945 28.0035 23.0495 27.8196 22.8655C27.6356 22.6815 27.4905 22.4624 27.3931 22.2211C27.2956 21.9799 27.2478 21.7215 27.2524 21.4613C27.257 21.2012 27.3139 20.9446 27.4198 20.7069C27.5257 20.4693 27.6784 20.2554 27.8687 20.078L31.7437 16.203C32.0145 15.932 32.3595 15.7474 32.7352 15.6725C33.1109 15.5975 33.5003 15.6356 33.8543 15.7819Z" fill="black"/>
<path fill-rule="evenodd" clip-rule="evenodd" d="M20.191 4.93191C24.0354 4.30171 27.9256 3.99323 31.8212 4.00966C36.5435 4.00966 40.4469 4.42557 43.4514 4.93191L43.8001 4.99132C46.4093 5.42791 48.5793 5.79216 50.2739 7.87949C51.3615 9.22024 51.7129 10.6695 51.7929 12.2841L53.0639 12.7077C54.26 13.1056 55.3114 13.4569 56.1407 13.8444C57.0397 14.2629 57.8638 14.8002 58.4941 15.676C59.1244 16.5492 59.375 17.5024 59.4887 18.4867C59.592 19.3986 59.592 20.5017 59.592 21.7675V22.1395C59.592 23.178 59.592 24.0951 59.5145 24.8623C59.4319 25.6916 59.2484 26.5002 58.7912 27.2803C58.3288 28.0631 57.7114 28.6159 57.0268 29.0912C56.3939 29.5304 55.593 29.9773 54.6837 30.4811L47.8637 34.2708C46.4687 37.0117 44.557 39.4556 41.922 41.22C39.6616 42.7364 36.9569 43.6974 33.7587 43.9712V49.218H37.4529C38.498 49.218 39.5109 49.5802 40.3191 50.2429C41.1274 50.9056 41.681 51.8278 41.8859 52.8527L42.4516 55.6763H47.3212C47.835 55.6763 48.3279 55.8804 48.6912 56.2438C49.0546 56.6072 49.2587 57.1 49.2587 57.6138C49.2587 58.1277 49.0546 58.6205 48.6912 58.9838C48.3279 59.3472 47.835 59.5513 47.3212 59.5513H16.3212C15.8073 59.5513 15.3145 59.3472 14.9512 58.9838C14.5878 58.6205 14.3837 58.1277 14.3837 57.6138C14.3837 57.1 14.5878 56.6072 14.9512 56.2438C15.3145 55.8804 15.8073 55.6763 16.3212 55.6763H21.1908L21.7565 52.8527C21.9614 51.8278 22.515 50.9056 23.3232 50.2429C24.1315 49.5802 25.1443 49.218 26.1895 49.218H29.8837V43.9712C26.6855 43.6974 23.9808 42.7364 21.7204 41.2226C19.0879 39.4556 17.1737 37.0117 15.7787 34.2708L8.95869 30.4811C8.15617 30.055 7.37427 29.5912 6.6156 29.0912C5.90112 28.627 5.29922 28.0092 4.85377 27.2829C4.43418 26.5403 4.18615 25.7132 4.12785 24.8623C4.05035 24.0951 4.05035 23.178 4.05035 22.1395V21.7649C4.05035 20.5042 4.05035 19.3986 4.15369 18.4867C4.26735 17.5024 4.51535 16.5492 5.14827 15.676C5.7786 14.8002 6.60269 14.2629 7.4991 13.8418C8.33352 13.4543 9.38235 13.1056 10.5784 12.7077L11.8494 12.2841C11.9295 10.6669 12.2809 9.22024 13.3684 7.87949C15.0657 5.78957 17.2331 5.42532 19.8449 4.99132L20.191 4.93191ZM25.1433 55.6763H38.4991L38.0858 53.6122C38.0565 53.4659 37.9775 53.3342 37.8621 53.2395C37.7467 53.1449 37.6021 53.0931 37.4529 53.093H26.1895C26.0403 53.0931 25.8957 53.1449 25.7803 53.2395C25.6649 53.3342 25.5859 53.4659 25.5566 53.6122L25.1433 55.6763ZM11.9347 16.3399C12.1207 20.2666 12.5624 24.6066 13.6681 28.6624L10.9143 27.1357C9.90935 26.5751 9.27902 26.2237 8.82435 25.9086C8.40585 25.6167 8.26894 25.4436 8.19402 25.3144C8.11652 25.1852 8.03385 24.9837 7.98219 24.4774C7.92742 23.6709 7.90846 22.8624 7.92535 22.0542V21.8657C7.92535 20.4732 7.92794 19.5923 8.00285 18.9258C8.07519 18.311 8.18885 18.0811 8.29219 17.9416C8.39294 17.7995 8.57377 17.6187 9.13435 17.3577C9.74402 17.0736 10.581 16.792 11.8985 16.3502L11.9347 16.3399ZM49.9743 28.6624L52.7281 27.1357C53.733 26.5751 54.3634 26.2237 54.818 25.9086C55.2365 25.6167 55.3734 25.4436 55.4484 25.3144C55.5259 25.1852 55.6085 24.9837 55.6602 24.4774C55.7144 23.9246 55.717 23.2038 55.717 22.0542V21.8657C55.717 20.4732 55.7144 19.5923 55.6395 18.9258C55.5672 18.311 55.4535 18.0811 55.3502 17.9416C55.2494 17.7995 55.0686 17.6187 54.508 17.3577C53.8984 17.0736 53.0614 16.792 51.7439 16.3502L51.7077 16.3399C51.5243 20.2666 51.0774 24.6066 49.9743 28.6624ZM31.8212 7.88466C27.3262 7.88466 23.6398 8.27991 20.8369 8.75266C17.7188 9.27966 17.0652 9.47599 16.378 10.3233C15.7012 11.1552 15.6366 11.9457 15.7735 15.4461C16.006 21.2792 16.7759 27.5774 19.1577 32.3669C20.3357 34.7281 21.8754 36.6604 23.88 38.0037C25.8692 39.3393 28.4396 40.1763 31.8212 40.1763C35.2054 40.1763 37.7732 39.3393 39.7649 38.0037C41.7696 36.6604 43.3067 34.7281 44.4821 32.3643C46.8665 27.5774 47.6364 21.2818 47.8663 15.4435C48.0084 11.9457 47.9438 11.1552 47.2669 10.3233C46.5798 9.47599 45.9236 9.27966 42.8055 8.75266C39.1746 8.1586 35.5004 7.86826 31.8212 7.88466Z" fill="black"/>
</svg>
