<svg id="Layer_2" data-name="Layer 2" xmlns="http://www.w3.org/2000/svg" width="42.7" height="42.219" viewBox="0 0 42.7 42.219">
  <path id="Контур_446" data-name="Контур 446" d="M21.917,1.52A20.627,20.627,0,1,0,42.543,22.147,20.627,20.627,0,0,0,21.917,1.52Zm0,39.391A18.807,18.807,0,1,1,40.723,22.1,18.807,18.807,0,0,1,21.917,40.911Z" transform="translate(-0.516 -0.554)" fill="#fff"/>
  <path id="Контур_447" data-name="Контур 447" d="M25.162,9.76a15.61,15.61,0,1,0,15.6,15.61,15.61,15.61,0,0,0-15.6-15.61Zm0,29.4A13.79,13.79,0,1,1,38.939,25.37a13.79,13.79,0,0,1-13.777,13.79Z" transform="translate(-3.761 -3.795)" fill="#fff"/>
  <path id="Контур_448" data-name="Контур 448" d="M41.11,31.832l-5.46-3.579v-9a.91.91,0,1,0-1.82,0v9.494a.9.9,0,0,0,.413.758l5.9,3.852a.874.874,0,0,0,.5.152.9.9,0,0,0,.758-.413.91.91,0,0,0-.285-1.262Z" transform="translate(-13.315 -7.17)" fill="#fff"/>
  <path id="Контур_449" data-name="Контур 449" d="M1.716,11.007a22.3,22.3,0,0,1,9.422-9.318A.91.91,0,1,0,10.319.075,24.115,24.115,0,0,0,.115,10.145a.91.91,0,0,0,.37,1.213.928.928,0,0,0,.431.14.91.91,0,0,0,.8-.491Z" transform="translate(-0.014 0.072)" fill="#fff"/>
  <path id="Контур_450" data-name="Контур 450" d="M62.931,10.067a24.091,24.091,0,0,0-9.864-9.8.91.91,0,1,0-.855,1.589,22.368,22.368,0,0,1,9.124,9.1.91.91,0,0,0,1.6-.868Z" transform="translate(-20.314 0.005)" fill="#fff"/>
</svg>
