<svg xmlns="http://www.w3.org/2000/svg" width="22" height="22" viewBox="0 0 22 22" fill="none">
  <path fill-rule="evenodd" clip-rule="evenodd" d="M12.438 2.892L13.402 3.856C13.5386 3.99752 13.6141 4.187 13.6123 4.38365C13.6105 4.5803 13.5315 4.76837 13.3924 4.90736C13.2532 5.04635 13.0651 5.12514 12.8685 5.12676C12.6718 5.12837 12.4824 5.05269 12.341 4.916L11.377 3.952L10.317 5.012L11.987 6.684C12.1195 6.82617 12.1916 7.01422 12.1882 7.20852C12.1847 7.40282 12.106 7.58821 11.9686 7.72562C11.8312 7.86304 11.6458 7.94175 11.4515 7.94518C11.2572 7.9486 11.0692 7.87648 10.927 7.744L9.256 6.074L8.195 7.134L9.159 8.098C9.23066 8.16715 9.28784 8.24988 9.32719 8.34137C9.36654 8.43285 9.38727 8.53126 9.38819 8.63084C9.3891 8.73042 9.37017 8.82919 9.3325 8.92138C9.29483 9.01357 9.23918 9.09734 9.1688 9.16779C9.09841 9.23824 9.0147 9.29397 8.92254 9.33172C8.83039 9.36948 8.73164 9.3885 8.63206 9.38768C8.53247 9.38686 8.43405 9.36622 8.34253 9.32696C8.251 9.2877 8.16822 9.2306 8.099 9.159L7.134 8.195L6.074 9.255L7.744 10.927C7.81769 10.9957 7.87679 11.0785 7.91778 11.1705C7.95877 11.2625 7.98081 11.3618 7.98259 11.4625C7.98437 11.5632 7.96584 11.6632 7.92812 11.7566C7.8904 11.85 7.83426 11.9348 7.76304 12.006C7.69182 12.0773 7.60699 12.1334 7.5136 12.1711C7.42021 12.2088 7.32018 12.2274 7.21948 12.2256C7.11877 12.2238 7.01946 12.2018 6.92746 12.1608C6.83546 12.1198 6.75266 12.0607 6.684 11.987L5.013 10.317L3.953 11.377L4.916 12.341C4.98969 12.4097 5.04879 12.4925 5.08978 12.5845C5.13077 12.6765 5.15281 12.7758 5.15459 12.8765C5.15637 12.9772 5.13784 13.0772 5.10012 13.1706C5.0624 13.264 5.00626 13.3488 4.93504 13.42C4.86382 13.4913 4.77899 13.5474 4.6856 13.5851C4.59221 13.6228 4.49218 13.6414 4.39148 13.6396C4.29077 13.6378 4.19146 13.6158 4.09946 13.5748C4.00746 13.5338 3.92466 13.4747 3.856 13.401L2.892 12.438C2.428 12.907 2.093 13.259 1.858 13.568C1.568 13.948 1.5 14.172 1.5 14.366C1.5 14.559 1.568 14.783 1.858 15.163C2.161 15.561 2.628 16.031 3.326 16.728L4.772 18.174C5.469 18.871 5.939 19.339 6.337 19.642C6.717 19.932 6.941 20 7.134 20C7.328 20 7.552 19.932 7.932 19.642C8.329 19.339 8.8 18.872 9.496 18.174L18.174 9.497C18.871 8.8 19.339 8.329 19.642 7.932C19.932 7.552 20 7.328 20 7.134C20 6.941 19.932 6.717 19.642 6.337C19.339 5.939 18.872 5.469 18.174 4.772L16.728 3.326C16.031 2.629 15.561 2.161 15.163 1.858C14.783 1.568 14.559 1.5 14.366 1.5C14.172 1.5 13.948 1.568 13.568 1.858C13.259 2.093 12.907 2.428 12.438 2.892ZM12.658 0.665C13.172 0.273 13.712 0 14.366 0C15.019 0 15.56 0.273 16.073 0.665C16.56 1.037 17.101 1.578 17.752 2.228L19.272 3.748C19.922 4.398 20.463 4.94 20.835 5.427C21.227 5.94 21.5 6.481 21.5 7.134C21.5 7.788 21.227 8.328 20.835 8.842C20.463 9.329 19.922 9.87 19.272 10.52L10.52 19.272C9.87 19.922 9.329 20.463 8.842 20.835C8.328 21.227 7.788 21.5 7.134 21.5C6.481 21.5 5.94 21.227 5.427 20.835C4.94 20.463 4.399 19.922 3.748 19.272L2.228 17.752C1.578 17.102 1.037 16.56 0.665 16.073C0.273 15.56 0 15.019 0 14.366C0 13.712 0.273 13.172 0.665 12.658C1.037 12.171 1.578 11.63 2.228 10.98L10.98 2.228C11.63 1.578 12.171 1.037 12.658 0.665Z" fill="black"/>
</svg>