<svg xmlns="http://www.w3.org/2000/svg" width="30" height="30" viewBox="0 0 30 30" fill="none">
  <path d="M4.87922 23.7935H8.60789V14.7381L3.28125 10.7432V22.1955C3.28125 23.0797 3.99773 23.7935 4.87922 23.7935Z" fill="#4285F4"/>
  <path d="M21.3916 23.7936H25.1204C26.0046 23.7936 26.7184 23.0771 26.7184 22.1957V10.7432L21.3916 14.7382" fill="#34A853"/>
  <path d="M21.3916 7.81357V14.7383L26.7184 10.7434V8.61243C26.7184 6.6363 24.4625 5.50966 22.8832 6.69489" fill="#FBBC04"/>
  <path d="M8.6084 14.7381V7.81347L15.0004 12.6073L21.3924 7.81323V14.738L15.0004 19.5321" fill="#EA4335"/>
  <path d="M3.28125 8.61243V10.7431L8.60789 14.7382V7.81357L7.11645 6.69489C5.53441 5.50966 3.28125 6.6363 3.28125 8.61243Z" fill="#C5221F"/>
</svg>