<svg xmlns="http://www.w3.org/2000/svg" width="14" height="14" viewBox="0 0 14 14" fill="none">
  <g clip-path="url(#clip0_6632_1088)">
    <path fill-rule="evenodd" clip-rule="evenodd" d="M6.96708 0.729126C5.62016 0.729126 4.56491 0.729126 3.74124 0.839959C2.89891 0.953126 2.23391 1.18996 1.71183 1.71146C1.18974 2.23354 0.953492 2.89854 0.840326 3.74146C0.729492 4.56454 0.729492 5.61979 0.729492 6.96671V7.03321C0.729492 8.38013 0.729492 9.43538 0.840326 10.259C0.953492 11.1014 1.19033 11.7664 1.71183 12.2885C2.23391 12.8105 2.89891 13.0468 3.74183 13.16C4.56491 13.2708 5.62016 13.2708 6.96708 13.2708H7.03358C8.38049 13.2708 9.43574 13.2708 10.2594 13.16C11.1017 13.0468 11.7667 12.81 12.2888 12.2885C12.8109 11.7664 13.0472 11.1014 13.1603 10.2585C13.2712 9.43538 13.2712 8.38013 13.2712 7.03321V6.96671C13.2712 5.61979 13.2712 4.56454 13.1603 3.74088C13.0472 2.89854 12.8103 2.23354 12.2888 1.71146C11.7667 1.18938 11.1017 0.953126 10.2588 0.839959C9.43574 0.729126 8.38049 0.729126 7.03358 0.729126H6.96708ZM6.56283 1.60413C5.39966 1.60529 4.53458 1.61579 3.85849 1.70679C3.11241 1.80713 2.66266 1.99846 2.33016 2.33038C1.99824 2.66288 1.80749 3.11204 1.70716 3.85813C1.61674 4.53421 1.60566 5.39929 1.60449 6.56246H4.03349C3.82402 6.30079 3.67359 5.99694 3.59249 5.67171C3.27808 4.41579 4.41616 3.27771 5.67208 3.59213C5.99729 3.67326 6.30114 3.82369 6.56283 4.03313V1.60413ZM1.60449 7.43746C1.60566 8.60063 1.61616 9.46571 1.70716 10.1418C1.80749 10.8879 1.99883 11.3376 2.33074 11.6701C2.66324 12.002 3.11241 12.1928 3.85849 12.2931C4.53458 12.3835 5.39966 12.3946 6.56283 12.3958V8.23896C6.33266 8.69937 5.97879 9.08656 5.54089 9.35713C5.103 9.6277 4.5984 9.77094 4.08366 9.77079C3.96763 9.77079 3.85635 9.7247 3.7743 9.64265C3.69225 9.56061 3.64616 9.44933 3.64616 9.33329C3.64616 9.21726 3.69225 9.10598 3.7743 9.02393C3.85635 8.94189 3.96763 8.89579 4.08366 8.89579C4.51044 8.89578 4.92474 8.75182 5.25956 8.48718C5.59438 8.22254 5.83015 7.8527 5.92874 7.43746H5.84824H1.60449ZM7.43783 12.3958C8.60099 12.3946 9.46608 12.3841 10.1422 12.2931C10.8882 12.1928 11.338 12.0015 11.6705 11.6695C12.0024 11.337 12.1932 10.8879 12.2935 10.1418C12.3839 9.46571 12.395 8.60063 12.3962 7.43746H8.07191C8.1705 7.8527 8.40627 8.22254 8.74109 8.48718C9.07591 8.75182 9.49021 8.89578 9.91699 8.89579C10.033 8.89579 10.1443 8.94189 10.2264 9.02393C10.3084 9.10598 10.3545 9.21726 10.3545 9.33329C10.3545 9.44933 10.3084 9.56061 10.2264 9.64265C10.1443 9.7247 10.033 9.77079 9.91699 9.77079C9.40225 9.77094 8.89765 9.6277 8.45976 9.35713C8.02186 9.08656 7.668 8.69937 7.43783 8.23896V12.3958ZM12.3962 6.56246H9.96716C10.1768 6.30081 10.3274 5.99696 10.4087 5.67171C10.7226 4.41579 9.58449 3.27771 8.32916 3.59213C8.00373 3.67314 7.69967 3.82358 7.43783 4.03313V1.60413C8.60099 1.60529 9.46608 1.61579 10.1422 1.70679C10.8882 1.80713 11.338 1.99846 11.6705 2.33038C12.0024 2.66288 12.1932 3.11204 12.2935 3.85813C12.3839 4.53421 12.395 5.39929 12.3962 6.56246ZM7.43783 6.56246V5.85079C7.43852 5.52653 7.5474 5.21177 7.74721 4.95638C7.94702 4.70099 8.22634 4.51957 8.54091 4.44088C8.68161 4.40574 8.82901 4.40762 8.96876 4.44635C9.10852 4.48508 9.23586 4.55933 9.33841 4.66188C9.44095 4.76442 9.5152 4.89177 9.55393 5.03152C9.59266 5.17128 9.59455 5.31868 9.55941 5.45938C9.48076 5.77375 9.29952 6.05293 9.04437 6.25272C8.78922 6.45251 8.47472 6.56151 8.15066 6.56246H7.43783ZM6.56283 5.84904C6.56174 5.52508 6.45269 5.21072 6.25291 4.95569C6.05313 4.70065 5.77402 4.5195 5.45974 4.44088C5.31904 4.40574 5.17164 4.40762 5.03189 4.44635C4.89213 4.48508 4.76479 4.55933 4.66224 4.66188C4.5597 4.76442 4.48545 4.89177 4.44672 5.03152C4.40799 5.17128 4.4061 5.31868 4.44124 5.45938C4.51989 5.77375 4.70113 6.05293 4.95628 6.25272C5.21143 6.45251 5.52593 6.56151 5.84999 6.56246H6.56283V5.84904Z" fill="black"/>
  </g>
  <defs>
    <clipPath id="clip0_6632_1088">
      <rect width="14" height="14" fill="white"/>
    </clipPath>
  </defs>
</svg>