<svg xmlns="http://www.w3.org/2000/svg" width="40" height="22" viewBox="0 0 40 22" fill="none">
  <path fill-rule="evenodd" clip-rule="evenodd" d="M5 1H35C37.2091 1 39 2.79086 39 5C39 7.20914 37.2091 9 35 9H5C2.79086 9 1 7.20914 1 5C1 2.79086 2.79086 1 5 1ZM0 5C0 2.23858 2.23858 0 5 0H35C37.7614 0 40 2.23858 40 5C40 7.76142 37.7614 10 35 10H5C2.23858 10 0 7.76142 0 5ZM5 13H35C37.2091 13 39 14.7909 39 17C39 19.2091 37.2091 21 35 21H5C2.79086 21 1 19.2091 1 17C1 14.7909 2.79086 13 5 13ZM0 17C0 14.2386 2.23858 12 5 12H35C37.7614 12 40 14.2386 40 17C40 19.7614 37.7614 22 35 22H5C2.23858 22 0 19.7614 0 17ZM7 5C7 5.55228 6.55228 6 6 6C5.44772 6 5 5.55228 5 5C5 4.44772 5.44772 4 6 4C6.55228 4 7 4.44772 7 5ZM6 18C6.55228 18 7 17.5523 7 17C7 16.4477 6.55228 16 6 16C5.44772 16 5 16.4477 5 17C5 17.5523 5.44772 18 6 18ZM10 5C10 5.55228 9.55229 6 9 6C8.44771 6 8 5.55228 8 5C8 4.44772 8.44771 4 9 4C9.55229 4 10 4.44772 10 5ZM9 18C9.55229 18 10 17.5523 10 17C10 16.4477 9.55229 16 9 16C8.44771 16 8 16.4477 8 17C8 17.5523 8.44771 18 9 18ZM13 5C13 5.55228 12.5523 6 12 6C11.4477 6 11 5.55228 11 5C11 4.44772 11.4477 4 12 4C12.5523 4 13 4.44772 13 5ZM12 18C12.5523 18 13 17.5523 13 17C13 16.4477 12.5523 16 12 16C11.4477 16 11 16.4477 11 17C11 17.5523 11.4477 18 12 18ZM23.75 5C23.75 4.58579 24.0858 4.25 24.5 4.25H35.5C35.9142 4.25 36.25 4.58579 36.25 5C36.25 5.41421 35.9142 5.75 35.5 5.75H24.5C24.0858 5.75 23.75 5.41421 23.75 5ZM29 16.25C28.5858 16.25 28.25 16.5858 28.25 17C28.25 17.4142 28.5858 17.75 29 17.75H35C35.4142 17.75 35.75 17.4142 35.75 17C35.75 16.5858 35.4142 16.25 35 16.25H29Z" fill="black"/>
</svg>