<svg width="4" height="10" viewBox="0 0 4 10" fill="none" xmlns="http://www.w3.org/2000/svg">
<path d="M3.30355 3.32775L1.01355 3.61475L0.931548 3.99475L1.38155 4.07775C1.67555 4.14775 1.73355 4.25375 1.66955 4.54675L0.931548 8.01475C0.737548 8.91175 1.03655 9.33375 1.73955 9.33375C2.28455 9.33375 2.91755 9.08175 3.20455 8.73575L3.29255 8.31975C3.09255 8.49575 2.80055 8.56575 2.60655 8.56575C2.33155 8.56575 2.23155 8.37275 2.30255 8.03275L3.30355 3.32775ZM3.37355 1.23975C3.37355 1.50496 3.26819 1.75932 3.08065 1.94685C2.89312 2.13439 2.63876 2.23975 2.37355 2.23975C2.10833 2.23975 1.85398 2.13439 1.66644 1.94685C1.47891 1.75932 1.37355 1.50496 1.37355 1.23975C1.37355 0.97453 1.47891 0.720176 1.66644 0.532639C1.85398 0.345103 2.10833 0.239746 2.37355 0.239746C2.63876 0.239746 2.89312 0.345103 3.08065 0.532639C3.26819 0.720176 3.37355 0.97453 3.37355 1.23975Z" fill="#949494"/>
</svg>
