<svg xmlns="http://www.w3.org/2000/svg" width="18" height="18" viewBox="0 0 18 18" fill="none">
  <path d="M4.19472 8.2348L4.40519 5.00489C4.45615 4.37062 4.63178 3.75264 4.92199 3.18637C5.21221 2.62009 5.61132 2.11664 6.09646 1.70487C6.58159 1.2931 7.14321 0.981092 7.74914 0.786736C8.35507 0.592379 8.9934 0.51949 9.62755 0.572243C10.2632 0.602232 10.8867 0.757344 11.4622 1.02869C12.0378 1.30004 12.5542 1.68229 12.9818 2.15353C13.4094 2.62478 13.7398 3.17577 13.9541 3.77492C14.1683 4.37407 14.2623 5.00961 14.2305 5.64513L14.02 8.87505M11.1436 15.1625C11.795 15.205 12.4367 14.9869 12.9273 14.5563C13.418 14.1257 13.7175 13.5178 13.7599 12.8664L13.94 10.1032M11.1436 15.1625C11.117 15.5697 10.9298 15.9496 10.6232 16.2187C10.3165 16.4879 9.91549 16.6242 9.50833 16.5976L7.66608 16.4776C7.25892 16.4511 6.87897 16.2639 6.60983 15.9572C6.34068 15.6506 6.20438 15.2496 6.23091 14.8424C6.25744 14.4353 6.44463 14.0553 6.75129 13.7862C7.05796 13.5171 7.45899 13.3808 7.86615 13.4073L9.70839 13.5274C10.1156 13.5539 10.4955 13.7411 10.7647 14.0477C11.0338 14.3544 11.1701 14.7554 11.1436 15.1625ZM2.47251 6.2726L3.70068 6.35263C3.86354 6.36324 4.01552 6.43812 4.12318 6.56078C4.23084 6.68344 4.28536 6.84384 4.27475 7.0067L4.03467 10.691C4.02405 10.8539 3.94918 11.0058 3.82651 11.1135C3.70385 11.2211 3.54344 11.2757 3.38057 11.265L2.15241 11.185C1.82668 11.1638 1.52272 11.014 1.3074 10.7687C1.09208 10.5234 0.983044 10.2026 1.00427 9.87688L1.16432 7.42067C1.18555 7.09496 1.3353 6.79102 1.58063 6.57571C1.82596 6.36041 2.14678 6.25137 2.47251 6.2726ZM15.6622 12.0654L14.4341 11.9853C14.2712 11.9747 14.1192 11.8998 14.0115 11.7772C13.9039 11.6545 13.8494 11.4941 13.86 11.3313L14.1001 7.64694C14.1107 7.48408 14.1855 7.33211 14.3082 7.22446C14.4309 7.11681 14.5913 7.06229 14.7542 7.0729L15.9823 7.15293C16.3081 7.17416 16.612 7.32391 16.8273 7.56923C17.0426 7.81455 17.1517 8.13536 17.1305 8.46107L16.9704 10.9173C16.9492 11.243 16.7994 11.5469 16.5541 11.7622C16.3088 11.9775 15.9879 12.0866 15.6622 12.0654Z" stroke="black" stroke-linecap="round" stroke-linejoin="round"/>
</svg>