<svg xmlns="http://www.w3.org/2000/svg" width="31" height="31" viewBox="0 0 31 31" fill="none">
  <path fill-rule="evenodd" clip-rule="evenodd" d="M3.91609 6.60485C6.34696 3.45916 9.93358 1.40644 13.8788 0.902071C17.824 0.397703 21.8117 1.48211 24.9558 3.91508C28.1022 6.34776 30.1556 9.93428 30.6599 13.8788C31.1642 17.8234 30.0791 21.8111 27.6459 24.9571C25.215 28.1028 21.6284 30.1555 17.6831 30.6599C13.7379 31.1643 9.75022 30.0798 6.60615 27.6469C3.45976 25.2142 1.40635 21.6277 0.902066 17.6831C0.398346 13.7368 1.48248 9.75201 3.91609 6.60485ZM15.8155 11.8183C14.4464 12.6051 11.7136 14.2207 7.61703 16.6649C6.94843 17.0351 6.61382 17.3564 6.61551 17.6284C6.61611 18.0882 7.20552 18.1942 8.00643 18.3382C8.11628 18.358 8.23011 18.3784 8.34694 18.4006C9.13873 18.5503 10.1986 18.7085 10.7301 18.6522C11.215 18.6008 11.7266 18.3334 12.2673 17.8498C15.9721 14.5959 17.8854 12.9459 18.0141 12.8992C18.1044 12.8663 18.2289 12.8235 18.3248 12.8899C18.423 12.9558 18.4324 13.1035 18.4281 13.1439C18.4038 13.3899 16.45 15.735 15.4334 16.9552C15.1137 17.3389 14.8867 17.6113 14.8414 17.6724C14.7401 17.8087 14.6358 17.9387 14.5354 18.0636C13.9169 18.8339 13.4528 19.4118 14.8235 20.0832C15.4882 20.4086 16.0201 20.6793 16.5517 20.9499C17.1229 21.2406 17.6938 21.5312 18.4285 21.8892C18.6175 21.9811 18.7991 22.0785 18.976 22.1734C19.6484 22.5339 20.2524 22.8577 20.929 22.7072C21.3219 22.6199 21.6856 22.1934 21.75 21.052C21.9059 18.3538 22.1455 12.5206 22.0679 10.1393C22.0625 9.93064 22.0032 9.67004 21.9698 9.55665C21.934 9.44343 21.8711 9.28371 21.7067 9.18068C21.5092 9.05885 21.231 9.06346 21.108 9.08119C20.549 9.16293 19.7293 9.57111 15.8155 11.8183Z" fill="#2AABEE"/>
</svg>