<svg xmlns="http://www.w3.org/2000/svg" width="45" height="45" viewBox="0 0 45 45" fill="none">
  <path d="M1 32.2727V12.7273C1 6.25048 6.25048 1 12.7273 1H32.2727C38.7495 1 44 6.25048 44 12.7273V32.2727C44 38.7495 38.7495 44 32.2727 44H12.7273C6.25048 44 1 38.7495 1 32.2727Z" stroke="#42A5F5" stroke-width="1.95455" stroke-linecap="round"/>
  <path d="M17.5381 22.4858L20.8346 25.796L27.4413 19.1755" stroke="#42A5F5" stroke-width="2" stroke-linecap="round" stroke-linejoin="round"/>
  <path d="M20.7801 9.42339C21.724 8.61636 23.2696 8.61636 24.2271 9.42339L26.3883 11.2837C26.7987 11.6393 27.5647 11.9265 28.1118 11.9265H30.4371C31.887 11.9265 33.0771 13.1166 33.0771 14.5665V16.8918C33.0771 17.4253 33.3643 18.2049 33.7199 18.6153L35.5802 20.7764C36.3872 21.7202 36.3872 23.2659 35.5802 24.2234L33.7199 26.3846C33.3643 26.7949 33.0771 27.5609 33.0771 28.1081V30.4334C33.0771 31.8833 31.887 33.0733 30.4371 33.0733H28.1118C27.5783 33.0733 26.7987 33.3606 26.3883 33.7162L24.2271 35.5765C23.2833 36.3835 21.7376 36.3835 20.7801 35.5765L18.619 33.7162C18.2086 33.3606 17.4426 33.0733 16.8955 33.0733H14.5291C13.0792 33.0733 11.8892 31.8833 11.8892 30.4334V28.0944C11.8892 27.5609 11.6019 26.7949 11.26 26.3846L9.41337 24.2097C8.62002 23.2659 8.62002 21.7339 9.41337 20.7901L11.26 18.6153C11.6019 18.2049 11.8892 17.4389 11.8892 16.9055V14.5528C11.8892 13.1029 13.0792 11.9129 14.5291 11.9129H16.8955C17.4289 11.9129 18.2086 11.6256 18.619 11.27L20.7801 9.42339Z" stroke="#42A5F5" stroke-width="2" stroke-linecap="round" stroke-linejoin="round"/>
</svg>