<svg width="14" height="13" viewBox="0 0 14 13" fill="none" xmlns="http://www.w3.org/2000/svg">
<path d="M9.69355 0C9.72381 0 9.75406 0 9.78603 0C9.86024 0.916787 9.51031 1.60181 9.08503 2.09788C8.66773 2.59052 8.09631 3.06833 7.1721 2.99583C7.11045 2.09217 7.46095 1.45795 7.88567 0.963026C8.27956 0.501778 9.00168 0.0913362 9.69355 0Z" fill="black"/>
<path d="M12.491 9.41079C12.491 9.41992 12.491 9.42791 12.491 9.43648C12.2313 10.2231 11.8608 10.8973 11.4087 11.5229C10.9959 12.0909 10.4902 12.8553 9.58708 12.8553C8.80673 12.8553 8.2884 12.3535 7.48863 12.3398C6.64263 12.3261 6.17739 12.7594 5.40389 12.8684C5.3154 12.8684 5.22692 12.8684 5.14015 12.8684C4.57215 12.7862 4.11376 12.3364 3.77981 11.9311C2.79509 10.7335 2.03415 9.18644 1.89258 7.20673C1.89258 7.01264 1.89258 6.81912 1.89258 6.62503C1.95252 5.20818 2.64096 4.0562 3.55604 3.49791C4.03898 3.20107 4.70288 2.94818 5.44213 3.06121C5.75895 3.1103 6.08263 3.21876 6.36634 3.32608C6.63521 3.42941 6.97144 3.61265 7.28998 3.60295C7.50576 3.59667 7.7204 3.48421 7.93789 3.40486C8.57497 3.17481 9.19948 2.91107 10.0226 3.03495C11.0119 3.18451 11.7141 3.62407 12.1479 4.30224C11.3111 4.83484 10.6494 5.63746 10.7625 7.00807C10.8629 8.2531 11.5868 8.98151 12.491 9.41079Z" fill="black"/>
</svg>
