<svg width="12" height="13" viewBox="0 0 12 13" fill="none" xmlns="http://www.w3.org/2000/svg">
<path d="M10.5635 4.41135C10.3661 4.41135 10.1769 4.48975 10.0373 4.62931C9.89771 4.76886 9.81934 4.95814 9.81934 5.1555V8.528C9.81934 8.72536 9.89771 8.91465 10.0373 9.05422C10.1769 9.19379 10.3661 9.27216 10.5635 9.27216C10.7609 9.27216 10.9502 9.19379 11.0897 9.05422C11.2293 8.91465 11.3077 8.72536 11.3077 8.528V5.1555C11.3077 4.95814 11.2293 4.76886 11.0897 4.62931C10.9502 4.48975 10.7609 4.41135 10.5635 4.41135Z" fill="black"/>
<path d="M0.968776 4.41135C0.771414 4.41135 0.582126 4.48975 0.442571 4.62931C0.303016 4.76886 0.224609 4.95814 0.224609 5.1555V8.528C0.224609 8.72536 0.303016 8.91465 0.442571 9.05422C0.582126 9.19379 0.771414 9.27216 0.968776 9.27216C1.16614 9.27216 1.35543 9.19379 1.49498 9.05422C1.63454 8.91465 1.71294 8.72536 1.71294 8.528V5.1555C1.71294 4.95814 1.63454 4.76886 1.49498 4.62931C1.35543 4.48975 1.16614 4.41135 0.968776 4.41135Z" fill="black"/>
<path d="M2.25098 4.41135V9.478C2.25098 9.58923 2.27288 9.69943 2.31546 9.80218C2.35803 9.90494 2.42042 9.99836 2.49908 10.077C2.57774 10.1557 2.67112 10.218 2.7739 10.2606C2.87666 10.3032 2.98681 10.3251 3.09806 10.3251H3.63639V12.1222C3.63639 12.3195 3.71479 12.5088 3.85436 12.6484C3.99391 12.788 4.1832 12.8663 4.38056 12.8663C4.57792 12.8663 4.76721 12.788 4.90678 12.6484C5.04635 12.5088 5.12473 12.3195 5.12473 12.1222V10.3251H6.40723V12.1222C6.40723 12.3195 6.4856 12.5088 6.62517 12.6484C6.76474 12.788 6.95403 12.8663 7.15139 12.8663C7.34876 12.8663 7.53804 12.788 7.67761 12.6484C7.81718 12.5088 7.89556 12.3195 7.89556 12.1222V10.3251H8.43389C8.65857 10.3251 8.87398 10.2359 9.03287 10.077C9.19176 9.91816 9.28098 9.70267 9.28098 9.478V4.41135H2.25098Z" fill="black"/>
<path d="M9.18598 3.35839C8.95299 2.57671 8.43627 1.91033 7.73723 1.49006L7.61848 1.41881L7.49181 1.35548L7.63431 1.11006L8.05389 0.318394C8.06181 0.295839 8.06228 0.271313 8.05516 0.248482C8.04803 0.225658 8.03371 0.205748 8.01431 0.191727H7.95889C7.93871 0.192638 7.91891 0.198084 7.9011 0.207679C7.88329 0.217274 7.86785 0.230764 7.85598 0.247144L7.42848 0.983394L7.29389 1.22881L7.16723 1.17339L7.03264 1.12589C6.21224 0.841163 5.31971 0.841163 4.49931 1.12589L4.37264 1.17339L4.23806 1.22881L4.10348 0.983394L3.67598 0.191727C3.66869 0.178736 3.65893 0.167296 3.64723 0.158081C3.63554 0.148858 3.62214 0.142026 3.60781 0.137989C3.59347 0.133943 3.57847 0.132764 3.56369 0.134513C3.5489 0.136263 3.53459 0.14091 3.5216 0.148185C3.5086 0.155469 3.49717 0.16523 3.48795 0.176931C3.47872 0.188624 3.4719 0.202027 3.46786 0.216356C3.46382 0.230693 3.46263 0.245687 3.46439 0.260476C3.46614 0.275264 3.47078 0.289569 3.47806 0.30256L3.89764 1.09423L4.04014 1.33964L3.91348 1.40298L3.79473 1.47423C3.09234 1.89622 2.57712 2.56998 2.35389 3.35839C2.2921 3.56412 2.25751 3.77704 2.25098 3.99173H9.28098C9.27322 3.77772 9.24131 3.56526 9.18598 3.35839ZM4.18264 2.93881C4.12001 2.93881 4.05879 2.92024 4.00671 2.88544C3.95464 2.85065 3.91405 2.80119 3.89008 2.74333C3.86611 2.68547 3.85984 2.6218 3.87206 2.56037C3.88428 2.49894 3.91443 2.44251 3.95872 2.39823C4.00301 2.35394 4.05944 2.32378 4.12086 2.31156C4.18229 2.29935 4.24598 2.30562 4.30385 2.32958C4.36172 2.35355 4.41112 2.39414 4.44595 2.44622C4.48071 2.4983 4.49931 2.55951 4.49931 2.62214C4.49931 2.70613 4.46598 2.78668 4.40653 2.84607C4.34715 2.90545 4.26664 2.93881 4.18264 2.93881ZM7.34931 2.93881C7.28669 2.93881 7.22541 2.92024 7.1734 2.88544C7.12131 2.85065 7.0807 2.80119 7.05671 2.74333C7.0328 2.68547 7.02647 2.6218 7.03874 2.56037C7.05093 2.49894 7.08109 2.44251 7.12543 2.39823C7.16968 2.35394 7.22613 2.32378 7.28756 2.31156C7.34899 2.29935 7.41264 2.30562 7.47051 2.32958C7.52838 2.35355 7.57778 2.39414 7.61262 2.44622C7.64737 2.4983 7.66598 2.55951 7.66598 2.62214C7.66598 2.70613 7.63265 2.78668 7.57319 2.84607C7.51382 2.90545 7.43331 2.93881 7.34931 2.93881Z" fill="black"/>
</svg>
