<svg width="63" height="63" viewBox="0 0 63 63" fill="none" xmlns="http://www.w3.org/2000/svg">
<path d="M24.1415 8.46013V3.27783H39.6884V8.46013H24.1415ZM29.3238 36.9628H34.5061V21.4159H29.3238V36.9628ZM31.915 57.692C28.7192 57.692 25.7066 57.077 22.877 55.8471C20.0475 54.6172 17.5755 52.9433 15.4612 50.8255C13.3468 48.7076 11.6738 46.2348 10.4421 43.407C9.21043 40.5792 8.5946 37.5674 8.5946 34.3716C8.5946 31.1759 9.21043 28.1632 10.4421 25.3337C11.6738 22.5042 13.3468 20.0322 15.4612 17.9178C17.5755 15.8035 20.0484 14.1304 22.8796 12.8988C25.7109 11.6671 28.7227 11.0513 31.915 11.0513C34.5925 11.0513 37.162 11.4831 39.6236 12.3469C42.0852 13.2106 44.3957 14.463 46.555 16.104L50.1826 12.4764L53.8102 16.104L50.1826 19.7316C51.8236 21.8909 53.076 24.2014 53.9397 26.663C54.8035 29.1246 55.2353 31.6941 55.2353 34.3716C55.2353 37.5674 54.6195 40.58 53.3878 43.4096C52.1562 46.2391 50.4832 48.7111 48.3688 50.8255C46.2544 52.9398 43.7816 54.6137 40.9503 55.8471C38.119 57.0805 35.1073 57.6955 31.915 57.692ZM31.915 52.5097C36.9245 52.5097 41.1999 50.7391 44.7412 47.1978C48.2824 43.6566 50.053 39.3812 50.053 34.3716C50.053 29.3621 48.2824 25.0867 44.7412 21.5454C41.1999 18.0042 36.9245 16.2336 31.915 16.2336C26.9054 16.2336 22.63 18.0042 19.0888 21.5454C15.5475 25.0867 13.7769 29.3621 13.7769 34.3716C13.7769 39.3812 15.5475 43.6566 19.0888 47.1978C22.63 50.7391 26.9054 52.5097 31.915 52.5097Z" fill="black"/>
</svg>
