<svg width="60" height="60" viewBox="0 0 60 60" fill="none" xmlns="http://www.w3.org/2000/svg">
<g clip-path="url(#clip0_60_165)">
<path fill-rule="evenodd" clip-rule="evenodd" d="M30.2066 5.79272C43.7312 5.79272 54.6944 16.7559 54.6944 30.2806C54.7028 35.9321 52.7484 41.4111 49.165 45.7814L49.214 45.8352L48.8908 46.1095C46.5942 48.8255 43.7324 51.0075 40.5052 52.503C37.2781 53.9986 33.7634 54.7717 30.2066 54.7684C22.9826 54.7684 16.4934 51.6413 12.0121 46.6703L11.5223 46.1071L11.1991 45.8377L11.2481 45.7789C7.66526 41.4093 5.71085 35.9312 5.71871 30.2806C5.71871 16.7559 16.6819 5.79272 30.2066 5.79272ZM30.2066 42.5245C25.6518 42.5245 21.5354 43.9742 18.4695 45.9675C21.8552 48.5067 25.9745 49.8767 30.2066 49.8708C34.4386 49.8767 38.5579 48.5067 41.9436 45.9675C38.4401 43.723 34.3673 42.5282 30.2066 42.5245ZM30.2066 10.6903C26.52 10.6902 22.9082 11.7303 19.7863 13.6912C16.6644 15.652 14.1592 18.4539 12.5586 21.7749C10.9579 25.0959 10.3268 28.8011 10.7379 32.4647C11.1489 36.1283 12.5853 39.6016 14.8821 42.4853C18.8515 39.6374 24.2682 37.6269 30.2066 37.6269C36.1449 37.6269 41.5616 39.6374 45.531 42.4853C47.8278 39.6016 49.2642 36.1283 49.6752 32.4647C50.0863 28.8011 49.4552 25.0959 47.8545 21.7749C46.2539 18.4539 43.7487 15.652 40.6268 13.6912C37.5049 11.7303 33.8931 10.6902 30.2066 10.6903ZM30.2066 15.5879C32.8044 15.5879 35.2958 16.6198 37.1328 18.4568C38.9697 20.2937 40.0017 22.7852 40.0017 25.383C40.0017 27.9808 38.9697 30.4723 37.1328 32.3092C35.2958 34.1461 32.8044 35.1781 30.2066 35.1781C27.6087 35.1781 25.1173 34.1461 23.2803 32.3092C21.4434 30.4723 20.4114 27.9808 20.4114 25.383C20.4114 22.7852 21.4434 20.2937 23.2803 18.4568C25.1173 16.6198 27.6087 15.5879 30.2066 15.5879ZM30.2066 20.4854C28.9076 20.4854 27.6619 21.0014 26.7434 21.9199C25.825 22.8384 25.309 24.0841 25.309 25.383C25.309 26.6819 25.825 27.9276 26.7434 28.8461C27.6619 29.7646 28.9076 30.2806 30.2066 30.2806C31.5055 30.2806 32.7512 29.7646 33.6697 28.8461C34.5881 27.9276 35.1041 26.6819 35.1041 25.383C35.1041 24.0841 34.5881 22.8384 33.6697 21.9199C32.7512 21.0014 31.5055 20.4854 30.2066 20.4854Z" fill="black"/>
</g>
<defs>
<clipPath id="clip0_60_165">
<rect width="58.7708" height="58.7708" fill="white" transform="translate(0.821167 0.895264)"/>
</clipPath>
</defs>
</svg>
