<svg width="138" height="25" viewBox="0 0 138 25" fill="none" xmlns="http://www.w3.org/2000/svg">
<path d="M10.6842 2.3986C10.7425 2.3986 10.7979 2.41319 10.8505 2.44237L19.6498 7.5627C19.752 7.62105 19.8132 7.73192 19.8132 7.84862L19.7811 18.028C19.7811 18.1447 19.7169 18.2556 19.6148 18.3139L10.7804 23.3759C10.7308 23.4051 10.6725 23.4197 10.6141 23.4197C10.5558 23.4197 10.5003 23.4051 10.4478 23.3759L1.65136 18.2556C1.54925 18.1972 1.48798 18.0864 1.48798 17.9697L1.52007 7.79027C1.52007 7.67357 1.58426 7.5627 1.68637 7.50435L10.5208 2.44237C10.5704 2.41319 10.6258 2.3986 10.6842 2.3986ZM10.69 0.910645C10.3749 0.910645 10.0627 0.989419 9.77971 1.14989L0.945311 6.21187C0.38222 6.53572 0.0321109 7.13382 0.0321109 7.78444L1.83976e-05 17.9638C-0.00289917 18.6145 0.341374 19.2155 0.904465 19.5422L9.70385 24.6626C9.98394 24.826 10.299 24.9077 10.6112 24.9106C10.9234 24.9135 11.2385 24.8318 11.5215 24.6713L20.3559 19.6093C20.919 19.2855 21.2691 18.6874 21.2691 18.0368L21.3012 7.85738C21.3041 7.20676 20.9598 6.60574 20.3967 6.27897L11.5974 1.15864C11.3173 0.995254 11.0051 0.910645 10.69 0.910645Z" fill="#1B4ADD"/>
<path d="M12.4726 6.45996H11.1831C11.0868 6.45996 10.9993 6.52123 10.9672 6.61167L6.8184 17.9814C6.79214 18.0573 6.84757 18.1361 6.92635 18.1361H8.21591C8.31219 18.1361 8.39972 18.0748 8.43181 17.9844L12.5806 6.61459C12.6069 6.53873 12.5514 6.45996 12.4726 6.45996ZM10.2174 6.45996H8.9278C8.83152 6.45996 8.74399 6.52123 8.7119 6.61167L4.56311 17.9814C4.53686 18.0573 4.59229 18.1361 4.67106 18.1361H5.96063C6.05691 18.1361 6.14444 18.0748 6.17653 17.9844L10.3253 6.61459C10.3516 6.53873 10.2961 6.45996 10.2174 6.45996ZM11.8862 10.8684C11.8483 10.7663 11.7053 10.7663 11.6703 10.8684L10.9993 12.7065C10.9818 12.7561 10.9818 12.8144 10.9993 12.864L12.8665 17.9844C12.8986 18.0748 12.9861 18.1361 13.0824 18.1361H14.372C14.4508 18.1361 14.5062 18.0573 14.4799 17.9814L11.8862 10.8684ZM16.7381 17.9814L13.0153 7.7787C12.9774 7.67659 12.8344 7.67659 12.7994 7.7787L12.1284 9.61677C12.1109 9.66637 12.1109 9.72472 12.1284 9.77432L15.1247 17.9873C15.1568 18.0777 15.2443 18.139 15.3406 18.139H16.6302C16.709 18.1361 16.7644 18.0573 16.7381 17.9814Z" fill="#1B4ADD"/>
<path d="M34.5457 3.93237C34.9109 3.93237 35.2116 4.00756 35.4587 4.15794C35.7057 4.30832 35.9528 4.58759 36.1891 5.01723L40.9044 13.5779C40.9474 13.6746 40.9689 13.7498 40.9367 13.8142C40.9152 13.8787 40.84 13.9109 40.7326 13.9109H38.9281C38.767 13.9109 38.6595 13.8464 38.5951 13.7283L37.5854 11.8916H30.883L29.9055 13.7283C29.8411 13.8572 29.7337 13.9109 29.5833 13.9109H27.7251C27.5962 13.9109 27.5317 13.8787 27.4995 13.8142C27.478 13.7498 27.4888 13.6746 27.5317 13.5779L32.2041 5.01723C32.4404 4.58759 32.6767 4.29758 32.9023 4.15794C33.1279 4.00756 33.3964 3.93237 33.6971 3.93237H34.5457ZM31.7852 10.2374H36.6832L34.4168 6.05912C34.3738 5.99468 34.3309 5.96245 34.2557 5.96245H34.1698C34.1053 5.96245 34.0516 5.99468 34.0086 6.05912L31.7852 10.2374Z" fill="#2D364D"/>
<path d="M51.2696 3.93237C52.3652 3.93237 53.1493 4.17942 53.6219 4.67351C54.0945 5.16761 54.3308 5.89801 54.3308 6.86471V7.68103C54.3308 8.49736 54.1697 9.14183 53.8367 9.61444C53.5037 10.0871 52.9667 10.3985 52.2148 10.5274L54.6531 13.5457C54.696 13.5887 54.7175 13.6638 54.696 13.7605C54.6745 13.8572 54.5993 13.9001 54.4705 13.9001H52.623C52.4941 13.9001 52.4189 13.8894 52.3652 13.8572C52.3222 13.825 52.2685 13.782 52.2256 13.7175L49.9699 10.753H45.3727V13.5887C45.3727 13.7927 45.2653 13.9001 45.0612 13.9001H43.5252C43.3104 13.9001 43.1923 13.7927 43.1923 13.5887V4.36202C43.1923 4.07201 43.3319 3.93237 43.6219 3.93237H51.2696ZM45.3727 9.02367H50.8292C51.3126 9.02367 51.6563 8.91626 51.8496 8.71218C52.0537 8.5081 52.1504 8.18587 52.1504 7.75622V7.15471C52.1504 6.72507 52.0537 6.41358 51.8496 6.19876C51.6455 5.99467 51.3126 5.88726 50.8292 5.88726H45.5553C45.4264 5.88726 45.3727 5.94097 45.3727 6.05912V9.02367Z" fill="#2D364D"/>
<path d="M66.2536 3.93212C67.231 3.93212 67.9292 4.12546 68.3373 4.51215C68.7455 4.89883 68.9603 5.48959 68.9603 6.27369V6.96112C68.9603 7.75597 68.6596 8.35747 68.0473 8.76563C68.7025 9.14157 69.0355 9.75382 69.0355 10.6024V11.4294C69.0355 11.8054 68.9925 12.1491 68.9066 12.4498C68.8207 12.7506 68.681 13.0084 68.4877 13.2232C68.2944 13.438 68.0366 13.5991 67.7143 13.7173C67.3921 13.8355 66.9947 13.8892 66.5221 13.8892H58.0581C57.7681 13.8892 57.6284 13.7495 57.6284 13.4595V4.34029C57.6284 4.05028 57.7681 3.91064 58.0581 3.91064L66.2536 3.93212ZM59.7981 8.0782H65.6413C66.1139 8.0782 66.4362 8.00302 66.608 7.86338C66.7799 7.72375 66.8658 7.50892 66.8658 7.2404V6.75705C66.8658 6.46703 66.7799 6.24147 66.6187 6.11258C66.4576 5.97294 66.1891 5.90849 65.8132 5.90849H59.9807C59.8518 5.90849 59.7981 5.97294 59.7981 6.09109V8.0782ZM59.7981 9.63567V11.7624C59.7981 11.8913 59.8626 11.945 59.9807 11.945H65.8239C66.1998 11.945 66.4791 11.8806 66.6402 11.7409C66.8013 11.6013 66.8873 11.3865 66.8873 11.075V10.5379C66.8873 10.2479 66.8013 10.0223 66.6187 9.87197C66.4469 9.72159 66.1139 9.64641 65.6413 9.64641L59.7981 9.63567Z" fill="#2D364D"/>
<path d="M74.3415 3.93237C74.5456 3.93237 74.653 4.03979 74.653 4.24387V13.5887C74.653 13.7927 74.5456 13.9001 74.3415 13.9001H72.8055C72.5907 13.9001 72.4833 13.7927 72.4833 13.5887V4.24387C72.4833 4.03979 72.5907 3.93237 72.8055 3.93237H74.3415Z" fill="#2D364D"/>
<path d="M89.2717 3.93237C89.4865 3.93237 89.6047 4.03979 89.6047 4.24387V5.64022C89.6047 5.85504 89.4973 5.97319 89.2717 5.97319H84.8034V13.5994C84.8034 13.8035 84.696 13.9109 84.4919 13.9109H82.9344C82.7304 13.9109 82.6229 13.8035 82.6229 13.5994V5.97319H78.1546C77.9398 5.97319 77.8217 5.86578 77.8217 5.64022V4.24387C77.8217 4.03979 77.9291 3.93237 78.1546 3.93237H89.2717Z" fill="#2D364D"/>
<path d="M100.539 3.93237C101.635 3.93237 102.419 4.17942 102.892 4.67351C103.364 5.16761 103.6 5.89801 103.6 6.86471V7.68103C103.6 8.49736 103.439 9.14183 103.106 9.61444C102.773 10.0871 102.236 10.3985 101.484 10.5274L103.923 13.5457C103.966 13.5887 103.987 13.6638 103.966 13.7605C103.944 13.8572 103.869 13.9001 103.74 13.9001H101.903C101.774 13.9001 101.699 13.8894 101.646 13.8572C101.603 13.825 101.549 13.782 101.506 13.7175L99.2503 10.753H94.6531V13.5887C94.6531 13.7927 94.5457 13.9001 94.3416 13.9001H92.7949C92.5801 13.9001 92.4619 13.7927 92.4619 13.5887V4.36202C92.4619 4.07201 92.6015 3.93237 92.8916 3.93237H100.539ZM94.6424 9.02367H100.099C100.582 9.02367 100.926 8.91626 101.119 8.71218C101.323 8.5081 101.42 8.18587 101.42 7.75622V7.15471C101.42 6.72507 101.323 6.41358 101.119 6.19876C100.915 5.99467 100.582 5.88726 100.099 5.88726H94.8357C94.7068 5.88726 94.6531 5.94097 94.6531 6.05912L94.6424 9.02367Z" fill="#2D364D"/>
<path d="M108.552 3.93237C108.756 3.93237 108.864 4.03979 108.864 4.24387V9.92592C108.864 10.3019 108.896 10.6241 108.96 10.8711C109.025 11.1182 109.121 11.3223 109.272 11.4726C109.411 11.623 109.605 11.7197 109.852 11.7841C110.099 11.8486 110.4 11.8808 110.775 11.8808H114.707C115.072 11.8808 115.383 11.8486 115.63 11.7841C115.878 11.7197 116.06 11.623 116.21 11.4726C116.35 11.3223 116.458 11.1289 116.511 10.8711C116.565 10.6241 116.597 10.3019 116.597 9.92592V4.24387C116.597 4.03979 116.705 3.93237 116.909 3.93237H118.466C118.67 3.93237 118.778 4.03979 118.778 4.24387V10.1407C118.778 10.8282 118.702 11.4082 118.563 11.8808C118.423 12.3642 118.187 12.7509 117.875 13.0516C117.553 13.3524 117.145 13.5672 116.64 13.6961C116.135 13.825 115.512 13.9001 114.793 13.9001H110.69C109.97 13.9001 109.358 13.8357 108.853 13.6961C108.348 13.5672 107.94 13.3416 107.618 13.0516C107.295 12.7509 107.07 12.3642 106.919 11.8808C106.769 11.3975 106.694 10.8174 106.694 10.1407V4.24387C106.694 4.03979 106.801 3.93237 107.027 3.93237H108.552Z" fill="#2D364D"/>
<path d="M124.9 3.93237C125.104 3.93237 125.287 3.94312 125.437 3.97534C125.588 4.00756 125.727 4.06127 125.835 4.13646C125.953 4.22239 126.049 4.3298 126.146 4.46943C126.232 4.60906 126.329 4.79167 126.425 5.01723L129.39 11.8593C129.433 11.9453 129.497 11.9882 129.594 11.9882H129.766C129.863 11.9882 129.927 11.9453 129.97 11.8593L132.934 5.01723C133.031 4.79167 133.117 4.60906 133.214 4.46943C133.3 4.3298 133.407 4.22239 133.525 4.13646C133.643 4.05053 133.772 3.99682 133.912 3.97534C134.062 3.94312 134.234 3.93237 134.449 3.93237H135.974C136.468 3.93237 136.801 4.03979 136.973 4.26535C137.145 4.49092 137.231 4.86686 137.231 5.41465V13.5887C137.231 13.7927 137.124 13.9001 136.909 13.9001H135.459C135.255 13.9001 135.147 13.7927 135.147 13.5887V6.15579C135.147 6.05912 135.104 6.01616 135.029 6.01616H134.9C134.803 6.01616 134.739 6.05912 134.718 6.13431L131.839 12.5145C131.721 12.7723 131.613 12.9872 131.484 13.159C131.366 13.3309 131.237 13.4813 131.098 13.5887C130.958 13.7068 130.808 13.782 130.625 13.8357C130.453 13.8787 130.238 13.9109 130.002 13.9109H129.315C129.078 13.9109 128.874 13.8894 128.692 13.8357C128.52 13.7927 128.359 13.7068 128.219 13.5887C128.08 13.4705 127.951 13.3309 127.832 13.159C127.714 12.9872 127.596 12.7723 127.489 12.5145L124.61 6.13431C124.578 6.05912 124.524 6.01616 124.428 6.01616H124.299C124.223 6.01616 124.18 6.05912 124.18 6.15579V13.5887C124.18 13.7927 124.073 13.9001 123.869 13.9001H122.419C122.204 13.9001 122.086 13.7927 122.086 13.5887V5.41465C122.086 4.8776 122.172 4.49092 122.344 4.26535C122.516 4.03979 122.849 3.93237 123.353 3.93237H124.9Z" fill="#2D364D"/>
<path d="M32.4813 15.9541C32.9145 15.9541 33.2827 15.9974 33.5859 16.0732C33.8892 16.1599 34.1383 16.2898 34.3224 16.4631C34.5173 16.6364 34.6473 16.8746 34.7339 17.1562C34.8205 17.4378 34.8639 17.7843 34.8639 18.1959V19.6579C34.8639 20.0694 34.8205 20.416 34.7339 20.6976C34.6473 20.9791 34.5065 21.2174 34.3224 21.3907C34.1274 21.5639 33.8892 21.6939 33.5859 21.7805C33.2827 21.8563 32.9145 21.8997 32.4813 21.8997H29.8605C29.4273 21.8997 29.0699 21.8563 28.7667 21.7805C28.4634 21.7047 28.2252 21.5748 28.0303 21.3907C27.8353 21.2174 27.7054 20.9791 27.6187 20.6976C27.5321 20.416 27.4888 20.0694 27.4888 19.6579V18.1959C27.4888 17.7843 27.5321 17.4486 27.6187 17.1562C27.7054 16.8746 27.8462 16.6472 28.0303 16.4631C28.2252 16.2898 28.4634 16.1599 28.7667 16.0732C29.0699 15.9866 29.4273 15.9541 29.8605 15.9541H32.4813ZM28.7775 19.5604C28.7775 19.777 28.7992 19.972 28.8317 20.1127C28.8641 20.2644 28.9291 20.3835 29.0158 20.4701C29.1024 20.5568 29.2107 20.6217 29.3623 20.6542C29.5031 20.6867 29.6872 20.7084 29.9146 20.7084H32.438C32.6546 20.7084 32.8387 20.6867 32.9903 20.6542C33.1311 20.6217 33.2502 20.5568 33.3369 20.4701C33.4235 20.3835 33.4776 20.2644 33.521 20.1127C33.5534 19.9611 33.5751 19.777 33.5751 19.5604V18.2825C33.5751 18.0659 33.5534 17.871 33.521 17.7302C33.4885 17.5786 33.4235 17.4595 33.3369 17.3728C33.2502 17.2862 33.1419 17.2212 32.9903 17.1887C32.8495 17.1562 32.6654 17.1346 32.438 17.1346H29.9146C29.698 17.1346 29.5139 17.1562 29.3623 17.1887C29.2215 17.2212 29.1024 17.2862 29.0158 17.3728C28.9291 17.4595 28.875 17.5786 28.8317 17.7302C28.7992 17.8818 28.7775 18.0659 28.7775 18.2825V19.5604Z" fill="#1B4ADD"/>
<path d="M38.2753 15.9541C38.4161 15.9541 38.5244 15.9649 38.611 15.9758C38.6976 15.9866 38.7843 16.0083 38.8492 16.0516C38.9142 16.0841 38.9792 16.1382 39.0442 16.2032C39.1092 16.2682 39.1741 16.3548 39.2608 16.4631L42.4231 20.6109C42.4447 20.6542 42.4772 20.6651 42.5314 20.6651H42.6072C42.6505 20.6651 42.6722 20.6326 42.6722 20.5784V16.149C42.6722 16.0299 42.7371 15.9649 42.8563 15.9649H43.7443C43.8634 15.9649 43.9284 16.0299 43.9284 16.149V21.0224C43.9284 21.369 43.8634 21.5964 43.7443 21.7264C43.6144 21.8455 43.4303 21.9105 43.1703 21.9105H42.4447C42.3148 21.9105 42.2065 21.8997 42.1198 21.8888C42.0332 21.878 41.9574 21.8563 41.8816 21.8239C41.8166 21.7914 41.7516 21.7372 41.6867 21.6722C41.6217 21.6073 41.5459 21.5206 41.4592 21.4015L38.2969 17.2537C38.2644 17.2104 38.2211 17.1995 38.1886 17.1995H38.1128C38.0695 17.1995 38.0478 17.232 38.0478 17.2862V21.7156C38.0478 21.8455 37.9829 21.8997 37.8637 21.8997H36.9757C36.8457 21.8997 36.7808 21.8347 36.7808 21.7156V16.8422C36.7808 16.4956 36.8457 16.2682 36.9649 16.1382C37.084 16.0191 37.2789 15.9541 37.5388 15.9541H38.2753Z" fill="#1B4ADD"/>
<path d="M51.9532 15.9537C52.0832 15.9537 52.1481 16.0187 52.1481 16.1378V16.9392C52.1481 17.0692 52.0832 17.1233 51.9532 17.1233H48.2386C48.022 17.1233 47.8379 17.145 47.6863 17.1775C47.5455 17.21 47.4264 17.2749 47.3397 17.3616C47.2531 17.4482 47.1881 17.5674 47.1556 17.719C47.1231 17.8706 47.1015 18.0547 47.1015 18.2713V18.3579H51.8991C52.0182 18.3579 52.0832 18.4229 52.0832 18.542V19.2135C52.0832 19.3326 52.0182 19.3976 51.8991 19.3976H47.1015V19.5384C47.1015 19.755 47.1231 19.9499 47.1556 20.0907C47.1881 20.2423 47.2531 20.3614 47.3397 20.4481C47.4264 20.5347 47.5455 20.5997 47.6863 20.6322C47.8271 20.6647 48.0112 20.6863 48.2386 20.6863H51.9532C52.0832 20.6863 52.1481 20.7513 52.1481 20.8704V21.6718C52.1481 21.8018 52.0832 21.8559 51.9532 21.8559H48.2169C47.7837 21.8559 47.4264 21.8126 47.1231 21.7368C46.8199 21.661 46.5816 21.5311 46.3867 21.3469C46.1918 21.1737 46.0618 20.9354 45.9752 20.6538C45.8885 20.3723 45.8452 20.0257 45.8452 19.6142V18.1522C45.8452 17.7406 45.8885 17.4049 45.9752 17.1125C46.0618 16.8309 46.2026 16.6035 46.3867 16.4194C46.5816 16.2461 46.8199 16.1162 47.1231 16.0295C47.4264 15.9429 47.7837 15.9104 48.2169 15.9104H51.9532V15.9537Z" fill="#1B4ADD"/>
</svg>
