<svg width="90" height="24" viewBox="0 0 90 24" fill="none" xmlns="http://www.w3.org/2000/svg">
<g clip-path="url(#clip0_39_692)">
<path d="M10.7003 1.47214C10.7587 1.47214 10.8142 1.48675 10.8668 1.51597L19.6795 6.64402C19.7817 6.70246 19.8431 6.8135 19.8431 6.93038L19.811 17.1251C19.811 17.242 19.7467 17.353 19.6444 17.4115L10.7967 22.4811C10.747 22.5103 10.6886 22.5249 10.6301 22.5249C10.5717 22.5249 10.5162 22.5103 10.4636 22.4811L1.65385 17.353C1.55158 17.2946 1.49022 17.1836 1.49022 17.0667L1.52236 6.87194C1.52236 6.75506 1.58665 6.64402 1.68892 6.58558L10.5366 1.51597C10.5863 1.48675 10.6418 1.47214 10.7003 1.47214ZM10.7061 -0.0180664C10.3905 -0.0180664 10.0779 0.0608267 9.79446 0.221535L0.946736 5.29115C0.382796 5.61549 0.0321594 6.21449 0.0321594 6.86609L1.84253e-05 17.0608C-0.00290354 17.7124 0.341889 18.3144 0.905829 18.6416L9.71849 23.7697C9.999 23.9333 10.3146 24.0151 10.6272 24.0181C10.9399 24.021 11.2554 23.9392 11.5389 23.7785L20.3866 18.7088C20.9505 18.3845 21.3012 17.7855 21.3012 17.1339L21.3333 6.93914C21.3362 6.28754 20.9914 5.68562 20.4275 5.35836L11.6148 0.230301C11.3343 0.0666707 11.0217 -0.0180664 10.7061 -0.0180664Z" fill="#1B4ADD"/>
<path d="M12.4913 5.53955H11.1998C11.1034 5.53955 11.0157 5.60091 10.9836 5.69149L6.82854 17.0784C6.80224 17.1544 6.85775 17.2333 6.93665 17.2333H8.22816C8.32458 17.2333 8.41224 17.1719 8.44439 17.0813L12.5994 5.69441C12.6257 5.61844 12.5702 5.53955 12.4913 5.53955ZM10.2326 5.53955H8.94112C8.84469 5.53955 8.75704 5.60091 8.72489 5.69149L4.56985 17.0784C4.54356 17.1544 4.59907 17.2333 4.67797 17.2333H5.96948C6.0659 17.2333 6.15356 17.1719 6.1857 17.0813L10.3407 5.69441C10.367 5.61844 10.3115 5.53955 10.2326 5.53955ZM11.904 9.95465C11.866 9.85238 11.7228 9.85238 11.6878 9.95465L11.0157 11.7955C10.9982 11.8452 10.9982 11.9036 11.0157 11.9533L12.8858 17.0813C12.9179 17.1719 13.0056 17.2333 13.102 17.2333H14.3935C14.4724 17.2333 14.5279 17.1544 14.5016 17.0784L11.904 9.95465ZM16.7632 17.0784L13.0348 6.86028C12.9968 6.75801 12.8536 6.75801 12.8186 6.86028L12.1465 8.70112C12.129 8.7508 12.129 8.80923 12.1465 8.85891L15.1474 17.0843C15.1795 17.1748 15.2672 17.2362 15.3636 17.2362H16.6551C16.734 17.2333 16.7895 17.1544 16.7632 17.0784Z" fill="#1B4ADD"/>
<path d="M31.5695 7.47546C31.7762 7.47546 31.9464 7.51801 32.0862 7.6031C32.226 7.68819 32.3657 7.84621 32.4995 8.08933L35.1676 12.9334C35.1919 12.9881 35.2041 13.0306 35.1859 13.0671C35.1737 13.1036 35.1312 13.1218 35.0704 13.1218H34.0493C33.9581 13.1218 33.8974 13.0853 33.8609 13.0185L33.2896 11.9792H29.497L28.9439 13.0185C28.9074 13.0914 28.8467 13.1218 28.7616 13.1218H27.7101C27.6372 13.1218 27.6007 13.1036 27.5825 13.0671C27.5703 13.0306 27.5764 12.9881 27.6007 12.9334L30.2446 8.08933C30.3783 7.84621 30.512 7.68211 30.6396 7.6031C30.7673 7.51801 30.9192 7.47546 31.0894 7.47546H31.5695ZM30.0075 11.0432H32.779L31.4966 8.67888C31.4723 8.64241 31.448 8.62418 31.4054 8.62418H31.3568C31.3204 8.62418 31.29 8.64241 31.2657 8.67888L30.0075 11.0432Z" fill="#2D364D"/>
<path d="M41.0326 7.47546C41.6526 7.47546 42.0963 7.61526 42.3637 7.89484C42.6311 8.17442 42.7648 8.58771 42.7648 9.13472V9.59663C42.7648 10.0586 42.6737 10.4232 42.4852 10.6907C42.2968 10.9581 41.9929 11.1343 41.5675 11.2073L42.9472 12.9151C42.9715 12.9395 42.9836 12.982 42.9715 13.0367C42.9593 13.0914 42.9168 13.1157 42.8438 13.1157H41.7984C41.7255 13.1157 41.683 13.1096 41.6526 13.0914C41.6283 13.0732 41.5979 13.0489 41.5736 13.0124L40.2972 11.3349H37.6959V12.9395C37.6959 13.0549 37.6351 13.1157 37.5196 13.1157H36.6505C36.529 13.1157 36.4621 13.0549 36.4621 12.9395V7.71858C36.4621 7.55448 36.5411 7.47546 36.7052 7.47546H41.0326ZM37.6959 10.3564H40.7834C41.0569 10.3564 41.2514 10.2956 41.3608 10.1801C41.4763 10.0646 41.531 9.88229 41.531 9.63918V9.29882C41.531 9.0557 41.4763 8.87945 41.3608 8.75789C41.2454 8.64241 41.0569 8.58163 40.7834 8.58163H37.7992C37.7263 8.58163 37.6959 8.61202 37.6959 8.67888V10.3564Z" fill="#2D364D"/>
<path d="M49.5113 7.47553C50.0644 7.47553 50.4594 7.58493 50.6904 7.80374C50.9213 8.02254 51.0429 8.35682 51.0429 8.80051V9.18949C51.0429 9.63925 50.8727 9.97961 50.5263 10.2106C50.897 10.4233 51.0854 10.7697 51.0854 11.2499V11.7179C51.0854 11.9306 51.0611 12.1251 51.0125 12.2953C50.9639 12.4654 50.8849 12.6113 50.7755 12.7329C50.6661 12.8544 50.5202 12.9456 50.3379 13.0125C50.1555 13.0793 49.9306 13.1097 49.6632 13.1097H44.8739C44.7098 13.1097 44.6308 13.0307 44.6308 12.8666V7.70649C44.6308 7.54239 44.7098 7.46338 44.8739 7.46338L49.5113 7.47553ZM45.8585 9.82158H49.1648C49.4323 9.82158 49.6146 9.77904 49.7118 9.70003C49.8091 9.62101 49.8577 9.49946 49.8577 9.34751V9.07401C49.8577 8.90991 49.8091 8.78227 49.7179 8.70934C49.6267 8.63033 49.4748 8.59386 49.2621 8.59386H45.9618C45.8889 8.59386 45.8585 8.63033 45.8585 8.69718V9.82158ZM45.8585 10.7029V11.9063C45.8585 11.9792 45.8949 12.0096 45.9618 12.0096H49.2682C49.4809 12.0096 49.6389 11.9731 49.7301 11.8941C49.8212 11.8151 49.8699 11.6936 49.8699 11.5173V11.2134C49.8699 11.0493 49.8212 10.9217 49.7179 10.8366C49.6207 10.7515 49.4323 10.7089 49.1648 10.7089L45.8585 10.7029Z" fill="#2D364D"/>
<path d="M54.088 7.47546C54.2035 7.47546 54.2642 7.53624 54.2642 7.65172V12.9395C54.2642 13.0549 54.2035 13.1157 54.088 13.1157H53.2188C53.0973 13.1157 53.0365 13.0549 53.0365 12.9395V7.65172C53.0365 7.53624 53.0973 7.47546 53.2188 7.47546H54.088Z" fill="#2D364D"/>
<path d="M62.5361 7.47546C62.6576 7.47546 62.7245 7.53624 62.7245 7.65172V8.44184C62.7245 8.5634 62.6637 8.63026 62.5361 8.63026H60.0077V12.9455C60.0077 13.061 59.9469 13.1218 59.8314 13.1218H58.9501C58.8347 13.1218 58.7739 13.061 58.7739 12.9455V8.63026H56.2455C56.1239 8.63026 56.0571 8.56948 56.0571 8.44184V7.65172C56.0571 7.53624 56.1179 7.47546 56.2455 7.47546H62.5361Z" fill="#2D364D"/>
<path d="M68.9118 7.47546C69.5317 7.47546 69.9754 7.61526 70.2429 7.89484C70.5103 8.17442 70.644 8.58771 70.644 9.13472V9.59663C70.644 10.0586 70.5528 10.4232 70.3644 10.6907C70.176 10.9581 69.8721 11.1343 69.4467 11.2073L70.8263 12.9151C70.8506 12.9395 70.8628 12.982 70.8506 13.0367C70.8385 13.0914 70.7959 13.1157 70.723 13.1157H69.6837C69.6108 13.1157 69.5682 13.1096 69.5378 13.0914C69.5135 13.0732 69.4831 13.0489 69.4588 13.0124L68.1825 11.3349H65.5811V12.9395C65.5811 13.0549 65.5204 13.1157 65.4049 13.1157H64.5297C64.4081 13.1157 64.3413 13.0549 64.3413 12.9395V7.71858C64.3413 7.55448 64.4203 7.47546 64.5844 7.47546H68.9118ZM65.5751 10.3564H68.6626C68.9361 10.3564 69.1306 10.2956 69.24 10.1801C69.3555 10.0646 69.4102 9.88229 69.4102 9.63918V9.29882C69.4102 9.0557 69.3555 8.87945 69.24 8.75789C69.1245 8.64241 68.9361 8.58163 68.6626 8.58163H65.6845C65.6115 8.58163 65.5811 8.61202 65.5811 8.67888L65.5751 10.3564Z" fill="#2D364D"/>
<path d="M73.4459 7.47546C73.5613 7.47546 73.6221 7.53624 73.6221 7.65172V10.8669C73.6221 11.0796 73.6404 11.262 73.6768 11.4018C73.7133 11.5415 73.768 11.657 73.8531 11.7421C73.9321 11.8272 74.0415 11.8819 74.1813 11.9184C74.3211 11.9548 74.4913 11.9731 74.704 11.9731H76.9285C77.1351 11.9731 77.3114 11.9548 77.4512 11.9184C77.591 11.8819 77.6943 11.8272 77.7794 11.7421C77.8584 11.657 77.9192 11.5476 77.9495 11.4018C77.9799 11.262 77.9982 11.0796 77.9982 10.8669V7.65172C77.9982 7.53624 78.0589 7.47546 78.1744 7.47546H79.0557C79.1712 7.47546 79.232 7.53624 79.232 7.65172V10.9885C79.232 11.3774 79.1894 11.7056 79.1104 11.9731C79.0314 12.2466 78.8977 12.4654 78.7214 12.6356C78.5391 12.8057 78.3081 12.9273 78.0225 13.0002C77.7368 13.0732 77.3843 13.1157 76.9771 13.1157H74.6554C74.2481 13.1157 73.9017 13.0792 73.616 13.0002C73.3304 12.9273 73.0994 12.7997 72.9171 12.6356C72.7348 12.4654 72.6071 12.2466 72.522 11.9731C72.4369 11.6996 72.3944 11.3714 72.3944 10.9885V7.65172C72.3944 7.53624 72.4552 7.47546 72.5828 7.47546H73.4459Z" fill="#2D364D"/>
<path d="M82.6963 7.47546C82.8118 7.47546 82.9151 7.48154 83.0002 7.49978C83.0853 7.51801 83.1643 7.5484 83.2251 7.59094C83.2919 7.63957 83.3466 7.70034 83.4013 7.77936C83.4499 7.85837 83.5046 7.96169 83.5593 8.08933L85.2368 11.9609C85.2611 12.0095 85.2976 12.0339 85.3523 12.0339H85.4496C85.5043 12.0339 85.5407 12.0095 85.565 11.9609L87.2425 8.08933C87.2972 7.96169 87.3459 7.85837 87.4006 7.77936C87.4492 7.70034 87.51 7.63957 87.5768 7.59094C87.6437 7.54232 87.7166 7.51193 87.7956 7.49978C87.8807 7.48154 87.978 7.47546 88.0995 7.47546H88.9626C89.2421 7.47546 89.4306 7.53624 89.5278 7.66388C89.625 7.79151 89.6737 8.00424 89.6737 8.31421V12.9395C89.6737 13.0549 89.6129 13.1157 89.4913 13.1157H88.6708C88.5553 13.1157 88.4946 13.0549 88.4946 12.9395V8.73358C88.4946 8.67888 88.4703 8.65457 88.4277 8.65457H88.3548C88.3001 8.65457 88.2636 8.67888 88.2515 8.72142L86.6226 12.3317C86.5557 12.4775 86.4949 12.5991 86.422 12.6963C86.3552 12.7936 86.2822 12.8787 86.2032 12.9395C86.1242 13.0063 86.0391 13.0489 85.9358 13.0792C85.8385 13.1036 85.717 13.1218 85.5833 13.1218H85.1943C85.0606 13.1218 84.9451 13.1096 84.8418 13.0792C84.7445 13.0549 84.6534 13.0063 84.5744 12.9395C84.4953 12.8726 84.4224 12.7936 84.3555 12.6963C84.2887 12.5991 84.2218 12.4775 84.1611 12.3317L82.5322 8.72142C82.514 8.67888 82.4836 8.65457 82.4289 8.65457H82.3559C82.3134 8.65457 82.2891 8.67888 82.2891 8.73358V12.9395C82.2891 13.0549 82.2283 13.1157 82.1128 13.1157H81.2923C81.1708 13.1157 81.1039 13.0549 81.1039 12.9395V8.31421C81.1039 8.01032 81.1525 7.79151 81.2498 7.66388C81.347 7.53624 81.5354 7.47546 81.8211 7.47546H82.6963Z" fill="#2D364D"/>
<path d="M32.336 14.4923C32.749 14.4923 33.1001 14.5336 33.3891 14.6059C33.6782 14.6885 33.9157 14.8124 34.0912 14.9776C34.2771 15.1428 34.4009 15.3699 34.4835 15.6383C34.5661 15.9068 34.6074 16.2372 34.6074 16.6295V18.0233C34.6074 18.4157 34.5661 18.746 34.4835 19.0145C34.4009 19.2829 34.2667 19.5101 34.0912 19.6752C33.9054 19.8404 33.6782 19.9643 33.3891 20.0469C33.1001 20.1192 32.749 20.1605 32.336 20.1605H29.8375C29.4245 20.1605 29.0838 20.1192 28.7947 20.0469C28.5056 19.9747 28.2785 19.8508 28.0926 19.6752C27.9068 19.5101 27.7829 19.2829 27.7003 19.0145C27.6177 18.746 27.5764 18.4157 27.5764 18.0233V16.6295C27.5764 16.2372 27.6177 15.9171 27.7003 15.6383C27.7829 15.3699 27.9171 15.1531 28.0926 14.9776C28.2785 14.8124 28.5056 14.6885 28.7947 14.6059C29.0838 14.5233 29.4245 14.4923 29.8375 14.4923H32.336ZM28.805 17.9304C28.805 18.1369 28.8257 18.3227 28.8567 18.4569C28.8876 18.6015 28.9496 18.7151 29.0322 18.7977C29.1148 18.8803 29.218 18.9422 29.3626 18.9732C29.4968 19.0041 29.6723 19.0248 29.8891 19.0248H32.2947C32.5012 19.0248 32.6768 19.0041 32.8213 18.9732C32.9555 18.9422 33.0691 18.8803 33.1517 18.7977C33.2343 18.7151 33.2859 18.6015 33.3272 18.4569C33.3582 18.3124 33.3788 18.1369 33.3788 17.9304V16.7121C33.3788 16.5056 33.3582 16.3198 33.3272 16.1855C33.2962 16.041 33.2343 15.9274 33.1517 15.8448C33.0691 15.7622 32.9658 15.7003 32.8213 15.6693C32.6871 15.6383 32.5116 15.6177 32.2947 15.6177H29.8891C29.6826 15.6177 29.5071 15.6383 29.3626 15.6693C29.2283 15.7003 29.1148 15.7622 29.0322 15.8448C28.9496 15.9274 28.898 16.041 28.8567 16.1855C28.8257 16.3301 28.805 16.5056 28.805 16.7121V17.9304Z" fill="#1B4ADD"/>
<path d="M37.8596 14.4927C37.9939 14.4927 38.0971 14.503 38.1797 14.5133C38.2623 14.5237 38.3449 14.5443 38.4068 14.5856C38.4688 14.6166 38.5307 14.6682 38.5927 14.7301C38.6546 14.7921 38.7166 14.8747 38.7992 14.9779L41.814 18.9322C41.8346 18.9735 41.8656 18.9839 41.9172 18.9839H41.9895C42.0308 18.9839 42.0514 18.9529 42.0514 18.9013V14.6785C42.0514 14.565 42.1134 14.503 42.2269 14.503H43.0736C43.1871 14.503 43.2491 14.565 43.2491 14.6785V19.3246C43.2491 19.655 43.1871 19.8718 43.0736 19.9957C42.9497 20.1092 42.7741 20.1712 42.5264 20.1712H41.8346C41.7107 20.1712 41.6075 20.1609 41.5249 20.1505C41.4423 20.1402 41.37 20.1196 41.2977 20.0886C41.2358 20.0576 41.1738 20.006 41.1119 19.9441C41.0499 19.8821 40.9777 19.7995 40.8951 19.6859L37.8803 15.7316C37.8493 15.6903 37.808 15.68 37.7771 15.68H37.7048C37.6635 15.68 37.6428 15.711 37.6428 15.7626V19.9854C37.6428 20.1092 37.5809 20.1609 37.4673 20.1609H36.6207C36.4968 20.1609 36.4349 20.0989 36.4349 19.9854V15.3393C36.4349 15.0089 36.4968 14.7921 36.6104 14.6682C36.7239 14.5546 36.9098 14.4927 37.1576 14.4927H37.8596Z" fill="#1B4ADD"/>
<path d="M50.8997 14.4925C51.0236 14.4925 51.0855 14.5544 51.0855 14.668V15.432C51.0855 15.5559 51.0236 15.6075 50.8997 15.6075H47.3583C47.1518 15.6075 46.9763 15.6282 46.8318 15.6591C46.6976 15.6901 46.584 15.7521 46.5014 15.8347C46.4188 15.9172 46.3569 16.0308 46.3259 16.1754C46.2949 16.3199 46.2743 16.4954 46.2743 16.7019V16.7845H50.848C50.9616 16.7845 51.0236 16.8465 51.0236 16.96V17.6002C51.0236 17.7137 50.9616 17.7757 50.848 17.7757H46.2743V17.9099C46.2743 18.1164 46.2949 18.3022 46.3259 18.4365C46.3569 18.581 46.4188 18.6946 46.5014 18.7772C46.584 18.8598 46.6976 18.9217 46.8318 18.9527C46.966 18.9837 47.1415 19.0043 47.3583 19.0043H50.8997C51.0236 19.0043 51.0855 19.0662 51.0855 19.1798V19.9438C51.0855 20.0677 51.0236 20.1193 50.8997 20.1193H47.3377C46.9247 20.1193 46.584 20.0781 46.2949 20.0058C46.0058 19.9335 45.7787 19.8096 45.5928 19.6341C45.407 19.4689 45.2831 19.2418 45.2005 18.9733C45.1179 18.7049 45.0766 18.3745 45.0766 17.9822V16.5884C45.0766 16.196 45.1179 15.876 45.2005 15.5972C45.2831 15.3288 45.4173 15.1119 45.5928 14.9364C45.7787 14.7712 46.0058 14.6473 46.2949 14.5647C46.584 14.4821 46.9247 14.4512 47.3377 14.4512H50.8997V14.4925Z" fill="#1B4ADD"/>
</g>
<defs>
<clipPath id="clip0_39_692">
<rect width="90" height="24" fill="white"/>
</clipPath>
</defs>
</svg>
