<svg width="131" height="24" viewBox="0 0 131 24" fill="none" xmlns="http://www.w3.org/2000/svg">
<g clip-path="url(#clip0_108_43)">
<path d="M32.5605 7.2334H34.0246L38.1282 16.7653H36.186L35.2995 14.584H31.1661L30.3095 16.7653H28.4071L32.5505 7.2334H32.5605ZM34.7119 13.1298L33.2477 9.25531L31.7537 13.1298H34.7119Z" fill="black"/>
<path d="M39.9509 7.2334H41.9031L44.5027 14.4346L47.182 7.2334H49.0147L45.1601 16.7653H43.6959L39.9509 7.2334Z" fill="black"/>
<path d="M55.0706 7.2334H56.5347L60.6383 16.7653H58.696L57.8096 14.584H53.6761L52.8196 16.7653H50.9271L55.0706 7.2334ZM57.2219 13.1298L55.7578 9.25531L54.2638 13.1298H57.2219Z" fill="black"/>
<path d="M64.3932 7.2334H66.0864V15.2314H70.1402V16.7653H64.3932V7.2334Z" fill="black"/>
<path d="M77.1422 7.2334H78.6063L82.7099 16.7653H80.7677L79.8812 14.584H75.7478L74.8912 16.7653H72.9988L77.1422 7.2334ZM79.2936 13.1298L77.8295 9.25531L76.3354 13.1298H79.2936Z" fill="black"/>
<path d="M86.4648 7.2334H88.7158L93.3274 14.3151H93.3573V7.2334H95.0505V16.7653H92.8991L88.188 9.45451H88.1581V16.7653H86.4648V7.2334Z" fill="black"/>
<path d="M106.405 9.46431C106.057 9.08582 105.718 8.83682 105.379 8.70734C105.061 8.57786 104.732 8.51809 104.393 8.51809C103.895 8.51809 103.447 8.60774 103.049 8.78702C102.65 8.95634 102.312 9.19539 102.023 9.51411C101.734 9.82288 101.515 10.1814 101.345 10.5898C101.196 10.9982 101.116 11.4464 101.116 11.9245C101.116 12.4324 101.196 12.9105 101.345 13.3388C101.505 13.7671 101.734 14.1456 102.023 14.4543C102.312 14.7731 102.65 15.0121 103.049 15.1914C103.457 15.3707 103.905 15.4603 104.393 15.4603C104.782 15.4603 105.15 15.3707 105.509 15.1914C105.877 15.0022 106.216 14.7034 106.535 14.3049L107.929 15.301C107.501 15.8886 106.973 16.3269 106.355 16.5958C105.738 16.8647 105.08 17.0042 104.373 17.0042C103.636 17.0042 102.959 16.8846 102.341 16.6555C101.734 16.4165 101.206 16.0779 100.758 15.6496C100.319 15.2113 99.9709 14.6834 99.7219 14.0759C99.4729 13.4683 99.3434 12.791 99.3434 12.044C99.3434 11.2771 99.4729 10.5898 99.7219 9.97228C99.9709 9.34479 100.319 8.80694 100.758 8.36869C101.206 7.93045 101.734 7.5918 102.341 7.36272C102.959 7.12367 103.636 7.00415 104.373 7.00415C105.021 7.00415 105.618 7.12367 106.166 7.35276C106.724 7.58184 107.242 7.96033 107.71 8.50813L106.395 9.47427L106.405 9.46431Z" fill="black"/>
<path d="M111.774 7.2334H113.467V11.0282H117.919V7.2334H119.622V16.7653H117.919V12.5621H113.467V16.7653H111.774V7.2334Z" fill="black"/>
<path d="M124.443 7.2334H130.748V8.76726H126.136V11.1079H130.509V12.6418H126.136V15.2314H130.997V16.7653H124.443V7.2334Z" fill="black"/>
<path fill-rule="evenodd" clip-rule="evenodd" d="M24.0065 12.0042C24.0065 18.6357 18.6348 24.0074 12.0032 24.0074C5.37171 24.0074 0 18.6357 0 12.0042C0 5.37269 5.37171 0.000976562 12.0032 0.000976562C18.6348 0.000976562 24.0065 5.37269 24.0065 12.0042ZM8.59998 16.781H6.27283C5.7829 16.781 5.53794 16.781 5.39796 16.6848C5.24048 16.5798 5.14424 16.4136 5.12675 16.2211C5.118 16.0461 5.24048 15.8361 5.47669 15.4075L11.2333 5.2677C11.4783 4.83901 11.6008 4.6203 11.7583 4.54156C11.9245 4.45407 12.1257 4.45407 12.2919 4.54156C12.4494 4.6203 12.5719 4.83901 12.8169 5.2677L13.9979 7.3324L14.0067 7.34115C14.2692 7.80483 14.4091 8.04104 14.4616 8.28601C14.5229 8.55722 14.5229 8.83718 14.4616 9.10839C14.4004 9.35335 14.2692 9.58957 13.9979 10.062L10.9796 15.4075L10.9709 15.425C10.7084 15.8886 10.5684 16.1249 10.3847 16.3086C10.1835 16.501 9.93854 16.641 9.66733 16.7285C9.42236 16.7985 9.15115 16.7985 8.59998 16.7985V16.781ZM14.4791 16.781H17.8211C18.3111 16.781 18.5648 16.781 18.7047 16.6848C18.8622 16.5798 18.9672 16.4048 18.976 16.2211C18.9847 16.0549 18.8622 15.8449 18.6348 15.4512C18.626 15.4337 18.6173 15.425 18.6085 15.4075L16.9375 12.5466L16.92 12.5116C16.6838 12.1179 16.5701 11.9167 16.4126 11.838C16.2464 11.7505 16.0451 11.7505 15.8789 11.838C15.7214 11.9167 15.599 12.1267 15.354 12.5466L13.6917 15.4075L13.683 15.4162C13.438 15.8361 13.3155 16.0461 13.3243 16.2211C13.333 16.4136 13.4293 16.5798 13.5955 16.6848C13.7442 16.781 13.9892 16.781 14.4791 16.781Z" fill="#E84142"/>
</g>
<defs>
<clipPath id="clip0_108_43">
<rect width="131" height="24" fill="white"/>
</clipPath>
</defs>
</svg>
