<svg width="63" height="24" viewBox="0 0 63 24" fill="none" xmlns="http://www.w3.org/2000/svg">
<g clip-path="url(#clip0_110_132)">
<path d="M31.0784 16.8193V7.09259H34.2599C35.3149 7.09259 36.1093 7.31124 36.6414 7.74856C37.1735 8.18406 37.4395 8.83092 37.4395 9.68916C37.4395 10.1429 37.312 10.5474 37.0514 10.8954C36.7945 11.2471 36.4428 11.5186 35.9964 11.7099C36.523 11.8557 36.9384 12.1363 37.2446 12.5463C37.5507 12.9599 37.7001 13.4501 37.7001 14.0168C37.7001 14.8896 37.4177 15.5747 36.851 16.0722C36.2861 16.5714 35.488 16.8193 34.4548 16.8193H31.0784ZM32.363 12.2912V15.7661H34.4785C35.0762 15.7661 35.5481 15.613 35.8925 15.305C36.2369 14.9971 36.41 14.5725 36.41 14.035C36.41 12.8725 35.7741 12.2912 34.4986 12.2912H32.363ZM32.363 11.238H34.2981C34.8593 11.238 35.3076 11.0959 35.6465 10.8153C35.9818 10.5346 36.1513 10.1556 36.1513 9.67458C36.1513 9.13887 35.9946 8.75075 35.683 8.5084C35.3714 8.26423 34.8958 8.14397 34.2599 8.14397H32.363V11.238ZM44.965 14.2755H40.887L39.9723 16.8211H38.6494L42.3648 7.09259H43.4873L47.2081 16.8211H45.8925L44.965 14.2755ZM41.277 13.2223H44.586L42.9279 8.67604L41.277 13.2223ZM51.3845 12.4843C50.2857 12.1673 49.4858 11.7774 48.9829 11.3163C48.4818 10.8553 48.2303 10.285 48.2303 9.60898C48.2303 8.84368 48.5383 8.20957 49.1487 7.70665C49.7628 7.20556 50.5572 6.9541 51.5357 6.9541C52.2045 6.9541 52.8021 7.08347 53.3233 7.34222C53.8481 7.59915 54.2507 7.95629 54.5386 8.41183C54.8265 8.86554 54.9705 9.36299 54.9705 9.90053H53.6822C53.6822 9.31197 53.4946 8.84915 53.121 8.51205C52.7475 8.17677 52.2172 8.00731 51.5357 8.00731C50.9034 8.00731 50.4115 8.14579 50.058 8.42458C49.7026 8.70519 49.5259 9.08967 49.5259 9.5853C49.5259 9.98253 49.6917 10.3196 50.0306 10.5929C50.3659 10.8663 50.9381 11.1177 51.7471 11.3455C52.5543 11.5733 53.1884 11.8247 53.644 12.0981C54.0995 12.3714 54.4384 12.6903 54.6589 13.0583C54.8794 13.4228 54.9887 13.8546 54.9887 14.3484C54.9887 15.1374 54.6808 15.7697 54.0667 16.2435C53.4508 16.7172 52.6308 16.9541 51.6013 16.9541C50.9326 16.9541 50.3076 16.8266 49.73 16.5714C49.1523 16.3145 48.7059 15.9628 48.3907 15.5182C48.0755 15.0736 47.9206 14.5671 47.9206 14.0022H49.2088C49.2088 14.5889 49.4257 15.0518 49.8612 15.3907C50.2948 15.7296 50.8743 15.9009 51.6013 15.9009C52.2792 15.9009 52.7967 15.7624 53.1575 15.4854C53.5201 15.2103 53.7005 14.8331 53.7005 14.3593C53.7005 13.8819 53.531 13.5139 53.1994 13.2533C52.8696 12.9964 52.2628 12.7376 51.3845 12.4843ZM62.137 12.3313H57.9224V15.7661H62.8185V16.8193H56.6396V7.09259H62.7529V8.14579H57.9224V11.2781H62.137V12.3313Z" fill="black"/>
<circle cx="12" cy="11.9504" r="12" fill="url(#paint0_angular_110_132)"/>
</g>
<defs>
<radialGradient id="paint0_angular_110_132" cx="0" cy="0" r="1" gradientUnits="userSpaceOnUse" gradientTransform="translate(12 11.9504) rotate(180) scale(12)">
<stop stop-color="#FDFEFF"/>
<stop offset="1" stop-color="#0455FF"/>
</radialGradient>
<clipPath id="clip0_110_132">
<rect width="63" height="24" fill="white"/>
</clipPath>
</defs>
</svg>
