<svg width="59" height="24" viewBox="0 0 59 24" fill="none" xmlns="http://www.w3.org/2000/svg">
<g clip-path="url(#clip0_39_683)">
<path d="M55.6347 16.9949C54.4741 16.9949 53.5654 16.6575 52.9087 15.9827C52.2564 15.3035 51.9303 14.37 51.9303 13.1825C51.9303 11.9634 52.2339 11.0052 52.8412 10.308C53.4485 9.61071 54.2829 9.26208 55.3446 9.26208C56.3297 9.26208 57.1079 9.56123 57.6792 10.1595C58.2505 10.7578 58.5362 11.581 58.5362 12.6292V13.4861H53.5632C53.5857 14.2104 53.7814 14.7682 54.1502 15.1595C54.5191 15.5464 55.0387 15.7398 55.7089 15.7398C56.1498 15.7398 56.5591 15.6993 56.937 15.6184C57.3194 15.5329 57.7287 15.3934 58.1651 15.2V16.4888C57.7782 16.6732 57.3868 16.8037 56.991 16.8802C56.5951 16.9566 56.143 16.9949 55.6347 16.9949ZM55.3446 10.4632C54.8407 10.4632 54.4359 10.6229 54.13 10.9422C53.8286 11.2616 53.6487 11.7272 53.5902 12.339H56.9775C56.9685 11.7227 56.82 11.2571 56.5321 10.9422C56.2442 10.6229 55.8484 10.4632 55.3446 10.4632Z" fill="black"/>
<path d="M50.655 14.7344C50.655 15.4632 50.3895 16.0232 49.8587 16.4146C49.3279 16.8014 48.5677 16.9949 47.578 16.9949C46.5839 16.9949 45.7854 16.8442 45.1826 16.5428V15.173C46.0598 15.5779 46.8763 15.7803 47.632 15.7803C48.6082 15.7803 49.0962 15.4857 49.0962 14.8964C49.0962 14.7074 49.0423 14.55 48.9343 14.424C48.8263 14.2981 48.6487 14.1676 48.4012 14.0327C48.1538 13.8977 47.8097 13.7448 47.3689 13.5738C46.5097 13.2409 45.9271 12.9081 45.6212 12.5752C45.3198 12.2423 45.1691 11.8104 45.1691 11.2796C45.1691 10.6409 45.4255 10.146 45.9384 9.79515C46.4557 9.43977 47.1574 9.26208 48.0436 9.26208C48.9208 9.26208 49.7508 9.43977 50.5335 9.79515L50.0207 10.9895C49.2155 10.6566 48.5384 10.4902 47.9896 10.4902C47.1529 10.4902 46.7346 10.7286 46.7346 11.2054C46.7346 11.4393 46.8425 11.6373 47.0585 11.7992C47.2789 11.9611 47.7557 12.1838 48.489 12.4672C49.1052 12.7056 49.5528 12.9238 49.8317 13.1217C50.1106 13.3197 50.3176 13.5491 50.4525 13.81C50.5875 14.0664 50.655 14.3745 50.655 14.7344Z" fill="black"/>
<path d="M42.2946 16.8599L41.9775 15.8208H41.9235C41.5636 16.2751 41.2015 16.5855 40.8371 16.752C40.4728 16.9139 40.0049 16.9949 39.4336 16.9949C38.7004 16.9949 38.1268 16.7969 37.713 16.4011C37.3036 16.0052 37.0989 15.4452 37.0989 14.7209C37.0989 13.9517 37.3846 13.3714 37.9559 12.98C38.5272 12.5887 39.3976 12.375 40.5672 12.339L41.856 12.2985V11.9004C41.856 11.4236 41.7436 11.0682 41.5186 10.8343C41.2982 10.5959 40.9541 10.4767 40.4863 10.4767C40.1039 10.4767 39.7373 10.5329 39.3864 10.6454C39.0355 10.7578 38.6981 10.8905 38.3742 11.0435L37.8614 9.90986C38.2663 9.69843 38.7094 9.53874 39.1907 9.43078C39.672 9.31832 40.1264 9.26208 40.5537 9.26208C41.5029 9.26208 42.2182 9.46901 42.6995 9.88287C43.1853 10.2967 43.4282 10.9467 43.4282 11.8329V16.8599H42.2946ZM39.933 15.7803C40.5088 15.7803 40.9698 15.6206 41.3162 15.3012C41.6671 14.9773 41.8425 14.5252 41.8425 13.9449V13.2972L40.8844 13.3377C40.1376 13.3646 39.5933 13.4906 39.2514 13.7155C38.9141 13.9359 38.7454 14.2756 38.7454 14.7344C38.7454 15.0673 38.8443 15.326 39.0423 15.5104C39.2402 15.6903 39.5371 15.7803 39.933 15.7803Z" fill="black"/>
<path d="M28.6711 6.99487H31.5996C32.9581 6.99487 33.9388 7.1928 34.5416 7.58867C35.1489 7.98453 35.4525 8.60981 35.4525 9.46451C35.4525 10.0403 35.3041 10.5194 35.0072 10.9018C34.7103 11.2841 34.2829 11.5248 33.7251 11.6238V11.6912C34.4179 11.8217 34.9262 12.0803 35.2501 12.4672C35.5785 12.8496 35.7427 13.3691 35.7427 14.0259C35.7427 14.9121 35.4323 15.6071 34.8115 16.1109C34.1952 16.6103 33.336 16.8599 32.2339 16.8599H28.6711V6.99487ZM30.2838 11.0704H31.8358C32.5105 11.0704 33.0031 10.9647 33.3135 10.7533C33.6239 10.5374 33.7791 10.173 33.7791 9.66019C33.7791 9.19685 33.6104 8.86172 33.273 8.65479C32.9401 8.44786 32.4093 8.3444 31.6806 8.3444H30.2838V11.0704ZM30.2838 12.3795V15.5036H31.9977C32.6725 15.5036 33.1808 15.3754 33.5227 15.119C33.8691 14.8581 34.0423 14.4488 34.0423 13.891C34.0423 13.3781 33.8668 12.998 33.5159 12.7506C33.1651 12.5032 32.632 12.3795 31.9168 12.3795H30.2838Z" fill="black"/>
<g clip-path="url(#clip1_39_683)">
<mask id="mask0_39_683" style="mask-type:luminance" maskUnits="userSpaceOnUse" x="0" y="0" width="24" height="24">
<path d="M12 24C5.37216 24 0 18.6278 0 12C0 5.37216 5.37216 0 12 0C18.6278 0 24 5.37216 24 12C24 18.6278 18.6278 24 12 24Z" fill="white"/>
</mask>
<g mask="url(#mask0_39_683)">
<path fill-rule="evenodd" clip-rule="evenodd" d="M12.0003 11.9999L-4.97255 11.8952L-4.95719 11.2712L12.0003 11.9999Z" fill="#FEFEFF"/>
<path fill-rule="evenodd" clip-rule="evenodd" d="M12.0001 11.9999L-4.96017 11.3749L-4.93425 10.8546L12.0001 11.9999Z" fill="#FDFEFF"/>
<path fill-rule="evenodd" clip-rule="evenodd" d="M12.0002 11.9998L-4.93993 10.9592L-4.90153 10.4398L12.0002 11.9998Z" fill="#FCFDFF"/>
<path fill-rule="evenodd" clip-rule="evenodd" d="M12.0002 11.9999L-4.90919 10.5435L-4.85832 10.0251L12.0002 11.9999Z" fill="#FBFCFF"/>
<path fill-rule="evenodd" clip-rule="evenodd" d="M12.0003 11.9998L-4.86787 10.1288L-4.80451 9.6123L12.0003 11.9998Z" fill="#FAFCFF"/>
<path fill-rule="evenodd" clip-rule="evenodd" d="M12.0003 11.9999L-4.81697 9.71608L-4.74113 9.20056L12.0003 11.9999Z" fill="#F9FBFF"/>
<path fill-rule="evenodd" clip-rule="evenodd" d="M12.0002 11.9998L-4.7556 9.30317L-4.66728 8.79053L12.0002 11.9998Z" fill="#F8FAFF"/>
<path fill-rule="evenodd" clip-rule="evenodd" d="M12.0004 11.9998L-4.68445 8.89329L-4.58365 8.38257L12.0004 11.9998Z" fill="#F7FAFF"/>
<path fill-rule="evenodd" clip-rule="evenodd" d="M12.0003 11.9999L-4.6039 8.48536L-4.48966 7.97656L12.0003 11.9999Z" fill="#F6F9FF"/>
<path fill-rule="evenodd" clip-rule="evenodd" d="M12.0003 11.9999L-4.51268 8.07832L-4.38596 7.57336L12.0003 11.9999Z" fill="#F5F8FF"/>
<path fill-rule="evenodd" clip-rule="evenodd" d="M12.0003 11.9998L-4.41087 7.67408L-4.27263 7.172L12.0003 11.9998Z" fill="#F4F8FF"/>
<path fill-rule="evenodd" clip-rule="evenodd" d="M12.0002 11.9998L-4.30063 7.27278L-4.14895 6.77454L12.0002 11.9998Z" fill="#F3F7FF"/>
<path fill-rule="evenodd" clip-rule="evenodd" d="M12.0002 11.9998L-4.17964 6.8744L-4.01548 6.38L12.0002 11.9998Z" fill="#F2F6FF"/>
<path fill-rule="evenodd" clip-rule="evenodd" d="M12.0003 11.9999L-4.04897 6.47896L-3.87329 5.9884L12.0003 11.9999Z" fill="#F1F6FF"/>
<path fill-rule="evenodd" clip-rule="evenodd" d="M12.0002 11.9999L-3.90793 6.08635L-3.72073 5.60059L12.0002 11.9999Z" fill="#F0F5FF"/>
<path fill-rule="evenodd" clip-rule="evenodd" d="M12.0002 11.9999L-3.75819 5.69751L-3.55947 5.21655L12.0002 11.9999Z" fill="#EFF4FF"/>
<path fill-rule="evenodd" clip-rule="evenodd" d="M12.0002 11.9998L-3.59882 5.31248L-3.38762 4.83728L12.0002 11.9998Z" fill="#EEF3FF"/>
<path fill-rule="evenodd" clip-rule="evenodd" d="M12.0002 11.9998L-3.42986 4.93231L-3.20714 4.46191L12.0002 11.9998Z" fill="#EDF3FF"/>
<path fill-rule="evenodd" clip-rule="evenodd" d="M12.0002 11.9999L-3.25226 4.55605L-3.01802 4.09045L12.0002 11.9999Z" fill="#ECF2FF"/>
<path fill-rule="evenodd" clip-rule="evenodd" d="M12.0003 11.9998L-3.06494 4.18349L-2.81918 3.72461L12.0003 11.9998Z" fill="#EBF1FF"/>
<path fill-rule="evenodd" clip-rule="evenodd" d="M12.0002 11.9999L-2.86826 3.81687L-2.61194 3.36279L12.0002 11.9999Z" fill="#EAF1FF"/>
<path fill-rule="evenodd" clip-rule="evenodd" d="M12.0003 11.9999L-2.66272 3.45397L-2.39488 3.00757L12.0003 11.9999Z" fill="#E9F0FF"/>
<path fill-rule="evenodd" clip-rule="evenodd" d="M12.0003 11.9998L-2.44864 3.09677L-2.17024 2.65613L12.0003 11.9998Z" fill="#E8EFFF"/>
<path fill-rule="evenodd" clip-rule="evenodd" d="M12.0002 12L-2.22604 2.74461L-1.93612 2.31165L12.0002 12Z" fill="#E7EFFF"/>
<path fill-rule="evenodd" clip-rule="evenodd" d="M12.0003 11.9999L-1.99461 2.39794L-1.69509 1.97266L12.0003 11.9999Z" fill="#E6EEFF"/>
<path fill-rule="evenodd" clip-rule="evenodd" d="M12.0003 11.9998L-1.75456 2.05809L-1.44448 1.63953L12.0003 11.9998Z" fill="#E5EDFF"/>
<path fill-rule="evenodd" clip-rule="evenodd" d="M12.0002 11.9999L-1.50702 1.72314L-1.18638 1.31226L12.0002 11.9999Z" fill="#E4EDFF"/>
<path fill-rule="evenodd" clip-rule="evenodd" d="M12.0003 11.9999L-1.2506 1.39479L-0.920355 0.992554L12.0003 11.9999Z" fill="#E3ECFF"/>
<path fill-rule="evenodd" clip-rule="evenodd" d="M12.0002 11.9999L-0.985718 1.07315L-0.645878 0.678589L12.0002 11.9999Z" fill="#E2EBFF"/>
<path fill-rule="evenodd" clip-rule="evenodd" d="M12.0002 11.9998L-0.714005 0.757258L-0.364564 0.371338L12.0002 11.9998Z" fill="#E1EBFF"/>
<path fill-rule="evenodd" clip-rule="evenodd" d="M12.0003 11.9999L-0.434601 0.449179L-0.0755608 0.0718994L12.0003 11.9999Z" fill="#E0EAFF"/>
<path fill-rule="evenodd" clip-rule="evenodd" d="M12.0003 11.9999L-0.147568 0.147693L0.221072 -0.220947L12.0003 11.9999Z" fill="#DFE9FF"/>
<path fill-rule="evenodd" clip-rule="evenodd" d="M12.0002 11.9999L0.148087 -0.147901L0.524406 -0.505981L12.0002 11.9999Z" fill="#DEE9FF"/>
<path fill-rule="evenodd" clip-rule="evenodd" d="M12.0002 11.9999L0.449509 -0.434984L0.835429 -0.784424L12.0002 11.9999Z" fill="#DDE8FF"/>
<path fill-rule="evenodd" clip-rule="evenodd" d="M12.0002 11.9999L0.75766 -0.714359L1.15222 -1.0542L12.0002 11.9999Z" fill="#DCE7FF"/>
<path fill-rule="evenodd" clip-rule="evenodd" d="M12.0004 11.9999L1.07364 -0.986044L1.47588 -1.31628L12.0004 11.9999Z" fill="#DBE7FF"/>
<path fill-rule="evenodd" clip-rule="evenodd" d="M12.0002 11.9999L1.39513 -1.251L1.80601 -1.57068L12.0002 11.9999Z" fill="#DAE6FF"/>
<path fill-rule="evenodd" clip-rule="evenodd" d="M12.0003 11.9999L1.72346 -1.5073L2.14203 -1.81738L12.0003 11.9999Z" fill="#D9E5FF"/>
<path fill-rule="evenodd" clip-rule="evenodd" d="M12.0003 11.9998L2.05853 -1.75505L2.48381 -2.05457L12.0003 11.9998Z" fill="#D8E5FF"/>
<path fill-rule="evenodd" clip-rule="evenodd" d="M12.0003 11.9999L2.39836 -1.99498L2.83132 -2.28394L12.0003 11.9999Z" fill="#D7E4FF"/>
<path fill-rule="evenodd" clip-rule="evenodd" d="M12.0003 11.9999L2.74492 -2.22636L3.18556 -2.50476L12.0003 11.9999Z" fill="#D6E3FF"/>
<path fill-rule="evenodd" clip-rule="evenodd" d="M12.0002 11.9999L3.09712 -2.44908L3.54352 -2.71692L12.0002 11.9999Z" fill="#D5E3FF"/>
<path fill-rule="evenodd" clip-rule="evenodd" d="M12.0003 11.9999L3.45435 -2.66311L3.90747 -2.91943L12.0003 11.9999Z" fill="#D4E2FF"/>
<path fill-rule="evenodd" clip-rule="evenodd" d="M12.0003 11.9999L3.81721 -2.86862L4.27609 -3.11438L12.0003 11.9999Z" fill="#D3E1FF"/>
<path fill-rule="evenodd" clip-rule="evenodd" d="M12.0003 11.9999L4.18396 -3.06543L4.64956 -3.29871L12.0003 11.9999Z" fill="#D2E0FF"/>
<path fill-rule="evenodd" clip-rule="evenodd" d="M12.0001 11.9999L4.55629 -3.25261L5.02669 -3.47437L12.0001 11.9999Z" fill="#D1E0FF"/>
<path fill-rule="evenodd" clip-rule="evenodd" d="M12.0003 11.9999L4.93274 -3.43016L5.4089 -3.64136L12.0003 11.9999Z" fill="#D0DFFF"/>
<path fill-rule="evenodd" clip-rule="evenodd" d="M12.0003 11.9999L5.31294 -3.59915L5.79486 -3.79883L12.0003 11.9999Z" fill="#CFDEFF"/>
<path fill-rule="evenodd" clip-rule="evenodd" d="M12.0003 11.9999L5.69791 -3.75848L6.18463 -3.94568L12.0003 11.9999Z" fill="#CEDEFF"/>
<path fill-rule="evenodd" clip-rule="evenodd" d="M12.0003 11.9999L6.08673 -3.9083L6.57729 -4.08398L12.0003 11.9999Z" fill="#CDDDFF"/>
<path fill-rule="evenodd" clip-rule="evenodd" d="M12.0002 11.9998L6.47925 -4.04943L6.97365 -4.21167L12.0002 11.9998Z" fill="#CCDCFF"/>
<path fill-rule="evenodd" clip-rule="evenodd" d="M12.0002 11.9999L6.8748 -4.17997L7.37304 -4.33069L12.0002 11.9999Z" fill="#CBDCFF"/>
<path fill-rule="evenodd" clip-rule="evenodd" d="M12.0002 11.9998L7.27316 -4.30097L7.77524 -4.43921L12.0002 11.9998Z" fill="#CADBFF"/>
<path fill-rule="evenodd" clip-rule="evenodd" d="M12.0003 12L7.6745 -4.41124L8.17946 -4.53796L12.0003 12Z" fill="#C9DAFF"/>
<path fill-rule="evenodd" clip-rule="evenodd" d="M12.0002 11.9999L8.07855 -4.51306L8.58639 -4.62634L12.0002 11.9999Z" fill="#C8DAFF"/>
<path fill-rule="evenodd" clip-rule="evenodd" d="M12.0002 11.9999L8.48561 -4.60428L8.99537 -4.70508L12.0002 11.9999Z" fill="#C7D9FF"/>
<path fill-rule="evenodd" clip-rule="evenodd" d="M12.0002 11.9999L8.89366 -4.68489L9.4063 -4.77417L12.0002 11.9999Z" fill="#C6D8FF"/>
<path fill-rule="evenodd" clip-rule="evenodd" d="M12.0003 11.9999L9.3037 -4.75596L9.81922 -4.83276L12.0003 11.9999Z" fill="#C5D8FF"/>
<path fill-rule="evenodd" clip-rule="evenodd" d="M12.0003 11.9999L9.71646 -4.81738L10.2329 -4.88074L12.0003 11.9999Z" fill="#C4D7FF"/>
<path fill-rule="evenodd" clip-rule="evenodd" d="M12.0003 11.9999L10.1292 -4.86831L10.6476 -4.91919L12.0003 11.9999Z" fill="#C3D6FF"/>
<path fill-rule="evenodd" clip-rule="evenodd" d="M12.0003 11.9998L10.5439 -4.9096L11.0633 -4.948L12.0003 11.9998Z" fill="#C2D6FF"/>
<path fill-rule="evenodd" clip-rule="evenodd" d="M12.0002 11.9999L10.9596 -4.94025L11.4799 -4.96521L12.0002 11.9999Z" fill="#C1D5FF"/>
<path fill-rule="evenodd" clip-rule="evenodd" d="M12.0002 11.9999L11.3752 -4.96042L11.8956 -4.9729L12.0002 11.9999Z" fill="#C0D4FF"/>
<path fill-rule="evenodd" clip-rule="evenodd" d="M12.0003 11.9998L11.792 -4.97107H12.3123L12.0003 11.9998Z" fill="#BFD4FF"/>
<path fill-rule="evenodd" clip-rule="evenodd" d="M12.0002 11.9998L12.2085 -4.97107L12.7288 -4.95763L12.0002 11.9998Z" fill="#BED3FF"/>
<path fill-rule="evenodd" clip-rule="evenodd" d="M12.0002 11.9999L12.6251 -4.96045L13.1445 -4.93453L12.0002 11.9999Z" fill="#BDD2FF"/>
<path fill-rule="evenodd" clip-rule="evenodd" d="M12.0002 11.9999L13.0408 -4.94031L13.5602 -4.90191L12.0002 11.9999Z" fill="#BCD2FF"/>
<path fill-rule="evenodd" clip-rule="evenodd" d="M12.0002 11.9999L13.4565 -4.90955L13.9749 -4.85867L12.0002 11.9999Z" fill="#BBD1FF"/>
<path fill-rule="evenodd" clip-rule="evenodd" d="M12.0002 11.9999L13.8703 -4.86829L14.3877 -4.80493L12.0002 11.9999Z" fill="#BAD0FF"/>
<path fill-rule="evenodd" clip-rule="evenodd" d="M12.0002 11.9999L14.284 -4.81738L14.7995 -4.74154L12.0002 11.9999Z" fill="#B9D0FF"/>
<path fill-rule="evenodd" clip-rule="evenodd" d="M12.0002 11.9999L14.6959 -4.75598L15.2095 -4.66766L12.0002 11.9999Z" fill="#B8CFFF"/>
<path fill-rule="evenodd" clip-rule="evenodd" d="M12.0002 11.9999L15.1067 -4.68494L15.6175 -4.58414L12.0002 11.9999Z" fill="#B7CEFF"/>
<path fill-rule="evenodd" clip-rule="evenodd" d="M12.0002 11.9999L15.5147 -4.60425L16.0235 -4.49001L12.0002 11.9999Z" fill="#B6CDFF"/>
<path fill-rule="evenodd" clip-rule="evenodd" d="M12.0002 11.9999L15.9218 -4.51306L16.4267 -4.38634L12.0002 11.9999Z" fill="#B5CDFF"/>
<path fill-rule="evenodd" clip-rule="evenodd" d="M12.0002 11.9998L16.3259 -4.41138L16.8271 -4.27314L12.0002 11.9998Z" fill="#B4CCFF"/>
<path fill-rule="evenodd" clip-rule="evenodd" d="M12.0002 11.9999L16.7272 -4.3009L17.2255 -4.14922L12.0002 11.9999Z" fill="#B3CBFF"/>
<path fill-rule="evenodd" clip-rule="evenodd" d="M12.0002 11.9999L17.1256 -4.17993L17.62 -4.01577L12.0002 11.9999Z" fill="#B2CBFF"/>
<path fill-rule="evenodd" clip-rule="evenodd" d="M12.0002 11.9998L17.5211 -4.04944L18.0117 -3.87376L12.0002 11.9998Z" fill="#B1CAFF"/>
<path fill-rule="evenodd" clip-rule="evenodd" d="M12.0002 11.9998L17.9138 -3.90833L18.3995 -3.72113L12.0002 11.9998Z" fill="#B0C9FF"/>
<path fill-rule="evenodd" clip-rule="evenodd" d="M12.0002 11.9999L18.3016 -3.75854L18.7835 -3.55982L12.0002 11.9999Z" fill="#AFC9FF"/>
<path fill-rule="evenodd" clip-rule="evenodd" d="M12.0002 11.9999L18.6866 -3.59912L19.1627 -3.38792L12.0002 11.9999Z" fill="#AEC8FF"/>
<path fill-rule="evenodd" clip-rule="evenodd" d="M12.0002 11.9999L19.0677 -3.43018L19.5381 -3.20746L12.0002 11.9999Z" fill="#ADC7FF"/>
<path fill-rule="evenodd" clip-rule="evenodd" d="M12.0002 11.9999L19.444 -3.25256L19.9096 -3.01832L12.0002 11.9999Z" fill="#ACC7FF"/>
<path fill-rule="evenodd" clip-rule="evenodd" d="M12.0002 11.9999L19.8165 -3.06543L20.2754 -2.81967L12.0002 11.9999Z" fill="#ABC6FF"/>
<path fill-rule="evenodd" clip-rule="evenodd" d="M12.0002 11.9998L20.1832 -2.86865L20.6373 -2.61233L12.0002 11.9998Z" fill="#AAC5FF"/>
<path fill-rule="evenodd" clip-rule="evenodd" d="M12.0002 11.9998L20.5461 -2.66321L20.9925 -2.39537L12.0002 11.9998Z" fill="#A9C5FF"/>
<path fill-rule="evenodd" clip-rule="evenodd" d="M12.0002 11.9999L20.9032 -2.4491L21.3429 -2.1707L12.0002 11.9999Z" fill="#A8C4FF"/>
<path fill-rule="evenodd" clip-rule="evenodd" d="M12.0002 11.9999L21.2555 -2.22632L21.6885 -1.9364L12.0002 11.9999Z" fill="#A7C3FF"/>
<path fill-rule="evenodd" clip-rule="evenodd" d="M12.0002 11.9999L21.6021 -1.995L22.0274 -1.69548L12.0002 11.9999Z" fill="#A6C3FF"/>
<path fill-rule="evenodd" clip-rule="evenodd" d="M12.0002 11.9999L21.9419 -1.755L22.3605 -1.44492L12.0002 11.9999Z" fill="#A5C2FF"/>
<path fill-rule="evenodd" clip-rule="evenodd" d="M12.0002 11.9999L22.277 -1.50732L22.6869 -1.18668L12.0002 11.9999Z" fill="#A4C1FF"/>
<path fill-rule="evenodd" clip-rule="evenodd" d="M12.0002 11.9999L22.6053 -1.25098L23.0075 -0.920737L12.0002 11.9999Z" fill="#A3C1FF"/>
<path fill-rule="evenodd" clip-rule="evenodd" d="M12.0002 11.9998L22.9269 -0.986084L23.3215 -0.646244L12.0002 11.9998Z" fill="#A2C0FF"/>
<path fill-rule="evenodd" clip-rule="evenodd" d="M12.0002 11.9999L23.2427 -0.714355L23.6287 -0.364915L12.0002 11.9999Z" fill="#A1BFFF"/>
<path fill-rule="evenodd" clip-rule="evenodd" d="M12.0002 11.9999L23.5509 -0.434937L23.9282 -0.0758965L12.0002 11.9999Z" fill="#A0BFFF"/>
<path fill-rule="evenodd" clip-rule="evenodd" d="M12.0002 11.9999L23.8523 -0.147949L24.221 0.220691L12.0002 11.9999Z" fill="#9FBEFF"/>
<path fill-rule="evenodd" clip-rule="evenodd" d="M12.0002 11.9999L24.1471 0.147705L24.5061 0.524025L12.0002 11.9999Z" fill="#9EBDFF"/>
<path fill-rule="evenodd" clip-rule="evenodd" d="M12.0002 11.9999L24.4351 0.449219L24.7845 0.835139L12.0002 11.9999Z" fill="#9DBDFF"/>
<path fill-rule="evenodd" clip-rule="evenodd" d="M12.0002 11.9999L24.7144 0.757324L25.0543 1.15188L12.0002 11.9999Z" fill="#9CBCFF"/>
<path fill-rule="evenodd" clip-rule="evenodd" d="M12.0002 11.9998L24.9861 1.07312L25.3163 1.47536L12.0002 11.9998Z" fill="#9BBBFF"/>
<path fill-rule="evenodd" clip-rule="evenodd" d="M12.0002 11.9999L25.2511 1.39478L25.5707 1.80566L12.0002 11.9999Z" fill="#9ABAFF"/>
<path fill-rule="evenodd" clip-rule="evenodd" d="M12.0002 11.9998L25.5074 1.72302L25.8175 2.14158L12.0002 11.9998Z" fill="#99BAFF"/>
<path fill-rule="evenodd" clip-rule="evenodd" d="M12.0002 11.9999L25.7551 2.05811L26.0546 2.48339L12.0002 11.9999Z" fill="#98B9FF"/>
<path fill-rule="evenodd" clip-rule="evenodd" d="M12.0002 11.9999L25.9951 2.39795L26.284 2.83091L12.0002 11.9999Z" fill="#97B8FF"/>
<path fill-rule="evenodd" clip-rule="evenodd" d="M12.0002 11.9999L26.2264 2.74451L26.5048 3.18515L12.0002 11.9999Z" fill="#96B8FF"/>
<path fill-rule="evenodd" clip-rule="evenodd" d="M12.0002 12L26.4491 3.09692L26.717 3.54332L12.0002 12Z" fill="#95B7FF"/>
<path fill-rule="evenodd" clip-rule="evenodd" d="M12.0002 11.9999L26.6632 3.45398L26.9195 3.9071L12.0002 11.9999Z" fill="#94B6FF"/>
<path fill-rule="evenodd" clip-rule="evenodd" d="M12.0002 11.9998L26.8687 3.81677L27.1135 4.27565L12.0002 11.9998Z" fill="#93B6FF"/>
<path fill-rule="evenodd" clip-rule="evenodd" d="M12.0002 11.9999L27.0645 4.18359L27.2987 4.64919L12.0002 11.9999Z" fill="#92B5FF"/>
<path fill-rule="evenodd" clip-rule="evenodd" d="M12.0002 11.9999L27.2527 4.55603L27.4744 5.02643L12.0002 11.9999Z" fill="#91B4FF"/>
<path fill-rule="evenodd" clip-rule="evenodd" d="M12.0002 11.9999L27.4303 4.93237L27.6415 5.40853L12.0002 11.9999Z" fill="#90B4FF"/>
<path fill-rule="evenodd" clip-rule="evenodd" d="M12.0002 11.9999L27.5992 5.3125L27.7979 5.79442L12.0002 11.9999Z" fill="#8FB3FF"/>
<path fill-rule="evenodd" clip-rule="evenodd" d="M12.0002 11.9999L27.7586 5.69751L27.9458 6.18423L12.0002 11.9999Z" fill="#8EB2FF"/>
<path fill-rule="evenodd" clip-rule="evenodd" d="M12.0002 11.9999L27.9083 6.0863L28.084 6.57686L12.0002 11.9999Z" fill="#8DB2FF"/>
<path fill-rule="evenodd" clip-rule="evenodd" d="M12.0002 11.9998L28.0485 6.47888L28.2117 6.97328L12.0002 11.9998Z" fill="#8CB1FF"/>
<path fill-rule="evenodd" clip-rule="evenodd" d="M12.0002 11.9998L28.1791 6.87439L28.3307 7.37263L12.0002 11.9998Z" fill="#8BB0FF"/>
<path fill-rule="evenodd" clip-rule="evenodd" d="M12.0002 11.9999L28.3 7.27283L28.4392 7.77491L12.0002 11.9999Z" fill="#8AB0FF"/>
<path fill-rule="evenodd" clip-rule="evenodd" d="M12.0002 11.9998L28.4114 7.67407L28.5381 8.17903L12.0002 11.9998Z" fill="#89AFFF"/>
<path fill-rule="evenodd" clip-rule="evenodd" d="M12.0002 11.9998L28.5131 8.07825L28.6264 8.58609L12.0002 11.9998Z" fill="#88AEFF"/>
<path fill-rule="evenodd" clip-rule="evenodd" d="M12.0002 11.9999L28.6034 8.48535L28.7051 8.99511L12.0002 11.9999Z" fill="#87AEFF"/>
<path fill-rule="evenodd" clip-rule="evenodd" d="M12.0002 11.9999L28.685 8.89331L28.7743 9.40595L12.0002 11.9999Z" fill="#86ADFF"/>
<path fill-rule="evenodd" clip-rule="evenodd" d="M12.0002 11.9999L28.756 9.30322L28.8328 9.81874L12.0002 11.9999Z" fill="#85ACFF"/>
<path fill-rule="evenodd" clip-rule="evenodd" d="M12.0002 11.9999L28.8175 9.71606L28.8808 10.2325L12.0002 11.9999Z" fill="#84ACFF"/>
<path fill-rule="evenodd" clip-rule="evenodd" d="M12.0002 11.9998L28.8683 10.1288L28.9192 10.6472L12.0002 11.9998Z" fill="#83ABFF"/>
<path fill-rule="evenodd" clip-rule="evenodd" d="M12.0002 11.9999L28.9096 10.5436L28.948 11.0629L12.0002 11.9999Z" fill="#82AAFF"/>
<path fill-rule="evenodd" clip-rule="evenodd" d="M12.0002 11.9999L28.9403 10.9592L28.9653 11.4795L12.0002 11.9999Z" fill="#81AAFF"/>
<path fill-rule="evenodd" clip-rule="evenodd" d="M12.0002 11.9998L28.9605 11.3749L28.973 11.8952L12.0002 11.9998Z" fill="#80A9FF"/>
<path fill-rule="evenodd" clip-rule="evenodd" d="M12.0002 11.9998L28.9701 11.7915V12.3118L12.0002 11.9998Z" fill="#7FA8FF"/>
<path fill-rule="evenodd" clip-rule="evenodd" d="M12.0002 11.9999L28.9701 12.2082L28.9576 12.7285L12.0002 11.9999Z" fill="#7EA7FF"/>
<path fill-rule="evenodd" clip-rule="evenodd" d="M12.0002 11.9999L28.9605 12.6248L28.9346 13.1442L12.0002 11.9999Z" fill="#7DA7FF"/>
<path fill-rule="evenodd" clip-rule="evenodd" d="M12.0002 11.9999L28.9403 13.0405L28.9019 13.5599L12.0002 11.9999Z" fill="#7CA6FF"/>
<path fill-rule="evenodd" clip-rule="evenodd" d="M12.0002 11.9999L28.9096 13.4562L28.8587 13.9746L12.0002 11.9999Z" fill="#7BA5FF"/>
<path fill-rule="evenodd" clip-rule="evenodd" d="M12.0002 11.9999L28.8683 13.87L28.805 14.3874L12.0002 11.9999Z" fill="#7AA5FF"/>
<path fill-rule="evenodd" clip-rule="evenodd" d="M12.0002 11.9999L28.8175 14.2837L28.7407 14.7992L12.0002 11.9999Z" fill="#79A4FF"/>
<path fill-rule="evenodd" clip-rule="evenodd" d="M12.0002 11.9999L28.756 14.6956L28.6677 15.2092L12.0002 11.9999Z" fill="#78A3FF"/>
<path fill-rule="evenodd" clip-rule="evenodd" d="M12.0002 11.9999L28.685 15.1064L28.5832 15.6172L12.0002 11.9999Z" fill="#77A3FF"/>
<path fill-rule="evenodd" clip-rule="evenodd" d="M12.0002 11.9999L28.6034 15.5144L28.4901 16.0232L12.0002 11.9999Z" fill="#76A2FF"/>
<path fill-rule="evenodd" clip-rule="evenodd" d="M12.0002 11.9999L28.5131 15.9215L28.3864 16.4264L12.0002 11.9999Z" fill="#75A1FF"/>
<path fill-rule="evenodd" clip-rule="evenodd" d="M12.0002 11.9999L28.4114 16.3256L28.2731 16.8268L12.0002 11.9999Z" fill="#74A1FF"/>
<path fill-rule="evenodd" clip-rule="evenodd" d="M12.0002 11.9999L28.3 16.7269L28.1493 17.2252L12.0002 11.9999Z" fill="#73A0FF"/>
<path fill-rule="evenodd" clip-rule="evenodd" d="M12.0002 11.9999L28.1791 17.1253L28.0159 17.6197L12.0002 11.9999Z" fill="#729FFF"/>
<path fill-rule="evenodd" clip-rule="evenodd" d="M12.0002 11.9999L28.0485 17.5208L27.8738 18.0114L12.0002 11.9999Z" fill="#719FFF"/>
<path fill-rule="evenodd" clip-rule="evenodd" d="M12.0002 11.9999L27.9083 17.9135L27.7211 18.3992L12.0002 11.9999Z" fill="#709EFF"/>
<path fill-rule="evenodd" clip-rule="evenodd" d="M12.0002 11.9999L27.7586 18.3013L27.5589 18.7832L12.0002 11.9999Z" fill="#6F9DFF"/>
<path fill-rule="evenodd" clip-rule="evenodd" d="M12.0002 11.9999L27.5992 18.6863L27.388 19.1624L12.0002 11.9999Z" fill="#6E9DFF"/>
<path fill-rule="evenodd" clip-rule="evenodd" d="M12.0002 11.9999L27.4303 19.0674L27.2075 19.5378L12.0002 11.9999Z" fill="#6D9CFF"/>
<path fill-rule="evenodd" clip-rule="evenodd" d="M12.0002 11.9999L27.2527 19.4437L27.0184 19.9093L12.0002 11.9999Z" fill="#6C9BFF"/>
<path fill-rule="evenodd" clip-rule="evenodd" d="M12.0002 11.9999L27.0645 19.8162L26.8197 20.2751L12.0002 11.9999Z" fill="#6B9BFF"/>
<path fill-rule="evenodd" clip-rule="evenodd" d="M12.0002 11.9999L26.8687 20.1829L26.6123 20.637L12.0002 11.9999Z" fill="#6A9AFF"/>
<path fill-rule="evenodd" clip-rule="evenodd" d="M12.0002 11.9999L26.6632 20.5458L26.3954 20.9922L12.0002 11.9999Z" fill="#6999FF"/>
<path fill-rule="evenodd" clip-rule="evenodd" d="M12.0002 11.9999L26.4491 20.9029L26.1707 21.3426L12.0002 11.9999Z" fill="#6899FF"/>
<path fill-rule="evenodd" clip-rule="evenodd" d="M12.0002 11.9999L26.2264 21.2552L25.9365 21.6882L12.0002 11.9999Z" fill="#6798FF"/>
<path fill-rule="evenodd" clip-rule="evenodd" d="M12.0002 11.9999L25.9951 21.6018L25.6955 22.0271L12.0002 11.9999Z" fill="#6697FF"/>
<path fill-rule="evenodd" clip-rule="evenodd" d="M12.0002 11.9999L25.7551 21.9416L25.445 22.3602L12.0002 11.9999Z" fill="#6597FF"/>
<path fill-rule="evenodd" clip-rule="evenodd" d="M12.0002 11.9999L25.5074 22.2767L25.1867 22.6866L12.0002 11.9999Z" fill="#6496FF"/>
<path fill-rule="evenodd" clip-rule="evenodd" d="M12.0002 11.9999L25.2511 22.605L24.9208 23.0072L12.0002 11.9999Z" fill="#6395FF"/>
<path fill-rule="evenodd" clip-rule="evenodd" d="M12.0002 11.9999L24.9861 22.9266L24.6463 23.3212L12.0002 11.9999Z" fill="#6294FF"/>
<path fill-rule="evenodd" clip-rule="evenodd" d="M12.0002 11.9999L24.7144 23.2424L24.365 23.6284L12.0002 11.9999Z" fill="#6194FF"/>
<path fill-rule="evenodd" clip-rule="evenodd" d="M12.0002 11.9999L24.4351 23.5506L24.076 23.9279L12.0002 11.9999Z" fill="#6093FF"/>
<path fill-rule="evenodd" clip-rule="evenodd" d="M12.0002 11.9999L24.1471 23.852L23.7794 24.2207L12.0002 11.9999Z" fill="#5F92FF"/>
<path fill-rule="evenodd" clip-rule="evenodd" d="M12.0002 11.9999L23.8523 24.1468L23.476 24.5058L12.0002 11.9999Z" fill="#5E92FF"/>
<path fill-rule="evenodd" clip-rule="evenodd" d="M12.0002 11.9999L23.5509 24.4348L23.165 24.7842L12.0002 11.9999Z" fill="#5D91FF"/>
<path fill-rule="evenodd" clip-rule="evenodd" d="M12.0002 11.9999L23.2427 24.7141L22.8482 25.054L12.0002 11.9999Z" fill="#5C90FF"/>
<path fill-rule="evenodd" clip-rule="evenodd" d="M12.0002 11.9999L22.9269 24.9858L22.5247 25.316L12.0002 11.9999Z" fill="#5B90FF"/>
<path fill-rule="evenodd" clip-rule="evenodd" d="M12.0002 11.9999L22.6053 25.2508L22.1944 25.5704L12.0002 11.9999Z" fill="#5A8FFF"/>
<path fill-rule="evenodd" clip-rule="evenodd" d="M12.0002 11.9999L22.277 25.5071L21.8584 25.8172L12.0002 11.9999Z" fill="#598EFF"/>
<path fill-rule="evenodd" clip-rule="evenodd" d="M12.0002 11.9999L21.9419 25.7548L21.5167 26.0543L12.0002 11.9999Z" fill="#588EFF"/>
<path fill-rule="evenodd" clip-rule="evenodd" d="M12.0002 11.9999L21.6021 25.9948L21.1682 26.2837L12.0002 11.9999Z" fill="#578DFF"/>
<path fill-rule="evenodd" clip-rule="evenodd" d="M12.0002 11.9999L21.2555 26.2261L20.8149 26.5045L12.0002 11.9999Z" fill="#568CFF"/>
<path fill-rule="evenodd" clip-rule="evenodd" d="M12.0002 11.9999L20.9032 26.4488L20.4568 26.7167L12.0002 11.9999Z" fill="#558CFF"/>
<path fill-rule="evenodd" clip-rule="evenodd" d="M12.0002 11.9999L20.5461 26.6629L20.093 26.9192L12.0002 11.9999Z" fill="#548BFF"/>
<path fill-rule="evenodd" clip-rule="evenodd" d="M12.0002 11.9999L20.1832 26.8684L19.7243 27.1132L12.0002 11.9999Z" fill="#538AFF"/>
<path fill-rule="evenodd" clip-rule="evenodd" d="M12.0002 11.9999L19.8165 27.0642L19.3509 27.2984L12.0002 11.9999Z" fill="#528AFF"/>
<path fill-rule="evenodd" clip-rule="evenodd" d="M12.0002 11.9999L19.444 27.2524L18.9736 27.4741L12.0002 11.9999Z" fill="#5189FF"/>
<path fill-rule="evenodd" clip-rule="evenodd" d="M12.0002 11.9999L19.0677 27.43L18.5915 27.6412L12.0002 11.9999Z" fill="#5088FF"/>
<path fill-rule="evenodd" clip-rule="evenodd" d="M12.0002 11.9999L18.6866 27.5989L18.2056 27.7976L12.0002 11.9999Z" fill="#4F88FF"/>
<path fill-rule="evenodd" clip-rule="evenodd" d="M12.0002 11.9999L18.3016 27.7583L17.8159 27.9455L12.0002 11.9999Z" fill="#4E87FF"/>
<path fill-rule="evenodd" clip-rule="evenodd" d="M12.0002 11.9999L17.9138 27.908L17.4232 28.0837L12.0002 11.9999Z" fill="#4D86FF"/>
<path fill-rule="evenodd" clip-rule="evenodd" d="M12.0002 11.9999L17.5211 28.0482L17.0267 28.2114L12.0002 11.9999Z" fill="#4C86FF"/>
<path fill-rule="evenodd" clip-rule="evenodd" d="M12.0002 11.9999L17.1256 28.1788L16.6274 28.3304L12.0002 11.9999Z" fill="#4B85FF"/>
<path fill-rule="evenodd" clip-rule="evenodd" d="M12.0002 11.9999L16.7272 28.2997L16.2251 28.4389L12.0002 11.9999Z" fill="#4A84FF"/>
<path fill-rule="evenodd" clip-rule="evenodd" d="M12.0002 11.9999L16.3259 28.4111L15.82 28.5378L12.0002 11.9999Z" fill="#4984FF"/>
<path fill-rule="evenodd" clip-rule="evenodd" d="M12.0002 11.9999L15.9218 28.5128L15.4139 28.6261L12.0002 11.9999Z" fill="#4883FF"/>
<path fill-rule="evenodd" clip-rule="evenodd" d="M12.0002 11.9999L15.5147 28.6031L15.004 28.7048L12.0002 11.9999Z" fill="#4782FF"/>
<path fill-rule="evenodd" clip-rule="evenodd" d="M12.0002 11.9999L15.1067 28.6847L14.5941 28.774L12.0002 11.9999Z" fill="#4681FF"/>
<path fill-rule="evenodd" clip-rule="evenodd" d="M12.0002 11.9999L14.6959 28.7557L14.1813 28.8325L12.0002 11.9999Z" fill="#4581FF"/>
<path fill-rule="evenodd" clip-rule="evenodd" d="M12.0002 11.9999L14.284 28.8172L13.7675 28.8805L12.0002 11.9999Z" fill="#4480FF"/>
<path fill-rule="evenodd" clip-rule="evenodd" d="M12.0002 11.9999L13.8703 28.868L13.3528 28.9189L12.0002 11.9999Z" fill="#437FFF"/>
<path fill-rule="evenodd" clip-rule="evenodd" d="M12.0002 11.9999L13.4565 28.9093L12.9371 28.9477L12.0002 11.9999Z" fill="#427FFF"/>
<path fill-rule="evenodd" clip-rule="evenodd" d="M12.0002 11.9999L13.0408 28.94L12.5205 28.965L12.0002 11.9999Z" fill="#417EFF"/>
<path fill-rule="evenodd" clip-rule="evenodd" d="M12.0002 11.9999L12.6251 28.9602L12.1039 28.9727L12.0002 11.9999Z" fill="#407DFF"/>
<path fill-rule="evenodd" clip-rule="evenodd" d="M12.0004 11.9999L12.2087 28.9698H11.6874L12.0004 11.9999Z" fill="#3F7DFF"/>
<path fill-rule="evenodd" clip-rule="evenodd" d="M12.0003 11.9999L11.792 28.9698L11.2717 28.9573L12.0003 11.9999Z" fill="#3E7CFF"/>
<path fill-rule="evenodd" clip-rule="evenodd" d="M12.0002 11.9999L11.3752 28.9602L10.8549 28.9343L12.0002 11.9999Z" fill="#3D7BFF"/>
<path fill-rule="evenodd" clip-rule="evenodd" d="M12.0004 11.9999L10.9597 28.94L10.4404 28.9016L12.0004 11.9999Z" fill="#3C7BFF"/>
<path fill-rule="evenodd" clip-rule="evenodd" d="M12.0003 11.9999L10.544 28.9093L10.0256 28.8584L12.0003 11.9999Z" fill="#3B7AFF"/>
<path fill-rule="evenodd" clip-rule="evenodd" d="M12.0002 11.9999L10.1292 28.868L9.61269 28.8047L12.0002 11.9999Z" fill="#3A79FF"/>
<path fill-rule="evenodd" clip-rule="evenodd" d="M12.0002 11.9999L9.71633 28.8172L9.20081 28.7404L12.0002 11.9999Z" fill="#3979FF"/>
<path fill-rule="evenodd" clip-rule="evenodd" d="M12.0002 11.9999L9.30355 28.7557L8.79091 28.6674L12.0002 11.9999Z" fill="#3878FF"/>
<path fill-rule="evenodd" clip-rule="evenodd" d="M12.0003 11.9999L8.89375 28.6847L8.38303 28.5829L12.0003 11.9999Z" fill="#3777FF"/>
<path fill-rule="evenodd" clip-rule="evenodd" d="M12.0003 11.9999L8.48574 28.6031L7.97694 28.4898L12.0003 11.9999Z" fill="#3677FF"/>
<path fill-rule="evenodd" clip-rule="evenodd" d="M12.0003 11.9999L8.07872 28.5128L7.57376 28.3861L12.0003 11.9999Z" fill="#3576FF"/>
<path fill-rule="evenodd" clip-rule="evenodd" d="M12.0003 11.9999L7.6745 28.4111L7.17242 28.2728L12.0003 11.9999Z" fill="#3475FF"/>
<path fill-rule="evenodd" clip-rule="evenodd" d="M12.0003 11.9999L7.27326 28.2997L6.77502 28.149L12.0003 11.9999Z" fill="#3375FF"/>
<path fill-rule="evenodd" clip-rule="evenodd" d="M12.0002 11.9999L6.87476 28.1788L6.38036 28.0156L12.0002 11.9999Z" fill="#3274FF"/>
<path fill-rule="evenodd" clip-rule="evenodd" d="M12.0003 11.9999L6.47936 28.0482L5.9888 27.8735L12.0003 11.9999Z" fill="#3173FF"/>
<path fill-rule="evenodd" clip-rule="evenodd" d="M12.0002 11.9999L6.08662 27.908L5.60086 27.7208L12.0002 11.9999Z" fill="#3073FF"/>
<path fill-rule="evenodd" clip-rule="evenodd" d="M12.0002 11.9999L5.6978 27.7583L5.21684 27.5586L12.0002 11.9999Z" fill="#2F72FF"/>
<path fill-rule="evenodd" clip-rule="evenodd" d="M12.0002 11.9999L5.31286 27.5989L4.83766 27.3877L12.0002 11.9999Z" fill="#2E71FF"/>
<path fill-rule="evenodd" clip-rule="evenodd" d="M12.0001 11.9999L4.93262 27.43L4.46222 27.2072L12.0001 11.9999Z" fill="#2D71FF"/>
<path fill-rule="evenodd" clip-rule="evenodd" d="M12.0002 11.9999L4.55639 27.2524L4.09079 27.0181L12.0002 11.9999Z" fill="#2C70FF"/>
<path fill-rule="evenodd" clip-rule="evenodd" d="M12.0002 11.9999L4.18387 27.0642L3.72499 26.8194L12.0002 11.9999Z" fill="#2B6FFF"/>
<path fill-rule="evenodd" clip-rule="evenodd" d="M12.0003 11.9999L3.81729 26.8684L3.3632 26.612L12.0003 11.9999Z" fill="#2A6EFF"/>
<path fill-rule="evenodd" clip-rule="evenodd" d="M12.0003 11.9999L3.45435 26.6629L3.00795 26.3951L12.0003 11.9999Z" fill="#296EFF"/>
<path fill-rule="evenodd" clip-rule="evenodd" d="M12.0003 11.9999L3.09721 26.4488L2.65657 26.1704L12.0003 11.9999Z" fill="#286DFF"/>
<path fill-rule="evenodd" clip-rule="evenodd" d="M12.0002 11.9999L2.7448 26.2261L2.31184 25.9362L12.0002 11.9999Z" fill="#276CFF"/>
<path fill-rule="evenodd" clip-rule="evenodd" d="M12.0003 11.9999L2.39838 25.9948L1.9731 25.6952L12.0003 11.9999Z" fill="#266CFF"/>
<path fill-rule="evenodd" clip-rule="evenodd" d="M12.0003 11.9999L2.0585 25.7548L1.63994 25.4447L12.0003 11.9999Z" fill="#256BFF"/>
<path fill-rule="evenodd" clip-rule="evenodd" d="M12.0002 11.9999L1.72343 25.5071L1.31255 25.1864L12.0002 11.9999Z" fill="#246AFF"/>
<path fill-rule="evenodd" clip-rule="evenodd" d="M12.0002 11.9999L1.39513 25.2508L0.992889 24.9205L12.0002 11.9999Z" fill="#236AFF"/>
<path fill-rule="evenodd" clip-rule="evenodd" d="M12.0002 11.9999L1.07352 24.9858L0.678955 24.646L12.0002 11.9999Z" fill="#2269FF"/>
<path fill-rule="evenodd" clip-rule="evenodd" d="M12.0003 11.9999L0.757746 24.7141L0.371826 24.3647L12.0003 11.9999Z" fill="#2168FF"/>
<path fill-rule="evenodd" clip-rule="evenodd" d="M12.0004 11.9999L0.449637 24.4348L0.0723572 24.0757L12.0004 11.9999Z" fill="#2068FF"/>
<path fill-rule="evenodd" clip-rule="evenodd" d="M12.0002 11.9999L0.148074 24.1468L-0.220566 23.7791L12.0002 11.9999Z" fill="#1F67FF"/>
<path fill-rule="evenodd" clip-rule="evenodd" d="M12.0003 11.9999L-0.147535 23.852L-0.505615 23.4757L12.0003 11.9999Z" fill="#1E66FF"/>
<path fill-rule="evenodd" clip-rule="evenodd" d="M12.0002 11.9999L-0.434694 23.5506L-0.784134 23.1647L12.0002 11.9999Z" fill="#1D66FF"/>
<path fill-rule="evenodd" clip-rule="evenodd" d="M12.0002 11.9999L-0.714054 23.2424L-1.05389 22.8479L12.0002 11.9999Z" fill="#1C65FF"/>
<path fill-rule="evenodd" clip-rule="evenodd" d="M12.0003 11.9999L-0.985663 22.9266L-1.3159 22.5244L12.0003 11.9999Z" fill="#1B64FF"/>
<path fill-rule="evenodd" clip-rule="evenodd" d="M12.0003 11.9999L-1.25056 22.605L-1.57024 22.1941L12.0003 11.9999Z" fill="#1A64FF"/>
<path fill-rule="evenodd" clip-rule="evenodd" d="M12.0003 11.9999L-1.50694 22.2767L-1.81702 21.8581L12.0003 11.9999Z" fill="#1963FF"/>
<path fill-rule="evenodd" clip-rule="evenodd" d="M12.0002 11.9999L-1.75463 21.9416L-2.05415 21.5164L12.0002 11.9999Z" fill="#1862FF"/>
<path fill-rule="evenodd" clip-rule="evenodd" d="M12.0003 11.9999L-1.99458 21.6018L-2.28354 21.1679L12.0003 11.9999Z" fill="#1762FF"/>
<path fill-rule="evenodd" clip-rule="evenodd" d="M12.0002 11.9999L-2.22603 21.2552L-2.50443 20.8146L12.0002 11.9999Z" fill="#1661FF"/>
<path fill-rule="evenodd" clip-rule="evenodd" d="M12.0002 11.9999L-2.44871 20.9029L-2.71655 20.4565L12.0002 11.9999Z" fill="#1560FF"/>
<path fill-rule="evenodd" clip-rule="evenodd" d="M12.0003 11.9999L-2.6627 20.5458L-2.91902 20.0927L12.0003 11.9999Z" fill="#1460FF"/>
<path fill-rule="evenodd" clip-rule="evenodd" d="M12.0003 11.9999L-2.86813 20.1829L-3.11389 19.724L12.0003 11.9999Z" fill="#135FFF"/>
<path fill-rule="evenodd" clip-rule="evenodd" d="M12.0002 11.9999L-3.06506 19.8162L-3.29834 19.3506L12.0002 11.9999Z" fill="#125EFF"/>
<path fill-rule="evenodd" clip-rule="evenodd" d="M12.0003 11.9999L-3.25221 19.4437L-3.47397 18.9733L12.0003 11.9999Z" fill="#115EFF"/>
<path fill-rule="evenodd" clip-rule="evenodd" d="M12.0002 11.9999L-3.42988 19.0674L-3.64108 18.5912L12.0002 11.9999Z" fill="#105DFF"/>
<path fill-rule="evenodd" clip-rule="evenodd" d="M12.0002 11.9999L-3.59881 18.6863L-3.79849 18.2053L12.0002 11.9999Z" fill="#0F5CFF"/>
<path fill-rule="evenodd" clip-rule="evenodd" d="M12.0002 11.9999L-3.75817 18.3013L-3.94537 17.8156L12.0002 11.9999Z" fill="#0E5BFF"/>
<path fill-rule="evenodd" clip-rule="evenodd" d="M12.0003 11.9999L-3.90788 17.9135L-4.08356 17.4229L12.0003 11.9999Z" fill="#0D5BFF"/>
<path fill-rule="evenodd" clip-rule="evenodd" d="M12.0003 11.9999L-4.04896 17.5208L-4.2112 17.0264L12.0003 11.9999Z" fill="#0C5AFF"/>
<path fill-rule="evenodd" clip-rule="evenodd" d="M12.0002 11.9999L-4.17962 17.1253L-4.33034 16.6271L12.0002 11.9999Z" fill="#0B59FF"/>
<path fill-rule="evenodd" clip-rule="evenodd" d="M12.0002 11.9999L-4.30057 16.7269L-4.43881 16.2248L12.0002 11.9999Z" fill="#0A59FF"/>
<path fill-rule="evenodd" clip-rule="evenodd" d="M12.0002 11.9999L-4.41097 16.3256L-4.53769 15.8197L12.0002 11.9999Z" fill="#0958FF"/>
<path fill-rule="evenodd" clip-rule="evenodd" d="M12.0002 11.9999L-4.51271 15.9215L-4.62599 15.4136L12.0002 11.9999Z" fill="#0857FF"/>
<path fill-rule="evenodd" clip-rule="evenodd" d="M12.0003 11.9999L-4.6039 15.5144L-4.7047 15.0037L12.0003 11.9999Z" fill="#0757FF"/>
<path fill-rule="evenodd" clip-rule="evenodd" d="M12.0003 11.9999L-4.68454 15.1064L-4.77382 14.5938L12.0003 11.9999Z" fill="#0656FF"/>
<path fill-rule="evenodd" clip-rule="evenodd" d="M12.0003 11.9999L-4.75554 14.6956L-4.83234 14.181L12.0003 11.9999Z" fill="#0555FF"/>
<path fill-rule="evenodd" clip-rule="evenodd" d="M12.0002 11.9999L-4.81709 14.2837L-4.88045 13.7672L12.0002 11.9999Z" fill="#0455FF"/>
<path fill-rule="evenodd" clip-rule="evenodd" d="M12.0002 11.9999L-4.86797 13.87L-4.91885 13.3525L12.0002 11.9999Z" fill="#0354FF"/>
<path fill-rule="evenodd" clip-rule="evenodd" d="M12.0002 11.9999L-4.9092 13.4562L-4.9476 12.9368L12.0002 11.9999Z" fill="#0253FF"/>
<path fill-rule="evenodd" clip-rule="evenodd" d="M12.0003 11.9999L-4.9399 13.0405L-4.96486 12.5202L12.0003 11.9999Z" fill="#0153FF"/>
<path fill-rule="evenodd" clip-rule="evenodd" d="M12.0003 11.9999L-4.96007 12.6248L-4.97255 12.1036L12.0003 11.9999Z" fill="#0052FF"/>
<path fill-rule="evenodd" clip-rule="evenodd" d="M12.0002 11.9998L-4.97064 12.2081V11.7915L12.0002 11.9998Z" fill="white"/>
</g>
</g>
</g>
<defs>
<clipPath id="clip0_39_683">
<rect width="59" height="24" fill="white"/>
</clipPath>
<clipPath id="clip1_39_683">
<rect width="24" height="24" fill="white"/>
</clipPath>
</defs>
</svg>
