<svg width="66" height="25" viewBox="0 0 66 25" fill="none" xmlns="http://www.w3.org/2000/svg">
<g clip-path="url(#clip0_39_711)">
<circle cx="12" cy="12.5" r="12" fill="black"/>
<path d="M16.4427 12.4086L18.8758 11.1962L19.7145 8.62184L18.0371 7.40112H6.86789L4.28528 9.3194H17.4142L16.7167 11.4785H11.4518L10.9453 13.0563H16.2101L14.732 17.5987L17.1983 16.378L18.0786 13.6542L16.426 12.4418L16.4427 12.4086Z" fill="#FCFC03"/>
<path d="M7.99713 15.6472L9.51681 10.9139L7.83105 9.65161L5.29826 17.5987H14.7319L15.363 15.6472H7.99713Z" fill="#FCFC03"/>
<path d="M64.3646 17.0537C64.8011 17.0537 65.2377 16.9852 65.6742 16.8481V18.1958C65.4762 18.2821 65.2199 18.3532 64.9052 18.409C64.5955 18.4699 64.2732 18.5004 63.9382 18.5004C62.2427 18.5004 61.395 17.607 61.395 15.8202V11.2821H60.2453V10.4903L61.4788 9.83544L62.0879 8.05371H63.192V9.92681H65.5904V11.2821H63.192V15.7897C63.192 16.2212 63.2986 16.541 63.5118 16.7491C63.73 16.9522 64.0143 17.0537 64.3646 17.0537Z" fill="black"/>
<path d="M59.2859 15.9494C59.2859 16.7717 58.9864 17.4037 58.3874 17.8454C57.7884 18.2819 56.9305 18.5002 55.8138 18.5002C54.692 18.5002 53.791 18.3301 53.1107 17.99V16.4443C54.1006 16.9012 55.0219 17.1296 55.8747 17.1296C56.9762 17.1296 57.527 16.7971 57.527 16.1322C57.527 15.919 57.4661 15.7413 57.3442 15.5992C57.2224 15.457 57.0219 15.3098 56.7427 15.1575C56.4635 15.0053 56.0752 14.8327 55.5778 14.6398C54.6082 14.2641 53.9508 13.8885 53.6057 13.5129C53.2656 13.1372 53.0955 12.6499 53.0955 12.0509C53.0955 11.3301 53.3849 10.7718 53.9635 10.3758C54.5473 9.9748 55.3392 9.77429 56.3392 9.77429C57.329 9.77429 58.2656 9.9748 59.1488 10.3758L58.5701 11.7235C57.6615 11.3479 56.8975 11.1601 56.2783 11.1601C55.3341 11.1601 54.862 11.4291 54.862 11.9672C54.862 12.2311 54.9838 12.4545 55.2275 12.6372C55.4762 12.82 56.0143 13.0712 56.8417 13.391C57.5371 13.6601 58.0422 13.9063 58.3569 14.1296C58.6717 14.353 58.9052 14.6119 59.0574 14.9063C59.2097 15.1956 59.2859 15.5433 59.2859 15.9494Z" fill="black"/>
<path d="M49.8518 18.3479L49.494 17.1753H49.4331C49.027 17.688 48.6183 18.0382 48.2072 18.2261C47.796 18.4088 47.2681 18.5002 46.6234 18.5002C45.796 18.5002 45.1488 18.2768 44.6818 17.8301C44.2199 17.3834 43.9889 16.7514 43.9889 15.9342C43.9889 15.0662 44.3112 14.4113 44.9559 13.9697C45.6006 13.5281 46.5828 13.287 47.9026 13.2464L49.3569 13.2007V12.7514C49.3569 12.2134 49.23 11.8124 48.9762 11.5484C48.7275 11.2794 48.3392 11.1448 47.8112 11.1448C47.3798 11.1448 46.9661 11.2083 46.5701 11.3352C46.1742 11.4621 45.7935 11.6119 45.428 11.7844L44.8493 10.5053C45.3062 10.2667 45.8062 10.0865 46.3493 9.96465C46.8925 9.83774 47.4051 9.77429 47.8874 9.77429C48.9584 9.77429 49.7656 10.0078 50.3087 10.4748C50.8569 10.9418 51.131 11.6753 51.131 12.6753V18.3479H49.8518ZM47.1869 17.1296C47.8366 17.1296 48.3569 16.9494 48.7478 16.589C49.1437 16.2235 49.3417 15.7134 49.3417 15.0586V14.3276L48.2605 14.3733C47.4178 14.4037 46.8036 14.5459 46.4178 14.7997C46.0371 15.0484 45.8468 15.4316 45.8468 15.9494C45.8468 16.325 45.9584 16.6169 46.1818 16.825C46.4051 17.0281 46.7402 17.1296 47.1869 17.1296Z" fill="black"/>
<path d="M42.0169 18.348H40.2275V6.50024H42.0169V18.348Z" fill="black"/>
<path d="M30.1235 7.21594H33.428C34.961 7.21594 36.0676 7.43929 36.7478 7.88599C37.4331 8.33269 37.7757 9.03828 37.7757 10.0027C37.7757 10.6525 37.6082 11.1931 37.2732 11.6246C36.9382 12.056 36.4559 12.3276 35.8265 12.4393V12.5154C36.6082 12.6626 37.1818 12.9545 37.5473 13.3911C37.9179 13.8225 38.1031 14.4088 38.1031 15.1499C38.1031 16.1499 37.7529 16.9342 37.0524 17.5027C36.357 18.0662 35.3874 18.3479 34.1438 18.3479H30.1235V7.21594ZM31.9433 11.8149H33.6945C34.4559 11.8149 35.0118 11.6956 35.362 11.4571C35.7123 11.2134 35.8874 10.8022 35.8874 10.2236C35.8874 9.70071 35.6971 9.32254 35.3163 9.08904C34.9407 8.85554 34.3417 8.73878 33.5194 8.73878H31.9433V11.8149ZM31.9433 13.2921V16.8175H33.8773C34.6387 16.8175 35.2123 16.6728 35.5981 16.3835C35.9889 16.089 36.1844 15.6271 36.1844 14.9977C36.1844 14.419 35.9864 13.9901 35.5905 13.7109C35.1945 13.4317 34.593 13.2921 33.7859 13.2921H31.9433Z" fill="black"/>
</g>
<defs>
<clipPath id="clip0_39_711">
<rect width="65.6741" height="24" fill="white" transform="translate(0 0.5)"/>
</clipPath>
</defs>
</svg>
