<svg width="94" height="24" viewBox="0 0 94 24" fill="none" xmlns="http://www.w3.org/2000/svg">
<g clip-path="url(#clip0_110_150)">
<path d="M94.3074 9.01461L91.7944 7.16479H82.4963L81.8914 9.01461H86.7963L84.1624 16.9999H86.1914L88.8161 9.01461H94.3074Z" fill="black"/>
<path d="M59.6093 7.16479L57.0869 9.01461H66.5992L67.2135 7.16479H59.6093Z" fill="black"/>
<path d="M57.087 9.01465L54.4531 17H56.4821L58.7252 10.196L57.087 9.01465Z" fill="black"/>
<path d="M67.2136 7.16479L64.4679 15.4889L65.4266 15.4157L61.4896 12.4761H58.5669L64.4026 16.9999H65.9942L68.8517 8.34611L67.2136 7.16479Z" fill="black"/>
<path d="M42.5303 11.9908L44.9223 10.8278L45.7413 8.34611L44.1032 7.16479H33.1577L30.6261 9.01461H43.4889L42.8095 11.1025H37.6532L37.1506 12.6135H42.3069L40.8642 16.9999L43.2749 15.8186L44.1405 13.1904L42.521 12.0183L42.5303 11.9908Z" fill="black"/>
<path d="M34.2653 15.1136L35.7544 10.5532L34.0977 9.33521L31.6219 17H40.8642L41.4785 15.1136H34.2653Z" fill="black"/>
<path d="M48.8499 8.18132L47.2118 7L44.5592 15.0311L44.3265 15.7362L46.067 17H53.42L54.0434 15.1135H46.5603L48.8499 8.18132Z" fill="black"/>
<path d="M71.1227 11.1483L71.4484 10.1868L69.8196 9.01465L68.889 11.8168L70.5084 12.9798V12.989H77.7682L77.0702 15.1135H67.8279L67.2136 17H76.4465L78.8664 15.8187L80.0579 12.2106L78.5592 11.13L71.1227 11.1483Z" fill="black"/>
<path d="M72.3326 7.16479L69.8196 9.01461H80.8862L81.5005 7.16479H72.3326Z" fill="black"/>
<circle cx="12" cy="12" r="12" fill="black"/>
<path d="M16.4427 11.9086L18.8758 10.6962L19.7145 8.12184L18.0371 6.90112H6.86789L4.28528 8.8194H17.4142L16.7167 10.9785H11.4518L10.9453 12.5563H16.2101L14.732 17.0987L17.1983 15.878L18.0786 13.1542L16.426 11.9418L16.4427 11.9086Z" fill="#FCFC03"/>
<path d="M7.99709 15.1472L9.51676 10.4139L7.831 9.15161L5.29822 17.0987H14.7318L15.3629 15.1472H7.99709Z" fill="#FCFC03"/>
</g>
<defs>
<clipPath id="clip0_110_150">
<rect width="94" height="24" fill="white"/>
</clipPath>
</defs>
</svg>
