<svg width="106" height="24" viewBox="0 0 106 24" fill="none" xmlns="http://www.w3.org/2000/svg">
<g clip-path="url(#clip0_108_73)">
<path d="M4.00182 3.70114L10.3982 0L16.7945 3.70114L14.3945 5.00228L10.3982 2.70068L6.29795 5.00228L4.00182 3.70114ZM16.6961 8.29886L14.3945 6.99772L10.3982 9.29932L6.29795 6.99772L3.99636 8.29886V10.9995L7.99818 13.3011V18.0027L10.2998 19.4023L12.6014 18.0027V13.405L16.6032 11.1034V8.30433H16.6961V8.29886ZM16.6961 15.7011V13.0005L14.3945 14.4V16.9968L16.6961 15.7011ZM18.3964 16.5977L14.4 18.8993V21.6L20.8018 17.8989V10.5021L18.4018 12L18.3964 16.5977ZM16.0948 6.00273L18.3964 7.40228V10.103L20.698 8.70342V6.00273L18.3964 4.60319L16.0948 6.00273ZM7.99818 19.8998V22.6005L10.2998 24L12.6014 22.6005V19.8998L10.2998 21.2993L7.99818 19.8998ZM3.99636 15.7011L6.29795 17.0023V14.3016L3.99636 12.9021V15.7011ZM7.99818 6.00273L10.2998 7.40228L12.6998 6.00273L10.3982 4.60319L7.99818 6.00273ZM2.30159 7.40228L4.70159 6.00273L2.30159 4.60319L0 6.00273V8.70342L2.30159 10.103V7.40228ZM2.30159 12L0 10.6005V17.9973L6.40182 21.6984V18.9977L2.4 16.6961V11.9945L2.30159 12Z" fill="#F0B90B"/>
<path d="M36.0271 14.3358C36.0271 13.041 35.3069 12.3917 34.2286 11.9588C34.9488 11.6006 35.5234 10.9513 35.5234 9.87296C35.5234 8.36173 34.2994 7.35425 32.3553 7.35425H27.8925V17.0001H32.497C34.5867 16.9253 36.0271 16.0635 36.0271 14.3358ZM33.3628 10.2311C33.3628 10.9513 32.7882 11.2386 31.8516 11.2386H29.9074V9.15276H31.9932C32.9338 9.15276 33.3628 9.51483 33.3628 10.2311ZM33.9413 14.0485C33.9413 14.7687 33.3667 15.1268 32.4301 15.1268H29.9114V13.041H32.3592C33.4376 12.9662 33.9413 13.3991 33.9413 14.0485Z" fill="#F0B90B"/>
<path d="M46.464 16.9253V7.35425H44.3743V13.2575L39.8406 7.35425H37.9004V17.0001H39.9862V10.8804L44.6655 17.0001H46.464V16.9253Z" fill="#F0B90B"/>
<path d="M57.0426 14.3358C57.0426 13.041 56.3224 12.3917 55.2441 11.9588C55.9643 11.6006 56.5389 10.9513 56.5389 9.87296C56.5389 8.36173 55.3149 7.35425 53.3708 7.35425H48.908V17.0001H53.5125C55.6022 16.9253 57.0426 16.0635 57.0426 14.3358ZM54.4531 10.2311C54.4531 10.9513 53.8785 11.2386 52.9418 11.2386H50.9977V9.15276H53.0835C53.9493 9.15276 54.4531 9.51483 54.4531 10.2311ZM54.9568 14.0485C54.9568 14.7687 54.3822 15.1268 53.4456 15.1268H50.9269V13.041H53.3747C54.4531 12.9662 54.9568 13.3991 54.9568 14.0485Z" fill="#F0B90B"/>
<path d="M69.7818 15.2724L68.7034 14.1941C67.9124 14.9851 67.1214 15.418 65.9683 15.418C64.095 15.418 62.8002 13.9068 62.8002 11.9626C62.8002 10.0894 64.1698 8.58206 65.9683 8.58206C67.0466 8.58206 67.9124 9.08581 68.6326 9.806L69.7109 8.51122C68.7743 7.64935 67.696 7 65.9683 7C63.0875 7 61.0017 9.23142 61.0017 11.9666C61.0017 14.7726 63.0875 16.9332 65.8975 16.9332C67.696 16.9253 68.7743 16.2799 69.7818 15.2724Z" fill="#F0B90B"/>
<path d="M77.9873 12.7536V16.7836H79.6441V7.1377H77.9873V11.1676H73.3828V7.1377H71.726V16.7836H73.3828V12.7536H77.9873Z" fill="#F0B90B"/>
<path d="M87.2711 7.1377H85.689L81.4426 16.8544H83.1703L84.1778 14.5521H88.7115L89.7189 16.8544H91.5175L87.2711 7.1377ZM88.1369 12.9661H84.8271L86.484 9.15266L88.1369 12.9661Z" fill="#F0B90B"/>
<path d="M93.3907 7.1377V16.7836H95.0436V7.1377H93.3907Z" fill="#F0B90B"/>
<path d="M104.473 13.832L99.29 7.20853H97.7788V16.8544H99.4357V9.94369L104.76 16.7836H106.201V7.1377H104.544V13.832H104.473Z" fill="#F0B90B"/>
</g>
<defs>
<clipPath id="clip0_108_73">
<rect width="106" height="24" fill="white"/>
</clipPath>
</defs>
</svg>
