<svg width="96" height="24" viewBox="0 0 96 24" fill="none" xmlns="http://www.w3.org/2000/svg">
<g clip-path="url(#clip0_110_214)">
<path d="M27.2178 13.8095C27.2164 13.893 27.1819 13.9725 27.122 14.0306C27.062 14.0888 26.9814 14.1209 26.8978 14.12H21.0044C21.1556 15.5745 22.2489 16.9049 23.7956 16.9049C24.8533 16.9049 25.6356 16.5058 26.2222 15.6632C26.2495 15.6189 26.2873 15.582 26.3323 15.5557C26.3772 15.5295 26.4279 15.5146 26.48 15.5124C26.5188 15.5113 26.5575 15.5181 26.5935 15.5325C26.6296 15.5468 26.6624 15.5683 26.6899 15.5957C26.7173 15.6231 26.7389 15.6558 26.7533 15.6918C26.7676 15.7278 26.7744 15.7664 26.7733 15.8051C26.7735 15.8586 26.7581 15.911 26.7289 15.9559C26.1333 16.9847 24.9511 17.4902 23.7956 17.4902C21.8133 17.4902 20.3911 15.7164 20.3911 13.8273C20.3911 11.9381 21.8044 10.1643 23.7956 10.1643C25.7867 10.1643 27.2089 11.9204 27.2178 13.8095ZM26.5867 13.5346C26.4622 12.0801 25.3422 10.7497 23.7956 10.7497C22.2489 10.7497 21.1556 12.0801 21.0044 13.5346H26.5867Z" fill="#3B3B3B"/>
<path d="M34.3822 10.306C34.4593 10.3083 34.5326 10.3398 34.5872 10.3942C34.6417 10.4486 34.6733 10.5218 34.6756 10.5987C34.6767 10.6375 34.6698 10.676 34.6555 10.712C34.6411 10.748 34.6196 10.7807 34.5921 10.8081C34.5647 10.8355 34.5319 10.857 34.4958 10.8714C34.4597 10.8857 34.4211 10.8925 34.3822 10.8914H32.8V17.091C32.7993 17.1684 32.7682 17.2424 32.7133 17.2971C32.6585 17.3519 32.5843 17.3829 32.5067 17.3836C32.4296 17.3814 32.3563 17.3499 32.3017 17.2954C32.2472 17.241 32.2156 17.1679 32.2134 17.091V10.8914H30.6933C30.6545 10.8925 30.6159 10.8857 30.5798 10.8714C30.5437 10.857 30.5109 10.8355 30.4835 10.8081C30.456 10.7807 30.4344 10.748 30.4201 10.712C30.4057 10.676 30.3989 10.6375 30.4 10.5987C30.4007 10.5213 30.4318 10.4473 30.4867 10.3925C30.5416 10.3378 30.6158 10.3067 30.6933 10.306H32.2134V8.04439C32.2135 7.96945 32.2404 7.89702 32.2893 7.84012C32.3382 7.78322 32.4058 7.74558 32.48 7.73397C32.5215 7.72847 32.5637 7.73198 32.6037 7.74424C32.6437 7.7565 32.6805 7.77724 32.7118 7.80503C32.743 7.83281 32.7678 7.867 32.7846 7.90525C32.8014 7.9435 32.8097 7.98491 32.8089 8.02665V10.306H34.3822Z" fill="#3B3B3B"/>
<path d="M44.0267 13.3037V17.0554C44.0245 17.1323 43.9928 17.2055 43.9383 17.2599C43.8838 17.3143 43.8105 17.3459 43.7334 17.3481C43.6945 17.3492 43.6559 17.3424 43.6198 17.3281C43.5837 17.3137 43.551 17.2922 43.5235 17.2648C43.496 17.2374 43.4745 17.2047 43.4601 17.1687C43.4458 17.1327 43.4389 17.0941 43.44 17.0554V13.3037C43.44 12.0355 42.72 10.776 41.3067 10.776C39.4934 10.776 38.7111 12.3547 38.8178 13.9778C38.8178 14.0222 38.8356 14.2084 38.8356 14.235V17.0465C38.8354 17.1215 38.8085 17.1939 38.7596 17.2508C38.7107 17.3077 38.6431 17.3454 38.5689 17.357C38.5274 17.3625 38.4853 17.359 38.4453 17.3467C38.4053 17.3344 38.3684 17.3137 38.3372 17.2859C38.306 17.2581 38.2811 17.2239 38.2643 17.1857C38.2476 17.1474 38.2393 17.106 38.24 17.0643V4.72725C38.2407 4.64984 38.2719 4.5758 38.3267 4.52106C38.3816 4.46632 38.4558 4.43526 38.5334 4.43457C38.6105 4.4368 38.6838 4.46835 38.7383 4.52277C38.7928 4.57718 38.8245 4.65033 38.8267 4.72725V11.6984C39.3334 10.7938 40.24 10.1818 41.2978 10.1818C43.04 10.1818 44.0267 11.6984 44.0267 13.3037Z" fill="#3B3B3B"/>
<path d="M54.6133 13.8095C54.6119 13.893 54.5774 13.9725 54.5175 14.0306C54.4575 14.0888 54.3769 14.1209 54.2933 14.12H48.4C48.5511 15.5745 49.6444 16.9049 51.1911 16.9049C52.2488 16.9049 53.0311 16.5058 53.6177 15.6632C53.645 15.6189 53.6828 15.582 53.7278 15.5557C53.7727 15.5295 53.8235 15.5146 53.8755 15.5124C53.9143 15.5113 53.953 15.5181 53.9891 15.5325C54.0251 15.5468 54.0579 15.5683 54.0854 15.5957C54.1129 15.6231 54.1344 15.6558 54.1488 15.6918C54.1631 15.7278 54.17 15.7664 54.1688 15.8051C54.1691 15.8586 54.1536 15.911 54.1244 15.9559C53.5288 16.9847 52.3466 17.4902 51.1911 17.4902C49.2088 17.4902 47.7866 15.7164 47.7866 13.8273C47.7866 11.9381 49.2 10.1643 51.1911 10.1643C53.1644 10.1643 54.6044 11.9204 54.6133 13.8095ZM53.9733 13.5346C53.8488 12.0801 52.7288 10.7497 51.1822 10.7497C49.6355 10.7497 48.5422 12.0801 48.3911 13.5346H53.9733Z" fill="#3B3B3B"/>
<path d="M61.8578 10.5811C61.8634 10.6598 61.8376 10.7376 61.786 10.7974C61.7344 10.8573 61.6611 10.8943 61.5822 10.9004C59.8489 11.1576 59.0667 12.5678 59.0667 14.2086V17.0201C59.0665 17.0951 59.0396 17.1675 58.9907 17.2244C58.9418 17.2813 58.8742 17.3189 58.8 17.3305C58.7585 17.336 58.7164 17.3325 58.6764 17.3203C58.6364 17.308 58.5995 17.2873 58.5683 17.2595C58.537 17.2317 58.5122 17.1975 58.4954 17.1593C58.4787 17.121 58.4704 17.0796 58.4711 17.0379V10.6254C58.4713 10.5505 58.4982 10.4781 58.5471 10.4212C58.596 10.3643 58.6636 10.3266 58.7378 10.315C58.7793 10.3095 58.8214 10.313 58.8614 10.3253C58.9014 10.3376 58.9383 10.3583 58.9695 10.3861C59.0008 10.4139 59.0256 10.4481 59.0424 10.4863C59.0591 10.5246 59.0674 10.566 59.0667 10.6077V11.9115C59.5556 11.0866 60.5244 10.3062 61.5378 10.3062C61.6889 10.3062 61.8578 10.4126 61.8578 10.5811Z" fill="#3B3B3B"/>
<path d="M71.5466 13.8095C71.5452 13.893 71.5108 13.9725 71.4508 14.0306C71.3909 14.0888 71.3103 14.1209 71.2266 14.12H65.3333C65.4844 15.5745 66.5778 16.9049 68.1244 16.9049C69.1822 16.9049 69.9644 16.5058 70.5511 15.6632C70.5784 15.6189 70.6162 15.582 70.6611 15.5557C70.7061 15.5295 70.7568 15.5146 70.8089 15.5124C70.8477 15.5113 70.8863 15.5181 70.9224 15.5325C70.9585 15.5468 70.9913 15.5683 71.0187 15.5957C71.0462 15.6231 71.0678 15.6558 71.0821 15.6918C71.0965 15.7278 71.1033 15.7664 71.1022 15.8051C71.1024 15.8586 71.087 15.911 71.0578 15.9559C70.4622 16.9847 69.28 17.4902 68.1244 17.4902C66.1422 17.4902 64.72 15.7164 64.72 13.8273C64.72 11.9381 66.1333 10.1643 68.1244 10.1643C70.1155 10.1643 71.5378 11.9204 71.5466 13.8095ZM70.9155 13.5346C70.7911 12.0801 69.6711 10.7497 68.1244 10.7497C66.5778 10.7497 65.4844 12.0801 65.3333 13.5346H70.9155Z" fill="#3B3B3B"/>
<path d="M81.0756 10.6521V17.0911C81.0733 17.168 81.0417 17.2412 80.9872 17.2956C80.9326 17.35 80.8593 17.3815 80.7822 17.3838C80.7434 17.3849 80.7048 17.3781 80.6687 17.3637C80.6326 17.3494 80.5998 17.3279 80.5723 17.3005C80.5449 17.2731 80.5233 17.2404 80.509 17.2044C80.4946 17.1684 80.4878 17.1298 80.4889 17.0911V15.8671C80 16.8339 79.1378 17.5345 78.0356 17.5345C76.2844 17.5345 75.3156 16.0179 75.3156 14.4126V10.6432C75.3162 10.5658 75.3474 10.4917 75.4022 10.437C75.4571 10.3823 75.5313 10.3512 75.6089 10.3505C75.686 10.3527 75.7593 10.3843 75.8138 10.4387C75.8684 10.4931 75.9 10.5663 75.9022 10.6432V14.4126C75.9022 15.6809 76.6222 16.9403 78.0356 16.9403C80.0178 16.9403 80.4889 15.0866 80.4889 13.0379V10.6343C80.4895 10.5869 80.5016 10.5403 80.524 10.4984C80.5464 10.4566 80.5785 10.4207 80.6177 10.3937C80.6569 10.3668 80.7019 10.3497 80.7491 10.3437C80.7963 10.3377 80.8442 10.3431 80.8889 10.3594C80.9448 10.3853 80.992 10.4266 81.0251 10.4785C81.0582 10.5303 81.0757 10.5906 81.0756 10.6521Z" fill="#3B3B3B"/>
<path d="M96 13.2772V17.0466C95.9977 17.1235 95.9661 17.1967 95.9116 17.2511C95.857 17.3055 95.7837 17.3371 95.7066 17.3393C95.6678 17.3404 95.6292 17.3336 95.5931 17.3193C95.557 17.305 95.5242 17.2834 95.4968 17.256C95.4693 17.2286 95.4477 17.1959 95.4334 17.1599C95.419 17.1239 95.4122 17.0854 95.4133 17.0466V13.2772C95.4133 12.0089 94.6933 10.7673 93.28 10.7673C91.5022 10.7673 90.8266 12.6653 90.8266 14.1375V17.0466C90.8244 17.1235 90.7928 17.1967 90.7382 17.2511C90.6837 17.3055 90.6104 17.3371 90.5333 17.3393C90.4945 17.3404 90.4558 17.3336 90.4197 17.3193C90.3837 17.305 90.3509 17.2834 90.3234 17.256C90.296 17.2286 90.2744 17.1959 90.26 17.1599C90.2457 17.1239 90.2389 17.0854 90.24 17.0466V13.2772C90.24 12.0089 89.52 10.7673 88.1066 10.7673C86.3111 10.7673 85.5733 12.1774 85.6355 14.0577C85.6355 14.1021 85.6533 14.1819 85.6355 14.2085V17.0378C85.6354 17.1127 85.6084 17.1851 85.5595 17.242C85.5107 17.2989 85.4431 17.3366 85.3689 17.3482C85.3274 17.3537 85.2852 17.3502 85.2452 17.3379C85.2052 17.3256 85.1683 17.3049 85.1371 17.2771C85.1059 17.2493 85.081 17.2152 85.0643 17.1769C85.0475 17.1387 85.0392 17.0972 85.04 17.0555V10.6253C85.0401 10.5504 85.067 10.478 85.1159 10.4211C85.1648 10.3642 85.2324 10.3265 85.3066 10.3149C85.3481 10.3094 85.3903 10.3129 85.4303 10.3252C85.4703 10.3375 85.5071 10.3582 85.5384 10.386C85.5696 10.4138 85.5944 10.448 85.6112 10.4862C85.628 10.5245 85.6363 10.5659 85.6355 10.6076V11.6808C86.1422 10.7761 87.0489 10.1819 88.1066 10.1819C89.3066 10.1819 90.24 10.9446 90.6222 12.0533C91.1111 10.9535 92.0622 10.1819 93.28 10.1819C95.0133 10.1819 96 11.6808 96 13.2772Z" fill="#3B3B3B"/>
<path opacity="0.6" d="M7.37778 8.87817L0 12.2219L7.37778 16.5766L14.7644 12.2219L7.37778 8.87817Z" fill="black"/>
<path opacity="0.45" d="M0 12.2217L7.37778 16.5765V0L0 12.2217Z" fill="black"/>
<path opacity="0.8" d="M7.37781 0V16.5765L14.7645 12.2217L7.37781 0Z" fill="black"/>
<path opacity="0.45" d="M0 13.623L7.37778 24V17.9689L0 13.623Z" fill="black"/>
<path opacity="0.8" d="M7.37781 17.9689V24L14.7645 13.623L7.37781 17.9689Z" fill="black"/>
</g>
<defs>
<clipPath id="clip0_110_214">
<rect width="96" height="24" fill="white"/>
</clipPath>
</defs>
</svg>
