<svg width="97" height="24" viewBox="0 0 97 24" fill="none" xmlns="http://www.w3.org/2000/svg">
<g clip-path="url(#clip0_99_100)">
<path d="M27.7639 13.8095C27.7625 13.893 27.7281 13.9725 27.6683 14.0306C27.6084 14.0888 27.528 14.1209 27.4446 14.12H21.5643C21.7151 15.5745 22.806 16.9049 24.3492 16.9049C25.4047 16.9049 26.1851 16.5058 26.7705 15.6632C26.7978 15.6189 26.8355 15.582 26.8803 15.5557C26.9252 15.5295 26.9758 15.5146 27.0277 15.5124C27.0665 15.5113 27.105 15.5181 27.141 15.5325C27.177 15.5468 27.2097 15.5683 27.2371 15.5957C27.2645 15.6231 27.2861 15.6558 27.3004 15.6918C27.3147 15.7278 27.3215 15.7664 27.3204 15.8051C27.3206 15.8586 27.3052 15.911 27.2761 15.9559C26.6818 16.9847 25.5022 17.4902 24.3492 17.4902C22.3714 17.4902 20.9523 15.7164 20.9523 13.8273C20.9523 11.9381 22.3625 10.1643 24.3492 10.1643C26.3359 10.1643 27.755 11.9204 27.7639 13.8095ZM27.1342 13.5346C27.01 12.0801 25.8925 10.7497 24.3492 10.7497C22.806 10.7497 21.7151 12.0801 21.5643 13.5346H27.1342Z" fill="#3B3B3B"/>
<path d="M34.9124 10.306C34.9893 10.3083 35.0625 10.3398 35.1169 10.3942C35.1713 10.4486 35.2029 10.5218 35.2051 10.5987C35.2062 10.6375 35.1994 10.676 35.1851 10.712C35.1707 10.748 35.1492 10.7807 35.1218 10.8081C35.0944 10.8355 35.0617 10.857 35.0257 10.8714C34.9897 10.8857 34.9511 10.8925 34.9124 10.8914H33.3337V17.091C33.333 17.1684 33.3019 17.2424 33.2472 17.2971C33.1925 17.3519 33.1184 17.3829 33.041 17.3836C32.9641 17.3814 32.8909 17.3499 32.8365 17.2954C32.7821 17.241 32.7506 17.1679 32.7483 17.091V10.8914H31.2317C31.193 10.8925 31.1544 10.8857 31.1184 10.8714C31.0824 10.857 31.0497 10.8355 31.0223 10.8081C30.9949 10.7807 30.9734 10.748 30.9591 10.712C30.9447 10.676 30.9379 10.6375 30.939 10.5987C30.9397 10.5213 30.9708 10.4473 31.0255 10.3925C31.0802 10.3378 31.1543 10.3067 31.2317 10.306H32.7483V8.04439C32.7485 7.96945 32.7754 7.89702 32.8241 7.84012C32.8729 7.78322 32.9404 7.74558 33.0144 7.73397C33.0558 7.72847 33.0979 7.73198 33.1378 7.74424C33.1777 7.7565 33.2145 7.77724 33.2456 7.80503C33.2768 7.83281 33.3016 7.867 33.3183 7.90525C33.335 7.9435 33.3433 7.98491 33.3426 8.02665V10.306H34.9124Z" fill="#3B3B3B"/>
<path d="M44.5355 13.3037V17.0554C44.5332 17.1323 44.5017 17.2055 44.4473 17.2599C44.3929 17.3143 44.3197 17.3459 44.2428 17.3481C44.2041 17.3492 44.1655 17.3424 44.1295 17.3281C44.0935 17.3137 44.0608 17.2922 44.0334 17.2648C44.006 17.2374 43.9845 17.2047 43.9701 17.1687C43.9558 17.1327 43.949 17.0941 43.9501 17.0554V13.3037C43.9501 12.0355 43.2317 10.776 41.8215 10.776C40.0122 10.776 39.2317 12.3547 39.3381 13.9778C39.3381 14.0222 39.3559 14.2084 39.3559 14.235V17.0465C39.3557 17.1215 39.3289 17.1939 39.2801 17.2508C39.2313 17.3077 39.1638 17.3454 39.0898 17.357C39.0484 17.3625 39.0063 17.359 38.9664 17.3467C38.9265 17.3344 38.8897 17.3137 38.8586 17.2859C38.8274 17.2581 38.8026 17.2239 38.7859 17.1857C38.7692 17.1474 38.7609 17.106 38.7616 17.0643V4.72725C38.7623 4.64984 38.7934 4.5758 38.8481 4.52106C38.9029 4.46632 38.9769 4.43526 39.0543 4.43457C39.1312 4.4368 39.2044 4.46835 39.2588 4.52277C39.3132 4.57718 39.3448 4.65033 39.347 4.72725V11.6984C39.8525 10.7938 40.7572 10.1818 41.8126 10.1818C43.551 10.1818 44.5355 11.6984 44.5355 13.3037Z" fill="#3B3B3B"/>
<path d="M55.0986 13.8095C55.0972 13.893 55.0629 13.9725 55.003 14.0306C54.9432 14.0888 54.8628 14.1209 54.7793 14.12H48.8991C49.0499 15.5745 50.1408 16.9049 51.684 16.9049C52.7394 16.9049 53.5199 16.5058 54.1053 15.6632C54.1325 15.6189 54.1703 15.582 54.2151 15.5557C54.2599 15.5295 54.3106 15.5146 54.3625 15.5124C54.4012 15.5113 54.4398 15.5181 54.4758 15.5325C54.5118 15.5468 54.5445 15.5683 54.5719 15.5957C54.5993 15.6231 54.6208 15.6558 54.6351 15.6918C54.6495 15.7278 54.6563 15.7664 54.6552 15.8051C54.6554 15.8586 54.64 15.911 54.6108 15.9559C54.0166 16.9847 52.837 17.4902 51.684 17.4902C49.7062 17.4902 48.2871 15.7164 48.2871 13.8273C48.2871 11.9381 49.6973 10.1643 51.684 10.1643C53.653 10.1643 55.0898 11.9204 55.0986 13.8095ZM54.4601 13.5346C54.3359 12.0801 53.2184 10.7497 51.6751 10.7497C50.1319 10.7497 49.041 12.0801 48.8902 13.5346H54.4601Z" fill="#3B3B3B"/>
<path d="M62.327 10.5811C62.3326 10.6598 62.3069 10.7376 62.2554 10.7974C62.2039 10.8573 62.1308 10.8943 62.0521 10.9004C60.3226 11.1576 59.5421 12.5678 59.5421 14.2086V17.0201C59.5419 17.0951 59.5151 17.1675 59.4663 17.2244C59.4175 17.2813 59.3501 17.3189 59.276 17.3305C59.2346 17.336 59.1926 17.3325 59.1526 17.3203C59.1127 17.308 59.076 17.2873 59.0448 17.2595C59.0136 17.2317 58.9888 17.1975 58.9721 17.1593C58.9554 17.121 58.9471 17.0796 58.9479 17.0379V10.6254C58.948 10.5505 58.9749 10.4781 59.0237 10.4212C59.0724 10.3643 59.1399 10.3266 59.2139 10.315C59.2553 10.3095 59.2974 10.313 59.3373 10.3253C59.3772 10.3376 59.414 10.3583 59.4452 10.3861C59.4763 10.4139 59.5011 10.4481 59.5178 10.4863C59.5346 10.5246 59.5428 10.566 59.5421 10.6077V11.9115C60.0299 11.0866 60.9966 10.3062 62.0077 10.3062C62.1585 10.3062 62.327 10.4126 62.327 10.5811Z" fill="#3B3B3B"/>
<path d="M71.9945 13.8095C71.9931 13.893 71.9587 13.9725 71.8989 14.0306C71.839 14.0888 71.7586 14.1209 71.6752 14.12H65.7949C65.9457 15.5745 67.0366 16.9049 68.5798 16.9049C69.6353 16.9049 70.4157 16.5058 71.0011 15.6632C71.0284 15.6189 71.0661 15.582 71.1109 15.5557C71.1558 15.5295 71.2064 15.5146 71.2583 15.5124C71.297 15.5113 71.3356 15.5181 71.3716 15.5325C71.4076 15.5468 71.4403 15.5683 71.4677 15.5957C71.4951 15.6231 71.5166 15.6558 71.531 15.6918C71.5453 15.7278 71.5521 15.7664 71.551 15.8051C71.5512 15.8586 71.5358 15.911 71.5067 15.9559C70.9124 16.9847 69.7328 17.4902 68.5798 17.4902C66.602 17.4902 65.1829 15.7164 65.1829 13.8273C65.1829 11.9381 66.5931 10.1643 68.5798 10.1643C70.5665 10.1643 71.9856 11.9204 71.9945 13.8095ZM71.3647 13.5346C71.2406 12.0801 70.1231 10.7497 68.5798 10.7497C67.0366 10.7497 65.9457 12.0801 65.7949 13.5346H71.3647Z" fill="#3B3B3B"/>
<path d="M81.5022 10.6521V17.0911C81.4999 17.168 81.4684 17.2412 81.414 17.2956C81.3596 17.35 81.2864 17.3815 81.2095 17.3838C81.1708 17.3849 81.1322 17.3781 81.0962 17.3637C81.0602 17.3494 81.0275 17.3279 81.0001 17.3005C80.9727 17.2731 80.9512 17.2404 80.9368 17.2044C80.9225 17.1684 80.9157 17.1298 80.9168 17.0911V15.8671C80.429 16.8339 79.5687 17.5345 78.4689 17.5345C76.7217 17.5345 75.7549 16.0179 75.7549 14.4126V10.6432C75.7556 10.5658 75.7867 10.4917 75.8414 10.437C75.8962 10.3823 75.9702 10.3512 76.0476 10.3505C76.1245 10.3527 76.1977 10.3843 76.2521 10.4387C76.3065 10.4931 76.3381 10.5663 76.3403 10.6432V14.4126C76.3403 15.6809 77.0587 16.9403 78.4689 16.9403C80.4467 16.9403 80.9168 15.0866 80.9168 13.0379V10.6343C80.9175 10.5869 80.9295 10.5403 80.9518 10.4984C80.9742 10.4566 81.0063 10.4207 81.0453 10.3937C81.0844 10.3668 81.1294 10.3497 81.1765 10.3437C81.2235 10.3377 81.2714 10.3431 81.3159 10.3594C81.3717 10.3853 81.4188 10.4266 81.4518 10.4785C81.4848 10.5303 81.5023 10.5906 81.5022 10.6521Z" fill="#3B3B3B"/>
<path d="M96.3935 13.2772V17.0466C96.3913 17.1235 96.3597 17.1967 96.3053 17.2511C96.2509 17.3055 96.1777 17.3371 96.1008 17.3393C96.0621 17.3404 96.0235 17.3336 95.9875 17.3193C95.9515 17.305 95.9188 17.2834 95.8914 17.256C95.864 17.2286 95.8425 17.1959 95.8282 17.1599C95.8139 17.1239 95.807 17.0854 95.8081 17.0466V13.2772C95.8081 12.0089 95.0897 10.7673 93.6795 10.7673C91.9057 10.7673 91.2316 12.6653 91.2316 14.1375V17.0466C91.2294 17.1235 91.1979 17.1967 91.1435 17.2511C91.089 17.3055 91.0159 17.3371 90.939 17.3393C90.9002 17.3404 90.8617 17.3336 90.8257 17.3193C90.7897 17.305 90.757 17.2834 90.7296 17.256C90.7022 17.2286 90.6806 17.1959 90.6663 17.1599C90.652 17.1239 90.6452 17.0854 90.6463 17.0466V13.2772C90.6463 12.0089 89.9279 10.7673 88.5177 10.7673C86.7261 10.7673 85.99 12.1774 86.052 14.0577C86.052 14.1021 86.0698 14.1819 86.052 14.2085V17.0378C86.0519 17.1127 86.025 17.1851 85.9762 17.242C85.9275 17.2989 85.86 17.3366 85.786 17.3482C85.7446 17.3537 85.7025 17.3502 85.6626 17.3379C85.6227 17.3256 85.5859 17.3049 85.5547 17.2771C85.5236 17.2493 85.4988 17.2152 85.4821 17.1769C85.4653 17.1387 85.4571 17.0972 85.4578 17.0555V10.6253C85.458 10.5504 85.4848 10.478 85.5336 10.4211C85.5824 10.3642 85.6498 10.3265 85.7239 10.3149C85.7653 10.3094 85.8074 10.3129 85.8473 10.3252C85.8872 10.3375 85.924 10.3582 85.9551 10.386C85.9863 10.4138 86.0111 10.448 86.0278 10.4862C86.0445 10.5245 86.0528 10.5659 86.052 10.6076V11.6808C86.5576 10.7761 87.4622 10.1819 88.5177 10.1819C89.715 10.1819 90.6463 10.9446 91.0277 12.0533C91.5155 10.9535 92.4645 10.1819 93.6795 10.1819C95.409 10.1819 96.3935 11.6808 96.3935 13.2772Z" fill="#3B3B3B"/>
<path opacity="0.6" d="M7.96786 8.87817L0.606445 12.2219L7.96786 16.5766L15.3382 12.2219L7.96786 8.87817Z" fill="black"/>
<path opacity="0.45" d="M0.606445 12.2217L7.96786 16.5765V0L0.606445 12.2217Z" fill="black"/>
<path opacity="0.8" d="M7.96783 0V16.5765L15.3381 12.2217L7.96783 0Z" fill="black"/>
<path opacity="0.45" d="M0.606445 13.623L7.96786 24V17.9689L0.606445 13.623Z" fill="black"/>
<path opacity="0.8" d="M7.96783 17.9689V24L15.3381 13.623L7.96783 17.9689Z" fill="black"/>
</g>
<defs>
<clipPath id="clip0_99_100">
<rect width="95.7871" height="24" fill="white" transform="translate(0.606445)"/>
</clipPath>
</defs>
</svg>
