<svg width="66" height="25" viewBox="0 0 66 25" fill="none" xmlns="http://www.w3.org/2000/svg">
<g clip-path="url(#clip0_40_735)">
<circle cx="12" cy="12.75" r="12" fill="black"/>
<path d="M15.5459 10.7706C16.5534 10.7706 17.3702 9.95387 17.3702 8.94635C17.3702 7.93883 16.5534 7.12207 15.5459 7.12207C14.5384 7.12207 13.7216 7.93883 13.7216 8.94635C13.7216 9.95387 14.5384 10.7706 15.5459 10.7706Z" fill="white"/>
<path d="M8.74498 16.5295L15.6025 16.5304C15.6145 16.5304 15.626 16.5351 15.6345 16.5436C15.643 16.5521 15.6478 16.5636 15.6478 16.5756L15.6487 18.3329C15.6487 18.3449 15.6439 18.3564 15.6354 18.3648C15.6269 18.3733 15.6154 18.3781 15.6034 18.3781H6.67526C6.66325 18.3781 6.65176 18.3733 6.64328 18.3648C6.63479 18.3564 6.63 18.3449 6.63 18.3329L6.63175 8.91733C6.63175 8.90532 6.63653 8.89379 6.64502 8.8853C6.6535 8.87681 6.66499 8.87207 6.677 8.87207L8.65272 8.87294C8.66473 8.87294 8.67622 8.87768 8.6847 8.88617C8.69319 8.89466 8.69798 8.90619 8.69798 8.9182L8.69972 16.4842C8.69972 16.4962 8.7045 16.5077 8.71299 16.5162C8.72148 16.5247 8.73296 16.5295 8.74498 16.5295Z" fill="white"/>
<path d="M64.332 18.1228L63.9975 17.027H63.9406C63.5611 17.5061 63.1792 17.8334 62.795 18.009C62.4108 18.1797 61.9174 18.2651 61.3149 18.2651C60.5417 18.2651 59.9369 18.0564 59.5005 17.6389C59.0688 17.2215 58.8529 16.6309 58.8529 15.8672C58.8529 15.056 59.1542 14.444 59.7566 14.0313C60.3591 13.6186 61.277 13.3933 62.5104 13.3553L63.8695 13.3126V12.8928C63.8695 12.39 63.7509 12.0152 63.5137 11.7685C63.2812 11.5171 62.9183 11.3914 62.425 11.3914C62.0218 11.3914 61.6352 11.4507 61.2651 11.5693C60.8951 11.6879 60.5393 11.8278 60.1978 11.9891L59.657 10.7937C60.0839 10.5707 60.5512 10.4023 61.0588 10.2885C61.5664 10.1699 62.0455 10.1106 62.4961 10.1106C63.4971 10.1106 64.2513 10.3288 64.7589 10.7652C65.2712 11.2017 65.5274 11.8871 65.5274 12.8217V18.1228H64.332ZM61.8415 16.9843C62.4487 16.9843 62.9349 16.8159 63.3002 16.4791C63.6702 16.1375 63.8552 15.6608 63.8552 15.0489V14.3658L62.8448 14.4084C62.0573 14.4369 61.4834 14.5697 61.1228 14.8069C60.767 15.0394 60.5892 15.3975 60.5892 15.8814C60.5892 16.2324 60.6935 16.5052 60.9022 16.6997C61.111 16.8894 61.4241 16.9843 61.8415 16.9843Z" fill="black"/>
<path d="M54.4481 18.2651C53.2243 18.2651 52.266 17.9093 51.5734 17.1978C50.8856 16.4815 50.5417 15.4971 50.5417 14.2448C50.5417 12.9592 50.8619 11.9488 51.5023 11.2135C52.1427 10.4782 53.0226 10.1106 54.1422 10.1106C55.1811 10.1106 56.0017 10.4261 56.6042 11.057C57.2066 11.6879 57.5079 12.556 57.5079 13.6613V14.565H52.2636C52.2874 15.3287 52.4937 15.917 52.8827 16.3297C53.2717 16.7376 53.8196 16.9416 54.5264 16.9416C54.9913 16.9416 55.423 16.8989 55.8215 16.8135C56.2247 16.7234 56.6564 16.5763 57.1165 16.3724V17.7314C56.7085 17.9259 56.2958 18.0635 55.8784 18.1442C55.4609 18.2248 54.9842 18.2651 54.4481 18.2651ZM54.1422 11.3772C53.6109 11.3772 53.1839 11.5456 52.8614 11.8824C52.5435 12.2192 52.3538 12.7102 52.2921 13.3553H55.8642C55.8547 12.7054 55.6981 12.2145 55.3945 11.8824C55.0909 11.5456 54.6735 11.3772 54.1422 11.3772Z" fill="black"/>
<path d="M48.6846 18.1228H47.0053V13.2842C47.0053 12.677 46.882 12.2239 46.6353 11.9251C46.3934 11.6262 46.0068 11.4768 45.4755 11.4768C44.7686 11.4768 44.2516 11.6855 43.9242 12.103C43.5969 12.5204 43.4333 13.2201 43.4333 14.2021V18.1228H41.7611V10.2529H43.0704L43.3052 11.2847H43.3906C43.6278 10.9099 43.9646 10.6206 44.401 10.4166C44.8374 10.2126 45.3213 10.1106 45.8526 10.1106C47.7406 10.1106 48.6846 11.0712 48.6846 12.9924V18.1228Z" fill="black"/>
<path d="M39.363 18.1228H37.6908V10.2529H39.363V18.1228ZM37.5912 8.16799C37.5912 7.86913 37.6718 7.63906 37.8331 7.47777C37.9992 7.31648 38.234 7.23584 38.5376 7.23584C38.8317 7.23584 39.0594 7.31648 39.2207 7.47777C39.3867 7.63906 39.4697 7.86913 39.4697 8.16799C39.4697 8.45261 39.3867 8.67794 39.2207 8.84398C39.0594 9.00526 38.8317 9.08591 38.5376 9.08591C38.234 9.08591 37.9992 9.00526 37.8331 8.84398C37.6718 8.67794 37.5912 8.45261 37.5912 8.16799Z" fill="black"/>
<path d="M29.9703 18.1226V7.71948H31.671V16.6638H36.0756V18.1226H29.9703Z" fill="black"/>
</g>
<defs>
<clipPath id="clip0_40_735">
<rect width="65.5272" height="24" fill="white" transform="translate(0 0.75)"/>
</clipPath>
</defs>
</svg>
