<svg width="74" height="25" viewBox="0 0 74 25" fill="none" xmlns="http://www.w3.org/2000/svg">
<path d="M42.4723 17.3111H40.495V7.68896H42.4723V17.3111Z" fill="#121212"/>
<path d="M49.6172 7.5C50.7086 7.5 51.6004 7.88283 52.2913 8.64823C52.9813 9.41376 53.3272 10.387 53.3272 11.567V17.3101H51.3498V11.8682C51.3498 11.1276 51.1113 10.5152 50.6341 10.0321C50.1569 9.54894 49.5675 9.3074 48.8646 9.3074C48.0733 9.3074 47.427 9.54894 46.925 10.0321C46.423 10.5152 46.1715 11.1276 46.1715 11.8682V17.3101H44.1942V7.68891H46.1715V10.1743C46.4349 9.34611 46.8713 8.69305 47.4808 8.21583C48.0891 7.73861 48.8019 7.5 49.6181 7.5H49.6172Z" fill="#121212"/>
<path d="M59.4918 7.5C61.0356 7.5 62.2912 8.05281 63.2575 9.1572C64.2238 10.2627 64.6196 11.5989 64.4436 13.1685H56.4786C56.6168 13.947 56.9746 14.5782 57.5522 15.0614C58.1298 15.5445 58.8258 15.7861 59.642 15.7861C60.2693 15.7861 60.8309 15.632 61.327 15.3248C61.823 15.0177 62.2088 14.6 62.4851 14.0723L64.1423 14.8069C63.7158 15.6231 63.1064 16.2752 62.3161 16.7654C61.5258 17.2554 60.6152 17.5 59.5853 17.5C58.1418 17.5 56.9299 17.0228 55.9507 16.0694C54.9715 15.1161 54.4814 13.929 54.4814 12.5104C54.4814 11.0918 54.9616 9.90283 55.9219 8.94155C56.8822 7.98125 58.0712 7.5011 59.4908 7.5011L59.4918 7.5ZM59.4918 9.21399C58.7631 9.21399 58.1329 9.4366 57.599 9.88292C57.0651 10.3284 56.7103 10.9089 56.5353 11.6246H62.4484C62.2852 10.9089 61.9364 10.3284 61.4035 9.88292C60.8697 9.43758 60.2324 9.21399 59.4918 9.21399Z" fill="#121212"/>
<path d="M69.9102 7.5C71.0654 7.5 72.0067 7.80125 72.7344 8.40376C73.4622 9.00615 73.827 9.87303 73.827 11.0023V17.3111H71.8497V14.7502C71.2592 16.5834 70.0732 17.5 68.2907 17.5C67.4615 17.5 66.7717 17.2525 66.2189 16.7563C65.6662 16.2603 65.3909 15.6111 65.3909 14.8079C65.3909 13.8664 65.7229 13.1596 66.3889 12.6893C67.0541 12.2192 67.902 11.9269 68.9309 11.8135L70.7949 11.6246C71.4978 11.5621 71.8497 11.2479 71.8497 10.6833C71.8497 10.219 71.6707 9.84812 71.3129 9.57276C70.955 9.29641 70.4878 9.1583 69.9102 9.1583C69.3326 9.1583 68.8205 9.30936 68.4129 9.61061C68.0054 9.91174 67.745 10.3512 67.6317 10.9288L65.6732 10.4576C65.8492 9.55395 66.3193 8.83519 67.0858 8.30131C67.8513 7.76853 68.7927 7.5011 69.9102 7.5011V7.5ZM68.9309 15.8985C69.7471 15.8985 70.437 15.6251 71.0017 15.0792C71.5664 14.5335 71.8487 13.8963 71.8487 13.1675V12.6407C71.6985 12.8922 71.3338 13.0482 70.7562 13.1109L68.93 13.3365C68.4527 13.4002 68.073 13.5403 67.7906 13.76C67.5083 13.9797 67.3672 14.278 67.3672 14.6548C67.3672 15.0316 67.5083 15.3327 67.7906 15.5584C68.073 15.7841 68.4527 15.8974 68.93 15.8974L68.9309 15.8985Z" fill="#121212"/>
<path d="M39.1331 17.3111H30V7.68896H32.0896V15.4472H39.1331V17.3111Z" fill="#121212"/>
<circle cx="12" cy="12.5" r="12" fill="black"/>
<path d="M15.546 10.5206C16.5535 10.5206 17.3702 9.70387 17.3702 8.69635C17.3702 7.68883 16.5535 6.87207 15.546 6.87207C14.5384 6.87207 13.7217 7.68883 13.7217 8.69635C13.7217 9.70387 14.5384 10.5206 15.546 10.5206Z" fill="white"/>
<path d="M8.74498 16.2795L15.6025 16.2804C15.6145 16.2804 15.626 16.2851 15.6345 16.2936C15.643 16.3021 15.6478 16.3136 15.6478 16.3256L15.6487 18.0829C15.6487 18.0949 15.6439 18.1064 15.6354 18.1148C15.6269 18.1233 15.6154 18.1281 15.6034 18.1281H6.67526C6.66325 18.1281 6.65176 18.1233 6.64328 18.1148C6.63479 18.1064 6.63 18.0949 6.63 18.0829L6.63175 8.66733C6.63175 8.65532 6.63653 8.64379 6.64502 8.6353C6.6535 8.62681 6.66499 8.62207 6.677 8.62207L8.65272 8.62294C8.66473 8.62294 8.67622 8.62768 8.6847 8.63617C8.69319 8.64466 8.69798 8.65619 8.69798 8.6682L8.69972 16.2342C8.69972 16.2462 8.7045 16.2577 8.71299 16.2662C8.72148 16.2747 8.73296 16.2795 8.74498 16.2795Z" fill="white"/>
</svg>
