<?xml version="1.0" encoding="UTF-8"?>
<svg xmlns="http://www.w3.org/2000/svg" xmlns:xlink="http://www.w3.org/1999/xlink" width="0" height="0">
  <symbol fill="none" viewBox="0 0 138 25" id="arbitrum-one">
    <path d="M10.6842 2.3986C10.7425 2.3986 10.7979 2.41319 10.8505 2.44237L19.6498 7.5627C19.752 7.62105 19.8132 7.73192 19.8132 7.84862L19.7811 18.028C19.7811 18.1447 19.7169 18.2556 19.6148 18.3139L10.7804 23.3759C10.7308 23.4051 10.6725 23.4197 10.6141 23.4197C10.5558 23.4197 10.5003 23.4051 10.4478 23.3759L1.65136 18.2556C1.54925 18.1972 1.48798 18.0864 1.48798 17.9697L1.52007 7.79027C1.52007 7.67357 1.58426 7.5627 1.68637 7.50435L10.5208 2.44237C10.5704 2.41319 10.6258 2.3986 10.6842 2.3986ZM10.69 0.910645C10.3749 0.910645 10.0627 0.989419 9.77971 1.14989L0.945311 6.21187C0.38222 6.53572 0.0321109 7.13382 0.0321109 7.78444L1.83976e-05 17.9638C-0.00289917 18.6145 0.341374 19.2155 0.904465 19.5422L9.70385 24.6626C9.98394 24.826 10.299 24.9077 10.6112 24.9106C10.9234 24.9135 11.2385 24.8318 11.5215 24.6713L20.3559 19.6093C20.919 19.2855 21.2691 18.6874 21.2691 18.0368L21.3012 7.85738C21.3041 7.20676 20.9598 6.60574 20.3967 6.27897L11.5974 1.15864C11.3173 0.995254 11.0051 0.910645 10.69 0.910645Z" fill="#1B4ADD"></path>
    <path d="M12.4726 6.45996H11.1831C11.0868 6.45996 10.9993 6.52123 10.9672 6.61167L6.8184 17.9814C6.79214 18.0573 6.84757 18.1361 6.92635 18.1361H8.21591C8.31219 18.1361 8.39972 18.0748 8.43181 17.9844L12.5806 6.61459C12.6069 6.53873 12.5514 6.45996 12.4726 6.45996ZM10.2174 6.45996H8.9278C8.83152 6.45996 8.74399 6.52123 8.7119 6.61167L4.56311 17.9814C4.53686 18.0573 4.59229 18.1361 4.67106 18.1361H5.96063C6.05691 18.1361 6.14444 18.0748 6.17653 17.9844L10.3253 6.61459C10.3516 6.53873 10.2961 6.45996 10.2174 6.45996ZM11.8862 10.8684C11.8483 10.7663 11.7053 10.7663 11.6703 10.8684L10.9993 12.7065C10.9818 12.7561 10.9818 12.8144 10.9993 12.864L12.8665 17.9844C12.8986 18.0748 12.9861 18.1361 13.0824 18.1361H14.372C14.4508 18.1361 14.5062 18.0573 14.4799 17.9814L11.8862 10.8684ZM16.7381 17.9814L13.0153 7.7787C12.9774 7.67659 12.8344 7.67659 12.7994 7.7787L12.1284 9.61677C12.1109 9.66637 12.1109 9.72472 12.1284 9.77432L15.1247 17.9873C15.1568 18.0777 15.2443 18.139 15.3406 18.139H16.6302C16.709 18.1361 16.7644 18.0573 16.7381 17.9814Z" fill="#1B4ADD"></path>
    <path d="M34.5457 3.93237C34.9109 3.93237 35.2116 4.00756 35.4587 4.15794C35.7057 4.30832 35.9528 4.58759 36.1891 5.01723L40.9044 13.5779C40.9474 13.6746 40.9689 13.7498 40.9367 13.8142C40.9152 13.8787 40.84 13.9109 40.7326 13.9109H38.9281C38.767 13.9109 38.6595 13.8464 38.5951 13.7283L37.5854 11.8916H30.883L29.9055 13.7283C29.8411 13.8572 29.7337 13.9109 29.5833 13.9109H27.7251C27.5962 13.9109 27.5317 13.8787 27.4995 13.8142C27.478 13.7498 27.4888 13.6746 27.5317 13.5779L32.2041 5.01723C32.4404 4.58759 32.6767 4.29758 32.9023 4.15794C33.1279 4.00756 33.3964 3.93237 33.6971 3.93237H34.5457ZM31.7852 10.2374H36.6832L34.4168 6.05912C34.3738 5.99468 34.3309 5.96245 34.2557 5.96245H34.1698C34.1053 5.96245 34.0516 5.99468 34.0086 6.05912L31.7852 10.2374Z" fill="#2D364D"></path>
    <path d="M51.2696 3.93237C52.3652 3.93237 53.1493 4.17942 53.6219 4.67351C54.0945 5.16761 54.3308 5.89801 54.3308 6.86471V7.68103C54.3308 8.49736 54.1697 9.14183 53.8367 9.61444C53.5037 10.0871 52.9667 10.3985 52.2148 10.5274L54.6531 13.5457C54.696 13.5887 54.7175 13.6638 54.696 13.7605C54.6745 13.8572 54.5993 13.9001 54.4705 13.9001H52.623C52.4941 13.9001 52.4189 13.8894 52.3652 13.8572C52.3222 13.825 52.2685 13.782 52.2256 13.7175L49.9699 10.753H45.3727V13.5887C45.3727 13.7927 45.2653 13.9001 45.0612 13.9001H43.5252C43.3104 13.9001 43.1923 13.7927 43.1923 13.5887V4.36202C43.1923 4.07201 43.3319 3.93237 43.6219 3.93237H51.2696ZM45.3727 9.02367H50.8292C51.3126 9.02367 51.6563 8.91626 51.8496 8.71218C52.0537 8.5081 52.1504 8.18587 52.1504 7.75622V7.15471C52.1504 6.72507 52.0537 6.41358 51.8496 6.19876C51.6455 5.99467 51.3126 5.88726 50.8292 5.88726H45.5553C45.4264 5.88726 45.3727 5.94097 45.3727 6.05912V9.02367Z" fill="#2D364D"></path>
    <path d="M66.2536 3.93212C67.231 3.93212 67.9292 4.12546 68.3373 4.51215C68.7455 4.89883 68.9603 5.48959 68.9603 6.27369V6.96112C68.9603 7.75597 68.6596 8.35747 68.0473 8.76563C68.7025 9.14157 69.0355 9.75382 69.0355 10.6024V11.4294C69.0355 11.8054 68.9925 12.1491 68.9066 12.4498C68.8207 12.7506 68.681 13.0084 68.4877 13.2232C68.2944 13.438 68.0366 13.5991 67.7143 13.7173C67.3921 13.8355 66.9947 13.8892 66.5221 13.8892H58.0581C57.7681 13.8892 57.6284 13.7495 57.6284 13.4595V4.34029C57.6284 4.05028 57.7681 3.91064 58.0581 3.91064L66.2536 3.93212ZM59.7981 8.0782H65.6413C66.1139 8.0782 66.4362 8.00302 66.608 7.86338C66.7799 7.72375 66.8658 7.50892 66.8658 7.2404V6.75705C66.8658 6.46703 66.7799 6.24147 66.6187 6.11258C66.4576 5.97294 66.1891 5.90849 65.8132 5.90849H59.9807C59.8518 5.90849 59.7981 5.97294 59.7981 6.09109V8.0782ZM59.7981 9.63567V11.7624C59.7981 11.8913 59.8626 11.945 59.9807 11.945H65.8239C66.1998 11.945 66.4791 11.8806 66.6402 11.7409C66.8013 11.6013 66.8873 11.3865 66.8873 11.075V10.5379C66.8873 10.2479 66.8013 10.0223 66.6187 9.87197C66.4469 9.72159 66.1139 9.64641 65.6413 9.64641L59.7981 9.63567Z" fill="#2D364D"></path>
    <path d="M74.3415 3.93237C74.5456 3.93237 74.653 4.03979 74.653 4.24387V13.5887C74.653 13.7927 74.5456 13.9001 74.3415 13.9001H72.8055C72.5907 13.9001 72.4833 13.7927 72.4833 13.5887V4.24387C72.4833 4.03979 72.5907 3.93237 72.8055 3.93237H74.3415Z" fill="#2D364D"></path>
    <path d="M89.2717 3.93237C89.4865 3.93237 89.6047 4.03979 89.6047 4.24387V5.64022C89.6047 5.85504 89.4973 5.97319 89.2717 5.97319H84.8034V13.5994C84.8034 13.8035 84.696 13.9109 84.4919 13.9109H82.9344C82.7304 13.9109 82.6229 13.8035 82.6229 13.5994V5.97319H78.1546C77.9398 5.97319 77.8217 5.86578 77.8217 5.64022V4.24387C77.8217 4.03979 77.9291 3.93237 78.1546 3.93237H89.2717Z" fill="#2D364D"></path>
    <path d="M100.539 3.93237C101.635 3.93237 102.419 4.17942 102.892 4.67351C103.364 5.16761 103.6 5.89801 103.6 6.86471V7.68103C103.6 8.49736 103.439 9.14183 103.106 9.61444C102.773 10.0871 102.236 10.3985 101.484 10.5274L103.923 13.5457C103.966 13.5887 103.987 13.6638 103.966 13.7605C103.944 13.8572 103.869 13.9001 103.74 13.9001H101.903C101.774 13.9001 101.699 13.8894 101.646 13.8572C101.603 13.825 101.549 13.782 101.506 13.7175L99.2503 10.753H94.6531V13.5887C94.6531 13.7927 94.5457 13.9001 94.3416 13.9001H92.7949C92.5801 13.9001 92.4619 13.7927 92.4619 13.5887V4.36202C92.4619 4.07201 92.6015 3.93237 92.8916 3.93237H100.539ZM94.6424 9.02367H100.099C100.582 9.02367 100.926 8.91626 101.119 8.71218C101.323 8.5081 101.42 8.18587 101.42 7.75622V7.15471C101.42 6.72507 101.323 6.41358 101.119 6.19876C100.915 5.99467 100.582 5.88726 100.099 5.88726H94.8357C94.7068 5.88726 94.6531 5.94097 94.6531 6.05912L94.6424 9.02367Z" fill="#2D364D"></path>
    <path d="M108.552 3.93237C108.756 3.93237 108.864 4.03979 108.864 4.24387V9.92592C108.864 10.3019 108.896 10.6241 108.96 10.8711C109.025 11.1182 109.121 11.3223 109.272 11.4726C109.411 11.623 109.605 11.7197 109.852 11.7841C110.099 11.8486 110.4 11.8808 110.775 11.8808H114.707C115.072 11.8808 115.383 11.8486 115.63 11.7841C115.878 11.7197 116.06 11.623 116.21 11.4726C116.35 11.3223 116.458 11.1289 116.511 10.8711C116.565 10.6241 116.597 10.3019 116.597 9.92592V4.24387C116.597 4.03979 116.705 3.93237 116.909 3.93237H118.466C118.67 3.93237 118.778 4.03979 118.778 4.24387V10.1407C118.778 10.8282 118.702 11.4082 118.563 11.8808C118.423 12.3642 118.187 12.7509 117.875 13.0516C117.553 13.3524 117.145 13.5672 116.64 13.6961C116.135 13.825 115.512 13.9001 114.793 13.9001H110.69C109.97 13.9001 109.358 13.8357 108.853 13.6961C108.348 13.5672 107.94 13.3416 107.618 13.0516C107.295 12.7509 107.07 12.3642 106.919 11.8808C106.769 11.3975 106.694 10.8174 106.694 10.1407V4.24387C106.694 4.03979 106.801 3.93237 107.027 3.93237H108.552Z" fill="#2D364D"></path>
    <path d="M124.9 3.93237C125.104 3.93237 125.287 3.94312 125.437 3.97534C125.588 4.00756 125.727 4.06127 125.835 4.13646C125.953 4.22239 126.049 4.3298 126.146 4.46943C126.232 4.60906 126.329 4.79167 126.425 5.01723L129.39 11.8593C129.433 11.9453 129.497 11.9882 129.594 11.9882H129.766C129.863 11.9882 129.927 11.9453 129.97 11.8593L132.934 5.01723C133.031 4.79167 133.117 4.60906 133.214 4.46943C133.3 4.3298 133.407 4.22239 133.525 4.13646C133.643 4.05053 133.772 3.99682 133.912 3.97534C134.062 3.94312 134.234 3.93237 134.449 3.93237H135.974C136.468 3.93237 136.801 4.03979 136.973 4.26535C137.145 4.49092 137.231 4.86686 137.231 5.41465V13.5887C137.231 13.7927 137.124 13.9001 136.909 13.9001H135.459C135.255 13.9001 135.147 13.7927 135.147 13.5887V6.15579C135.147 6.05912 135.104 6.01616 135.029 6.01616H134.9C134.803 6.01616 134.739 6.05912 134.718 6.13431L131.839 12.5145C131.721 12.7723 131.613 12.9872 131.484 13.159C131.366 13.3309 131.237 13.4813 131.098 13.5887C130.958 13.7068 130.808 13.782 130.625 13.8357C130.453 13.8787 130.238 13.9109 130.002 13.9109H129.315C129.078 13.9109 128.874 13.8894 128.692 13.8357C128.52 13.7927 128.359 13.7068 128.219 13.5887C128.08 13.4705 127.951 13.3309 127.832 13.159C127.714 12.9872 127.596 12.7723 127.489 12.5145L124.61 6.13431C124.578 6.05912 124.524 6.01616 124.428 6.01616H124.299C124.223 6.01616 124.18 6.05912 124.18 6.15579V13.5887C124.18 13.7927 124.073 13.9001 123.869 13.9001H122.419C122.204 13.9001 122.086 13.7927 122.086 13.5887V5.41465C122.086 4.8776 122.172 4.49092 122.344 4.26535C122.516 4.03979 122.849 3.93237 123.353 3.93237H124.9Z" fill="#2D364D"></path>
    <path d="M32.4813 15.9541C32.9145 15.9541 33.2827 15.9974 33.5859 16.0732C33.8892 16.1599 34.1383 16.2898 34.3224 16.4631C34.5173 16.6364 34.6473 16.8746 34.7339 17.1562C34.8205 17.4378 34.8639 17.7843 34.8639 18.1959V19.6579C34.8639 20.0694 34.8205 20.416 34.7339 20.6976C34.6473 20.9791 34.5065 21.2174 34.3224 21.3907C34.1274 21.5639 33.8892 21.6939 33.5859 21.7805C33.2827 21.8563 32.9145 21.8997 32.4813 21.8997H29.8605C29.4273 21.8997 29.0699 21.8563 28.7667 21.7805C28.4634 21.7047 28.2252 21.5748 28.0303 21.3907C27.8353 21.2174 27.7054 20.9791 27.6187 20.6976C27.5321 20.416 27.4888 20.0694 27.4888 19.6579V18.1959C27.4888 17.7843 27.5321 17.4486 27.6187 17.1562C27.7054 16.8746 27.8462 16.6472 28.0303 16.4631C28.2252 16.2898 28.4634 16.1599 28.7667 16.0732C29.0699 15.9866 29.4273 15.9541 29.8605 15.9541H32.4813ZM28.7775 19.5604C28.7775 19.777 28.7992 19.972 28.8317 20.1127C28.8641 20.2644 28.9291 20.3835 29.0158 20.4701C29.1024 20.5568 29.2107 20.6217 29.3623 20.6542C29.5031 20.6867 29.6872 20.7084 29.9146 20.7084H32.438C32.6546 20.7084 32.8387 20.6867 32.9903 20.6542C33.1311 20.6217 33.2502 20.5568 33.3369 20.4701C33.4235 20.3835 33.4776 20.2644 33.521 20.1127C33.5534 19.9611 33.5751 19.777 33.5751 19.5604V18.2825C33.5751 18.0659 33.5534 17.871 33.521 17.7302C33.4885 17.5786 33.4235 17.4595 33.3369 17.3728C33.2502 17.2862 33.1419 17.2212 32.9903 17.1887C32.8495 17.1562 32.6654 17.1346 32.438 17.1346H29.9146C29.698 17.1346 29.5139 17.1562 29.3623 17.1887C29.2215 17.2212 29.1024 17.2862 29.0158 17.3728C28.9291 17.4595 28.875 17.5786 28.8317 17.7302C28.7992 17.8818 28.7775 18.0659 28.7775 18.2825V19.5604Z" fill="#1B4ADD"></path>
    <path d="M38.2753 15.9541C38.4161 15.9541 38.5244 15.9649 38.611 15.9758C38.6976 15.9866 38.7843 16.0083 38.8492 16.0516C38.9142 16.0841 38.9792 16.1382 39.0442 16.2032C39.1092 16.2682 39.1741 16.3548 39.2608 16.4631L42.4231 20.6109C42.4447 20.6542 42.4772 20.6651 42.5314 20.6651H42.6072C42.6505 20.6651 42.6722 20.6326 42.6722 20.5784V16.149C42.6722 16.0299 42.7371 15.9649 42.8563 15.9649H43.7443C43.8634 15.9649 43.9284 16.0299 43.9284 16.149V21.0224C43.9284 21.369 43.8634 21.5964 43.7443 21.7264C43.6144 21.8455 43.4303 21.9105 43.1703 21.9105H42.4447C42.3148 21.9105 42.2065 21.8997 42.1198 21.8888C42.0332 21.878 41.9574 21.8563 41.8816 21.8239C41.8166 21.7914 41.7516 21.7372 41.6867 21.6722C41.6217 21.6073 41.5459 21.5206 41.4592 21.4015L38.2969 17.2537C38.2644 17.2104 38.2211 17.1995 38.1886 17.1995H38.1128C38.0695 17.1995 38.0478 17.232 38.0478 17.2862V21.7156C38.0478 21.8455 37.9829 21.8997 37.8637 21.8997H36.9757C36.8457 21.8997 36.7808 21.8347 36.7808 21.7156V16.8422C36.7808 16.4956 36.8457 16.2682 36.9649 16.1382C37.084 16.0191 37.2789 15.9541 37.5388 15.9541H38.2753Z" fill="#1B4ADD"></path>
    <path d="M51.9532 15.9537C52.0832 15.9537 52.1481 16.0187 52.1481 16.1378V16.9392C52.1481 17.0692 52.0832 17.1233 51.9532 17.1233H48.2386C48.022 17.1233 47.8379 17.145 47.6863 17.1775C47.5455 17.21 47.4264 17.2749 47.3397 17.3616C47.2531 17.4482 47.1881 17.5674 47.1556 17.719C47.1231 17.8706 47.1015 18.0547 47.1015 18.2713V18.3579H51.8991C52.0182 18.3579 52.0832 18.4229 52.0832 18.542V19.2135C52.0832 19.3326 52.0182 19.3976 51.8991 19.3976H47.1015V19.5384C47.1015 19.755 47.1231 19.9499 47.1556 20.0907C47.1881 20.2423 47.2531 20.3614 47.3397 20.4481C47.4264 20.5347 47.5455 20.5997 47.6863 20.6322C47.8271 20.6647 48.0112 20.6863 48.2386 20.6863H51.9532C52.0832 20.6863 52.1481 20.7513 52.1481 20.8704V21.6718C52.1481 21.8018 52.0832 21.8559 51.9532 21.8559H48.2169C47.7837 21.8559 47.4264 21.8126 47.1231 21.7368C46.8199 21.661 46.5816 21.5311 46.3867 21.3469C46.1918 21.1737 46.0618 20.9354 45.9752 20.6538C45.8885 20.3723 45.8452 20.0257 45.8452 19.6142V18.1522C45.8452 17.7406 45.8885 17.4049 45.9752 17.1125C46.0618 16.8309 46.2026 16.6035 46.3867 16.4194C46.5816 16.2461 46.8199 16.1162 47.1231 16.0295C47.4264 15.9429 47.7837 15.9104 48.2169 15.9104H51.9532V15.9537Z" fill="#1B4ADD"></path>
  </symbol>
  <symbol fill="none" viewBox="0 0 131 24" id="avalanche">
    <g clip-path="url(#clip0_108_43)">
      <path d="M32.5605 7.2334H34.0246L38.1282 16.7653H36.186L35.2995 14.584H31.1661L30.3095 16.7653H28.4071L32.5505 7.2334H32.5605ZM34.7119 13.1298L33.2477 9.25531L31.7537 13.1298H34.7119Z" fill="black"></path>
      <path d="M39.9509 7.2334H41.9031L44.5027 14.4346L47.182 7.2334H49.0147L45.1601 16.7653H43.6959L39.9509 7.2334Z" fill="black"></path>
      <path d="M55.0706 7.2334H56.5347L60.6383 16.7653H58.696L57.8096 14.584H53.6761L52.8196 16.7653H50.9271L55.0706 7.2334ZM57.2219 13.1298L55.7578 9.25531L54.2638 13.1298H57.2219Z" fill="black"></path>
      <path d="M64.3932 7.2334H66.0864V15.2314H70.1402V16.7653H64.3932V7.2334Z" fill="black"></path>
      <path d="M77.1422 7.2334H78.6063L82.7099 16.7653H80.7677L79.8812 14.584H75.7478L74.8912 16.7653H72.9988L77.1422 7.2334ZM79.2936 13.1298L77.8295 9.25531L76.3354 13.1298H79.2936Z" fill="black"></path>
      <path d="M86.4648 7.2334H88.7158L93.3274 14.3151H93.3573V7.2334H95.0505V16.7653H92.8991L88.188 9.45451H88.1581V16.7653H86.4648V7.2334Z" fill="black"></path>
      <path d="M106.405 9.46431C106.057 9.08582 105.718 8.83682 105.379 8.70734C105.061 8.57786 104.732 8.51809 104.393 8.51809C103.895 8.51809 103.447 8.60774 103.049 8.78702C102.65 8.95634 102.312 9.19539 102.023 9.51411C101.734 9.82288 101.515 10.1814 101.345 10.5898C101.196 10.9982 101.116 11.4464 101.116 11.9245C101.116 12.4324 101.196 12.9105 101.345 13.3388C101.505 13.7671 101.734 14.1456 102.023 14.4543C102.312 14.7731 102.65 15.0121 103.049 15.1914C103.457 15.3707 103.905 15.4603 104.393 15.4603C104.782 15.4603 105.15 15.3707 105.509 15.1914C105.877 15.0022 106.216 14.7034 106.535 14.3049L107.929 15.301C107.501 15.8886 106.973 16.3269 106.355 16.5958C105.738 16.8647 105.08 17.0042 104.373 17.0042C103.636 17.0042 102.959 16.8846 102.341 16.6555C101.734 16.4165 101.206 16.0779 100.758 15.6496C100.319 15.2113 99.9709 14.6834 99.7219 14.0759C99.4729 13.4683 99.3434 12.791 99.3434 12.044C99.3434 11.2771 99.4729 10.5898 99.7219 9.97228C99.9709 9.34479 100.319 8.80694 100.758 8.36869C101.206 7.93045 101.734 7.5918 102.341 7.36272C102.959 7.12367 103.636 7.00415 104.373 7.00415C105.021 7.00415 105.618 7.12367 106.166 7.35276C106.724 7.58184 107.242 7.96033 107.71 8.50813L106.395 9.47427L106.405 9.46431Z" fill="black"></path>
      <path d="M111.774 7.2334H113.467V11.0282H117.919V7.2334H119.622V16.7653H117.919V12.5621H113.467V16.7653H111.774V7.2334Z" fill="black"></path>
      <path d="M124.443 7.2334H130.748V8.76726H126.136V11.1079H130.509V12.6418H126.136V15.2314H130.997V16.7653H124.443V7.2334Z" fill="black"></path>
      <path fill-rule="evenodd" clip-rule="evenodd" d="M24.0065 12.0042C24.0065 18.6357 18.6348 24.0074 12.0032 24.0074C5.37171 24.0074 0 18.6357 0 12.0042C0 5.37269 5.37171 0.000976562 12.0032 0.000976562C18.6348 0.000976562 24.0065 5.37269 24.0065 12.0042ZM8.59998 16.781H6.27283C5.7829 16.781 5.53794 16.781 5.39796 16.6848C5.24048 16.5798 5.14424 16.4136 5.12675 16.2211C5.118 16.0461 5.24048 15.8361 5.47669 15.4075L11.2333 5.2677C11.4783 4.83901 11.6008 4.6203 11.7583 4.54156C11.9245 4.45407 12.1257 4.45407 12.2919 4.54156C12.4494 4.6203 12.5719 4.83901 12.8169 5.2677L13.9979 7.3324L14.0067 7.34115C14.2692 7.80483 14.4091 8.04104 14.4616 8.28601C14.5229 8.55722 14.5229 8.83718 14.4616 9.10839C14.4004 9.35335 14.2692 9.58957 13.9979 10.062L10.9796 15.4075L10.9709 15.425C10.7084 15.8886 10.5684 16.1249 10.3847 16.3086C10.1835 16.501 9.93854 16.641 9.66733 16.7285C9.42236 16.7985 9.15115 16.7985 8.59998 16.7985V16.781ZM14.4791 16.781H17.8211C18.3111 16.781 18.5648 16.781 18.7047 16.6848C18.8622 16.5798 18.9672 16.4048 18.976 16.2211C18.9847 16.0549 18.8622 15.8449 18.6348 15.4512C18.626 15.4337 18.6173 15.425 18.6085 15.4075L16.9375 12.5466L16.92 12.5116C16.6838 12.1179 16.5701 11.9167 16.4126 11.838C16.2464 11.7505 16.0451 11.7505 15.8789 11.838C15.7214 11.9167 15.599 12.1267 15.354 12.5466L13.6917 15.4075L13.683 15.4162C13.438 15.8361 13.3155 16.0461 13.3243 16.2211C13.333 16.4136 13.4293 16.5798 13.5955 16.6848C13.7442 16.781 13.9892 16.781 14.4791 16.781Z" fill="#E84142"></path>
    </g>
    <defs>
      <clipPath id="clip0_108_43">
        <rect width="131" height="24" fill="white"></rect>
      </clipPath>
    </defs>
  </symbol>
  <symbol fill="none" viewBox="0 0 63 24" id="base">
   <g clip-path="url(#clip0_110_132)">
<path d="M31.0784 16.8193V7.09259H34.2599C35.3149 7.09259 36.1093 7.31124 36.6414 7.74856C37.1735 8.18406 37.4395 8.83092 37.4395 9.68916C37.4395 10.1429 37.312 10.5474 37.0514 10.8954C36.7945 11.2471 36.4428 11.5186 35.9964 11.7099C36.523 11.8557 36.9384 12.1363 37.2446 12.5463C37.5507 12.9599 37.7001 13.4501 37.7001 14.0168C37.7001 14.8896 37.4177 15.5747 36.851 16.0722C36.2861 16.5714 35.488 16.8193 34.4548 16.8193H31.0784ZM32.363 12.2912V15.7661H34.4785C35.0762 15.7661 35.5481 15.613 35.8925 15.305C36.2369 14.9971 36.41 14.5725 36.41 14.035C36.41 12.8725 35.7741 12.2912 34.4986 12.2912H32.363ZM32.363 11.238H34.2981C34.8593 11.238 35.3076 11.0959 35.6465 10.8153C35.9818 10.5346 36.1513 10.1556 36.1513 9.67458C36.1513 9.13887 35.9946 8.75075 35.683 8.5084C35.3714 8.26423 34.8958 8.14397 34.2599 8.14397H32.363V11.238ZM44.965 14.2755H40.887L39.9723 16.8211H38.6494L42.3648 7.09259H43.4873L47.2081 16.8211H45.8925L44.965 14.2755ZM41.277 13.2223H44.586L42.9279 8.67604L41.277 13.2223ZM51.3845 12.4843C50.2857 12.1673 49.4858 11.7774 48.9829 11.3163C48.4818 10.8553 48.2303 10.285 48.2303 9.60898C48.2303 8.84368 48.5383 8.20957 49.1487 7.70665C49.7628 7.20556 50.5572 6.9541 51.5357 6.9541C52.2045 6.9541 52.8021 7.08347 53.3233 7.34222C53.8481 7.59915 54.2507 7.95629 54.5386 8.41183C54.8265 8.86554 54.9705 9.36299 54.9705 9.90053H53.6822C53.6822 9.31197 53.4946 8.84915 53.121 8.51205C52.7475 8.17677 52.2172 8.00731 51.5357 8.00731C50.9034 8.00731 50.4115 8.14579 50.058 8.42458C49.7026 8.70519 49.5259 9.08967 49.5259 9.5853C49.5259 9.98253 49.6917 10.3196 50.0306 10.5929C50.3659 10.8663 50.9381 11.1177 51.7471 11.3455C52.5543 11.5733 53.1884 11.8247 53.644 12.0981C54.0995 12.3714 54.4384 12.6903 54.6589 13.0583C54.8794 13.4228 54.9887 13.8546 54.9887 14.3484C54.9887 15.1374 54.6808 15.7697 54.0667 16.2435C53.4508 16.7172 52.6308 16.9541 51.6013 16.9541C50.9326 16.9541 50.3076 16.8266 49.73 16.5714C49.1523 16.3145 48.7059 15.9628 48.3907 15.5182C48.0755 15.0736 47.9206 14.5671 47.9206 14.0022H49.2088C49.2088 14.5889 49.4257 15.0518 49.8612 15.3907C50.2948 15.7296 50.8743 15.9009 51.6013 15.9009C52.2792 15.9009 52.7967 15.7624 53.1575 15.4854C53.5201 15.2103 53.7005 14.8331 53.7005 14.3593C53.7005 13.8819 53.531 13.5139 53.1994 13.2533C52.8696 12.9964 52.2628 12.7376 51.3845 12.4843ZM62.137 12.3313H57.9224V15.7661H62.8185V16.8193H56.6396V7.09259H62.7529V8.14579H57.9224V11.2781H62.137V12.3313Z" fill="black"/>
<mask id="mask0_110_132" style="mask-type:luminance" maskUnits="userSpaceOnUse" x="0" y="0" width="24" height="24">
<path d="M12 24C5.37216 24 0 18.6278 0 12C0 5.37216 5.37216 0 12 0C18.6278 0 24 5.37216 24 12C24 18.6278 18.6278 24 12 24Z" fill="white"/>
</mask>
<g mask="url(#mask0_110_132)">
<path fill-rule="evenodd" clip-rule="evenodd" d="M12.0004 11.9996L-4.97241 11.895L-4.95705 11.271L12.0004 11.9996Z" fill="#FEFEFF"/>
<path fill-rule="evenodd" clip-rule="evenodd" d="M12.0001 12L-4.96021 11.3751L-4.93428 10.8547L12.0001 12Z" fill="#FDFEFF"/>
<path fill-rule="evenodd" clip-rule="evenodd" d="M12.0002 11.9997L-4.93994 10.9591L-4.90154 10.4397L12.0002 11.9997Z" fill="#FCFDFF"/>
<path fill-rule="evenodd" clip-rule="evenodd" d="M12.0003 11.9999L-4.90918 10.5435L-4.8583 10.0251L12.0003 11.9999Z" fill="#FBFCFF"/>
<path fill-rule="evenodd" clip-rule="evenodd" d="M12.0002 11.9998L-4.86792 10.1288L-4.80456 9.6123L12.0002 11.9998Z" fill="#FAFCFF"/>
<path fill-rule="evenodd" clip-rule="evenodd" d="M12.0004 11.9998L-4.81689 9.71596L-4.74105 9.20044L12.0004 11.9998Z" fill="#F9FBFF"/>
<path fill-rule="evenodd" clip-rule="evenodd" d="M12.0002 12.0001L-4.75562 9.30341L-4.6673 8.79077L12.0002 12.0001Z" fill="#F8FAFF"/>
<path fill-rule="evenodd" clip-rule="evenodd" d="M12.0004 12.0001L-4.68445 8.89353L-4.58365 8.38281L12.0004 12.0001Z" fill="#F7FAFF"/>
<path fill-rule="evenodd" clip-rule="evenodd" d="M12.0003 11.9997L-4.60388 8.48512L-4.48964 7.97632L12.0003 11.9997Z" fill="#F6F9FF"/>
<path fill-rule="evenodd" clip-rule="evenodd" d="M12.0003 11.9998L-4.5127 8.0782L-4.38598 7.57324L12.0003 11.9998Z" fill="#F5F8FF"/>
<path fill-rule="evenodd" clip-rule="evenodd" d="M12.0003 12L-4.41089 7.6742L-4.27265 7.17212L12.0003 12Z" fill="#F4F8FF"/>
<path fill-rule="evenodd" clip-rule="evenodd" d="M12.0001 11.9999L-4.30066 7.2729L-4.14898 6.77466L12.0001 11.9999Z" fill="#F3F7FF"/>
<path fill-rule="evenodd" clip-rule="evenodd" d="M12.0003 12L-4.17957 6.87453L-4.01541 6.38013L12.0003 12Z" fill="#F2F6FF"/>
<path fill-rule="evenodd" clip-rule="evenodd" d="M12.0005 11.9998L-4.04883 6.47884L-3.87315 5.98828L12.0005 11.9998Z" fill="#F1F6FF"/>
<path fill-rule="evenodd" clip-rule="evenodd" d="M12.0002 11.9997L-3.90796 6.0861L-3.72076 5.60034L12.0002 11.9997Z" fill="#F0F5FF"/>
<path fill-rule="evenodd" clip-rule="evenodd" d="M12.0001 11.9997L-3.7583 5.69727L-3.55958 5.21631L12.0001 11.9997Z" fill="#EFF4FF"/>
<path fill-rule="evenodd" clip-rule="evenodd" d="M12.0003 11.9997L-3.59875 5.31236L-3.38755 4.83716L12.0003 11.9997Z" fill="#EEF3FF"/>
<path fill-rule="evenodd" clip-rule="evenodd" d="M12.0002 11.9998L-3.42993 4.93231L-3.20721 4.46191L12.0002 11.9998Z" fill="#EDF3FF"/>
<path fill-rule="evenodd" clip-rule="evenodd" d="M12.0002 12L-3.25232 4.55618L-3.01808 4.09058L12.0002 12Z" fill="#ECF2FF"/>
<path fill-rule="evenodd" clip-rule="evenodd" d="M12.0005 12.0001L-3.06482 4.18373L-2.81906 3.72485L12.0005 12.0001Z" fill="#EBF1FF"/>
<path fill-rule="evenodd" clip-rule="evenodd" d="M12.0002 11.9999L-2.86829 3.81687L-2.61197 3.36279L12.0002 11.9999Z" fill="#EAF1FF"/>
<path fill-rule="evenodd" clip-rule="evenodd" d="M12.0003 11.9999L-2.66272 3.45397L-2.39488 3.00757L12.0003 11.9999Z" fill="#E9F0FF"/>
<path fill-rule="evenodd" clip-rule="evenodd" d="M12.0002 11.9999L-2.44873 3.09689L-2.17033 2.65625L12.0002 11.9999Z" fill="#E8EFFF"/>
<path fill-rule="evenodd" clip-rule="evenodd" d="M12.0003 11.9998L-2.22595 2.74448L-1.93603 2.31152L12.0003 11.9998Z" fill="#E7EFFF"/>
<path fill-rule="evenodd" clip-rule="evenodd" d="M12.0003 12.0001L-1.99463 2.39818L-1.69511 1.9729L12.0003 12.0001Z" fill="#E6EEFF"/>
<path fill-rule="evenodd" clip-rule="evenodd" d="M12.0002 11.9997L-1.75464 2.05796L-1.44456 1.6394L12.0002 11.9997Z" fill="#E5EDFF"/>
<path fill-rule="evenodd" clip-rule="evenodd" d="M12.0002 11.9999L-1.50696 1.72314L-1.18632 1.31226L12.0002 11.9999Z" fill="#E4EDFF"/>
<path fill-rule="evenodd" clip-rule="evenodd" d="M12.0003 11.9995L-1.25061 1.39443L-0.92037 0.992188L12.0003 11.9995Z" fill="#E3ECFF"/>
<path fill-rule="evenodd" clip-rule="evenodd" d="M12.0002 11.9997L-0.985718 1.07303L-0.645878 0.678467L12.0002 11.9997Z" fill="#E2EBFF"/>
<path fill-rule="evenodd" clip-rule="evenodd" d="M12.0004 11.9998L-0.713867 0.757258L-0.364427 0.371338L12.0004 11.9998Z" fill="#E1EBFF"/>
<path fill-rule="evenodd" clip-rule="evenodd" d="M12.0003 12L-0.43457 0.449301L-0.0755303 0.0720215L12.0003 12Z" fill="#E0EAFF"/>
<path fill-rule="evenodd" clip-rule="evenodd" d="M12.0004 12.0001L-0.147461 0.147937L0.221179 -0.220703L12.0004 12.0001Z" fill="#DFE9FF"/>
<path fill-rule="evenodd" clip-rule="evenodd" d="M12.0004 11.9998L0.148193 -0.148023L0.524513 -0.506104L12.0004 11.9998Z" fill="#DEE9FF"/>
<path fill-rule="evenodd" clip-rule="evenodd" d="M12.0002 11.9997L0.449463 -0.435228L0.835383 -0.784668L12.0002 11.9997Z" fill="#DDE8FF"/>
<path fill-rule="evenodd" clip-rule="evenodd" d="M12.0004 11.9999L0.757812 -0.714359L1.15237 -1.0542L12.0004 11.9999Z" fill="#DCE7FF"/>
<path fill-rule="evenodd" clip-rule="evenodd" d="M12.0004 12L1.07373 -0.985922L1.47597 -1.31616L12.0004 12Z" fill="#DBE7FF"/>
<path fill-rule="evenodd" clip-rule="evenodd" d="M12.0001 12L1.39502 -1.25088L1.8059 -1.57056L12.0001 12Z" fill="#DAE6FF"/>
<path fill-rule="evenodd" clip-rule="evenodd" d="M12.0003 11.9999L1.72351 -1.5073L2.14207 -1.81738L12.0003 11.9999Z" fill="#D9E5FF"/>
<path fill-rule="evenodd" clip-rule="evenodd" d="M12.0004 12L2.05859 -1.75492L2.48387 -2.05444L12.0004 12Z" fill="#D8E5FF"/>
<path fill-rule="evenodd" clip-rule="evenodd" d="M12.0002 11.9999L2.39832 -1.99498L2.83128 -2.28394L12.0002 11.9999Z" fill="#D7E4FF"/>
<path fill-rule="evenodd" clip-rule="evenodd" d="M12.0004 11.9998L2.745 -2.22648L3.18564 -2.50488L12.0004 11.9998Z" fill="#D6E3FF"/>
<path fill-rule="evenodd" clip-rule="evenodd" d="M12.0002 12L3.09717 -2.44896L3.54357 -2.7168L12.0002 12Z" fill="#D5E3FF"/>
<path fill-rule="evenodd" clip-rule="evenodd" d="M12.0003 11.9999L3.45435 -2.66311L3.90747 -2.91943L12.0003 11.9999Z" fill="#D4E2FF"/>
<path fill-rule="evenodd" clip-rule="evenodd" d="M12.0002 11.9997L3.81714 -2.86874L4.27602 -3.1145L12.0002 11.9997Z" fill="#D3E1FF"/>
<path fill-rule="evenodd" clip-rule="evenodd" d="M12.0003 12L4.18396 -3.0653L4.64956 -3.29858L12.0003 12Z" fill="#D2E0FF"/>
<path fill-rule="evenodd" clip-rule="evenodd" d="M12.0002 11.9999L4.5564 -3.25261L5.0268 -3.47437L12.0002 11.9999Z" fill="#D1E0FF"/>
<path fill-rule="evenodd" clip-rule="evenodd" d="M12.0003 11.9997L4.93274 -3.4304L5.4089 -3.6416L12.0003 11.9997Z" fill="#D0DFFF"/>
<path fill-rule="evenodd" clip-rule="evenodd" d="M12.0003 12.0001L5.31299 -3.5989L5.79491 -3.79858L12.0003 12.0001Z" fill="#CFDEFF"/>
<path fill-rule="evenodd" clip-rule="evenodd" d="M12.0003 12L5.69788 -3.75836L6.1846 -3.94556L12.0003 12Z" fill="#CEDEFF"/>
<path fill-rule="evenodd" clip-rule="evenodd" d="M12.0003 11.9999L6.08667 -3.9083L6.57723 -4.08398L12.0003 11.9999Z" fill="#CDDDFF"/>
<path fill-rule="evenodd" clip-rule="evenodd" d="M12.0002 12.0001L6.47925 -4.04919L6.97365 -4.21143L12.0002 12.0001Z" fill="#CCDCFF"/>
<path fill-rule="evenodd" clip-rule="evenodd" d="M12.0003 12L6.87488 -4.17985L7.37312 -4.33057L12.0003 12Z" fill="#CBDCFF"/>
<path fill-rule="evenodd" clip-rule="evenodd" d="M12.0002 11.9998L7.27319 -4.30097L7.77527 -4.43921L12.0002 11.9998Z" fill="#CADBFF"/>
<path fill-rule="evenodd" clip-rule="evenodd" d="M12.0002 12.0001L7.67444 -4.41112L8.1794 -4.53784L12.0002 12.0001Z" fill="#C9DAFF"/>
<path fill-rule="evenodd" clip-rule="evenodd" d="M12.0001 11.9998L8.07849 -4.51318L8.58633 -4.62646L12.0001 11.9998Z" fill="#C8DAFF"/>
<path fill-rule="evenodd" clip-rule="evenodd" d="M12.0003 11.9999L8.48572 -4.60428L8.99548 -4.70508L12.0003 11.9999Z" fill="#C7D9FF"/>
<path fill-rule="evenodd" clip-rule="evenodd" d="M12.0002 11.9997L8.89368 -4.68513L9.40632 -4.77441L12.0002 11.9997Z" fill="#C6D8FF"/>
<path fill-rule="evenodd" clip-rule="evenodd" d="M12.0004 11.9999L9.30371 -4.75596L9.81923 -4.83276L12.0004 11.9999Z" fill="#C5D8FF"/>
<path fill-rule="evenodd" clip-rule="evenodd" d="M12.0003 11.9998L9.71643 -4.8175L10.2329 -4.88086L12.0003 11.9998Z" fill="#C4D7FF"/>
<path fill-rule="evenodd" clip-rule="evenodd" d="M12.0003 11.9999L10.1293 -4.86831L10.6477 -4.91919L12.0003 11.9999Z" fill="#C3D6FF"/>
<path fill-rule="evenodd" clip-rule="evenodd" d="M12.0004 11.9998L10.5441 -4.9096L11.0634 -4.948L12.0004 11.9998Z" fill="#C2D6FF"/>
<path fill-rule="evenodd" clip-rule="evenodd" d="M12.0001 12L10.9595 -4.94013L11.4798 -4.96509L12.0001 12Z" fill="#C1D5FF"/>
<path fill-rule="evenodd" clip-rule="evenodd" d="M12.0003 11.9999L11.3754 -4.96042L11.8957 -4.9729L12.0003 11.9999Z" fill="#C0D4FF"/>
<path fill-rule="evenodd" clip-rule="evenodd" d="M12.0004 11.9997L11.7921 -4.97119H12.3124L12.0004 11.9997Z" fill="#BFD4FF"/>
<path fill-rule="evenodd" clip-rule="evenodd" d="M12.0002 11.9997L12.2086 -4.97119L12.7289 -4.95775L12.0002 11.9997Z" fill="#BED3FF"/>
<path fill-rule="evenodd" clip-rule="evenodd" d="M12.0002 12.0001L12.6252 -4.96021L13.1446 -4.93428L12.0002 12.0001Z" fill="#BDD2FF"/>
<path fill-rule="evenodd" clip-rule="evenodd" d="M12.0002 12L13.0409 -4.94019L13.5602 -4.90179L12.0002 12Z" fill="#BCD2FF"/>
<path fill-rule="evenodd" clip-rule="evenodd" d="M12.0002 11.9998L13.4566 -4.90967L13.975 -4.85879L12.0002 11.9998Z" fill="#BBD1FF"/>
<path fill-rule="evenodd" clip-rule="evenodd" d="M12.0002 12L13.8703 -4.86816L14.3878 -4.8048L12.0002 12Z" fill="#BAD0FF"/>
<path fill-rule="evenodd" clip-rule="evenodd" d="M12.0002 11.9997L14.2841 -4.81763L14.7996 -4.74179L12.0002 11.9997Z" fill="#B9D0FF"/>
<path fill-rule="evenodd" clip-rule="evenodd" d="M12.0002 11.9997L14.6959 -4.7561L15.2095 -4.66778L12.0002 11.9997Z" fill="#B8CFFF"/>
<path fill-rule="evenodd" clip-rule="evenodd" d="M12.0002 12L15.1068 -4.68481L15.6175 -4.58401L12.0002 12Z" fill="#B7CEFF"/>
<path fill-rule="evenodd" clip-rule="evenodd" d="M12.0002 11.9999L15.5148 -4.60425L16.0236 -4.49001L12.0002 11.9999Z" fill="#B6CDFF"/>
<path fill-rule="evenodd" clip-rule="evenodd" d="M12.0002 12L15.9218 -4.51294L16.4268 -4.38622L12.0002 12Z" fill="#B5CDFF"/>
<path fill-rule="evenodd" clip-rule="evenodd" d="M12.0002 11.9998L16.326 -4.41138L16.8271 -4.27314L12.0002 11.9998Z" fill="#B4CCFF"/>
<path fill-rule="evenodd" clip-rule="evenodd" d="M12.0002 12L16.7273 -4.30078L17.2255 -4.1491L12.0002 12Z" fill="#B3CBFF"/>
<path fill-rule="evenodd" clip-rule="evenodd" d="M12.0002 11.9999L17.1257 -4.17993L17.6201 -4.01577L12.0002 11.9999Z" fill="#B2CBFF"/>
<path fill-rule="evenodd" clip-rule="evenodd" d="M12.0002 11.9997L17.5212 -4.04956L18.0118 -3.87388L12.0002 11.9997Z" fill="#B1CAFF"/>
<path fill-rule="evenodd" clip-rule="evenodd" d="M12.0002 12L17.9138 -3.9082L18.3996 -3.721L12.0002 12Z" fill="#B0C9FF"/>
<path fill-rule="evenodd" clip-rule="evenodd" d="M12.0002 11.9999L18.3017 -3.75854L18.7836 -3.55982L12.0002 11.9999Z" fill="#AFC9FF"/>
<path fill-rule="evenodd" clip-rule="evenodd" d="M12.0002 11.9999L18.6866 -3.59912L19.1628 -3.38792L12.0002 11.9999Z" fill="#AEC8FF"/>
<path fill-rule="evenodd" clip-rule="evenodd" d="M12.0002 11.9997L19.0678 -3.43042L19.5382 -3.2077L12.0002 11.9997Z" fill="#ADC7FF"/>
<path fill-rule="evenodd" clip-rule="evenodd" d="M12.0002 11.9998L19.4441 -3.25269L19.9097 -3.01845L12.0002 11.9998Z" fill="#ACC7FF"/>
<path fill-rule="evenodd" clip-rule="evenodd" d="M12.0002 11.9999L19.8166 -3.06543L20.2754 -2.81967L12.0002 11.9999Z" fill="#ABC6FF"/>
<path fill-rule="evenodd" clip-rule="evenodd" d="M12.0002 11.9998L20.1833 -2.86865L20.6374 -2.61233L12.0002 11.9998Z" fill="#AAC5FF"/>
<path fill-rule="evenodd" clip-rule="evenodd" d="M12.0002 12L20.5462 -2.66309L20.9926 -2.39525L12.0002 12Z" fill="#A9C5FF"/>
<path fill-rule="evenodd" clip-rule="evenodd" d="M12.0002 12L20.9033 -2.44897L21.343 -2.17057L12.0002 12Z" fill="#A8C4FF"/>
<path fill-rule="evenodd" clip-rule="evenodd" d="M12.0002 11.9999L21.2556 -2.22632L21.6886 -1.9364L12.0002 11.9999Z" fill="#A7C3FF"/>
<path fill-rule="evenodd" clip-rule="evenodd" d="M12.0002 11.9998L21.6022 -1.99512L22.0274 -1.6956L12.0002 11.9998Z" fill="#A6C3FF"/>
<path fill-rule="evenodd" clip-rule="evenodd" d="M12.0002 11.9998L21.942 -1.75513L22.3606 -1.44505L12.0002 11.9998Z" fill="#A5C2FF"/>
<path fill-rule="evenodd" clip-rule="evenodd" d="M12.0002 11.9999L22.277 -1.50732L22.687 -1.18668L12.0002 11.9999Z" fill="#A4C1FF"/>
<path fill-rule="evenodd" clip-rule="evenodd" d="M12.0002 11.9999L22.6054 -1.25098L23.0076 -0.920737L12.0002 11.9999Z" fill="#A3C1FF"/>
<path fill-rule="evenodd" clip-rule="evenodd" d="M12.0002 11.9998L22.927 -0.986084L23.3215 -0.646244L12.0002 11.9998Z" fill="#A2C0FF"/>
<path fill-rule="evenodd" clip-rule="evenodd" d="M12.0002 11.9999L23.2428 -0.714355L23.6287 -0.364915L12.0002 11.9999Z" fill="#A1BFFF"/>
<path fill-rule="evenodd" clip-rule="evenodd" d="M12.0002 11.9998L23.551 -0.435059L23.9282 -0.0760186L12.0002 11.9998Z" fill="#A0BFFF"/>
<path fill-rule="evenodd" clip-rule="evenodd" d="M12.0002 11.9999L23.8524 -0.147949L24.221 0.220691L12.0002 11.9999Z" fill="#9FBEFF"/>
<path fill-rule="evenodd" clip-rule="evenodd" d="M12.0002 11.9996L24.1471 0.147461L24.5062 0.523781L12.0002 11.9996Z" fill="#9EBDFF"/>
<path fill-rule="evenodd" clip-rule="evenodd" d="M12.0002 11.9997L24.4351 0.448975L24.7846 0.834895L12.0002 11.9997Z" fill="#9DBDFF"/>
<path fill-rule="evenodd" clip-rule="evenodd" d="M12.0002 12.0001L24.7145 0.757568L25.0543 1.15213L12.0002 12.0001Z" fill="#9CBCFF"/>
<path fill-rule="evenodd" clip-rule="evenodd" d="M12.0002 11.9997L24.9862 1.073L25.3164 1.47524L12.0002 11.9997Z" fill="#9BBBFF"/>
<path fill-rule="evenodd" clip-rule="evenodd" d="M12.0002 11.9997L25.2511 1.39453L25.5708 1.80541L12.0002 11.9997Z" fill="#9ABAFF"/>
<path fill-rule="evenodd" clip-rule="evenodd" d="M12.0002 11.9999L25.5074 1.72314L25.8175 2.1417L12.0002 11.9999Z" fill="#99BAFF"/>
<path fill-rule="evenodd" clip-rule="evenodd" d="M12.0002 12.0001L25.7551 2.05835L26.0546 2.48363L12.0002 12.0001Z" fill="#98B9FF"/>
<path fill-rule="evenodd" clip-rule="evenodd" d="M12.0002 11.9999L25.9951 2.39795L26.2841 2.83091L12.0002 11.9999Z" fill="#97B8FF"/>
<path fill-rule="evenodd" clip-rule="evenodd" d="M12.0002 11.9997L26.2265 2.74438L26.5049 3.18502L12.0002 11.9997Z" fill="#96B8FF"/>
<path fill-rule="evenodd" clip-rule="evenodd" d="M12.0002 12L26.4492 3.09692L26.717 3.54332L12.0002 12Z" fill="#95B7FF"/>
<path fill-rule="evenodd" clip-rule="evenodd" d="M12.0002 11.9998L26.6633 3.45386L26.9196 3.90698L12.0002 11.9998Z" fill="#94B6FF"/>
<path fill-rule="evenodd" clip-rule="evenodd" d="M12.0002 11.9999L26.8687 3.81689L27.1135 4.27577L12.0002 11.9999Z" fill="#93B6FF"/>
<path fill-rule="evenodd" clip-rule="evenodd" d="M12.0002 11.9999L27.0646 4.18359L27.2988 4.64919L12.0002 11.9999Z" fill="#92B5FF"/>
<path fill-rule="evenodd" clip-rule="evenodd" d="M12.0002 12L27.2527 4.55615L27.4745 5.02655L12.0002 12Z" fill="#91B4FF"/>
<path fill-rule="evenodd" clip-rule="evenodd" d="M12.0002 11.9999L27.4303 4.93237L27.6415 5.40853L12.0002 11.9999Z" fill="#90B4FF"/>
<path fill-rule="evenodd" clip-rule="evenodd" d="M12.0002 11.9999L27.5993 5.3125L27.798 5.79442L12.0002 11.9999Z" fill="#8FB3FF"/>
<path fill-rule="evenodd" clip-rule="evenodd" d="M12.0002 11.9997L27.7586 5.69727L27.9458 6.18399L12.0002 11.9997Z" fill="#8EB2FF"/>
<path fill-rule="evenodd" clip-rule="evenodd" d="M12.0002 11.9998L27.9084 6.08618L28.0841 6.57674L12.0002 11.9998Z" fill="#8DB2FF"/>
<path fill-rule="evenodd" clip-rule="evenodd" d="M12.0002 11.9997L28.0486 6.47876L28.2118 6.97316L12.0002 11.9997Z" fill="#8CB1FF"/>
<path fill-rule="evenodd" clip-rule="evenodd" d="M12.0002 12L28.1791 6.87451L28.3308 7.37275L12.0002 12Z" fill="#8BB0FF"/>
<path fill-rule="evenodd" clip-rule="evenodd" d="M12.0002 12L28.3001 7.27295L28.4393 7.77503L12.0002 12Z" fill="#8AB0FF"/>
<path fill-rule="evenodd" clip-rule="evenodd" d="M12.0002 11.9998L28.4114 7.67407L28.5382 8.17903L12.0002 11.9998Z" fill="#89AFFF"/>
<path fill-rule="evenodd" clip-rule="evenodd" d="M12.0002 11.9997L28.5132 8.07812L28.6265 8.58597L12.0002 11.9997Z" fill="#88AEFF"/>
<path fill-rule="evenodd" clip-rule="evenodd" d="M12.0002 11.9999L28.6034 8.48535L28.7052 8.99511L12.0002 11.9999Z" fill="#87AEFF"/>
<path fill-rule="evenodd" clip-rule="evenodd" d="M12.0002 11.9999L28.685 8.89331L28.7743 9.40595L12.0002 11.9999Z" fill="#86ADFF"/>
<path fill-rule="evenodd" clip-rule="evenodd" d="M12.0002 12.0001L28.7561 9.30347L28.8329 9.81899L12.0002 12.0001Z" fill="#85ACFF"/>
<path fill-rule="evenodd" clip-rule="evenodd" d="M12.0002 12.0001L28.8175 9.71631L28.8809 10.2328L12.0002 12.0001Z" fill="#84ACFF"/>
<path fill-rule="evenodd" clip-rule="evenodd" d="M12.0002 11.9997L28.8684 10.1287L28.9193 10.6471L12.0002 11.9997Z" fill="#83ABFF"/>
<path fill-rule="evenodd" clip-rule="evenodd" d="M12.0002 12L28.9097 10.5437L28.9481 11.0631L12.0002 12Z" fill="#82AAFF"/>
<path fill-rule="evenodd" clip-rule="evenodd" d="M12.0002 11.9996L28.9404 10.959L28.9654 11.4793L12.0002 11.9996Z" fill="#81AAFF"/>
<path fill-rule="evenodd" clip-rule="evenodd" d="M12.0002 12L28.9606 11.375L28.973 11.8953L12.0002 12Z" fill="#80A9FF"/>
<path fill-rule="evenodd" clip-rule="evenodd" d="M12.0002 12.0001L28.9702 11.7917V12.3121L12.0002 12.0001Z" fill="#7FA8FF"/>
<path fill-rule="evenodd" clip-rule="evenodd" d="M12.0002 11.9998L28.9702 12.2081L28.9577 12.7284L12.0002 11.9998Z" fill="#7EA7FF"/>
<path fill-rule="evenodd" clip-rule="evenodd" d="M12.0002 11.9998L28.9606 12.6247L28.9346 13.1441L12.0002 11.9998Z" fill="#7DA7FF"/>
<path fill-rule="evenodd" clip-rule="evenodd" d="M12.0002 11.9998L28.9404 13.0404L28.902 13.5598L12.0002 11.9998Z" fill="#7CA6FF"/>
<path fill-rule="evenodd" clip-rule="evenodd" d="M12.0002 11.9998L28.9097 13.4561L28.8588 13.9745L12.0002 11.9998Z" fill="#7BA5FF"/>
<path fill-rule="evenodd" clip-rule="evenodd" d="M12.0002 11.9998L28.8684 13.8698L28.805 14.3873L12.0002 11.9998Z" fill="#7AA5FF"/>
<path fill-rule="evenodd" clip-rule="evenodd" d="M12.0002 11.9998L28.8175 14.2836L28.7407 14.7991L12.0002 11.9998Z" fill="#79A4FF"/>
<path fill-rule="evenodd" clip-rule="evenodd" d="M12.0002 11.9998L28.7561 14.6954L28.6678 15.209L12.0002 11.9998Z" fill="#78A3FF"/>
<path fill-rule="evenodd" clip-rule="evenodd" d="M12.0002 11.9998L28.685 15.1063L28.5833 15.617L12.0002 11.9998Z" fill="#77A3FF"/>
<path fill-rule="evenodd" clip-rule="evenodd" d="M12.0002 11.9998L28.6034 15.5143L28.4902 16.0231L12.0002 11.9998Z" fill="#76A2FF"/>
<path fill-rule="evenodd" clip-rule="evenodd" d="M12.0002 11.9998L28.5132 15.9214L28.3865 16.4263L12.0002 11.9998Z" fill="#75A1FF"/>
<path fill-rule="evenodd" clip-rule="evenodd" d="M12.0002 11.9998L28.4114 16.3255L28.2732 16.8266L12.0002 11.9998Z" fill="#74A1FF"/>
<path fill-rule="evenodd" clip-rule="evenodd" d="M12.0002 11.9998L28.3001 16.7268L28.1494 17.225L12.0002 11.9998Z" fill="#73A0FF"/>
<path fill-rule="evenodd" clip-rule="evenodd" d="M12.0002 11.9998L28.1791 17.1252L28.0159 17.6196L12.0002 11.9998Z" fill="#729FFF"/>
<path fill-rule="evenodd" clip-rule="evenodd" d="M12.0002 11.9998L28.0486 17.5207L27.8738 18.0113L12.0002 11.9998Z" fill="#719FFF"/>
<path fill-rule="evenodd" clip-rule="evenodd" d="M12.0002 11.9998L27.9084 17.9134L27.7212 18.3991L12.0002 11.9998Z" fill="#709EFF"/>
<path fill-rule="evenodd" clip-rule="evenodd" d="M12.0002 11.9998L27.7586 18.3012L27.559 18.7831L12.0002 11.9998Z" fill="#6F9DFF"/>
<path fill-rule="evenodd" clip-rule="evenodd" d="M12.0002 11.9998L27.5993 18.6862L27.3881 19.1623L12.0002 11.9998Z" fill="#6E9DFF"/>
<path fill-rule="evenodd" clip-rule="evenodd" d="M12.0002 11.9998L27.4303 19.0673L27.2076 19.5377L12.0002 11.9998Z" fill="#6D9CFF"/>
<path fill-rule="evenodd" clip-rule="evenodd" d="M12.0002 11.9998L27.2527 19.4436L27.0185 19.9092L12.0002 11.9998Z" fill="#6C9BFF"/>
<path fill-rule="evenodd" clip-rule="evenodd" d="M12.0002 11.9998L27.0646 19.8161L26.8198 20.275L12.0002 11.9998Z" fill="#6B9BFF"/>
<path fill-rule="evenodd" clip-rule="evenodd" d="M12.0002 11.9998L26.8687 20.1828L26.6124 20.6369L12.0002 11.9998Z" fill="#6A9AFF"/>
<path fill-rule="evenodd" clip-rule="evenodd" d="M12.0002 11.9998L26.6633 20.5457L26.3954 20.9921L12.0002 11.9998Z" fill="#6999FF"/>
<path fill-rule="evenodd" clip-rule="evenodd" d="M12.0002 11.9998L26.4492 20.9028L26.1708 21.3425L12.0002 11.9998Z" fill="#6899FF"/>
<path fill-rule="evenodd" clip-rule="evenodd" d="M12.0002 11.9998L26.2265 21.2551L25.9366 21.6881L12.0002 11.9998Z" fill="#6798FF"/>
<path fill-rule="evenodd" clip-rule="evenodd" d="M12.0002 11.9998L25.9951 21.6017L25.6956 22.027L12.0002 11.9998Z" fill="#6697FF"/>
<path fill-rule="evenodd" clip-rule="evenodd" d="M12.0002 11.9998L25.7551 21.9415L25.445 22.3601L12.0002 11.9998Z" fill="#6597FF"/>
<path fill-rule="evenodd" clip-rule="evenodd" d="M12.0002 11.9998L25.5074 22.2766L25.1868 22.6865L12.0002 11.9998Z" fill="#6496FF"/>
<path fill-rule="evenodd" clip-rule="evenodd" d="M12.0002 11.9998L25.2511 22.6049L24.9209 23.0071L12.0002 11.9998Z" fill="#6395FF"/>
<path fill-rule="evenodd" clip-rule="evenodd" d="M12.0002 11.9998L24.9862 22.9265L24.6463 23.321L12.0002 11.9998Z" fill="#6294FF"/>
<path fill-rule="evenodd" clip-rule="evenodd" d="M12.0002 11.9998L24.7145 23.2423L24.365 23.6282L12.0002 11.9998Z" fill="#6194FF"/>
<path fill-rule="evenodd" clip-rule="evenodd" d="M12.0002 11.9998L24.4351 23.5505L24.0761 23.9278L12.0002 11.9998Z" fill="#6093FF"/>
<path fill-rule="evenodd" clip-rule="evenodd" d="M12.0002 11.9998L24.1471 23.8519L23.7794 24.2206L12.0002 11.9998Z" fill="#5F92FF"/>
<path fill-rule="evenodd" clip-rule="evenodd" d="M12.0002 11.9998L23.8524 24.1466L23.4761 24.5057L12.0002 11.9998Z" fill="#5E92FF"/>
<path fill-rule="evenodd" clip-rule="evenodd" d="M12.0002 11.9998L23.551 24.4346L23.165 24.7841L12.0002 11.9998Z" fill="#5D91FF"/>
<path fill-rule="evenodd" clip-rule="evenodd" d="M12.0002 11.9998L23.2428 24.714L22.8482 25.0538L12.0002 11.9998Z" fill="#5C90FF"/>
<path fill-rule="evenodd" clip-rule="evenodd" d="M12.0002 11.9998L22.927 24.9857L22.5247 25.3159L12.0002 11.9998Z" fill="#5B90FF"/>
<path fill-rule="evenodd" clip-rule="evenodd" d="M12.0002 11.9998L22.6054 25.2506L22.1945 25.5703L12.0002 11.9998Z" fill="#5A8FFF"/>
<path fill-rule="evenodd" clip-rule="evenodd" d="M12.0002 11.9998L22.277 25.507L21.8585 25.817L12.0002 11.9998Z" fill="#598EFF"/>
<path fill-rule="evenodd" clip-rule="evenodd" d="M12.0002 11.9998L21.942 25.7546L21.5167 26.0542L12.0002 11.9998Z" fill="#588EFF"/>
<path fill-rule="evenodd" clip-rule="evenodd" d="M12.0002 11.9998L21.6022 25.9946L21.1682 26.2836L12.0002 11.9998Z" fill="#578DFF"/>
<path fill-rule="evenodd" clip-rule="evenodd" d="M12.0002 11.9998L21.2556 26.226L20.815 26.5044L12.0002 11.9998Z" fill="#568CFF"/>
<path fill-rule="evenodd" clip-rule="evenodd" d="M12.0002 11.9998L20.9033 26.4487L20.4569 26.7166L12.0002 11.9998Z" fill="#558CFF"/>
<path fill-rule="evenodd" clip-rule="evenodd" d="M12.0002 11.9998L20.5462 26.6628L20.093 26.9191L12.0002 11.9998Z" fill="#548BFF"/>
<path fill-rule="evenodd" clip-rule="evenodd" d="M12.0002 11.9998L20.1833 26.8682L19.7244 27.113L12.0002 11.9998Z" fill="#538AFF"/>
<path fill-rule="evenodd" clip-rule="evenodd" d="M12.0002 11.9998L19.8166 27.0641L19.351 27.2983L12.0002 11.9998Z" fill="#528AFF"/>
<path fill-rule="evenodd" clip-rule="evenodd" d="M12.0002 11.9998L19.4441 27.2522L18.9737 27.474L12.0002 11.9998Z" fill="#5189FF"/>
<path fill-rule="evenodd" clip-rule="evenodd" d="M12.0002 11.9998L19.0678 27.4298L18.5916 27.641L12.0002 11.9998Z" fill="#5088FF"/>
<path fill-rule="evenodd" clip-rule="evenodd" d="M12.0002 11.9998L18.6866 27.5988L18.2057 27.7975L12.0002 11.9998Z" fill="#4F88FF"/>
<path fill-rule="evenodd" clip-rule="evenodd" d="M12.0002 11.9998L18.3017 27.7582L17.8159 27.9454L12.0002 11.9998Z" fill="#4E87FF"/>
<path fill-rule="evenodd" clip-rule="evenodd" d="M12.0002 11.9998L17.9138 27.9079L17.4233 28.0836L12.0002 11.9998Z" fill="#4D86FF"/>
<path fill-rule="evenodd" clip-rule="evenodd" d="M12.0002 11.9998L17.5212 28.0481L17.0268 28.2113L12.0002 11.9998Z" fill="#4C86FF"/>
<path fill-rule="evenodd" clip-rule="evenodd" d="M12.0002 11.9998L17.1257 28.1786L16.6274 28.3303L12.0002 11.9998Z" fill="#4B85FF"/>
<path fill-rule="evenodd" clip-rule="evenodd" d="M12.0002 11.9998L16.7273 28.2996L16.2252 28.4388L12.0002 11.9998Z" fill="#4A84FF"/>
<path fill-rule="evenodd" clip-rule="evenodd" d="M12.0002 11.9998L16.326 28.411L15.8201 28.5377L12.0002 11.9998Z" fill="#4984FF"/>
<path fill-rule="evenodd" clip-rule="evenodd" d="M12.0002 11.9998L15.9218 28.5127L15.414 28.626L12.0002 11.9998Z" fill="#4883FF"/>
<path fill-rule="evenodd" clip-rule="evenodd" d="M12.0002 11.9998L15.5148 28.603L15.0041 28.7047L12.0002 11.9998Z" fill="#4782FF"/>
<path fill-rule="evenodd" clip-rule="evenodd" d="M12.0002 11.9998L15.1068 28.6846L14.5942 28.7738L12.0002 11.9998Z" fill="#4681FF"/>
<path fill-rule="evenodd" clip-rule="evenodd" d="M12.0002 11.9998L14.6959 28.7556L14.1814 28.8324L12.0002 11.9998Z" fill="#4581FF"/>
<path fill-rule="evenodd" clip-rule="evenodd" d="M12.0002 11.9998L14.2841 28.817L13.7676 28.8804L12.0002 11.9998Z" fill="#4480FF"/>
<path fill-rule="evenodd" clip-rule="evenodd" d="M12.0002 11.9998L13.8703 28.8679L13.3529 28.9188L12.0002 11.9998Z" fill="#437FFF"/>
<path fill-rule="evenodd" clip-rule="evenodd" d="M12.0002 11.9998L13.4566 28.9092L12.9372 28.9476L12.0002 11.9998Z" fill="#427FFF"/>
<path fill-rule="evenodd" clip-rule="evenodd" d="M12.0002 11.9998L13.0409 28.9399L12.5206 28.9649L12.0002 11.9998Z" fill="#417EFF"/>
<path fill-rule="evenodd" clip-rule="evenodd" d="M12.0002 11.9998L12.6252 28.9601L12.1039 28.9726L12.0002 11.9998Z" fill="#407DFF"/>
<path fill-rule="evenodd" clip-rule="evenodd" d="M12.0003 11.9998L12.2087 28.9697H11.6874L12.0003 11.9998Z" fill="#3F7DFF"/>
<path fill-rule="evenodd" clip-rule="evenodd" d="M12.0004 11.9998L11.792 28.9697L11.2717 28.9572L12.0004 11.9998Z" fill="#3E7CFF"/>
<path fill-rule="evenodd" clip-rule="evenodd" d="M12.0003 11.9998L11.3753 28.9601L10.855 28.9342L12.0003 11.9998Z" fill="#3D7BFF"/>
<path fill-rule="evenodd" clip-rule="evenodd" d="M12.0004 11.9998L10.9598 28.9399L10.4404 28.9015L12.0004 11.9998Z" fill="#3C7BFF"/>
<path fill-rule="evenodd" clip-rule="evenodd" d="M12.0004 11.9998L10.544 28.9092L10.0256 28.8583L12.0004 11.9998Z" fill="#3B7AFF"/>
<path fill-rule="evenodd" clip-rule="evenodd" d="M12.0002 11.9998L10.1292 28.8679L9.61267 28.8046L12.0002 11.9998Z" fill="#3A79FF"/>
<path fill-rule="evenodd" clip-rule="evenodd" d="M12.0003 11.9998L9.71645 28.817L9.20093 28.7402L12.0003 11.9998Z" fill="#3979FF"/>
<path fill-rule="evenodd" clip-rule="evenodd" d="M12.0002 11.9998L9.30353 28.7556L8.79089 28.6673L12.0002 11.9998Z" fill="#3878FF"/>
<path fill-rule="evenodd" clip-rule="evenodd" d="M12.0005 11.9998L8.8939 28.6846L8.38318 28.5828L12.0005 11.9998Z" fill="#3777FF"/>
<path fill-rule="evenodd" clip-rule="evenodd" d="M12.0003 11.9998L8.48573 28.603L7.97693 28.4897L12.0003 11.9998Z" fill="#3677FF"/>
<path fill-rule="evenodd" clip-rule="evenodd" d="M12.0002 11.9998L8.07857 28.5127L7.57361 28.386L12.0002 11.9998Z" fill="#3576FF"/>
<path fill-rule="evenodd" clip-rule="evenodd" d="M12.0002 11.9998L7.67444 28.411L7.17236 28.2727L12.0002 11.9998Z" fill="#3475FF"/>
<path fill-rule="evenodd" clip-rule="evenodd" d="M12.0004 11.9998L7.27339 28.2996L6.77515 28.1489L12.0004 11.9998Z" fill="#3375FF"/>
<path fill-rule="evenodd" clip-rule="evenodd" d="M12.0002 11.9998L6.87477 28.1786L6.38037 28.0154L12.0002 11.9998Z" fill="#3274FF"/>
<path fill-rule="evenodd" clip-rule="evenodd" d="M12.0003 11.9998L6.47933 28.0481L5.98877 27.8734L12.0003 11.9998Z" fill="#3173FF"/>
<path fill-rule="evenodd" clip-rule="evenodd" d="M12.0002 11.9998L6.08659 27.9079L5.60083 27.7207L12.0002 11.9998Z" fill="#3073FF"/>
<path fill-rule="evenodd" clip-rule="evenodd" d="M12.0002 11.9998L5.69776 27.7582L5.2168 27.5585L12.0002 11.9998Z" fill="#2F72FF"/>
<path fill-rule="evenodd" clip-rule="evenodd" d="M12.0002 11.9998L5.31285 27.5988L4.83765 27.3876L12.0002 11.9998Z" fill="#2E71FF"/>
<path fill-rule="evenodd" clip-rule="evenodd" d="M12.0002 11.9998L4.93268 27.4298L4.46228 27.2071L12.0002 11.9998Z" fill="#2D71FF"/>
<path fill-rule="evenodd" clip-rule="evenodd" d="M12.0003 11.9998L4.55642 27.2522L4.09082 27.018L12.0003 11.9998Z" fill="#2C70FF"/>
<path fill-rule="evenodd" clip-rule="evenodd" d="M12.0003 11.9998L4.18398 27.0641L3.7251 26.8193L12.0003 11.9998Z" fill="#2B6FFF"/>
<path fill-rule="evenodd" clip-rule="evenodd" d="M12.0003 11.9998L3.81724 26.8682L3.36316 26.6119L12.0003 11.9998Z" fill="#2A6EFF"/>
<path fill-rule="evenodd" clip-rule="evenodd" d="M12.0003 11.9998L3.45433 26.6628L3.00793 26.395L12.0003 11.9998Z" fill="#296EFF"/>
<path fill-rule="evenodd" clip-rule="evenodd" d="M12.0003 11.9998L3.09726 26.4487L2.65662 26.1703L12.0003 11.9998Z" fill="#286DFF"/>
<path fill-rule="evenodd" clip-rule="evenodd" d="M12.0002 11.9998L2.74485 26.226L2.31189 25.9361L12.0002 11.9998Z" fill="#276CFF"/>
<path fill-rule="evenodd" clip-rule="evenodd" d="M12.0002 11.9998L2.3983 25.9946L1.97302 25.6951L12.0002 11.9998Z" fill="#266CFF"/>
<path fill-rule="evenodd" clip-rule="evenodd" d="M12.0002 11.9998L2.05845 25.7546L1.63989 25.4446L12.0002 11.9998Z" fill="#256BFF"/>
<path fill-rule="evenodd" clip-rule="evenodd" d="M12.0003 11.9998L1.7235 25.507L1.31262 25.1863L12.0003 11.9998Z" fill="#246AFF"/>
<path fill-rule="evenodd" clip-rule="evenodd" d="M12.0003 11.9998L1.39516 25.2506L0.99292 24.9204L12.0003 11.9998Z" fill="#236AFF"/>
<path fill-rule="evenodd" clip-rule="evenodd" d="M12.0002 11.9998L1.07352 24.9857L0.678955 24.6458L12.0002 11.9998Z" fill="#2269FF"/>
<path fill-rule="evenodd" clip-rule="evenodd" d="M12.0003 11.9998L0.757746 24.714L0.371826 24.3646L12.0003 11.9998Z" fill="#2168FF"/>
<path fill-rule="evenodd" clip-rule="evenodd" d="M12.0004 11.9998L0.449668 24.4346L0.0723877 24.0756L12.0004 11.9998Z" fill="#2068FF"/>
<path fill-rule="evenodd" clip-rule="evenodd" d="M12.0002 11.9998L0.148059 24.1466L-0.220581 23.779L12.0002 11.9998Z" fill="#1F67FF"/>
<path fill-rule="evenodd" clip-rule="evenodd" d="M12.0004 11.9998L-0.147413 23.8519L-0.505493 23.4756L12.0004 11.9998Z" fill="#1E66FF"/>
<path fill-rule="evenodd" clip-rule="evenodd" d="M12.0001 11.9998L-0.43474 23.5505L-0.78418 23.1646L12.0001 11.9998Z" fill="#1D66FF"/>
<path fill-rule="evenodd" clip-rule="evenodd" d="M12.0002 11.9998L-0.713993 23.2423L-1.05383 22.8478L12.0002 11.9998Z" fill="#1C65FF"/>
<path fill-rule="evenodd" clip-rule="evenodd" d="M12.0002 11.9998L-0.985678 22.9265L-1.31592 22.5242L12.0002 11.9998Z" fill="#1B64FF"/>
<path fill-rule="evenodd" clip-rule="evenodd" d="M12.0002 11.9998L-1.25063 22.6049L-1.57031 22.194L12.0002 11.9998Z" fill="#1A64FF"/>
<path fill-rule="evenodd" clip-rule="evenodd" d="M12.0003 11.9998L-1.50694 22.2766L-1.81702 21.858L12.0003 11.9998Z" fill="#1963FF"/>
<path fill-rule="evenodd" clip-rule="evenodd" d="M12.0002 11.9998L-1.75468 21.9415L-2.0542 21.5162L12.0002 11.9998Z" fill="#1862FF"/>
<path fill-rule="evenodd" clip-rule="evenodd" d="M12.0003 11.9998L-1.99461 21.6017L-2.28357 21.1678L12.0003 11.9998Z" fill="#1762FF"/>
<path fill-rule="evenodd" clip-rule="evenodd" d="M12.0002 11.9998L-2.22599 21.2551L-2.50439 20.8145L12.0002 11.9998Z" fill="#1661FF"/>
<path fill-rule="evenodd" clip-rule="evenodd" d="M12.0001 11.9998L-2.44883 20.9028L-2.71667 20.4564L12.0001 11.9998Z" fill="#1560FF"/>
<path fill-rule="evenodd" clip-rule="evenodd" d="M12.0003 11.9998L-2.66275 20.5457L-2.91907 20.0926L12.0003 11.9998Z" fill="#1460FF"/>
<path fill-rule="evenodd" clip-rule="evenodd" d="M12.0003 11.9998L-2.86813 20.1828L-3.11389 19.7239L12.0003 11.9998Z" fill="#135FFF"/>
<path fill-rule="evenodd" clip-rule="evenodd" d="M12.0002 11.9998L-3.06506 19.8161L-3.29834 19.3505L12.0002 11.9998Z" fill="#125EFF"/>
<path fill-rule="evenodd" clip-rule="evenodd" d="M12.0002 11.9998L-3.25224 19.4436L-3.474 18.9732L12.0002 11.9998Z" fill="#115EFF"/>
<path fill-rule="evenodd" clip-rule="evenodd" d="M12.0002 11.9998L-3.42991 19.0673L-3.64111 18.5911L12.0002 11.9998Z" fill="#105DFF"/>
<path fill-rule="evenodd" clip-rule="evenodd" d="M12.0004 11.9998L-3.59866 18.6862L-3.79834 18.2052L12.0004 11.9998Z" fill="#0F5CFF"/>
<path fill-rule="evenodd" clip-rule="evenodd" d="M12.0002 11.9998L-3.75823 18.3012L-3.94543 17.8154L12.0002 11.9998Z" fill="#0E5BFF"/>
<path fill-rule="evenodd" clip-rule="evenodd" d="M12.0002 11.9998L-3.90794 17.9134L-4.08362 17.4228L12.0002 11.9998Z" fill="#0D5BFF"/>
<path fill-rule="evenodd" clip-rule="evenodd" d="M12.0003 11.9998L-4.04894 17.5207L-4.21118 17.0263L12.0003 11.9998Z" fill="#0C5AFF"/>
<path fill-rule="evenodd" clip-rule="evenodd" d="M12.0002 11.9998L-4.1796 17.1252L-4.33032 16.627L12.0002 11.9998Z" fill="#0B59FF"/>
<path fill-rule="evenodd" clip-rule="evenodd" d="M12.0003 11.9998L-4.30048 16.7268L-4.43872 16.2247L12.0003 11.9998Z" fill="#0A59FF"/>
<path fill-rule="evenodd" clip-rule="evenodd" d="M12.0003 11.9998L-4.41088 16.3255L-4.5376 15.8196L12.0003 11.9998Z" fill="#0958FF"/>
<path fill-rule="evenodd" clip-rule="evenodd" d="M12.0003 11.9998L-4.5127 15.9214L-4.62598 15.4135L12.0003 11.9998Z" fill="#0857FF"/>
<path fill-rule="evenodd" clip-rule="evenodd" d="M12.0003 11.9998L-4.60391 15.5143L-4.70471 15.0036L12.0003 11.9998Z" fill="#0757FF"/>
<path fill-rule="evenodd" clip-rule="evenodd" d="M12.0002 11.9998L-4.68465 15.1063L-4.77393 14.5937L12.0002 11.9998Z" fill="#0656FF"/>
<path fill-rule="evenodd" clip-rule="evenodd" d="M12.0002 11.9998L-4.7556 14.6954L-4.8324 14.1809L12.0002 11.9998Z" fill="#0555FF"/>
<path fill-rule="evenodd" clip-rule="evenodd" d="M12.0003 11.9998L-4.81701 14.2836L-4.88037 13.7671L12.0003 11.9998Z" fill="#0455FF"/>
<path fill-rule="evenodd" clip-rule="evenodd" d="M12.0002 11.9998L-4.86794 13.8698L-4.91882 13.3524L12.0002 11.9998Z" fill="#0354FF"/>
<path fill-rule="evenodd" clip-rule="evenodd" d="M12.0002 11.9998L-4.90923 13.4561L-4.94763 12.9367L12.0002 11.9998Z" fill="#0253FF"/>
<path fill-rule="evenodd" clip-rule="evenodd" d="M12.0003 11.9998L-4.93988 13.0404L-4.96484 12.5201L12.0003 11.9998Z" fill="#0153FF"/>
<path fill-rule="evenodd" clip-rule="evenodd" d="M12.0004 11.9998L-4.95993 12.6247L-4.97241 12.1034L12.0004 11.9998Z" fill="#0052FF"/>
<path fill-rule="evenodd" clip-rule="evenodd" d="M12.0002 12.0001L-4.9707 12.2084V11.7917L12.0002 12.0001Z" fill="white"/>
</g>
</g>
<defs>
<clipPath id="clip0_110_132">
<rect width="63" height="24" fill="white"/>
</clipPath>
</defs>
  </symbol>
  <symbol fill="none" viewBox="0 0 94 24" id="blast">
    <g clip-path="url(#clip0_110_150)">
      <path d="M94.3074 9.01461L91.7944 7.16479H82.4963L81.8914 9.01461H86.7963L84.1624 16.9999H86.1914L88.8161 9.01461H94.3074Z" fill="black"></path>
      <path d="M59.6093 7.16479L57.0869 9.01461H66.5992L67.2135 7.16479H59.6093Z" fill="black"></path>
      <path d="M57.087 9.01465L54.4531 17H56.4821L58.7252 10.196L57.087 9.01465Z" fill="black"></path>
      <path d="M67.2136 7.16479L64.4679 15.4889L65.4266 15.4157L61.4896 12.4761H58.5669L64.4026 16.9999H65.9942L68.8517 8.34611L67.2136 7.16479Z" fill="black"></path>
      <path d="M42.5303 11.9908L44.9223 10.8278L45.7413 8.34611L44.1032 7.16479H33.1577L30.6261 9.01461H43.4889L42.8095 11.1025H37.6532L37.1506 12.6135H42.3069L40.8642 16.9999L43.2749 15.8186L44.1405 13.1904L42.521 12.0183L42.5303 11.9908Z" fill="black"></path>
      <path d="M34.2653 15.1136L35.7544 10.5532L34.0977 9.33521L31.6219 17H40.8642L41.4785 15.1136H34.2653Z" fill="black"></path>
      <path d="M48.8499 8.18132L47.2118 7L44.5592 15.0311L44.3265 15.7362L46.067 17H53.42L54.0434 15.1135H46.5603L48.8499 8.18132Z" fill="black"></path>
      <path d="M71.1227 11.1483L71.4484 10.1868L69.8196 9.01465L68.889 11.8168L70.5084 12.9798V12.989H77.7682L77.0702 15.1135H67.8279L67.2136 17H76.4465L78.8664 15.8187L80.0579 12.2106L78.5592 11.13L71.1227 11.1483Z" fill="black"></path>
      <path d="M72.3326 7.16479L69.8196 9.01461H80.8862L81.5005 7.16479H72.3326Z" fill="black"></path>
      <circle cx="12" cy="12" r="12" fill="black"></circle>
      <path d="M16.4427 11.9086L18.8758 10.6962L19.7145 8.12184L18.0371 6.90112H6.86789L4.28528 8.8194H17.4142L16.7167 10.9785H11.4518L10.9453 12.5563H16.2101L14.732 17.0987L17.1983 15.878L18.0786 13.1542L16.426 11.9418L16.4427 11.9086Z" fill="#FCFC03"></path>
      <path d="M7.99709 15.1472L9.51676 10.4139L7.831 9.15161L5.29822 17.0987H14.7318L15.3629 15.1472H7.99709Z" fill="#FCFC03"></path>
    </g>
    <defs>
      <clipPath id="clip0_110_150">
        <rect width="94" height="24" fill="white"></rect>
      </clipPath>
    </defs>
  </symbol>
  <symbol fill="none" viewBox="0 0 106 24" id="bnb">
    <g clip-path="url(#clip0_108_73)">
      <path d="M4.00182 3.70114L10.3982 0L16.7945 3.70114L14.3945 5.00228L10.3982 2.70068L6.29795 5.00228L4.00182 3.70114ZM16.6961 8.29886L14.3945 6.99772L10.3982 9.29932L6.29795 6.99772L3.99636 8.29886V10.9995L7.99818 13.3011V18.0027L10.2998 19.4023L12.6014 18.0027V13.405L16.6032 11.1034V8.30433H16.6961V8.29886ZM16.6961 15.7011V13.0005L14.3945 14.4V16.9968L16.6961 15.7011ZM18.3964 16.5977L14.4 18.8993V21.6L20.8018 17.8989V10.5021L18.4018 12L18.3964 16.5977ZM16.0948 6.00273L18.3964 7.40228V10.103L20.698 8.70342V6.00273L18.3964 4.60319L16.0948 6.00273ZM7.99818 19.8998V22.6005L10.2998 24L12.6014 22.6005V19.8998L10.2998 21.2993L7.99818 19.8998ZM3.99636 15.7011L6.29795 17.0023V14.3016L3.99636 12.9021V15.7011ZM7.99818 6.00273L10.2998 7.40228L12.6998 6.00273L10.3982 4.60319L7.99818 6.00273ZM2.30159 7.40228L4.70159 6.00273L2.30159 4.60319L0 6.00273V8.70342L2.30159 10.103V7.40228ZM2.30159 12L0 10.6005V17.9973L6.40182 21.6984V18.9977L2.4 16.6961V11.9945L2.30159 12Z" fill="#F0B90B"></path>
      <path d="M36.0271 14.3358C36.0271 13.041 35.3069 12.3917 34.2286 11.9588C34.9488 11.6006 35.5234 10.9513 35.5234 9.87296C35.5234 8.36173 34.2994 7.35425 32.3553 7.35425H27.8925V17.0001H32.497C34.5867 16.9253 36.0271 16.0635 36.0271 14.3358ZM33.3628 10.2311C33.3628 10.9513 32.7882 11.2386 31.8516 11.2386H29.9074V9.15276H31.9932C32.9338 9.15276 33.3628 9.51483 33.3628 10.2311ZM33.9413 14.0485C33.9413 14.7687 33.3667 15.1268 32.4301 15.1268H29.9114V13.041H32.3592C33.4376 12.9662 33.9413 13.3991 33.9413 14.0485Z" fill="#F0B90B"></path>
      <path d="M46.464 16.9253V7.35425H44.3743V13.2575L39.8406 7.35425H37.9004V17.0001H39.9862V10.8804L44.6655 17.0001H46.464V16.9253Z" fill="#F0B90B"></path>
      <path d="M57.0426 14.3358C57.0426 13.041 56.3224 12.3917 55.2441 11.9588C55.9643 11.6006 56.5389 10.9513 56.5389 9.87296C56.5389 8.36173 55.3149 7.35425 53.3708 7.35425H48.908V17.0001H53.5125C55.6022 16.9253 57.0426 16.0635 57.0426 14.3358ZM54.4531 10.2311C54.4531 10.9513 53.8785 11.2386 52.9418 11.2386H50.9977V9.15276H53.0835C53.9493 9.15276 54.4531 9.51483 54.4531 10.2311ZM54.9568 14.0485C54.9568 14.7687 54.3822 15.1268 53.4456 15.1268H50.9269V13.041H53.3747C54.4531 12.9662 54.9568 13.3991 54.9568 14.0485Z" fill="#F0B90B"></path>
      <path d="M69.7818 15.2724L68.7034 14.1941C67.9124 14.9851 67.1214 15.418 65.9683 15.418C64.095 15.418 62.8002 13.9068 62.8002 11.9626C62.8002 10.0894 64.1698 8.58206 65.9683 8.58206C67.0466 8.58206 67.9124 9.08581 68.6326 9.806L69.7109 8.51122C68.7743 7.64935 67.696 7 65.9683 7C63.0875 7 61.0017 9.23142 61.0017 11.9666C61.0017 14.7726 63.0875 16.9332 65.8975 16.9332C67.696 16.9253 68.7743 16.2799 69.7818 15.2724Z" fill="#F0B90B"></path>
      <path d="M77.9873 12.7536V16.7836H79.6441V7.1377H77.9873V11.1676H73.3828V7.1377H71.726V16.7836H73.3828V12.7536H77.9873Z" fill="#F0B90B"></path>
      <path d="M87.2711 7.1377H85.689L81.4426 16.8544H83.1703L84.1778 14.5521H88.7115L89.7189 16.8544H91.5175L87.2711 7.1377ZM88.1369 12.9661H84.8271L86.484 9.15266L88.1369 12.9661Z" fill="#F0B90B"></path>
      <path d="M93.3907 7.1377V16.7836H95.0436V7.1377H93.3907Z" fill="#F0B90B"></path>
      <path d="M104.473 13.832L99.29 7.20853H97.7788V16.8544H99.4357V9.94369L104.76 16.7836H106.201V7.1377H104.544V13.832H104.473Z" fill="#F0B90B"></path>
    </g>
    <defs>
      <clipPath id="clip0_108_73">
        <rect width="106" height="24" fill="white"></rect>
      </clipPath>
    </defs>
  </symbol>
  <symbol fill="none" viewBox="0 0 96 24" id="ethereum">
    <g clip-path="url(#clip0_110_214)">
      <path d="M27.2178 13.8095C27.2164 13.893 27.1819 13.9725 27.122 14.0306C27.062 14.0888 26.9814 14.1209 26.8978 14.12H21.0044C21.1556 15.5745 22.2489 16.9049 23.7956 16.9049C24.8533 16.9049 25.6356 16.5058 26.2222 15.6632C26.2495 15.6189 26.2873 15.582 26.3323 15.5557C26.3772 15.5295 26.4279 15.5146 26.48 15.5124C26.5188 15.5113 26.5575 15.5181 26.5935 15.5325C26.6296 15.5468 26.6624 15.5683 26.6899 15.5957C26.7173 15.6231 26.7389 15.6558 26.7533 15.6918C26.7676 15.7278 26.7744 15.7664 26.7733 15.8051C26.7735 15.8586 26.7581 15.911 26.7289 15.9559C26.1333 16.9847 24.9511 17.4902 23.7956 17.4902C21.8133 17.4902 20.3911 15.7164 20.3911 13.8273C20.3911 11.9381 21.8044 10.1643 23.7956 10.1643C25.7867 10.1643 27.2089 11.9204 27.2178 13.8095ZM26.5867 13.5346C26.4622 12.0801 25.3422 10.7497 23.7956 10.7497C22.2489 10.7497 21.1556 12.0801 21.0044 13.5346H26.5867Z" fill="#3B3B3B"></path>
      <path d="M34.3822 10.306C34.4593 10.3083 34.5326 10.3398 34.5872 10.3942C34.6417 10.4486 34.6733 10.5218 34.6756 10.5987C34.6767 10.6375 34.6698 10.676 34.6555 10.712C34.6411 10.748 34.6196 10.7807 34.5921 10.8081C34.5647 10.8355 34.5319 10.857 34.4958 10.8714C34.4597 10.8857 34.4211 10.8925 34.3822 10.8914H32.8V17.091C32.7993 17.1684 32.7682 17.2424 32.7133 17.2971C32.6585 17.3519 32.5843 17.3829 32.5067 17.3836C32.4296 17.3814 32.3563 17.3499 32.3017 17.2954C32.2472 17.241 32.2156 17.1679 32.2134 17.091V10.8914H30.6933C30.6545 10.8925 30.6159 10.8857 30.5798 10.8714C30.5437 10.857 30.5109 10.8355 30.4835 10.8081C30.456 10.7807 30.4344 10.748 30.4201 10.712C30.4057 10.676 30.3989 10.6375 30.4 10.5987C30.4007 10.5213 30.4318 10.4473 30.4867 10.3925C30.5416 10.3378 30.6158 10.3067 30.6933 10.306H32.2134V8.04439C32.2135 7.96945 32.2404 7.89702 32.2893 7.84012C32.3382 7.78322 32.4058 7.74558 32.48 7.73397C32.5215 7.72847 32.5637 7.73198 32.6037 7.74424C32.6437 7.7565 32.6805 7.77724 32.7118 7.80503C32.743 7.83281 32.7678 7.867 32.7846 7.90525C32.8014 7.9435 32.8097 7.98491 32.8089 8.02665V10.306H34.3822Z" fill="#3B3B3B"></path>
      <path d="M44.0267 13.3037V17.0554C44.0245 17.1323 43.9928 17.2055 43.9383 17.2599C43.8838 17.3143 43.8105 17.3459 43.7334 17.3481C43.6945 17.3492 43.6559 17.3424 43.6198 17.3281C43.5837 17.3137 43.551 17.2922 43.5235 17.2648C43.496 17.2374 43.4745 17.2047 43.4601 17.1687C43.4458 17.1327 43.4389 17.0941 43.44 17.0554V13.3037C43.44 12.0355 42.72 10.776 41.3067 10.776C39.4934 10.776 38.7111 12.3547 38.8178 13.9778C38.8178 14.0222 38.8356 14.2084 38.8356 14.235V17.0465C38.8354 17.1215 38.8085 17.1939 38.7596 17.2508C38.7107 17.3077 38.6431 17.3454 38.5689 17.357C38.5274 17.3625 38.4853 17.359 38.4453 17.3467C38.4053 17.3344 38.3684 17.3137 38.3372 17.2859C38.306 17.2581 38.2811 17.2239 38.2643 17.1857C38.2476 17.1474 38.2393 17.106 38.24 17.0643V4.72725C38.2407 4.64984 38.2719 4.5758 38.3267 4.52106C38.3816 4.46632 38.4558 4.43526 38.5334 4.43457C38.6105 4.4368 38.6838 4.46835 38.7383 4.52277C38.7928 4.57718 38.8245 4.65033 38.8267 4.72725V11.6984C39.3334 10.7938 40.24 10.1818 41.2978 10.1818C43.04 10.1818 44.0267 11.6984 44.0267 13.3037Z" fill="#3B3B3B"></path>
      <path d="M54.6133 13.8095C54.6119 13.893 54.5774 13.9725 54.5175 14.0306C54.4575 14.0888 54.3769 14.1209 54.2933 14.12H48.4C48.5511 15.5745 49.6444 16.9049 51.1911 16.9049C52.2488 16.9049 53.0311 16.5058 53.6177 15.6632C53.645 15.6189 53.6828 15.582 53.7278 15.5557C53.7727 15.5295 53.8235 15.5146 53.8755 15.5124C53.9143 15.5113 53.953 15.5181 53.9891 15.5325C54.0251 15.5468 54.0579 15.5683 54.0854 15.5957C54.1129 15.6231 54.1344 15.6558 54.1488 15.6918C54.1631 15.7278 54.17 15.7664 54.1688 15.8051C54.1691 15.8586 54.1536 15.911 54.1244 15.9559C53.5288 16.9847 52.3466 17.4902 51.1911 17.4902C49.2088 17.4902 47.7866 15.7164 47.7866 13.8273C47.7866 11.9381 49.2 10.1643 51.1911 10.1643C53.1644 10.1643 54.6044 11.9204 54.6133 13.8095ZM53.9733 13.5346C53.8488 12.0801 52.7288 10.7497 51.1822 10.7497C49.6355 10.7497 48.5422 12.0801 48.3911 13.5346H53.9733Z" fill="#3B3B3B"></path>
      <path d="M61.8578 10.5811C61.8634 10.6598 61.8376 10.7376 61.786 10.7974C61.7344 10.8573 61.6611 10.8943 61.5822 10.9004C59.8489 11.1576 59.0667 12.5678 59.0667 14.2086V17.0201C59.0665 17.0951 59.0396 17.1675 58.9907 17.2244C58.9418 17.2813 58.8742 17.3189 58.8 17.3305C58.7585 17.336 58.7164 17.3325 58.6764 17.3203C58.6364 17.308 58.5995 17.2873 58.5683 17.2595C58.537 17.2317 58.5122 17.1975 58.4954 17.1593C58.4787 17.121 58.4704 17.0796 58.4711 17.0379V10.6254C58.4713 10.5505 58.4982 10.4781 58.5471 10.4212C58.596 10.3643 58.6636 10.3266 58.7378 10.315C58.7793 10.3095 58.8214 10.313 58.8614 10.3253C58.9014 10.3376 58.9383 10.3583 58.9695 10.3861C59.0008 10.4139 59.0256 10.4481 59.0424 10.4863C59.0591 10.5246 59.0674 10.566 59.0667 10.6077V11.9115C59.5556 11.0866 60.5244 10.3062 61.5378 10.3062C61.6889 10.3062 61.8578 10.4126 61.8578 10.5811Z" fill="#3B3B3B"></path>
      <path d="M71.5466 13.8095C71.5452 13.893 71.5108 13.9725 71.4508 14.0306C71.3909 14.0888 71.3103 14.1209 71.2266 14.12H65.3333C65.4844 15.5745 66.5778 16.9049 68.1244 16.9049C69.1822 16.9049 69.9644 16.5058 70.5511 15.6632C70.5784 15.6189 70.6162 15.582 70.6611 15.5557C70.7061 15.5295 70.7568 15.5146 70.8089 15.5124C70.8477 15.5113 70.8863 15.5181 70.9224 15.5325C70.9585 15.5468 70.9913 15.5683 71.0187 15.5957C71.0462 15.6231 71.0678 15.6558 71.0821 15.6918C71.0965 15.7278 71.1033 15.7664 71.1022 15.8051C71.1024 15.8586 71.087 15.911 71.0578 15.9559C70.4622 16.9847 69.28 17.4902 68.1244 17.4902C66.1422 17.4902 64.72 15.7164 64.72 13.8273C64.72 11.9381 66.1333 10.1643 68.1244 10.1643C70.1155 10.1643 71.5378 11.9204 71.5466 13.8095ZM70.9155 13.5346C70.7911 12.0801 69.6711 10.7497 68.1244 10.7497C66.5778 10.7497 65.4844 12.0801 65.3333 13.5346H70.9155Z" fill="#3B3B3B"></path>
      <path d="M81.0756 10.6521V17.0911C81.0733 17.168 81.0417 17.2412 80.9872 17.2956C80.9326 17.35 80.8593 17.3815 80.7822 17.3838C80.7434 17.3849 80.7048 17.3781 80.6687 17.3637C80.6326 17.3494 80.5998 17.3279 80.5723 17.3005C80.5449 17.2731 80.5233 17.2404 80.509 17.2044C80.4946 17.1684 80.4878 17.1298 80.4889 17.0911V15.8671C80 16.8339 79.1378 17.5345 78.0356 17.5345C76.2844 17.5345 75.3156 16.0179 75.3156 14.4126V10.6432C75.3162 10.5658 75.3474 10.4917 75.4022 10.437C75.4571 10.3823 75.5313 10.3512 75.6089 10.3505C75.686 10.3527 75.7593 10.3843 75.8138 10.4387C75.8684 10.4931 75.9 10.5663 75.9022 10.6432V14.4126C75.9022 15.6809 76.6222 16.9403 78.0356 16.9403C80.0178 16.9403 80.4889 15.0866 80.4889 13.0379V10.6343C80.4895 10.5869 80.5016 10.5403 80.524 10.4984C80.5464 10.4566 80.5785 10.4207 80.6177 10.3937C80.6569 10.3668 80.7019 10.3497 80.7491 10.3437C80.7963 10.3377 80.8442 10.3431 80.8889 10.3594C80.9448 10.3853 80.992 10.4266 81.0251 10.4785C81.0582 10.5303 81.0757 10.5906 81.0756 10.6521Z" fill="#3B3B3B"></path>
      <path d="M96 13.2772V17.0466C95.9977 17.1235 95.9661 17.1967 95.9116 17.2511C95.857 17.3055 95.7837 17.3371 95.7066 17.3393C95.6678 17.3404 95.6292 17.3336 95.5931 17.3193C95.557 17.305 95.5242 17.2834 95.4968 17.256C95.4693 17.2286 95.4477 17.1959 95.4334 17.1599C95.419 17.1239 95.4122 17.0854 95.4133 17.0466V13.2772C95.4133 12.0089 94.6933 10.7673 93.28 10.7673C91.5022 10.7673 90.8266 12.6653 90.8266 14.1375V17.0466C90.8244 17.1235 90.7928 17.1967 90.7382 17.2511C90.6837 17.3055 90.6104 17.3371 90.5333 17.3393C90.4945 17.3404 90.4558 17.3336 90.4197 17.3193C90.3837 17.305 90.3509 17.2834 90.3234 17.256C90.296 17.2286 90.2744 17.1959 90.26 17.1599C90.2457 17.1239 90.2389 17.0854 90.24 17.0466V13.2772C90.24 12.0089 89.52 10.7673 88.1066 10.7673C86.3111 10.7673 85.5733 12.1774 85.6355 14.0577C85.6355 14.1021 85.6533 14.1819 85.6355 14.2085V17.0378C85.6354 17.1127 85.6084 17.1851 85.5595 17.242C85.5107 17.2989 85.4431 17.3366 85.3689 17.3482C85.3274 17.3537 85.2852 17.3502 85.2452 17.3379C85.2052 17.3256 85.1683 17.3049 85.1371 17.2771C85.1059 17.2493 85.081 17.2152 85.0643 17.1769C85.0475 17.1387 85.0392 17.0972 85.04 17.0555V10.6253C85.0401 10.5504 85.067 10.478 85.1159 10.4211C85.1648 10.3642 85.2324 10.3265 85.3066 10.3149C85.3481 10.3094 85.3903 10.3129 85.4303 10.3252C85.4703 10.3375 85.5071 10.3582 85.5384 10.386C85.5696 10.4138 85.5944 10.448 85.6112 10.4862C85.628 10.5245 85.6363 10.5659 85.6355 10.6076V11.6808C86.1422 10.7761 87.0489 10.1819 88.1066 10.1819C89.3066 10.1819 90.24 10.9446 90.6222 12.0533C91.1111 10.9535 92.0622 10.1819 93.28 10.1819C95.0133 10.1819 96 11.6808 96 13.2772Z" fill="#3B3B3B"></path>
      <path opacity="0.6" d="M7.37778 8.87817L0 12.2219L7.37778 16.5766L14.7644 12.2219L7.37778 8.87817Z" fill="black"></path>
      <path opacity="0.45" d="M0 12.2217L7.37778 16.5765V0L0 12.2217Z" fill="black"></path>
      <path opacity="0.8" d="M7.37781 0V16.5765L14.7645 12.2217L7.37781 0Z" fill="black"></path>
      <path opacity="0.45" d="M0 13.623L7.37778 24V17.9689L0 13.623Z" fill="black"></path>
      <path opacity="0.8" d="M7.37781 17.9689V24L14.7645 13.623L7.37781 17.9689Z" fill="black"></path>
    </g>
    <defs>
      <clipPath id="clip0_110_214">
        <rect width="96" height="24" fill="white"></rect>
      </clipPath>
    </defs>
  </symbol>
  <symbol fill="none" viewBox="0 0 74 25" id="linea">
    <path d="M42.4723 17.3111H40.495V7.68896H42.4723V17.3111Z" fill="#121212"></path>
    <path d="M49.6172 7.5C50.7086 7.5 51.6004 7.88283 52.2913 8.64823C52.9813 9.41376 53.3272 10.387 53.3272 11.567V17.3101H51.3498V11.8682C51.3498 11.1276 51.1113 10.5152 50.6341 10.0321C50.1569 9.54894 49.5675 9.3074 48.8646 9.3074C48.0733 9.3074 47.427 9.54894 46.925 10.0321C46.423 10.5152 46.1715 11.1276 46.1715 11.8682V17.3101H44.1942V7.68891H46.1715V10.1743C46.4349 9.34611 46.8713 8.69305 47.4808 8.21583C48.0891 7.73861 48.8019 7.5 49.6181 7.5H49.6172Z" fill="#121212"></path>
    <path d="M59.4918 7.5C61.0356 7.5 62.2912 8.05281 63.2575 9.1572C64.2238 10.2627 64.6196 11.5989 64.4436 13.1685H56.4786C56.6168 13.947 56.9746 14.5782 57.5522 15.0614C58.1298 15.5445 58.8258 15.7861 59.642 15.7861C60.2693 15.7861 60.8309 15.632 61.327 15.3248C61.823 15.0177 62.2088 14.6 62.4851 14.0723L64.1423 14.8069C63.7158 15.6231 63.1064 16.2752 62.3161 16.7654C61.5258 17.2554 60.6152 17.5 59.5853 17.5C58.1418 17.5 56.9299 17.0228 55.9507 16.0694C54.9715 15.1161 54.4814 13.929 54.4814 12.5104C54.4814 11.0918 54.9616 9.90283 55.9219 8.94155C56.8822 7.98125 58.0712 7.5011 59.4908 7.5011L59.4918 7.5ZM59.4918 9.21399C58.7631 9.21399 58.1329 9.4366 57.599 9.88292C57.0651 10.3284 56.7103 10.9089 56.5353 11.6246H62.4484C62.2852 10.9089 61.9364 10.3284 61.4035 9.88292C60.8697 9.43758 60.2324 9.21399 59.4918 9.21399Z" fill="#121212"></path>
    <path d="M69.9102 7.5C71.0654 7.5 72.0067 7.80125 72.7344 8.40376C73.4622 9.00615 73.827 9.87303 73.827 11.0023V17.3111H71.8497V14.7502C71.2592 16.5834 70.0732 17.5 68.2907 17.5C67.4615 17.5 66.7717 17.2525 66.2189 16.7563C65.6662 16.2603 65.3909 15.6111 65.3909 14.8079C65.3909 13.8664 65.7229 13.1596 66.3889 12.6893C67.0541 12.2192 67.902 11.9269 68.9309 11.8135L70.7949 11.6246C71.4978 11.5621 71.8497 11.2479 71.8497 10.6833C71.8497 10.219 71.6707 9.84812 71.3129 9.57276C70.955 9.29641 70.4878 9.1583 69.9102 9.1583C69.3326 9.1583 68.8205 9.30936 68.4129 9.61061C68.0054 9.91174 67.745 10.3512 67.6317 10.9288L65.6732 10.4576C65.8492 9.55395 66.3193 8.83519 67.0858 8.30131C67.8513 7.76853 68.7927 7.5011 69.9102 7.5011V7.5ZM68.9309 15.8985C69.7471 15.8985 70.437 15.6251 71.0017 15.0792C71.5664 14.5335 71.8487 13.8963 71.8487 13.1675V12.6407C71.6985 12.8922 71.3338 13.0482 70.7562 13.1109L68.93 13.3365C68.4527 13.4002 68.073 13.5403 67.7906 13.76C67.5083 13.9797 67.3672 14.278 67.3672 14.6548C67.3672 15.0316 67.5083 15.3327 67.7906 15.5584C68.073 15.7841 68.4527 15.8974 68.93 15.8974L68.9309 15.8985Z" fill="#121212"></path>
    <path d="M39.1331 17.3111H30V7.68896H32.0896V15.4472H39.1331V17.3111Z" fill="#121212"></path>
    <circle cx="12" cy="12.5" r="12" fill="black"></circle>
    <path d="M15.546 10.5206C16.5535 10.5206 17.3702 9.70387 17.3702 8.69635C17.3702 7.68883 16.5535 6.87207 15.546 6.87207C14.5384 6.87207 13.7217 7.68883 13.7217 8.69635C13.7217 9.70387 14.5384 10.5206 15.546 10.5206Z" fill="white"></path>
    <path d="M8.74498 16.2795L15.6025 16.2804C15.6145 16.2804 15.626 16.2851 15.6345 16.2936C15.643 16.3021 15.6478 16.3136 15.6478 16.3256L15.6487 18.0829C15.6487 18.0949 15.6439 18.1064 15.6354 18.1148C15.6269 18.1233 15.6154 18.1281 15.6034 18.1281H6.67526C6.66325 18.1281 6.65176 18.1233 6.64328 18.1148C6.63479 18.1064 6.63 18.0949 6.63 18.0829L6.63175 8.66733C6.63175 8.65532 6.63653 8.64379 6.64502 8.6353C6.6535 8.62681 6.66499 8.62207 6.677 8.62207L8.65272 8.62294C8.66473 8.62294 8.67622 8.62768 8.6847 8.63617C8.69319 8.64466 8.69798 8.65619 8.69798 8.6682L8.69972 16.2342C8.69972 16.2462 8.7045 16.2577 8.71299 16.2662C8.72148 16.2747 8.73296 16.2795 8.74498 16.2795Z" fill="white"></path>
  </symbol>

  <symbol fill="none" viewBox="0 0 102 24" id="op-mainnet">
  <g clip-path="url(#clip0_110_140)">
<path d="M35.1187 17C34.2703 17 33.5333 16.85 32.9079 16.5501C32.2909 16.2502 31.7768 15.8603 31.3655 15.3805C30.9626 14.892 30.6585 14.3693 30.4529 13.8123C30.2556 13.2468 30.1572 12.7027 30.1572 12.1799V11.8972C30.1572 11.323 30.2601 10.7532 30.4657 10.1877C30.6714 9.61353 30.9798 9.09512 31.3912 8.63239C31.8109 8.16967 32.3295 7.80119 32.9464 7.52699C33.5634 7.24422 34.2874 7.10283 35.1187 7.10283C35.9413 7.10283 36.6611 7.24422 37.278 7.52699C37.895 7.80119 38.4092 8.16967 38.8205 8.63239C39.2402 9.09512 39.5531 9.61353 39.7588 10.1877C39.9644 10.7532 40.0673 11.323 40.0673 11.8972V12.1799C40.0673 12.7027 39.9644 13.2468 39.7588 13.8123C39.5616 14.3693 39.2575 14.892 38.8462 15.3805C38.4433 15.8603 37.9292 16.2502 37.3038 16.5501C36.6868 16.85 35.9584 17 35.1187 17ZM35.1187 15.3033C35.5985 15.3033 36.0269 15.2176 36.404 15.0463C36.7896 14.8749 37.1152 14.6392 37.3809 14.3393C37.655 14.0308 37.8607 13.6838 37.9978 13.2982C38.1435 12.904 38.2164 12.4884 38.2164 12.0514C38.2164 11.5801 38.1435 11.1474 37.9978 10.7532C37.8607 10.359 37.655 10.0163 37.3809 9.72494C37.1152 9.43358 36.7896 9.20652 36.404 9.0437C36.0184 8.88088 35.5898 8.79949 35.1187 8.79949C34.6387 8.79949 34.2061 8.88088 33.8205 9.0437C33.4349 9.20652 33.1049 9.43358 32.8307 9.72494C32.565 10.0163 32.3594 10.359 32.2138 10.7532C32.0766 11.1474 32.0081 11.5801 32.0081 12.0514C32.0081 12.4884 32.0766 12.904 32.2138 13.2982C32.3594 13.6838 32.565 14.0308 32.8307 14.3393C33.1049 14.6392 33.4349 14.8749 33.8205 15.0463C34.2061 15.2176 34.6387 15.3033 35.1187 15.3033ZM42.9494 13.8766V12.2956H44.7746C45.1431 12.2956 45.4516 12.2228 45.7 12.0771C45.9571 11.9315 46.1499 11.7301 46.2784 11.473C46.4156 11.2159 46.4841 10.9203 46.4841 10.5861C46.4841 10.2519 46.4156 9.9563 46.2784 9.69923C46.1499 9.44216 45.9571 9.24508 45.7 9.10797C45.4516 8.9623 45.1431 8.88946 44.7746 8.88946H42.9494V7.30848H44.6203C45.4086 7.30848 46.077 7.43702 46.6255 7.69409C47.1824 7.95116 47.6065 8.31963 47.898 8.79949C48.1894 9.27079 48.335 9.83204 48.335 10.4833V10.6889C48.335 11.3402 48.1894 11.9057 47.898 12.3856C47.6065 12.8569 47.1824 13.2254 46.6255 13.491C46.077 13.7481 45.4086 13.8766 44.6203 13.8766H42.9494ZM41.3812 16.7558V7.30848H43.2064V16.7558H41.3812ZM51.7158 16.7558V7.37275H54.2094L56.5616 12.9769H56.7929L59.1323 7.37275H61.6644V16.7558H59.852V8.74807L60.0834 8.77378L57.5513 14.8406H55.6875L53.1425 8.77378L53.3868 8.74807V16.7558H51.7158ZM67.6168 16.7558V14.6864H67.3212V12.3856C67.3212 11.9829 67.2226 11.6829 67.0256 11.4859C66.8284 11.2888 66.5243 11.1902 66.113 11.1902C65.8987 11.1902 65.6416 11.1945 65.3418 11.2031C65.0417 11.2117 64.7376 11.2245 64.4292 11.2416C64.1291 11.2502 63.8592 11.2631 63.6194 11.2802V9.7635C63.8164 9.74636 64.0392 9.72921 64.2878 9.71208C64.5362 9.69495 64.7891 9.68638 65.0461 9.68638C65.3116 9.6778 65.5603 9.67352 65.7916 9.67352C66.5114 9.67352 67.1069 9.76777 67.5783 9.9563C68.0581 10.1448 68.418 10.4405 68.658 10.8432C68.9064 11.2459 69.0307 11.7729 69.0307 12.4242V16.7558H67.6168ZM65.3675 16.9357C64.8618 16.9357 64.4163 16.8458 64.0307 16.6658C63.6536 16.4859 63.3579 16.2288 63.1438 15.8946C62.9382 15.5604 62.8353 15.1577 62.8353 14.6864C62.8353 14.1722 62.9595 13.7523 63.2081 13.4267C63.4652 13.1011 63.8206 12.8569 64.2749 12.6941C64.7376 12.5313 65.2775 12.4499 65.8945 12.4499H67.514V13.5167H65.8688C65.4574 13.5167 65.1403 13.6195 64.9176 13.8252C64.7033 14.0223 64.5963 14.2793 64.5963 14.5964C64.5963 14.9135 64.7033 15.1705 64.9176 15.3676C65.1403 15.5647 65.4574 15.6632 65.8688 15.6632C66.1172 15.6632 66.3443 15.6204 66.55 15.5347C66.7641 15.4405 66.9398 15.2862 67.077 15.072C67.2226 14.8492 67.3039 14.5493 67.3212 14.1722L67.7582 14.6735C67.7152 15.162 67.5953 15.5733 67.3983 15.9075C67.2097 16.2416 66.944 16.4987 66.6014 16.6787C66.2672 16.85 65.8559 16.9357 65.3675 16.9357ZM70.8287 16.7558V9.77635H72.6154V16.7558H70.8287ZM69.8519 11.1131V9.77635H72.6154V11.1131H69.8519ZM71.4842 8.94087C71.133 8.94087 70.8715 8.8509 70.7002 8.67095C70.5373 8.48243 70.456 8.24679 70.456 7.96401C70.456 7.68123 70.5373 7.44987 70.7002 7.26992C70.8715 7.08997 71.133 7 71.4842 7C71.8355 7 72.0926 7.08997 72.2555 7.26992C72.4183 7.44987 72.4997 7.68123 72.4997 7.96401C72.4997 8.24679 72.4183 8.48243 72.2555 8.67095C72.0926 8.8509 71.8355 8.94087 71.4842 8.94087ZM74.2246 16.7558V9.77635H75.6385V12.7712H75.51C75.51 12.06 75.6042 11.4687 75.7927 10.9974C75.9811 10.5176 76.2597 10.1577 76.6282 9.91774C77.0052 9.6778 77.4721 9.55784 78.0292 9.55784H78.1064C78.9374 9.55784 79.5672 9.82776 79.9958 10.3676C80.4242 10.8989 80.6385 11.6958 80.6385 12.7584V16.7558H78.8519V12.6041C78.8519 12.1757 78.7275 11.8286 78.4791 11.563C78.2391 11.2973 77.9049 11.1645 77.4765 11.1645C77.0395 11.1645 76.6838 11.3016 76.4097 11.5758C76.144 11.8415 76.0112 12.2014 76.0112 12.6555V16.7558H74.2246ZM82.1093 16.7558V9.77635H83.5232V12.7712H83.3946C83.3946 12.06 83.489 11.4687 83.6774 10.9974C83.866 10.5176 84.1446 10.1577 84.5129 9.91774C84.8901 9.6778 85.357 9.55784 85.9139 9.55784H85.991C86.8223 9.55784 87.4521 9.82776 87.8805 10.3676C88.3091 10.8989 88.5232 11.6958 88.5232 12.7584V16.7558H86.7365V12.6041C86.7365 12.1757 86.6124 11.8286 86.3638 11.563C86.124 11.2973 85.7898 11.1645 85.3612 11.1645C84.9242 11.1645 84.5687 11.3016 84.2944 11.5758C84.0289 11.8415 83.8959 12.2014 83.8959 12.6555V16.7558H82.1093ZM93.1176 17C92.5177 17 91.9907 16.8972 91.5366 16.6915C91.0909 16.4859 90.7182 16.2117 90.4183 15.8689C90.1269 15.5176 89.9042 15.1277 89.7499 14.6992C89.6043 14.2708 89.5314 13.8338 89.5314 13.3882V13.144C89.5314 12.6812 89.6043 12.2356 89.7499 11.8072C89.9042 11.3702 90.1269 10.9846 90.4183 10.6504C90.7182 10.3076 91.0867 10.0377 91.5237 9.84062C91.9607 9.63496 92.4663 9.53213 93.0404 9.53213C93.7946 9.53213 94.4244 9.69923 94.9299 10.0334C95.444 10.359 95.8296 10.7918 96.0867 11.3316C96.3438 11.8629 96.4723 12.437 96.4723 13.054V13.6967H90.2898V12.6041H95.3541L94.8014 13.144C94.8014 12.6984 94.7371 12.3171 94.6086 12C94.48 11.6829 94.283 11.4387 94.0173 11.2674C93.7602 11.096 93.4347 11.0103 93.0404 11.0103C92.6462 11.0103 92.312 11.1003 92.0379 11.2802C91.7637 11.4602 91.5537 11.7215 91.408 12.0643C91.2709 12.3985 91.2024 12.8012 91.2024 13.2725C91.2024 13.7095 91.2709 14.0994 91.408 14.4422C91.5452 14.7763 91.7551 15.042 92.0379 15.2391C92.3206 15.4276 92.6805 15.5219 93.1176 15.5219C93.5546 15.5219 93.9102 15.4362 94.1844 15.2648C94.4585 15.0848 94.6343 14.8663 94.7114 14.6093H96.3566C96.2538 15.0891 96.0568 15.509 95.7654 15.8689C95.474 16.2288 95.1012 16.5073 94.6471 16.7044C94.2015 16.9015 93.6917 17 93.1176 17ZM100.548 16.8458C99.9057 16.8458 99.3744 16.7644 98.9545 16.6015C98.5432 16.4302 98.2347 16.1474 98.0291 15.7532C97.8234 15.3505 97.7206 14.8106 97.7206 14.1337L97.7334 7.80977H99.4044L99.3915 14.2494C99.3915 14.5921 99.4815 14.8577 99.6614 15.0463C99.85 15.2262 100.116 15.3162 100.458 15.3162H101.551V16.8458H100.548ZM96.6152 11.0874V9.77635H101.551V11.0874H96.6152Z" fill="black"/>
<mask id="mask0_110_140" style="mask-type:luminance" maskUnits="userSpaceOnUse" x="0" y="0" width="24" height="24">
<path d="M24 0H0V24H24V0Z" fill="white"/>
</mask>
<g mask="url(#mask0_110_140)">
<path d="M12 24C18.6274 24 24 18.6274 24 12C24 5.37258 18.6274 0 12 0C5.37258 0 0 5.37258 0 12C0 18.6274 5.37258 24 12 24Z" fill="#FF0420"/>
<path d="M8.50233 15.1894C7.78782 15.1894 7.20237 15.0212 6.74604 14.685C6.29571 14.3427 6.07056 13.8564 6.07056 13.2259C6.07056 13.0938 6.08556 12.9317 6.11559 12.7396C6.19365 12.3072 6.30471 11.7878 6.44883 11.1814C6.85713 9.53019 7.91091 8.70459 9.61014 8.70459C10.0725 8.70459 10.4868 8.78265 10.8531 8.93877C11.2193 9.08886 11.5075 9.31704 11.7177 9.62325C11.9278 9.92349 12.0329 10.2838 12.0329 10.7041C12.0329 10.8302 12.0179 10.9893 11.9879 11.1814C11.8978 11.7158 11.7898 12.2352 11.6637 12.7396C11.4535 13.5622 11.0902 14.1776 10.5739 14.5859C10.0575 14.9882 9.36696 15.1894 8.50233 15.1894ZM8.62842 13.8924C8.96466 13.8924 9.24987 13.7933 9.48405 13.5952C9.72423 13.397 9.89535 13.0938 9.99744 12.6855C10.1355 12.1211 10.2406 11.6287 10.3126 11.2084C10.3367 11.0823 10.3487 10.9532 10.3487 10.8211C10.3487 10.2747 10.0635 10.0015 9.49305 10.0015C9.15681 10.0015 8.8686 10.1006 8.62842 10.2988C8.39424 10.4969 8.22612 10.8001 8.12406 11.2084C8.01597 11.6107 7.90791 12.1031 7.79982 12.6855C7.77579 12.8056 7.76379 12.9317 7.76379 13.0638C7.76379 13.6162 8.052 13.8924 8.62842 13.8924Z" fill="white"/>
<path d="M12.4466 15.0993C12.3806 15.0993 12.3295 15.0783 12.2935 15.0363C12.2635 14.9882 12.2545 14.9342 12.2665 14.8741L13.5094 9.01986C13.5214 8.9538 13.5544 8.89977 13.6085 8.85774C13.6625 8.81571 13.7196 8.79468 13.7796 8.79468H16.1754C16.8419 8.79468 17.3763 8.93277 17.7786 9.20898C18.1869 9.48519 18.391 9.88449 18.391 10.4069C18.391 10.557 18.373 10.7131 18.3369 10.8752C18.1869 11.5657 17.8836 12.0761 17.4273 12.4063C16.977 12.7366 16.3585 12.9017 15.5719 12.9017H14.356L13.9417 14.8741C13.9297 14.9402 13.8967 14.9942 13.8426 15.0363C13.7886 15.0783 13.7316 15.0993 13.6715 15.0993H12.4466ZM15.635 11.6588C15.8871 11.6588 16.1063 11.5897 16.2924 11.4516C16.4846 11.3135 16.6107 11.1154 16.6707 10.8572C16.6887 10.7551 16.6977 10.6651 16.6977 10.587C16.6977 10.4129 16.6467 10.2808 16.5446 10.1907C16.4426 10.0946 16.2684 10.0466 16.0223 10.0466H14.9415L14.5992 11.6588H15.635Z" fill="white"/>
</g>
</g>
<defs>
<clipPath id="clip0_110_140">
<rect width="102" height="24" fill="white"/>
</clipPath>
</defs>
  </symbol>

  <symbol fill="none" viewBox="0 0 104 24" id="solona">
    <g clip-path="url(#clip0_108_57)">
      <path d="M26.7381 18.9376L22.2957 23.7016C22.2004 23.8088 22.0813 23.8922 21.9503 23.9398C21.8193 23.9994 21.6883 24.0232 21.5454 24.0232H21.5334H0.500294C0.405013 24.0232 0.309733 23.9875 0.226363 23.9398C0.142992 23.8803 0.071532 23.8088 0.0358019 23.7135C7.17379e-05 23.6183 -0.0118383 23.523 7.17379e-05 23.4158C0.0119818 23.3205 0.059622 23.2252 0.131082 23.1538L4.56162 18.3897C4.6569 18.2826 4.776 18.1992 4.90701 18.1515C5.03802 18.092 5.18094 18.0682 5.31195 18.0682H26.3451C26.4404 18.0682 26.5476 18.092 26.6309 18.1515C26.7143 18.2111 26.7858 18.2826 26.8215 18.3778C26.8572 18.4731 26.8811 18.5684 26.8572 18.6756C26.8453 18.7709 26.7977 18.8661 26.7262 18.9376H26.7381ZM22.2957 9.35002C22.2004 9.24283 22.0813 9.15946 21.9503 9.11182C21.8193 9.05227 21.6764 9.02845 21.5454 9.02845H0.512204C0.416924 9.02845 0.309733 9.05227 0.226363 9.11182C0.142992 9.17137 0.071532 9.24283 0.0358019 9.33811C7.17379e-05 9.43339 -0.0118383 9.52867 7.17379e-05 9.63586C0.0119818 9.73114 0.059622 9.82642 0.131082 9.89788L4.56162 14.6619C4.6569 14.7691 4.776 14.8525 4.90701 14.9001C5.03802 14.9597 5.18094 14.9835 5.31195 14.9835H26.3451C26.4404 14.9835 26.5476 14.9477 26.6309 14.9001C26.7143 14.8406 26.7858 14.7691 26.8215 14.6738C26.8572 14.5785 26.8691 14.4833 26.8572 14.3761C26.8453 14.2808 26.7977 14.1855 26.7262 14.114L22.2957 9.35002ZM0.512204 5.93183H21.5454C21.6883 5.93183 21.8312 5.90801 21.9503 5.84846C22.0813 5.78891 22.2004 5.70554 22.2957 5.61026L26.7381 0.84624C26.8096 0.77478 26.8572 0.6795 26.8691 0.584219C26.8811 0.488939 26.8691 0.381748 26.8334 0.286468C26.7977 0.191188 26.7262 0.119727 26.6429 0.060177C26.5595 0.0125368 26.4761 -0.0231934 26.3808 -0.0231934H26.357H5.32386H5.31195C5.16903 -0.0231934 5.03802 0.0125368 4.90701 0.060177C4.776 0.119727 4.6569 0.203098 4.56162 0.298378L0.131082 5.0624C0.059622 5.13386 0.0119818 5.22914 7.17379e-05 5.32442C-0.0118383 5.4197 7.17379e-05 5.52689 0.0358019 5.62217C0.071532 5.71745 0.142992 5.78891 0.226363 5.84846C0.309733 5.90801 0.405013 5.93183 0.512204 5.93183Z" fill="url(#paint0_linear_108_57)"></path>
      <path d="M45.4677 11.0027H39.4061V9.0078H47.0456V7.01294H39.3869C39.1239 7.01294 38.8673 7.06425 38.6236 7.16047C38.3798 7.25668 38.1618 7.40421 37.9757 7.59023C37.7897 7.77624 37.6422 7.99433 37.5396 8.23166C37.4369 8.47541 37.3856 8.73198 37.3856 8.99497V11.0155C37.3856 11.2785 37.4369 11.535 37.5396 11.7788C37.6422 12.0225 37.7897 12.2406 37.9757 12.4266C38.1618 12.6127 38.3798 12.7538 38.6236 12.8564C38.8673 12.9526 39.1239 13.0039 39.3869 13.0039H45.4548V14.9988H37.5267V16.9936H45.4677C45.7307 16.9936 45.9872 16.9423 46.231 16.8461C46.4747 16.7499 46.6928 16.6024 46.8788 16.4163C47.0648 16.2303 47.2124 16.0122 47.315 15.7749C47.4176 15.5312 47.4689 15.2746 47.4689 15.0116V12.9911C47.4689 12.7281 47.4176 12.4715 47.315 12.2278C47.2124 11.984 47.0648 11.766 46.8788 11.5799C46.6928 11.3939 46.4747 11.2528 46.231 11.1502C45.9872 11.054 45.7307 11.0027 45.4677 11.0027Z" fill="black"></path>
      <path d="M57.2059 7.01294H51.1187C50.8557 7.01294 50.5991 7.05784 50.3554 7.16047C50.1117 7.25668 49.8936 7.40421 49.7076 7.59023C49.5215 7.77624 49.374 7.99433 49.2714 8.23166C49.1687 8.47541 49.1174 8.73198 49.1174 8.99497V15.0116C49.1174 15.2746 49.1752 15.5312 49.2714 15.7749C49.374 16.0187 49.5215 16.2367 49.7076 16.4163C49.8936 16.6024 50.1181 16.7435 50.3554 16.8461C50.5991 16.9423 50.8557 16.9936 51.1187 16.9936H57.2059C57.4689 16.9936 57.7255 16.9423 57.9692 16.8461C58.213 16.7499 58.431 16.6024 58.6171 16.4163C58.8031 16.2303 58.9506 16.0122 59.0532 15.7749C59.1559 15.5312 59.2072 15.2746 59.2072 15.0116V8.99497C59.2072 8.73198 59.1559 8.47541 59.0532 8.23166C58.9506 7.98792 58.8031 7.76983 58.6171 7.59023C58.431 7.40421 58.213 7.2631 57.9692 7.16047C57.7255 7.06425 57.4689 7.01294 57.2059 7.01294ZM57.1931 14.9988H51.1379V9.0078H57.1867V14.9988H57.1931Z" fill="black"></path>
      <path d="M78.5207 7.01299H72.5875C72.3245 7.01299 72.0679 7.0643 71.8241 7.16052C71.5804 7.25673 71.3623 7.40426 71.1763 7.59028C70.9903 7.77629 70.8428 7.99438 70.7401 8.23171C70.6375 8.47546 70.5862 8.73203 70.5862 8.99502V16.9937H72.6067V13.716H78.5143V16.9937H80.5348V8.99502C80.5348 8.73203 80.4771 8.47546 80.3809 8.23171C80.2782 7.98797 80.1307 7.76988 79.9447 7.58386C79.7587 7.39785 79.5342 7.25673 79.2904 7.1541C79.0467 7.05789 78.7837 7.00657 78.5207 7.01299ZM78.5079 11.7211H72.6003V9.01426H78.5079V11.7211Z" fill="black"></path>
      <path d="M102.138 7.01294H96.205C95.942 7.01294 95.6854 7.06425 95.4417 7.16047C95.198 7.25668 94.9799 7.40421 94.7939 7.59023C94.6078 7.77624 94.4603 7.99433 94.3577 8.23166C94.255 8.47541 94.2037 8.73198 94.2037 8.99497V16.9936H96.2242V13.7159H102.119V16.9936H104.14V8.99497C104.14 8.73198 104.088 8.47541 103.986 8.23166C103.883 7.98792 103.735 7.76983 103.549 7.59023C103.363 7.40421 103.145 7.2631 102.902 7.16047C102.658 7.06425 102.401 7.01294 102.138 7.01294ZM102.119 11.7211H96.2114V9.01421H102.119V11.7211Z" fill="black"></path>
      <path d="M90.3872 14.9923H89.579L86.6861 7.84669C86.5899 7.60295 86.4167 7.39127 86.1987 7.23733C85.9806 7.0898 85.7176 7.00641 85.4546 7.00641H83.6586C83.4854 7.00641 83.3122 7.03849 83.1518 7.10263C82.9915 7.16677 82.844 7.26299 82.7221 7.39127C82.6002 7.51315 82.4976 7.66068 82.4334 7.82103C82.3629 7.98139 82.3308 8.15458 82.3308 8.32777V16.9871H84.3513V9.00127H85.1595L88.0524 16.1468C88.155 16.3906 88.3282 16.6023 88.5463 16.7498C88.7644 16.8973 89.0274 16.9743 89.2904 16.9743H91.0864C91.2596 16.9743 91.4327 16.9422 91.5931 16.8781C91.7535 16.8139 91.901 16.7177 92.0229 16.5894C92.1447 16.4676 92.2474 16.32 92.3115 16.1597C92.3821 15.9993 92.4141 15.8261 92.4141 15.6529V7H90.3872V14.9858V14.9923Z" fill="black"></path>
      <path d="M63.0238 7.01294H61.0033V15.0116C61.0033 15.2746 61.061 15.5312 61.1572 15.7749C61.2599 16.0187 61.4074 16.2367 61.5934 16.4228C61.7794 16.6088 62.0039 16.7499 62.2413 16.8525C62.485 16.9487 62.7416 17.0001 63.0046 17.0001H69.0725V15.0052H63.0174V7.01935L63.0238 7.01294Z" fill="black"></path>
    </g>
    <defs>
      <linearGradient id="paint0_linear_108_57" x1="2.50214" y1="24.3327" x2="24.3802" y2="-0.332018" gradientUnits="userSpaceOnUse">
        <stop stop-color="#9944FF"></stop>
        <stop offset="0.0784314" stop-color="#9944FF"></stop>
        <stop offset="0.301961" stop-color="#8752F2"></stop>
        <stop offset="0.501961" stop-color="#5497D4"></stop>
        <stop offset="0.6" stop-color="#42B3CA"></stop>
        <stop offset="0.721569" stop-color="#28DFB8"></stop>
        <stop offset="0.968627" stop-color="#18FB9A"></stop>
        <stop offset="1" stop-color="#18FB9A"></stop>
      </linearGradient>
      <clipPath id="clip0_108_57">
        <rect width="104" height="24" fill="white"></rect>
      </clipPath>
    </defs>
  </symbol>

</svg>