<?xml version="1.0" encoding="UTF-8"?>
<svg xmlns="http://www.w3.org/2000/svg" xmlns:xlink="http://www.w3.org/1999/xlink" width="0" height="0">
 
  <symbol fill="none" viewBox="0 0 90 24" id="arbitrum-one">
    <g clip-path="url(#clip0_39_692)">
      <path d="M10.7003 1.47214C10.7587 1.47214 10.8142 1.48675 10.8668 1.51597L19.6795 6.64402C19.7817 6.70246 19.8431 6.8135 19.8431 6.93038L19.811 17.1251C19.811 17.242 19.7467 17.353 19.6444 17.4115L10.7967 22.4811C10.747 22.5103 10.6886 22.5249 10.6301 22.5249C10.5717 22.5249 10.5162 22.5103 10.4636 22.4811L1.65385 17.353C1.55158 17.2946 1.49022 17.1836 1.49022 17.0667L1.52236 6.87194C1.52236 6.75506 1.58665 6.64402 1.68892 6.58558L10.5366 1.51597C10.5863 1.48675 10.6418 1.47214 10.7003 1.47214ZM10.7061 -0.0180664C10.3905 -0.0180664 10.0779 0.0608267 9.79446 0.221535L0.946736 5.29115C0.382796 5.61549 0.0321594 6.21449 0.0321594 6.86609L1.84253e-05 17.0608C-0.00290354 17.7124 0.341889 18.3144 0.905829 18.6416L9.71849 23.7697C9.999 23.9333 10.3146 24.0151 10.6272 24.0181C10.9399 24.021 11.2554 23.9392 11.5389 23.7785L20.3866 18.7088C20.9505 18.3845 21.3012 17.7855 21.3012 17.1339L21.3333 6.93914C21.3362 6.28754 20.9914 5.68562 20.4275 5.35836L11.6148 0.230301C11.3343 0.0666707 11.0217 -0.0180664 10.7061 -0.0180664Z" fill="#1B4ADD"></path>
      <path d="M12.4913 5.53955H11.1998C11.1034 5.53955 11.0157 5.60091 10.9836 5.69149L6.82854 17.0784C6.80224 17.1544 6.85775 17.2333 6.93665 17.2333H8.22816C8.32458 17.2333 8.41224 17.1719 8.44439 17.0813L12.5994 5.69441C12.6257 5.61844 12.5702 5.53955 12.4913 5.53955ZM10.2326 5.53955H8.94112C8.84469 5.53955 8.75704 5.60091 8.72489 5.69149L4.56985 17.0784C4.54356 17.1544 4.59907 17.2333 4.67797 17.2333H5.96948C6.0659 17.2333 6.15356 17.1719 6.1857 17.0813L10.3407 5.69441C10.367 5.61844 10.3115 5.53955 10.2326 5.53955ZM11.904 9.95465C11.866 9.85238 11.7228 9.85238 11.6878 9.95465L11.0157 11.7955C10.9982 11.8452 10.9982 11.9036 11.0157 11.9533L12.8858 17.0813C12.9179 17.1719 13.0056 17.2333 13.102 17.2333H14.3935C14.4724 17.2333 14.5279 17.1544 14.5016 17.0784L11.904 9.95465ZM16.7632 17.0784L13.0348 6.86028C12.9968 6.75801 12.8536 6.75801 12.8186 6.86028L12.1465 8.70112C12.129 8.7508 12.129 8.80923 12.1465 8.85891L15.1474 17.0843C15.1795 17.1748 15.2672 17.2362 15.3636 17.2362H16.6551C16.734 17.2333 16.7895 17.1544 16.7632 17.0784Z" fill="#1B4ADD"></path>
      <path d="M31.5695 7.47546C31.7762 7.47546 31.9464 7.51801 32.0862 7.6031C32.226 7.68819 32.3657 7.84621 32.4995 8.08933L35.1676 12.9334C35.1919 12.9881 35.2041 13.0306 35.1859 13.0671C35.1737 13.1036 35.1312 13.1218 35.0704 13.1218H34.0493C33.9581 13.1218 33.8974 13.0853 33.8609 13.0185L33.2896 11.9792H29.497L28.9439 13.0185C28.9074 13.0914 28.8467 13.1218 28.7616 13.1218H27.7101C27.6372 13.1218 27.6007 13.1036 27.5825 13.0671C27.5703 13.0306 27.5764 12.9881 27.6007 12.9334L30.2446 8.08933C30.3783 7.84621 30.512 7.68211 30.6396 7.6031C30.7673 7.51801 30.9192 7.47546 31.0894 7.47546H31.5695ZM30.0075 11.0432H32.779L31.4966 8.67888C31.4723 8.64241 31.448 8.62418 31.4054 8.62418H31.3568C31.3204 8.62418 31.29 8.64241 31.2657 8.67888L30.0075 11.0432Z" fill="#2D364D"></path>
      <path d="M41.0326 7.47546C41.6526 7.47546 42.0963 7.61526 42.3637 7.89484C42.6311 8.17442 42.7648 8.58771 42.7648 9.13472V9.59663C42.7648 10.0586 42.6737 10.4232 42.4852 10.6907C42.2968 10.9581 41.9929 11.1343 41.5675 11.2073L42.9472 12.9151C42.9715 12.9395 42.9836 12.982 42.9715 13.0367C42.9593 13.0914 42.9168 13.1157 42.8438 13.1157H41.7984C41.7255 13.1157 41.683 13.1096 41.6526 13.0914C41.6283 13.0732 41.5979 13.0489 41.5736 13.0124L40.2972 11.3349H37.6959V12.9395C37.6959 13.0549 37.6351 13.1157 37.5196 13.1157H36.6505C36.529 13.1157 36.4621 13.0549 36.4621 12.9395V7.71858C36.4621 7.55448 36.5411 7.47546 36.7052 7.47546H41.0326ZM37.6959 10.3564H40.7834C41.0569 10.3564 41.2514 10.2956 41.3608 10.1801C41.4763 10.0646 41.531 9.88229 41.531 9.63918V9.29882C41.531 9.0557 41.4763 8.87945 41.3608 8.75789C41.2454 8.64241 41.0569 8.58163 40.7834 8.58163H37.7992C37.7263 8.58163 37.6959 8.61202 37.6959 8.67888V10.3564Z" fill="#2D364D"></path>
      <path d="M49.5113 7.47553C50.0644 7.47553 50.4594 7.58493 50.6904 7.80374C50.9213 8.02254 51.0429 8.35682 51.0429 8.80051V9.18949C51.0429 9.63925 50.8727 9.97961 50.5263 10.2106C50.897 10.4233 51.0854 10.7697 51.0854 11.2499V11.7179C51.0854 11.9306 51.0611 12.1251 51.0125 12.2953C50.9639 12.4654 50.8849 12.6113 50.7755 12.7329C50.6661 12.8544 50.5202 12.9456 50.3379 13.0125C50.1555 13.0793 49.9306 13.1097 49.6632 13.1097H44.8739C44.7098 13.1097 44.6308 13.0307 44.6308 12.8666V7.70649C44.6308 7.54239 44.7098 7.46338 44.8739 7.46338L49.5113 7.47553ZM45.8585 9.82158H49.1648C49.4323 9.82158 49.6146 9.77904 49.7118 9.70003C49.8091 9.62101 49.8577 9.49946 49.8577 9.34751V9.07401C49.8577 8.90991 49.8091 8.78227 49.7179 8.70934C49.6267 8.63033 49.4748 8.59386 49.2621 8.59386H45.9618C45.8889 8.59386 45.8585 8.63033 45.8585 8.69718V9.82158ZM45.8585 10.7029V11.9063C45.8585 11.9792 45.8949 12.0096 45.9618 12.0096H49.2682C49.4809 12.0096 49.6389 11.9731 49.7301 11.8941C49.8212 11.8151 49.8699 11.6936 49.8699 11.5173V11.2134C49.8699 11.0493 49.8212 10.9217 49.7179 10.8366C49.6207 10.7515 49.4323 10.7089 49.1648 10.7089L45.8585 10.7029Z" fill="#2D364D"></path>
      <path d="M54.088 7.47546C54.2035 7.47546 54.2642 7.53624 54.2642 7.65172V12.9395C54.2642 13.0549 54.2035 13.1157 54.088 13.1157H53.2188C53.0973 13.1157 53.0365 13.0549 53.0365 12.9395V7.65172C53.0365 7.53624 53.0973 7.47546 53.2188 7.47546H54.088Z" fill="#2D364D"></path>
      <path d="M62.5361 7.47546C62.6576 7.47546 62.7245 7.53624 62.7245 7.65172V8.44184C62.7245 8.5634 62.6637 8.63026 62.5361 8.63026H60.0077V12.9455C60.0077 13.061 59.9469 13.1218 59.8314 13.1218H58.9501C58.8347 13.1218 58.7739 13.061 58.7739 12.9455V8.63026H56.2455C56.1239 8.63026 56.0571 8.56948 56.0571 8.44184V7.65172C56.0571 7.53624 56.1179 7.47546 56.2455 7.47546H62.5361Z" fill="#2D364D"></path>
      <path d="M68.9118 7.47546C69.5317 7.47546 69.9754 7.61526 70.2429 7.89484C70.5103 8.17442 70.644 8.58771 70.644 9.13472V9.59663C70.644 10.0586 70.5528 10.4232 70.3644 10.6907C70.176 10.9581 69.8721 11.1343 69.4467 11.2073L70.8263 12.9151C70.8506 12.9395 70.8628 12.982 70.8506 13.0367C70.8385 13.0914 70.7959 13.1157 70.723 13.1157H69.6837C69.6108 13.1157 69.5682 13.1096 69.5378 13.0914C69.5135 13.0732 69.4831 13.0489 69.4588 13.0124L68.1825 11.3349H65.5811V12.9395C65.5811 13.0549 65.5204 13.1157 65.4049 13.1157H64.5297C64.4081 13.1157 64.3413 13.0549 64.3413 12.9395V7.71858C64.3413 7.55448 64.4203 7.47546 64.5844 7.47546H68.9118ZM65.5751 10.3564H68.6626C68.9361 10.3564 69.1306 10.2956 69.24 10.1801C69.3555 10.0646 69.4102 9.88229 69.4102 9.63918V9.29882C69.4102 9.0557 69.3555 8.87945 69.24 8.75789C69.1245 8.64241 68.9361 8.58163 68.6626 8.58163H65.6845C65.6115 8.58163 65.5811 8.61202 65.5811 8.67888L65.5751 10.3564Z" fill="#2D364D"></path>
      <path d="M73.4459 7.47546C73.5613 7.47546 73.6221 7.53624 73.6221 7.65172V10.8669C73.6221 11.0796 73.6404 11.262 73.6768 11.4018C73.7133 11.5415 73.768 11.657 73.8531 11.7421C73.9321 11.8272 74.0415 11.8819 74.1813 11.9184C74.3211 11.9548 74.4913 11.9731 74.704 11.9731H76.9285C77.1351 11.9731 77.3114 11.9548 77.4512 11.9184C77.591 11.8819 77.6943 11.8272 77.7794 11.7421C77.8584 11.657 77.9192 11.5476 77.9495 11.4018C77.9799 11.262 77.9982 11.0796 77.9982 10.8669V7.65172C77.9982 7.53624 78.0589 7.47546 78.1744 7.47546H79.0557C79.1712 7.47546 79.232 7.53624 79.232 7.65172V10.9885C79.232 11.3774 79.1894 11.7056 79.1104 11.9731C79.0314 12.2466 78.8977 12.4654 78.7214 12.6356C78.5391 12.8057 78.3081 12.9273 78.0225 13.0002C77.7368 13.0732 77.3843 13.1157 76.9771 13.1157H74.6554C74.2481 13.1157 73.9017 13.0792 73.616 13.0002C73.3304 12.9273 73.0994 12.7997 72.9171 12.6356C72.7348 12.4654 72.6071 12.2466 72.522 11.9731C72.4369 11.6996 72.3944 11.3714 72.3944 10.9885V7.65172C72.3944 7.53624 72.4552 7.47546 72.5828 7.47546H73.4459Z" fill="#2D364D"></path>
      <path d="M82.6963 7.47546C82.8118 7.47546 82.9151 7.48154 83.0002 7.49978C83.0853 7.51801 83.1643 7.5484 83.2251 7.59094C83.2919 7.63957 83.3466 7.70034 83.4013 7.77936C83.4499 7.85837 83.5046 7.96169 83.5593 8.08933L85.2368 11.9609C85.2611 12.0095 85.2976 12.0339 85.3523 12.0339H85.4496C85.5043 12.0339 85.5407 12.0095 85.565 11.9609L87.2425 8.08933C87.2972 7.96169 87.3459 7.85837 87.4006 7.77936C87.4492 7.70034 87.51 7.63957 87.5768 7.59094C87.6437 7.54232 87.7166 7.51193 87.7956 7.49978C87.8807 7.48154 87.978 7.47546 88.0995 7.47546H88.9626C89.2421 7.47546 89.4306 7.53624 89.5278 7.66388C89.625 7.79151 89.6737 8.00424 89.6737 8.31421V12.9395C89.6737 13.0549 89.6129 13.1157 89.4913 13.1157H88.6708C88.5553 13.1157 88.4946 13.0549 88.4946 12.9395V8.73358C88.4946 8.67888 88.4703 8.65457 88.4277 8.65457H88.3548C88.3001 8.65457 88.2636 8.67888 88.2515 8.72142L86.6226 12.3317C86.5557 12.4775 86.4949 12.5991 86.422 12.6963C86.3552 12.7936 86.2822 12.8787 86.2032 12.9395C86.1242 13.0063 86.0391 13.0489 85.9358 13.0792C85.8385 13.1036 85.717 13.1218 85.5833 13.1218H85.1943C85.0606 13.1218 84.9451 13.1096 84.8418 13.0792C84.7445 13.0549 84.6534 13.0063 84.5744 12.9395C84.4953 12.8726 84.4224 12.7936 84.3555 12.6963C84.2887 12.5991 84.2218 12.4775 84.1611 12.3317L82.5322 8.72142C82.514 8.67888 82.4836 8.65457 82.4289 8.65457H82.3559C82.3134 8.65457 82.2891 8.67888 82.2891 8.73358V12.9395C82.2891 13.0549 82.2283 13.1157 82.1128 13.1157H81.2923C81.1708 13.1157 81.1039 13.0549 81.1039 12.9395V8.31421C81.1039 8.01032 81.1525 7.79151 81.2498 7.66388C81.347 7.53624 81.5354 7.47546 81.8211 7.47546H82.6963Z" fill="#2D364D"></path>
      <path d="M32.336 14.4923C32.749 14.4923 33.1001 14.5336 33.3891 14.6059C33.6782 14.6885 33.9157 14.8124 34.0912 14.9776C34.2771 15.1428 34.4009 15.3699 34.4835 15.6383C34.5661 15.9068 34.6074 16.2372 34.6074 16.6295V18.0233C34.6074 18.4157 34.5661 18.746 34.4835 19.0145C34.4009 19.2829 34.2667 19.5101 34.0912 19.6752C33.9054 19.8404 33.6782 19.9643 33.3891 20.0469C33.1001 20.1192 32.749 20.1605 32.336 20.1605H29.8375C29.4245 20.1605 29.0838 20.1192 28.7947 20.0469C28.5056 19.9747 28.2785 19.8508 28.0926 19.6752C27.9068 19.5101 27.7829 19.2829 27.7003 19.0145C27.6177 18.746 27.5764 18.4157 27.5764 18.0233V16.6295C27.5764 16.2372 27.6177 15.9171 27.7003 15.6383C27.7829 15.3699 27.9171 15.1531 28.0926 14.9776C28.2785 14.8124 28.5056 14.6885 28.7947 14.6059C29.0838 14.5233 29.4245 14.4923 29.8375 14.4923H32.336ZM28.805 17.9304C28.805 18.1369 28.8257 18.3227 28.8567 18.4569C28.8876 18.6015 28.9496 18.7151 29.0322 18.7977C29.1148 18.8803 29.218 18.9422 29.3626 18.9732C29.4968 19.0041 29.6723 19.0248 29.8891 19.0248H32.2947C32.5012 19.0248 32.6768 19.0041 32.8213 18.9732C32.9555 18.9422 33.0691 18.8803 33.1517 18.7977C33.2343 18.7151 33.2859 18.6015 33.3272 18.4569C33.3582 18.3124 33.3788 18.1369 33.3788 17.9304V16.7121C33.3788 16.5056 33.3582 16.3198 33.3272 16.1855C33.2962 16.041 33.2343 15.9274 33.1517 15.8448C33.0691 15.7622 32.9658 15.7003 32.8213 15.6693C32.6871 15.6383 32.5116 15.6177 32.2947 15.6177H29.8891C29.6826 15.6177 29.5071 15.6383 29.3626 15.6693C29.2283 15.7003 29.1148 15.7622 29.0322 15.8448C28.9496 15.9274 28.898 16.041 28.8567 16.1855C28.8257 16.3301 28.805 16.5056 28.805 16.7121V17.9304Z" fill="#1B4ADD"></path>
      <path d="M37.8596 14.4927C37.9939 14.4927 38.0971 14.503 38.1797 14.5133C38.2623 14.5237 38.3449 14.5443 38.4068 14.5856C38.4688 14.6166 38.5307 14.6682 38.5927 14.7301C38.6546 14.7921 38.7166 14.8747 38.7992 14.9779L41.814 18.9322C41.8346 18.9735 41.8656 18.9839 41.9172 18.9839H41.9895C42.0308 18.9839 42.0514 18.9529 42.0514 18.9013V14.6785C42.0514 14.565 42.1134 14.503 42.2269 14.503H43.0736C43.1871 14.503 43.2491 14.565 43.2491 14.6785V19.3246C43.2491 19.655 43.1871 19.8718 43.0736 19.9957C42.9497 20.1092 42.7741 20.1712 42.5264 20.1712H41.8346C41.7107 20.1712 41.6075 20.1609 41.5249 20.1505C41.4423 20.1402 41.37 20.1196 41.2977 20.0886C41.2358 20.0576 41.1738 20.006 41.1119 19.9441C41.0499 19.8821 40.9777 19.7995 40.8951 19.6859L37.8803 15.7316C37.8493 15.6903 37.808 15.68 37.7771 15.68H37.7048C37.6635 15.68 37.6428 15.711 37.6428 15.7626V19.9854C37.6428 20.1092 37.5809 20.1609 37.4673 20.1609H36.6207C36.4968 20.1609 36.4349 20.0989 36.4349 19.9854V15.3393C36.4349 15.0089 36.4968 14.7921 36.6104 14.6682C36.7239 14.5546 36.9098 14.4927 37.1576 14.4927H37.8596Z" fill="#1B4ADD"></path>
      <path d="M50.8997 14.4925C51.0236 14.4925 51.0855 14.5544 51.0855 14.668V15.432C51.0855 15.5559 51.0236 15.6075 50.8997 15.6075H47.3583C47.1518 15.6075 46.9763 15.6282 46.8318 15.6591C46.6976 15.6901 46.584 15.7521 46.5014 15.8347C46.4188 15.9172 46.3569 16.0308 46.3259 16.1754C46.2949 16.3199 46.2743 16.4954 46.2743 16.7019V16.7845H50.848C50.9616 16.7845 51.0236 16.8465 51.0236 16.96V17.6002C51.0236 17.7137 50.9616 17.7757 50.848 17.7757H46.2743V17.9099C46.2743 18.1164 46.2949 18.3022 46.3259 18.4365C46.3569 18.581 46.4188 18.6946 46.5014 18.7772C46.584 18.8598 46.6976 18.9217 46.8318 18.9527C46.966 18.9837 47.1415 19.0043 47.3583 19.0043H50.8997C51.0236 19.0043 51.0855 19.0662 51.0855 19.1798V19.9438C51.0855 20.0677 51.0236 20.1193 50.8997 20.1193H47.3377C46.9247 20.1193 46.584 20.0781 46.2949 20.0058C46.0058 19.9335 45.7787 19.8096 45.5928 19.6341C45.407 19.4689 45.2831 19.2418 45.2005 18.9733C45.1179 18.7049 45.0766 18.3745 45.0766 17.9822V16.5884C45.0766 16.196 45.1179 15.876 45.2005 15.5972C45.2831 15.3288 45.4173 15.1119 45.5928 14.9364C45.7787 14.7712 46.0058 14.6473 46.2949 14.5647C46.584 14.4821 46.9247 14.4512 47.3377 14.4512H50.8997V14.4925Z" fill="#1B4ADD"></path>
    </g>
    <defs>
      <clipPath id="clip0_39_692">
        <rect width="90" height="24" fill="white"></rect>
      </clipPath>
    </defs>
  </symbol>
 
<symbol  fill="none" viewBox="0 0 59 25" id="base">
<g clip-path="url(#clip0_39_683)">
<path d="M55.6347 16.9949C54.4741 16.9949 53.5654 16.6575 52.9087 15.9827C52.2564 15.3035 51.9303 14.37 51.9303 13.1825C51.9303 11.9634 52.2339 11.0052 52.8412 10.308C53.4485 9.61071 54.2829 9.26208 55.3446 9.26208C56.3297 9.26208 57.1079 9.56123 57.6792 10.1595C58.2505 10.7578 58.5362 11.581 58.5362 12.6292V13.4861H53.5632C53.5857 14.2104 53.7814 14.7682 54.1502 15.1595C54.5191 15.5464 55.0387 15.7398 55.7089 15.7398C56.1498 15.7398 56.5591 15.6993 56.937 15.6184C57.3194 15.5329 57.7287 15.3934 58.1651 15.2V16.4888C57.7782 16.6732 57.3868 16.8037 56.991 16.8802C56.5951 16.9566 56.143 16.9949 55.6347 16.9949ZM55.3446 10.4632C54.8407 10.4632 54.4359 10.6229 54.13 10.9422C53.8286 11.2616 53.6487 11.7272 53.5902 12.339H56.9775C56.9685 11.7227 56.82 11.2571 56.5321 10.9422C56.2442 10.6229 55.8484 10.4632 55.3446 10.4632Z" fill="black"/>
<path d="M50.655 14.7344C50.655 15.4632 50.3895 16.0232 49.8587 16.4146C49.3279 16.8014 48.5677 16.9949 47.578 16.9949C46.5839 16.9949 45.7854 16.8442 45.1826 16.5428V15.173C46.0598 15.5779 46.8763 15.7803 47.632 15.7803C48.6082 15.7803 49.0962 15.4857 49.0962 14.8964C49.0962 14.7074 49.0423 14.55 48.9343 14.424C48.8263 14.2981 48.6487 14.1676 48.4012 14.0327C48.1538 13.8977 47.8097 13.7448 47.3689 13.5738C46.5097 13.2409 45.9271 12.9081 45.6212 12.5752C45.3198 12.2423 45.1691 11.8104 45.1691 11.2796C45.1691 10.6409 45.4255 10.146 45.9384 9.79515C46.4557 9.43977 47.1574 9.26208 48.0436 9.26208C48.9208 9.26208 49.7508 9.43977 50.5335 9.79515L50.0207 10.9895C49.2155 10.6566 48.5384 10.4902 47.9896 10.4902C47.1529 10.4902 46.7346 10.7286 46.7346 11.2054C46.7346 11.4393 46.8425 11.6373 47.0585 11.7992C47.2789 11.9611 47.7557 12.1838 48.489 12.4672C49.1052 12.7056 49.5528 12.9238 49.8317 13.1217C50.1106 13.3197 50.3176 13.5491 50.4525 13.81C50.5875 14.0664 50.655 14.3745 50.655 14.7344Z" fill="black"/>
<path d="M42.2946 16.8599L41.9775 15.8208H41.9235C41.5636 16.2751 41.2015 16.5855 40.8371 16.752C40.4728 16.9139 40.0049 16.9949 39.4336 16.9949C38.7004 16.9949 38.1268 16.7969 37.713 16.4011C37.3036 16.0052 37.0989 15.4452 37.0989 14.7209C37.0989 13.9517 37.3846 13.3714 37.9559 12.98C38.5272 12.5887 39.3976 12.375 40.5672 12.339L41.856 12.2985V11.9004C41.856 11.4236 41.7436 11.0682 41.5186 10.8343C41.2982 10.5959 40.9541 10.4767 40.4863 10.4767C40.1039 10.4767 39.7373 10.5329 39.3864 10.6454C39.0355 10.7578 38.6981 10.8905 38.3742 11.0435L37.8614 9.90986C38.2663 9.69843 38.7094 9.53874 39.1907 9.43078C39.672 9.31832 40.1264 9.26208 40.5537 9.26208C41.5029 9.26208 42.2182 9.46901 42.6995 9.88287C43.1853 10.2967 43.4282 10.9467 43.4282 11.8329V16.8599H42.2946ZM39.933 15.7803C40.5088 15.7803 40.9698 15.6206 41.3162 15.3012C41.6671 14.9773 41.8425 14.5252 41.8425 13.9449V13.2972L40.8844 13.3377C40.1376 13.3646 39.5933 13.4906 39.2514 13.7155C38.9141 13.9359 38.7454 14.2756 38.7454 14.7344C38.7454 15.0673 38.8443 15.326 39.0423 15.5104C39.2402 15.6903 39.5371 15.7803 39.933 15.7803Z" fill="black"/>
<path d="M28.6711 6.99487H31.5996C32.9581 6.99487 33.9388 7.1928 34.5416 7.58867C35.1489 7.98453 35.4525 8.60981 35.4525 9.46451C35.4525 10.0403 35.3041 10.5194 35.0072 10.9018C34.7103 11.2841 34.2829 11.5248 33.7251 11.6238V11.6912C34.4179 11.8217 34.9262 12.0803 35.2501 12.4672C35.5785 12.8496 35.7427 13.3691 35.7427 14.0259C35.7427 14.9121 35.4323 15.6071 34.8115 16.1109C34.1952 16.6103 33.336 16.8599 32.2339 16.8599H28.6711V6.99487ZM30.2838 11.0704H31.8358C32.5105 11.0704 33.0031 10.9647 33.3135 10.7533C33.6239 10.5374 33.7791 10.173 33.7791 9.66019C33.7791 9.19685 33.6104 8.86172 33.273 8.65479C32.9401 8.44786 32.4093 8.3444 31.6806 8.3444H30.2838V11.0704ZM30.2838 12.3795V15.5036H31.9977C32.6725 15.5036 33.1808 15.3754 33.5227 15.119C33.8691 14.8581 34.0423 14.4488 34.0423 13.891C34.0423 13.3781 33.8668 12.998 33.5159 12.7506C33.1651 12.5032 32.632 12.3795 31.9168 12.3795H30.2838Z" fill="black"/>
<g clip-path="url(#clip1_39_683)">
<mask id="mask0_39_683" style="mask-type:luminance" maskUnits="userSpaceOnUse" x="0" y="0" width="24" height="24">
<path d="M12 24C5.37216 24 0 18.6278 0 12C0 5.37216 5.37216 0 12 0C18.6278 0 24 5.37216 24 12C24 18.6278 18.6278 24 12 24Z" fill="white"/>
</mask>
<g mask="url(#mask0_39_683)">
<path fill-rule="evenodd" clip-rule="evenodd" d="M12.0003 11.9999L-4.97255 11.8952L-4.95719 11.2712L12.0003 11.9999Z" fill="#FEFEFF"/>
<path fill-rule="evenodd" clip-rule="evenodd" d="M12.0001 11.9999L-4.96017 11.3749L-4.93425 10.8546L12.0001 11.9999Z" fill="#FDFEFF"/>
<path fill-rule="evenodd" clip-rule="evenodd" d="M12.0002 11.9998L-4.93993 10.9592L-4.90153 10.4398L12.0002 11.9998Z" fill="#FCFDFF"/>
<path fill-rule="evenodd" clip-rule="evenodd" d="M12.0002 11.9999L-4.90919 10.5435L-4.85832 10.0251L12.0002 11.9999Z" fill="#FBFCFF"/>
<path fill-rule="evenodd" clip-rule="evenodd" d="M12.0003 11.9998L-4.86787 10.1288L-4.80451 9.6123L12.0003 11.9998Z" fill="#FAFCFF"/>
<path fill-rule="evenodd" clip-rule="evenodd" d="M12.0003 11.9999L-4.81697 9.71608L-4.74113 9.20056L12.0003 11.9999Z" fill="#F9FBFF"/>
<path fill-rule="evenodd" clip-rule="evenodd" d="M12.0002 11.9998L-4.7556 9.30317L-4.66728 8.79053L12.0002 11.9998Z" fill="#F8FAFF"/>
<path fill-rule="evenodd" clip-rule="evenodd" d="M12.0004 11.9998L-4.68445 8.89329L-4.58365 8.38257L12.0004 11.9998Z" fill="#F7FAFF"/>
<path fill-rule="evenodd" clip-rule="evenodd" d="M12.0003 11.9999L-4.6039 8.48536L-4.48966 7.97656L12.0003 11.9999Z" fill="#F6F9FF"/>
<path fill-rule="evenodd" clip-rule="evenodd" d="M12.0003 11.9999L-4.51268 8.07832L-4.38596 7.57336L12.0003 11.9999Z" fill="#F5F8FF"/>
<path fill-rule="evenodd" clip-rule="evenodd" d="M12.0003 11.9998L-4.41087 7.67408L-4.27263 7.172L12.0003 11.9998Z" fill="#F4F8FF"/>
<path fill-rule="evenodd" clip-rule="evenodd" d="M12.0002 11.9998L-4.30063 7.27278L-4.14895 6.77454L12.0002 11.9998Z" fill="#F3F7FF"/>
<path fill-rule="evenodd" clip-rule="evenodd" d="M12.0002 11.9998L-4.17964 6.8744L-4.01548 6.38L12.0002 11.9998Z" fill="#F2F6FF"/>
<path fill-rule="evenodd" clip-rule="evenodd" d="M12.0003 11.9999L-4.04897 6.47896L-3.87329 5.9884L12.0003 11.9999Z" fill="#F1F6FF"/>
<path fill-rule="evenodd" clip-rule="evenodd" d="M12.0002 11.9999L-3.90793 6.08635L-3.72073 5.60059L12.0002 11.9999Z" fill="#F0F5FF"/>
<path fill-rule="evenodd" clip-rule="evenodd" d="M12.0002 11.9999L-3.75819 5.69751L-3.55947 5.21655L12.0002 11.9999Z" fill="#EFF4FF"/>
<path fill-rule="evenodd" clip-rule="evenodd" d="M12.0002 11.9998L-3.59882 5.31248L-3.38762 4.83728L12.0002 11.9998Z" fill="#EEF3FF"/>
<path fill-rule="evenodd" clip-rule="evenodd" d="M12.0002 11.9998L-3.42986 4.93231L-3.20714 4.46191L12.0002 11.9998Z" fill="#EDF3FF"/>
<path fill-rule="evenodd" clip-rule="evenodd" d="M12.0002 11.9999L-3.25226 4.55605L-3.01802 4.09045L12.0002 11.9999Z" fill="#ECF2FF"/>
<path fill-rule="evenodd" clip-rule="evenodd" d="M12.0003 11.9998L-3.06494 4.18349L-2.81918 3.72461L12.0003 11.9998Z" fill="#EBF1FF"/>
<path fill-rule="evenodd" clip-rule="evenodd" d="M12.0002 11.9999L-2.86826 3.81687L-2.61194 3.36279L12.0002 11.9999Z" fill="#EAF1FF"/>
<path fill-rule="evenodd" clip-rule="evenodd" d="M12.0003 11.9999L-2.66272 3.45397L-2.39488 3.00757L12.0003 11.9999Z" fill="#E9F0FF"/>
<path fill-rule="evenodd" clip-rule="evenodd" d="M12.0003 11.9998L-2.44864 3.09677L-2.17024 2.65613L12.0003 11.9998Z" fill="#E8EFFF"/>
<path fill-rule="evenodd" clip-rule="evenodd" d="M12.0002 12L-2.22604 2.74461L-1.93612 2.31165L12.0002 12Z" fill="#E7EFFF"/>
<path fill-rule="evenodd" clip-rule="evenodd" d="M12.0003 11.9999L-1.99461 2.39794L-1.69509 1.97266L12.0003 11.9999Z" fill="#E6EEFF"/>
<path fill-rule="evenodd" clip-rule="evenodd" d="M12.0003 11.9998L-1.75456 2.05809L-1.44448 1.63953L12.0003 11.9998Z" fill="#E5EDFF"/>
<path fill-rule="evenodd" clip-rule="evenodd" d="M12.0002 11.9999L-1.50702 1.72314L-1.18638 1.31226L12.0002 11.9999Z" fill="#E4EDFF"/>
<path fill-rule="evenodd" clip-rule="evenodd" d="M12.0003 11.9999L-1.2506 1.39479L-0.920355 0.992554L12.0003 11.9999Z" fill="#E3ECFF"/>
<path fill-rule="evenodd" clip-rule="evenodd" d="M12.0002 11.9999L-0.985718 1.07315L-0.645878 0.678589L12.0002 11.9999Z" fill="#E2EBFF"/>
<path fill-rule="evenodd" clip-rule="evenodd" d="M12.0002 11.9998L-0.714005 0.757258L-0.364564 0.371338L12.0002 11.9998Z" fill="#E1EBFF"/>
<path fill-rule="evenodd" clip-rule="evenodd" d="M12.0003 11.9999L-0.434601 0.449179L-0.0755608 0.0718994L12.0003 11.9999Z" fill="#E0EAFF"/>
<path fill-rule="evenodd" clip-rule="evenodd" d="M12.0003 11.9999L-0.147568 0.147693L0.221072 -0.220947L12.0003 11.9999Z" fill="#DFE9FF"/>
<path fill-rule="evenodd" clip-rule="evenodd" d="M12.0002 11.9999L0.148087 -0.147901L0.524406 -0.505981L12.0002 11.9999Z" fill="#DEE9FF"/>
<path fill-rule="evenodd" clip-rule="evenodd" d="M12.0002 11.9999L0.449509 -0.434984L0.835429 -0.784424L12.0002 11.9999Z" fill="#DDE8FF"/>
<path fill-rule="evenodd" clip-rule="evenodd" d="M12.0002 11.9999L0.75766 -0.714359L1.15222 -1.0542L12.0002 11.9999Z" fill="#DCE7FF"/>
<path fill-rule="evenodd" clip-rule="evenodd" d="M12.0004 11.9999L1.07364 -0.986044L1.47588 -1.31628L12.0004 11.9999Z" fill="#DBE7FF"/>
<path fill-rule="evenodd" clip-rule="evenodd" d="M12.0002 11.9999L1.39513 -1.251L1.80601 -1.57068L12.0002 11.9999Z" fill="#DAE6FF"/>
<path fill-rule="evenodd" clip-rule="evenodd" d="M12.0003 11.9999L1.72346 -1.5073L2.14203 -1.81738L12.0003 11.9999Z" fill="#D9E5FF"/>
<path fill-rule="evenodd" clip-rule="evenodd" d="M12.0003 11.9998L2.05853 -1.75505L2.48381 -2.05457L12.0003 11.9998Z" fill="#D8E5FF"/>
<path fill-rule="evenodd" clip-rule="evenodd" d="M12.0003 11.9999L2.39836 -1.99498L2.83132 -2.28394L12.0003 11.9999Z" fill="#D7E4FF"/>
<path fill-rule="evenodd" clip-rule="evenodd" d="M12.0003 11.9999L2.74492 -2.22636L3.18556 -2.50476L12.0003 11.9999Z" fill="#D6E3FF"/>
<path fill-rule="evenodd" clip-rule="evenodd" d="M12.0002 11.9999L3.09712 -2.44908L3.54352 -2.71692L12.0002 11.9999Z" fill="#D5E3FF"/>
<path fill-rule="evenodd" clip-rule="evenodd" d="M12.0003 11.9999L3.45435 -2.66311L3.90747 -2.91943L12.0003 11.9999Z" fill="#D4E2FF"/>
<path fill-rule="evenodd" clip-rule="evenodd" d="M12.0003 11.9999L3.81721 -2.86862L4.27609 -3.11438L12.0003 11.9999Z" fill="#D3E1FF"/>
<path fill-rule="evenodd" clip-rule="evenodd" d="M12.0003 11.9999L4.18396 -3.06543L4.64956 -3.29871L12.0003 11.9999Z" fill="#D2E0FF"/>
<path fill-rule="evenodd" clip-rule="evenodd" d="M12.0001 11.9999L4.55629 -3.25261L5.02669 -3.47437L12.0001 11.9999Z" fill="#D1E0FF"/>
<path fill-rule="evenodd" clip-rule="evenodd" d="M12.0003 11.9999L4.93274 -3.43016L5.4089 -3.64136L12.0003 11.9999Z" fill="#D0DFFF"/>
<path fill-rule="evenodd" clip-rule="evenodd" d="M12.0003 11.9999L5.31294 -3.59915L5.79486 -3.79883L12.0003 11.9999Z" fill="#CFDEFF"/>
<path fill-rule="evenodd" clip-rule="evenodd" d="M12.0003 11.9999L5.69791 -3.75848L6.18463 -3.94568L12.0003 11.9999Z" fill="#CEDEFF"/>
<path fill-rule="evenodd" clip-rule="evenodd" d="M12.0003 11.9999L6.08673 -3.9083L6.57729 -4.08398L12.0003 11.9999Z" fill="#CDDDFF"/>
<path fill-rule="evenodd" clip-rule="evenodd" d="M12.0002 11.9998L6.47925 -4.04943L6.97365 -4.21167L12.0002 11.9998Z" fill="#CCDCFF"/>
<path fill-rule="evenodd" clip-rule="evenodd" d="M12.0002 11.9999L6.8748 -4.17997L7.37304 -4.33069L12.0002 11.9999Z" fill="#CBDCFF"/>
<path fill-rule="evenodd" clip-rule="evenodd" d="M12.0002 11.9998L7.27316 -4.30097L7.77524 -4.43921L12.0002 11.9998Z" fill="#CADBFF"/>
<path fill-rule="evenodd" clip-rule="evenodd" d="M12.0003 12L7.6745 -4.41124L8.17946 -4.53796L12.0003 12Z" fill="#C9DAFF"/>
<path fill-rule="evenodd" clip-rule="evenodd" d="M12.0002 11.9999L8.07855 -4.51306L8.58639 -4.62634L12.0002 11.9999Z" fill="#C8DAFF"/>
<path fill-rule="evenodd" clip-rule="evenodd" d="M12.0002 11.9999L8.48561 -4.60428L8.99537 -4.70508L12.0002 11.9999Z" fill="#C7D9FF"/>
<path fill-rule="evenodd" clip-rule="evenodd" d="M12.0002 11.9999L8.89366 -4.68489L9.4063 -4.77417L12.0002 11.9999Z" fill="#C6D8FF"/>
<path fill-rule="evenodd" clip-rule="evenodd" d="M12.0003 11.9999L9.3037 -4.75596L9.81922 -4.83276L12.0003 11.9999Z" fill="#C5D8FF"/>
<path fill-rule="evenodd" clip-rule="evenodd" d="M12.0003 11.9999L9.71646 -4.81738L10.2329 -4.88074L12.0003 11.9999Z" fill="#C4D7FF"/>
<path fill-rule="evenodd" clip-rule="evenodd" d="M12.0003 11.9999L10.1292 -4.86831L10.6476 -4.91919L12.0003 11.9999Z" fill="#C3D6FF"/>
<path fill-rule="evenodd" clip-rule="evenodd" d="M12.0003 11.9998L10.5439 -4.9096L11.0633 -4.948L12.0003 11.9998Z" fill="#C2D6FF"/>
<path fill-rule="evenodd" clip-rule="evenodd" d="M12.0002 11.9999L10.9596 -4.94025L11.4799 -4.96521L12.0002 11.9999Z" fill="#C1D5FF"/>
<path fill-rule="evenodd" clip-rule="evenodd" d="M12.0002 11.9999L11.3752 -4.96042L11.8956 -4.9729L12.0002 11.9999Z" fill="#C0D4FF"/>
<path fill-rule="evenodd" clip-rule="evenodd" d="M12.0003 11.9998L11.792 -4.97107H12.3123L12.0003 11.9998Z" fill="#BFD4FF"/>
<path fill-rule="evenodd" clip-rule="evenodd" d="M12.0002 11.9998L12.2085 -4.97107L12.7288 -4.95763L12.0002 11.9998Z" fill="#BED3FF"/>
<path fill-rule="evenodd" clip-rule="evenodd" d="M12.0002 11.9999L12.6251 -4.96045L13.1445 -4.93453L12.0002 11.9999Z" fill="#BDD2FF"/>
<path fill-rule="evenodd" clip-rule="evenodd" d="M12.0002 11.9999L13.0408 -4.94031L13.5602 -4.90191L12.0002 11.9999Z" fill="#BCD2FF"/>
<path fill-rule="evenodd" clip-rule="evenodd" d="M12.0002 11.9999L13.4565 -4.90955L13.9749 -4.85867L12.0002 11.9999Z" fill="#BBD1FF"/>
<path fill-rule="evenodd" clip-rule="evenodd" d="M12.0002 11.9999L13.8703 -4.86829L14.3877 -4.80493L12.0002 11.9999Z" fill="#BAD0FF"/>
<path fill-rule="evenodd" clip-rule="evenodd" d="M12.0002 11.9999L14.284 -4.81738L14.7995 -4.74154L12.0002 11.9999Z" fill="#B9D0FF"/>
<path fill-rule="evenodd" clip-rule="evenodd" d="M12.0002 11.9999L14.6959 -4.75598L15.2095 -4.66766L12.0002 11.9999Z" fill="#B8CFFF"/>
<path fill-rule="evenodd" clip-rule="evenodd" d="M12.0002 11.9999L15.1067 -4.68494L15.6175 -4.58414L12.0002 11.9999Z" fill="#B7CEFF"/>
<path fill-rule="evenodd" clip-rule="evenodd" d="M12.0002 11.9999L15.5147 -4.60425L16.0235 -4.49001L12.0002 11.9999Z" fill="#B6CDFF"/>
<path fill-rule="evenodd" clip-rule="evenodd" d="M12.0002 11.9999L15.9218 -4.51306L16.4267 -4.38634L12.0002 11.9999Z" fill="#B5CDFF"/>
<path fill-rule="evenodd" clip-rule="evenodd" d="M12.0002 11.9998L16.3259 -4.41138L16.8271 -4.27314L12.0002 11.9998Z" fill="#B4CCFF"/>
<path fill-rule="evenodd" clip-rule="evenodd" d="M12.0002 11.9999L16.7272 -4.3009L17.2255 -4.14922L12.0002 11.9999Z" fill="#B3CBFF"/>
<path fill-rule="evenodd" clip-rule="evenodd" d="M12.0002 11.9999L17.1256 -4.17993L17.62 -4.01577L12.0002 11.9999Z" fill="#B2CBFF"/>
<path fill-rule="evenodd" clip-rule="evenodd" d="M12.0002 11.9998L17.5211 -4.04944L18.0117 -3.87376L12.0002 11.9998Z" fill="#B1CAFF"/>
<path fill-rule="evenodd" clip-rule="evenodd" d="M12.0002 11.9998L17.9138 -3.90833L18.3995 -3.72113L12.0002 11.9998Z" fill="#B0C9FF"/>
<path fill-rule="evenodd" clip-rule="evenodd" d="M12.0002 11.9999L18.3016 -3.75854L18.7835 -3.55982L12.0002 11.9999Z" fill="#AFC9FF"/>
<path fill-rule="evenodd" clip-rule="evenodd" d="M12.0002 11.9999L18.6866 -3.59912L19.1627 -3.38792L12.0002 11.9999Z" fill="#AEC8FF"/>
<path fill-rule="evenodd" clip-rule="evenodd" d="M12.0002 11.9999L19.0677 -3.43018L19.5381 -3.20746L12.0002 11.9999Z" fill="#ADC7FF"/>
<path fill-rule="evenodd" clip-rule="evenodd" d="M12.0002 11.9999L19.444 -3.25256L19.9096 -3.01832L12.0002 11.9999Z" fill="#ACC7FF"/>
<path fill-rule="evenodd" clip-rule="evenodd" d="M12.0002 11.9999L19.8165 -3.06543L20.2754 -2.81967L12.0002 11.9999Z" fill="#ABC6FF"/>
<path fill-rule="evenodd" clip-rule="evenodd" d="M12.0002 11.9998L20.1832 -2.86865L20.6373 -2.61233L12.0002 11.9998Z" fill="#AAC5FF"/>
<path fill-rule="evenodd" clip-rule="evenodd" d="M12.0002 11.9998L20.5461 -2.66321L20.9925 -2.39537L12.0002 11.9998Z" fill="#A9C5FF"/>
<path fill-rule="evenodd" clip-rule="evenodd" d="M12.0002 11.9999L20.9032 -2.4491L21.3429 -2.1707L12.0002 11.9999Z" fill="#A8C4FF"/>
<path fill-rule="evenodd" clip-rule="evenodd" d="M12.0002 11.9999L21.2555 -2.22632L21.6885 -1.9364L12.0002 11.9999Z" fill="#A7C3FF"/>
<path fill-rule="evenodd" clip-rule="evenodd" d="M12.0002 11.9999L21.6021 -1.995L22.0274 -1.69548L12.0002 11.9999Z" fill="#A6C3FF"/>
<path fill-rule="evenodd" clip-rule="evenodd" d="M12.0002 11.9999L21.9419 -1.755L22.3605 -1.44492L12.0002 11.9999Z" fill="#A5C2FF"/>
<path fill-rule="evenodd" clip-rule="evenodd" d="M12.0002 11.9999L22.277 -1.50732L22.6869 -1.18668L12.0002 11.9999Z" fill="#A4C1FF"/>
<path fill-rule="evenodd" clip-rule="evenodd" d="M12.0002 11.9999L22.6053 -1.25098L23.0075 -0.920737L12.0002 11.9999Z" fill="#A3C1FF"/>
<path fill-rule="evenodd" clip-rule="evenodd" d="M12.0002 11.9998L22.9269 -0.986084L23.3215 -0.646244L12.0002 11.9998Z" fill="#A2C0FF"/>
<path fill-rule="evenodd" clip-rule="evenodd" d="M12.0002 11.9999L23.2427 -0.714355L23.6287 -0.364915L12.0002 11.9999Z" fill="#A1BFFF"/>
<path fill-rule="evenodd" clip-rule="evenodd" d="M12.0002 11.9999L23.5509 -0.434937L23.9282 -0.0758965L12.0002 11.9999Z" fill="#A0BFFF"/>
<path fill-rule="evenodd" clip-rule="evenodd" d="M12.0002 11.9999L23.8523 -0.147949L24.221 0.220691L12.0002 11.9999Z" fill="#9FBEFF"/>
<path fill-rule="evenodd" clip-rule="evenodd" d="M12.0002 11.9999L24.1471 0.147705L24.5061 0.524025L12.0002 11.9999Z" fill="#9EBDFF"/>
<path fill-rule="evenodd" clip-rule="evenodd" d="M12.0002 11.9999L24.4351 0.449219L24.7845 0.835139L12.0002 11.9999Z" fill="#9DBDFF"/>
<path fill-rule="evenodd" clip-rule="evenodd" d="M12.0002 11.9999L24.7144 0.757324L25.0543 1.15188L12.0002 11.9999Z" fill="#9CBCFF"/>
<path fill-rule="evenodd" clip-rule="evenodd" d="M12.0002 11.9998L24.9861 1.07312L25.3163 1.47536L12.0002 11.9998Z" fill="#9BBBFF"/>
<path fill-rule="evenodd" clip-rule="evenodd" d="M12.0002 11.9999L25.2511 1.39478L25.5707 1.80566L12.0002 11.9999Z" fill="#9ABAFF"/>
<path fill-rule="evenodd" clip-rule="evenodd" d="M12.0002 11.9998L25.5074 1.72302L25.8175 2.14158L12.0002 11.9998Z" fill="#99BAFF"/>
<path fill-rule="evenodd" clip-rule="evenodd" d="M12.0002 11.9999L25.7551 2.05811L26.0546 2.48339L12.0002 11.9999Z" fill="#98B9FF"/>
<path fill-rule="evenodd" clip-rule="evenodd" d="M12.0002 11.9999L25.9951 2.39795L26.284 2.83091L12.0002 11.9999Z" fill="#97B8FF"/>
<path fill-rule="evenodd" clip-rule="evenodd" d="M12.0002 11.9999L26.2264 2.74451L26.5048 3.18515L12.0002 11.9999Z" fill="#96B8FF"/>
<path fill-rule="evenodd" clip-rule="evenodd" d="M12.0002 12L26.4491 3.09692L26.717 3.54332L12.0002 12Z" fill="#95B7FF"/>
<path fill-rule="evenodd" clip-rule="evenodd" d="M12.0002 11.9999L26.6632 3.45398L26.9195 3.9071L12.0002 11.9999Z" fill="#94B6FF"/>
<path fill-rule="evenodd" clip-rule="evenodd" d="M12.0002 11.9998L26.8687 3.81677L27.1135 4.27565L12.0002 11.9998Z" fill="#93B6FF"/>
<path fill-rule="evenodd" clip-rule="evenodd" d="M12.0002 11.9999L27.0645 4.18359L27.2987 4.64919L12.0002 11.9999Z" fill="#92B5FF"/>
<path fill-rule="evenodd" clip-rule="evenodd" d="M12.0002 11.9999L27.2527 4.55603L27.4744 5.02643L12.0002 11.9999Z" fill="#91B4FF"/>
<path fill-rule="evenodd" clip-rule="evenodd" d="M12.0002 11.9999L27.4303 4.93237L27.6415 5.40853L12.0002 11.9999Z" fill="#90B4FF"/>
<path fill-rule="evenodd" clip-rule="evenodd" d="M12.0002 11.9999L27.5992 5.3125L27.7979 5.79442L12.0002 11.9999Z" fill="#8FB3FF"/>
<path fill-rule="evenodd" clip-rule="evenodd" d="M12.0002 11.9999L27.7586 5.69751L27.9458 6.18423L12.0002 11.9999Z" fill="#8EB2FF"/>
<path fill-rule="evenodd" clip-rule="evenodd" d="M12.0002 11.9999L27.9083 6.0863L28.084 6.57686L12.0002 11.9999Z" fill="#8DB2FF"/>
<path fill-rule="evenodd" clip-rule="evenodd" d="M12.0002 11.9998L28.0485 6.47888L28.2117 6.97328L12.0002 11.9998Z" fill="#8CB1FF"/>
<path fill-rule="evenodd" clip-rule="evenodd" d="M12.0002 11.9998L28.1791 6.87439L28.3307 7.37263L12.0002 11.9998Z" fill="#8BB0FF"/>
<path fill-rule="evenodd" clip-rule="evenodd" d="M12.0002 11.9999L28.3 7.27283L28.4392 7.77491L12.0002 11.9999Z" fill="#8AB0FF"/>
<path fill-rule="evenodd" clip-rule="evenodd" d="M12.0002 11.9998L28.4114 7.67407L28.5381 8.17903L12.0002 11.9998Z" fill="#89AFFF"/>
<path fill-rule="evenodd" clip-rule="evenodd" d="M12.0002 11.9998L28.5131 8.07825L28.6264 8.58609L12.0002 11.9998Z" fill="#88AEFF"/>
<path fill-rule="evenodd" clip-rule="evenodd" d="M12.0002 11.9999L28.6034 8.48535L28.7051 8.99511L12.0002 11.9999Z" fill="#87AEFF"/>
<path fill-rule="evenodd" clip-rule="evenodd" d="M12.0002 11.9999L28.685 8.89331L28.7743 9.40595L12.0002 11.9999Z" fill="#86ADFF"/>
<path fill-rule="evenodd" clip-rule="evenodd" d="M12.0002 11.9999L28.756 9.30322L28.8328 9.81874L12.0002 11.9999Z" fill="#85ACFF"/>
<path fill-rule="evenodd" clip-rule="evenodd" d="M12.0002 11.9999L28.8175 9.71606L28.8808 10.2325L12.0002 11.9999Z" fill="#84ACFF"/>
<path fill-rule="evenodd" clip-rule="evenodd" d="M12.0002 11.9998L28.8683 10.1288L28.9192 10.6472L12.0002 11.9998Z" fill="#83ABFF"/>
<path fill-rule="evenodd" clip-rule="evenodd" d="M12.0002 11.9999L28.9096 10.5436L28.948 11.0629L12.0002 11.9999Z" fill="#82AAFF"/>
<path fill-rule="evenodd" clip-rule="evenodd" d="M12.0002 11.9999L28.9403 10.9592L28.9653 11.4795L12.0002 11.9999Z" fill="#81AAFF"/>
<path fill-rule="evenodd" clip-rule="evenodd" d="M12.0002 11.9998L28.9605 11.3749L28.973 11.8952L12.0002 11.9998Z" fill="#80A9FF"/>
<path fill-rule="evenodd" clip-rule="evenodd" d="M12.0002 11.9998L28.9701 11.7915V12.3118L12.0002 11.9998Z" fill="#7FA8FF"/>
<path fill-rule="evenodd" clip-rule="evenodd" d="M12.0002 11.9999L28.9701 12.2082L28.9576 12.7285L12.0002 11.9999Z" fill="#7EA7FF"/>
<path fill-rule="evenodd" clip-rule="evenodd" d="M12.0002 11.9999L28.9605 12.6248L28.9346 13.1442L12.0002 11.9999Z" fill="#7DA7FF"/>
<path fill-rule="evenodd" clip-rule="evenodd" d="M12.0002 11.9999L28.9403 13.0405L28.9019 13.5599L12.0002 11.9999Z" fill="#7CA6FF"/>
<path fill-rule="evenodd" clip-rule="evenodd" d="M12.0002 11.9999L28.9096 13.4562L28.8587 13.9746L12.0002 11.9999Z" fill="#7BA5FF"/>
<path fill-rule="evenodd" clip-rule="evenodd" d="M12.0002 11.9999L28.8683 13.87L28.805 14.3874L12.0002 11.9999Z" fill="#7AA5FF"/>
<path fill-rule="evenodd" clip-rule="evenodd" d="M12.0002 11.9999L28.8175 14.2837L28.7407 14.7992L12.0002 11.9999Z" fill="#79A4FF"/>
<path fill-rule="evenodd" clip-rule="evenodd" d="M12.0002 11.9999L28.756 14.6956L28.6677 15.2092L12.0002 11.9999Z" fill="#78A3FF"/>
<path fill-rule="evenodd" clip-rule="evenodd" d="M12.0002 11.9999L28.685 15.1064L28.5832 15.6172L12.0002 11.9999Z" fill="#77A3FF"/>
<path fill-rule="evenodd" clip-rule="evenodd" d="M12.0002 11.9999L28.6034 15.5144L28.4901 16.0232L12.0002 11.9999Z" fill="#76A2FF"/>
<path fill-rule="evenodd" clip-rule="evenodd" d="M12.0002 11.9999L28.5131 15.9215L28.3864 16.4264L12.0002 11.9999Z" fill="#75A1FF"/>
<path fill-rule="evenodd" clip-rule="evenodd" d="M12.0002 11.9999L28.4114 16.3256L28.2731 16.8268L12.0002 11.9999Z" fill="#74A1FF"/>
<path fill-rule="evenodd" clip-rule="evenodd" d="M12.0002 11.9999L28.3 16.7269L28.1493 17.2252L12.0002 11.9999Z" fill="#73A0FF"/>
<path fill-rule="evenodd" clip-rule="evenodd" d="M12.0002 11.9999L28.1791 17.1253L28.0159 17.6197L12.0002 11.9999Z" fill="#729FFF"/>
<path fill-rule="evenodd" clip-rule="evenodd" d="M12.0002 11.9999L28.0485 17.5208L27.8738 18.0114L12.0002 11.9999Z" fill="#719FFF"/>
<path fill-rule="evenodd" clip-rule="evenodd" d="M12.0002 11.9999L27.9083 17.9135L27.7211 18.3992L12.0002 11.9999Z" fill="#709EFF"/>
<path fill-rule="evenodd" clip-rule="evenodd" d="M12.0002 11.9999L27.7586 18.3013L27.5589 18.7832L12.0002 11.9999Z" fill="#6F9DFF"/>
<path fill-rule="evenodd" clip-rule="evenodd" d="M12.0002 11.9999L27.5992 18.6863L27.388 19.1624L12.0002 11.9999Z" fill="#6E9DFF"/>
<path fill-rule="evenodd" clip-rule="evenodd" d="M12.0002 11.9999L27.4303 19.0674L27.2075 19.5378L12.0002 11.9999Z" fill="#6D9CFF"/>
<path fill-rule="evenodd" clip-rule="evenodd" d="M12.0002 11.9999L27.2527 19.4437L27.0184 19.9093L12.0002 11.9999Z" fill="#6C9BFF"/>
<path fill-rule="evenodd" clip-rule="evenodd" d="M12.0002 11.9999L27.0645 19.8162L26.8197 20.2751L12.0002 11.9999Z" fill="#6B9BFF"/>
<path fill-rule="evenodd" clip-rule="evenodd" d="M12.0002 11.9999L26.8687 20.1829L26.6123 20.637L12.0002 11.9999Z" fill="#6A9AFF"/>
<path fill-rule="evenodd" clip-rule="evenodd" d="M12.0002 11.9999L26.6632 20.5458L26.3954 20.9922L12.0002 11.9999Z" fill="#6999FF"/>
<path fill-rule="evenodd" clip-rule="evenodd" d="M12.0002 11.9999L26.4491 20.9029L26.1707 21.3426L12.0002 11.9999Z" fill="#6899FF"/>
<path fill-rule="evenodd" clip-rule="evenodd" d="M12.0002 11.9999L26.2264 21.2552L25.9365 21.6882L12.0002 11.9999Z" fill="#6798FF"/>
<path fill-rule="evenodd" clip-rule="evenodd" d="M12.0002 11.9999L25.9951 21.6018L25.6955 22.0271L12.0002 11.9999Z" fill="#6697FF"/>
<path fill-rule="evenodd" clip-rule="evenodd" d="M12.0002 11.9999L25.7551 21.9416L25.445 22.3602L12.0002 11.9999Z" fill="#6597FF"/>
<path fill-rule="evenodd" clip-rule="evenodd" d="M12.0002 11.9999L25.5074 22.2767L25.1867 22.6866L12.0002 11.9999Z" fill="#6496FF"/>
<path fill-rule="evenodd" clip-rule="evenodd" d="M12.0002 11.9999L25.2511 22.605L24.9208 23.0072L12.0002 11.9999Z" fill="#6395FF"/>
<path fill-rule="evenodd" clip-rule="evenodd" d="M12.0002 11.9999L24.9861 22.9266L24.6463 23.3212L12.0002 11.9999Z" fill="#6294FF"/>
<path fill-rule="evenodd" clip-rule="evenodd" d="M12.0002 11.9999L24.7144 23.2424L24.365 23.6284L12.0002 11.9999Z" fill="#6194FF"/>
<path fill-rule="evenodd" clip-rule="evenodd" d="M12.0002 11.9999L24.4351 23.5506L24.076 23.9279L12.0002 11.9999Z" fill="#6093FF"/>
<path fill-rule="evenodd" clip-rule="evenodd" d="M12.0002 11.9999L24.1471 23.852L23.7794 24.2207L12.0002 11.9999Z" fill="#5F92FF"/>
<path fill-rule="evenodd" clip-rule="evenodd" d="M12.0002 11.9999L23.8523 24.1468L23.476 24.5058L12.0002 11.9999Z" fill="#5E92FF"/>
<path fill-rule="evenodd" clip-rule="evenodd" d="M12.0002 11.9999L23.5509 24.4348L23.165 24.7842L12.0002 11.9999Z" fill="#5D91FF"/>
<path fill-rule="evenodd" clip-rule="evenodd" d="M12.0002 11.9999L23.2427 24.7141L22.8482 25.054L12.0002 11.9999Z" fill="#5C90FF"/>
<path fill-rule="evenodd" clip-rule="evenodd" d="M12.0002 11.9999L22.9269 24.9858L22.5247 25.316L12.0002 11.9999Z" fill="#5B90FF"/>
<path fill-rule="evenodd" clip-rule="evenodd" d="M12.0002 11.9999L22.6053 25.2508L22.1944 25.5704L12.0002 11.9999Z" fill="#5A8FFF"/>
<path fill-rule="evenodd" clip-rule="evenodd" d="M12.0002 11.9999L22.277 25.5071L21.8584 25.8172L12.0002 11.9999Z" fill="#598EFF"/>
<path fill-rule="evenodd" clip-rule="evenodd" d="M12.0002 11.9999L21.9419 25.7548L21.5167 26.0543L12.0002 11.9999Z" fill="#588EFF"/>
<path fill-rule="evenodd" clip-rule="evenodd" d="M12.0002 11.9999L21.6021 25.9948L21.1682 26.2837L12.0002 11.9999Z" fill="#578DFF"/>
<path fill-rule="evenodd" clip-rule="evenodd" d="M12.0002 11.9999L21.2555 26.2261L20.8149 26.5045L12.0002 11.9999Z" fill="#568CFF"/>
<path fill-rule="evenodd" clip-rule="evenodd" d="M12.0002 11.9999L20.9032 26.4488L20.4568 26.7167L12.0002 11.9999Z" fill="#558CFF"/>
<path fill-rule="evenodd" clip-rule="evenodd" d="M12.0002 11.9999L20.5461 26.6629L20.093 26.9192L12.0002 11.9999Z" fill="#548BFF"/>
<path fill-rule="evenodd" clip-rule="evenodd" d="M12.0002 11.9999L20.1832 26.8684L19.7243 27.1132L12.0002 11.9999Z" fill="#538AFF"/>
<path fill-rule="evenodd" clip-rule="evenodd" d="M12.0002 11.9999L19.8165 27.0642L19.3509 27.2984L12.0002 11.9999Z" fill="#528AFF"/>
<path fill-rule="evenodd" clip-rule="evenodd" d="M12.0002 11.9999L19.444 27.2524L18.9736 27.4741L12.0002 11.9999Z" fill="#5189FF"/>
<path fill-rule="evenodd" clip-rule="evenodd" d="M12.0002 11.9999L19.0677 27.43L18.5915 27.6412L12.0002 11.9999Z" fill="#5088FF"/>
<path fill-rule="evenodd" clip-rule="evenodd" d="M12.0002 11.9999L18.6866 27.5989L18.2056 27.7976L12.0002 11.9999Z" fill="#4F88FF"/>
<path fill-rule="evenodd" clip-rule="evenodd" d="M12.0002 11.9999L18.3016 27.7583L17.8159 27.9455L12.0002 11.9999Z" fill="#4E87FF"/>
<path fill-rule="evenodd" clip-rule="evenodd" d="M12.0002 11.9999L17.9138 27.908L17.4232 28.0837L12.0002 11.9999Z" fill="#4D86FF"/>
<path fill-rule="evenodd" clip-rule="evenodd" d="M12.0002 11.9999L17.5211 28.0482L17.0267 28.2114L12.0002 11.9999Z" fill="#4C86FF"/>
<path fill-rule="evenodd" clip-rule="evenodd" d="M12.0002 11.9999L17.1256 28.1788L16.6274 28.3304L12.0002 11.9999Z" fill="#4B85FF"/>
<path fill-rule="evenodd" clip-rule="evenodd" d="M12.0002 11.9999L16.7272 28.2997L16.2251 28.4389L12.0002 11.9999Z" fill="#4A84FF"/>
<path fill-rule="evenodd" clip-rule="evenodd" d="M12.0002 11.9999L16.3259 28.4111L15.82 28.5378L12.0002 11.9999Z" fill="#4984FF"/>
<path fill-rule="evenodd" clip-rule="evenodd" d="M12.0002 11.9999L15.9218 28.5128L15.4139 28.6261L12.0002 11.9999Z" fill="#4883FF"/>
<path fill-rule="evenodd" clip-rule="evenodd" d="M12.0002 11.9999L15.5147 28.6031L15.004 28.7048L12.0002 11.9999Z" fill="#4782FF"/>
<path fill-rule="evenodd" clip-rule="evenodd" d="M12.0002 11.9999L15.1067 28.6847L14.5941 28.774L12.0002 11.9999Z" fill="#4681FF"/>
<path fill-rule="evenodd" clip-rule="evenodd" d="M12.0002 11.9999L14.6959 28.7557L14.1813 28.8325L12.0002 11.9999Z" fill="#4581FF"/>
<path fill-rule="evenodd" clip-rule="evenodd" d="M12.0002 11.9999L14.284 28.8172L13.7675 28.8805L12.0002 11.9999Z" fill="#4480FF"/>
<path fill-rule="evenodd" clip-rule="evenodd" d="M12.0002 11.9999L13.8703 28.868L13.3528 28.9189L12.0002 11.9999Z" fill="#437FFF"/>
<path fill-rule="evenodd" clip-rule="evenodd" d="M12.0002 11.9999L13.4565 28.9093L12.9371 28.9477L12.0002 11.9999Z" fill="#427FFF"/>
<path fill-rule="evenodd" clip-rule="evenodd" d="M12.0002 11.9999L13.0408 28.94L12.5205 28.965L12.0002 11.9999Z" fill="#417EFF"/>
<path fill-rule="evenodd" clip-rule="evenodd" d="M12.0002 11.9999L12.6251 28.9602L12.1039 28.9727L12.0002 11.9999Z" fill="#407DFF"/>
<path fill-rule="evenodd" clip-rule="evenodd" d="M12.0004 11.9999L12.2087 28.9698H11.6874L12.0004 11.9999Z" fill="#3F7DFF"/>
<path fill-rule="evenodd" clip-rule="evenodd" d="M12.0003 11.9999L11.792 28.9698L11.2717 28.9573L12.0003 11.9999Z" fill="#3E7CFF"/>
<path fill-rule="evenodd" clip-rule="evenodd" d="M12.0002 11.9999L11.3752 28.9602L10.8549 28.9343L12.0002 11.9999Z" fill="#3D7BFF"/>
<path fill-rule="evenodd" clip-rule="evenodd" d="M12.0004 11.9999L10.9597 28.94L10.4404 28.9016L12.0004 11.9999Z" fill="#3C7BFF"/>
<path fill-rule="evenodd" clip-rule="evenodd" d="M12.0003 11.9999L10.544 28.9093L10.0256 28.8584L12.0003 11.9999Z" fill="#3B7AFF"/>
<path fill-rule="evenodd" clip-rule="evenodd" d="M12.0002 11.9999L10.1292 28.868L9.61269 28.8047L12.0002 11.9999Z" fill="#3A79FF"/>
<path fill-rule="evenodd" clip-rule="evenodd" d="M12.0002 11.9999L9.71633 28.8172L9.20081 28.7404L12.0002 11.9999Z" fill="#3979FF"/>
<path fill-rule="evenodd" clip-rule="evenodd" d="M12.0002 11.9999L9.30355 28.7557L8.79091 28.6674L12.0002 11.9999Z" fill="#3878FF"/>
<path fill-rule="evenodd" clip-rule="evenodd" d="M12.0003 11.9999L8.89375 28.6847L8.38303 28.5829L12.0003 11.9999Z" fill="#3777FF"/>
<path fill-rule="evenodd" clip-rule="evenodd" d="M12.0003 11.9999L8.48574 28.6031L7.97694 28.4898L12.0003 11.9999Z" fill="#3677FF"/>
<path fill-rule="evenodd" clip-rule="evenodd" d="M12.0003 11.9999L8.07872 28.5128L7.57376 28.3861L12.0003 11.9999Z" fill="#3576FF"/>
<path fill-rule="evenodd" clip-rule="evenodd" d="M12.0003 11.9999L7.6745 28.4111L7.17242 28.2728L12.0003 11.9999Z" fill="#3475FF"/>
<path fill-rule="evenodd" clip-rule="evenodd" d="M12.0003 11.9999L7.27326 28.2997L6.77502 28.149L12.0003 11.9999Z" fill="#3375FF"/>
<path fill-rule="evenodd" clip-rule="evenodd" d="M12.0002 11.9999L6.87476 28.1788L6.38036 28.0156L12.0002 11.9999Z" fill="#3274FF"/>
<path fill-rule="evenodd" clip-rule="evenodd" d="M12.0003 11.9999L6.47936 28.0482L5.9888 27.8735L12.0003 11.9999Z" fill="#3173FF"/>
<path fill-rule="evenodd" clip-rule="evenodd" d="M12.0002 11.9999L6.08662 27.908L5.60086 27.7208L12.0002 11.9999Z" fill="#3073FF"/>
<path fill-rule="evenodd" clip-rule="evenodd" d="M12.0002 11.9999L5.6978 27.7583L5.21684 27.5586L12.0002 11.9999Z" fill="#2F72FF"/>
<path fill-rule="evenodd" clip-rule="evenodd" d="M12.0002 11.9999L5.31286 27.5989L4.83766 27.3877L12.0002 11.9999Z" fill="#2E71FF"/>
<path fill-rule="evenodd" clip-rule="evenodd" d="M12.0001 11.9999L4.93262 27.43L4.46222 27.2072L12.0001 11.9999Z" fill="#2D71FF"/>
<path fill-rule="evenodd" clip-rule="evenodd" d="M12.0002 11.9999L4.55639 27.2524L4.09079 27.0181L12.0002 11.9999Z" fill="#2C70FF"/>
<path fill-rule="evenodd" clip-rule="evenodd" d="M12.0002 11.9999L4.18387 27.0642L3.72499 26.8194L12.0002 11.9999Z" fill="#2B6FFF"/>
<path fill-rule="evenodd" clip-rule="evenodd" d="M12.0003 11.9999L3.81729 26.8684L3.3632 26.612L12.0003 11.9999Z" fill="#2A6EFF"/>
<path fill-rule="evenodd" clip-rule="evenodd" d="M12.0003 11.9999L3.45435 26.6629L3.00795 26.3951L12.0003 11.9999Z" fill="#296EFF"/>
<path fill-rule="evenodd" clip-rule="evenodd" d="M12.0003 11.9999L3.09721 26.4488L2.65657 26.1704L12.0003 11.9999Z" fill="#286DFF"/>
<path fill-rule="evenodd" clip-rule="evenodd" d="M12.0002 11.9999L2.7448 26.2261L2.31184 25.9362L12.0002 11.9999Z" fill="#276CFF"/>
<path fill-rule="evenodd" clip-rule="evenodd" d="M12.0003 11.9999L2.39838 25.9948L1.9731 25.6952L12.0003 11.9999Z" fill="#266CFF"/>
<path fill-rule="evenodd" clip-rule="evenodd" d="M12.0003 11.9999L2.0585 25.7548L1.63994 25.4447L12.0003 11.9999Z" fill="#256BFF"/>
<path fill-rule="evenodd" clip-rule="evenodd" d="M12.0002 11.9999L1.72343 25.5071L1.31255 25.1864L12.0002 11.9999Z" fill="#246AFF"/>
<path fill-rule="evenodd" clip-rule="evenodd" d="M12.0002 11.9999L1.39513 25.2508L0.992889 24.9205L12.0002 11.9999Z" fill="#236AFF"/>
<path fill-rule="evenodd" clip-rule="evenodd" d="M12.0002 11.9999L1.07352 24.9858L0.678955 24.646L12.0002 11.9999Z" fill="#2269FF"/>
<path fill-rule="evenodd" clip-rule="evenodd" d="M12.0003 11.9999L0.757746 24.7141L0.371826 24.3647L12.0003 11.9999Z" fill="#2168FF"/>
<path fill-rule="evenodd" clip-rule="evenodd" d="M12.0004 11.9999L0.449637 24.4348L0.0723572 24.0757L12.0004 11.9999Z" fill="#2068FF"/>
<path fill-rule="evenodd" clip-rule="evenodd" d="M12.0002 11.9999L0.148074 24.1468L-0.220566 23.7791L12.0002 11.9999Z" fill="#1F67FF"/>
<path fill-rule="evenodd" clip-rule="evenodd" d="M12.0003 11.9999L-0.147535 23.852L-0.505615 23.4757L12.0003 11.9999Z" fill="#1E66FF"/>
<path fill-rule="evenodd" clip-rule="evenodd" d="M12.0002 11.9999L-0.434694 23.5506L-0.784134 23.1647L12.0002 11.9999Z" fill="#1D66FF"/>
<path fill-rule="evenodd" clip-rule="evenodd" d="M12.0002 11.9999L-0.714054 23.2424L-1.05389 22.8479L12.0002 11.9999Z" fill="#1C65FF"/>
<path fill-rule="evenodd" clip-rule="evenodd" d="M12.0003 11.9999L-0.985663 22.9266L-1.3159 22.5244L12.0003 11.9999Z" fill="#1B64FF"/>
<path fill-rule="evenodd" clip-rule="evenodd" d="M12.0003 11.9999L-1.25056 22.605L-1.57024 22.1941L12.0003 11.9999Z" fill="#1A64FF"/>
<path fill-rule="evenodd" clip-rule="evenodd" d="M12.0003 11.9999L-1.50694 22.2767L-1.81702 21.8581L12.0003 11.9999Z" fill="#1963FF"/>
<path fill-rule="evenodd" clip-rule="evenodd" d="M12.0002 11.9999L-1.75463 21.9416L-2.05415 21.5164L12.0002 11.9999Z" fill="#1862FF"/>
<path fill-rule="evenodd" clip-rule="evenodd" d="M12.0003 11.9999L-1.99458 21.6018L-2.28354 21.1679L12.0003 11.9999Z" fill="#1762FF"/>
<path fill-rule="evenodd" clip-rule="evenodd" d="M12.0002 11.9999L-2.22603 21.2552L-2.50443 20.8146L12.0002 11.9999Z" fill="#1661FF"/>
<path fill-rule="evenodd" clip-rule="evenodd" d="M12.0002 11.9999L-2.44871 20.9029L-2.71655 20.4565L12.0002 11.9999Z" fill="#1560FF"/>
<path fill-rule="evenodd" clip-rule="evenodd" d="M12.0003 11.9999L-2.6627 20.5458L-2.91902 20.0927L12.0003 11.9999Z" fill="#1460FF"/>
<path fill-rule="evenodd" clip-rule="evenodd" d="M12.0003 11.9999L-2.86813 20.1829L-3.11389 19.724L12.0003 11.9999Z" fill="#135FFF"/>
<path fill-rule="evenodd" clip-rule="evenodd" d="M12.0002 11.9999L-3.06506 19.8162L-3.29834 19.3506L12.0002 11.9999Z" fill="#125EFF"/>
<path fill-rule="evenodd" clip-rule="evenodd" d="M12.0003 11.9999L-3.25221 19.4437L-3.47397 18.9733L12.0003 11.9999Z" fill="#115EFF"/>
<path fill-rule="evenodd" clip-rule="evenodd" d="M12.0002 11.9999L-3.42988 19.0674L-3.64108 18.5912L12.0002 11.9999Z" fill="#105DFF"/>
<path fill-rule="evenodd" clip-rule="evenodd" d="M12.0002 11.9999L-3.59881 18.6863L-3.79849 18.2053L12.0002 11.9999Z" fill="#0F5CFF"/>
<path fill-rule="evenodd" clip-rule="evenodd" d="M12.0002 11.9999L-3.75817 18.3013L-3.94537 17.8156L12.0002 11.9999Z" fill="#0E5BFF"/>
<path fill-rule="evenodd" clip-rule="evenodd" d="M12.0003 11.9999L-3.90788 17.9135L-4.08356 17.4229L12.0003 11.9999Z" fill="#0D5BFF"/>
<path fill-rule="evenodd" clip-rule="evenodd" d="M12.0003 11.9999L-4.04896 17.5208L-4.2112 17.0264L12.0003 11.9999Z" fill="#0C5AFF"/>
<path fill-rule="evenodd" clip-rule="evenodd" d="M12.0002 11.9999L-4.17962 17.1253L-4.33034 16.6271L12.0002 11.9999Z" fill="#0B59FF"/>
<path fill-rule="evenodd" clip-rule="evenodd" d="M12.0002 11.9999L-4.30057 16.7269L-4.43881 16.2248L12.0002 11.9999Z" fill="#0A59FF"/>
<path fill-rule="evenodd" clip-rule="evenodd" d="M12.0002 11.9999L-4.41097 16.3256L-4.53769 15.8197L12.0002 11.9999Z" fill="#0958FF"/>
<path fill-rule="evenodd" clip-rule="evenodd" d="M12.0002 11.9999L-4.51271 15.9215L-4.62599 15.4136L12.0002 11.9999Z" fill="#0857FF"/>
<path fill-rule="evenodd" clip-rule="evenodd" d="M12.0003 11.9999L-4.6039 15.5144L-4.7047 15.0037L12.0003 11.9999Z" fill="#0757FF"/>
<path fill-rule="evenodd" clip-rule="evenodd" d="M12.0003 11.9999L-4.68454 15.1064L-4.77382 14.5938L12.0003 11.9999Z" fill="#0656FF"/>
<path fill-rule="evenodd" clip-rule="evenodd" d="M12.0003 11.9999L-4.75554 14.6956L-4.83234 14.181L12.0003 11.9999Z" fill="#0555FF"/>
<path fill-rule="evenodd" clip-rule="evenodd" d="M12.0002 11.9999L-4.81709 14.2837L-4.88045 13.7672L12.0002 11.9999Z" fill="#0455FF"/>
<path fill-rule="evenodd" clip-rule="evenodd" d="M12.0002 11.9999L-4.86797 13.87L-4.91885 13.3525L12.0002 11.9999Z" fill="#0354FF"/>
<path fill-rule="evenodd" clip-rule="evenodd" d="M12.0002 11.9999L-4.9092 13.4562L-4.9476 12.9368L12.0002 11.9999Z" fill="#0253FF"/>
<path fill-rule="evenodd" clip-rule="evenodd" d="M12.0003 11.9999L-4.9399 13.0405L-4.96486 12.5202L12.0003 11.9999Z" fill="#0153FF"/>
<path fill-rule="evenodd" clip-rule="evenodd" d="M12.0003 11.9999L-4.96007 12.6248L-4.97255 12.1036L12.0003 11.9999Z" fill="#0052FF"/>
<path fill-rule="evenodd" clip-rule="evenodd" d="M12.0002 11.9998L-4.97064 12.2081V11.7915L12.0002 11.9998Z" fill="white"/>
</g>
</g>
</g>
<defs>
<clipPath id="clip0_39_683">
<rect width="59" height="24" fill="white"/>
</clipPath>
<clipPath id="clip1_39_683">
<rect width="24" height="24" fill="white"/>
</clipPath>
</defs>
</symbol>



  <symbol fill="none" viewBox="0 0 66 25" id="blast">
    <g clip-path="url(#clip0_39_711)">
      <circle cx="12" cy="12.5" r="12" fill="black"></circle>
      <path d="M16.4427 12.4086L18.8758 11.1962L19.7145 8.62184L18.0371 7.40112H6.86789L4.28528 9.3194H17.4142L16.7167 11.4785H11.4518L10.9453 13.0563H16.2101L14.732 17.5987L17.1983 16.378L18.0786 13.6542L16.426 12.4418L16.4427 12.4086Z" fill="#FCFC03"></path>
      <path d="M7.99713 15.6472L9.51681 10.9139L7.83105 9.65161L5.29826 17.5987H14.7319L15.363 15.6472H7.99713Z" fill="#FCFC03"></path>
      <path d="M64.3646 17.0537C64.8011 17.0537 65.2377 16.9852 65.6742 16.8481V18.1958C65.4762 18.2821 65.2199 18.3532 64.9052 18.409C64.5955 18.4699 64.2732 18.5004 63.9382 18.5004C62.2427 18.5004 61.395 17.607 61.395 15.8202V11.2821H60.2453V10.4903L61.4788 9.83544L62.0879 8.05371H63.192V9.92681H65.5904V11.2821H63.192V15.7897C63.192 16.2212 63.2986 16.541 63.5118 16.7491C63.73 16.9522 64.0143 17.0537 64.3646 17.0537Z" fill="black"></path>
      <path d="M59.2859 15.9494C59.2859 16.7717 58.9864 17.4037 58.3874 17.8454C57.7884 18.2819 56.9305 18.5002 55.8138 18.5002C54.692 18.5002 53.791 18.3301 53.1107 17.99V16.4443C54.1006 16.9012 55.0219 17.1296 55.8747 17.1296C56.9762 17.1296 57.527 16.7971 57.527 16.1322C57.527 15.919 57.4661 15.7413 57.3442 15.5992C57.2224 15.457 57.0219 15.3098 56.7427 15.1575C56.4635 15.0053 56.0752 14.8327 55.5778 14.6398C54.6082 14.2641 53.9508 13.8885 53.6057 13.5129C53.2656 13.1372 53.0955 12.6499 53.0955 12.0509C53.0955 11.3301 53.3849 10.7718 53.9635 10.3758C54.5473 9.9748 55.3392 9.77429 56.3392 9.77429C57.329 9.77429 58.2656 9.9748 59.1488 10.3758L58.5701 11.7235C57.6615 11.3479 56.8975 11.1601 56.2783 11.1601C55.3341 11.1601 54.862 11.4291 54.862 11.9672C54.862 12.2311 54.9838 12.4545 55.2275 12.6372C55.4762 12.82 56.0143 13.0712 56.8417 13.391C57.5371 13.6601 58.0422 13.9063 58.3569 14.1296C58.6717 14.353 58.9052 14.6119 59.0574 14.9063C59.2097 15.1956 59.2859 15.5433 59.2859 15.9494Z" fill="black"></path>
      <path d="M49.8518 18.3479L49.494 17.1753H49.4331C49.027 17.688 48.6183 18.0382 48.2072 18.2261C47.796 18.4088 47.2681 18.5002 46.6234 18.5002C45.796 18.5002 45.1488 18.2768 44.6818 17.8301C44.2199 17.3834 43.9889 16.7514 43.9889 15.9342C43.9889 15.0662 44.3112 14.4113 44.9559 13.9697C45.6006 13.5281 46.5828 13.287 47.9026 13.2464L49.3569 13.2007V12.7514C49.3569 12.2134 49.23 11.8124 48.9762 11.5484C48.7275 11.2794 48.3392 11.1448 47.8112 11.1448C47.3798 11.1448 46.9661 11.2083 46.5701 11.3352C46.1742 11.4621 45.7935 11.6119 45.428 11.7844L44.8493 10.5053C45.3062 10.2667 45.8062 10.0865 46.3493 9.96465C46.8925 9.83774 47.4051 9.77429 47.8874 9.77429C48.9584 9.77429 49.7656 10.0078 50.3087 10.4748C50.8569 10.9418 51.131 11.6753 51.131 12.6753V18.3479H49.8518ZM47.1869 17.1296C47.8366 17.1296 48.3569 16.9494 48.7478 16.589C49.1437 16.2235 49.3417 15.7134 49.3417 15.0586V14.3276L48.2605 14.3733C47.4178 14.4037 46.8036 14.5459 46.4178 14.7997C46.0371 15.0484 45.8468 15.4316 45.8468 15.9494C45.8468 16.325 45.9584 16.6169 46.1818 16.825C46.4051 17.0281 46.7402 17.1296 47.1869 17.1296Z" fill="black"></path>
      <path d="M42.0169 18.348H40.2275V6.50024H42.0169V18.348Z" fill="black"></path>
      <path d="M30.1235 7.21594H33.428C34.961 7.21594 36.0676 7.43929 36.7478 7.88599C37.4331 8.33269 37.7757 9.03828 37.7757 10.0027C37.7757 10.6525 37.6082 11.1931 37.2732 11.6246C36.9382 12.056 36.4559 12.3276 35.8265 12.4393V12.5154C36.6082 12.6626 37.1818 12.9545 37.5473 13.3911C37.9179 13.8225 38.1031 14.4088 38.1031 15.1499C38.1031 16.1499 37.7529 16.9342 37.0524 17.5027C36.357 18.0662 35.3874 18.3479 34.1438 18.3479H30.1235V7.21594ZM31.9433 11.8149H33.6945C34.4559 11.8149 35.0118 11.6956 35.362 11.4571C35.7123 11.2134 35.8874 10.8022 35.8874 10.2236C35.8874 9.70071 35.6971 9.32254 35.3163 9.08904C34.9407 8.85554 34.3417 8.73878 33.5194 8.73878H31.9433V11.8149ZM31.9433 13.2921V16.8175H33.8773C34.6387 16.8175 35.2123 16.6728 35.5981 16.3835C35.9889 16.089 36.1844 15.6271 36.1844 14.9977C36.1844 14.419 35.9864 13.9901 35.5905 13.7109C35.1945 13.4317 34.593 13.2921 33.7859 13.2921H31.9433Z" fill="black"></path>
    </g>
    <defs>
      <clipPath id="clip0_39_711">
        <rect width="65.6741" height="24" fill="white" transform="translate(0 0.5)"></rect>
      </clipPath>
    </defs>
  </symbol>

  <symbol fill="none" viewBox="0 0 66 25" id="linea">
    <g clip-path="url(#clip0_40_735)">
      <circle cx="12" cy="12.75" r="12" fill="black"></circle>
      <path d="M15.5459 10.7706C16.5534 10.7706 17.3702 9.95387 17.3702 8.94635C17.3702 7.93883 16.5534 7.12207 15.5459 7.12207C14.5384 7.12207 13.7216 7.93883 13.7216 8.94635C13.7216 9.95387 14.5384 10.7706 15.5459 10.7706Z" fill="white"></path>
      <path d="M8.74498 16.5295L15.6025 16.5304C15.6145 16.5304 15.626 16.5351 15.6345 16.5436C15.643 16.5521 15.6478 16.5636 15.6478 16.5756L15.6487 18.3329C15.6487 18.3449 15.6439 18.3564 15.6354 18.3648C15.6269 18.3733 15.6154 18.3781 15.6034 18.3781H6.67526C6.66325 18.3781 6.65176 18.3733 6.64328 18.3648C6.63479 18.3564 6.63 18.3449 6.63 18.3329L6.63175 8.91733C6.63175 8.90532 6.63653 8.89379 6.64502 8.8853C6.6535 8.87681 6.66499 8.87207 6.677 8.87207L8.65272 8.87294C8.66473 8.87294 8.67622 8.87768 8.6847 8.88617C8.69319 8.89466 8.69798 8.90619 8.69798 8.9182L8.69972 16.4842C8.69972 16.4962 8.7045 16.5077 8.71299 16.5162C8.72148 16.5247 8.73296 16.5295 8.74498 16.5295Z" fill="white"></path>
      <path d="M64.332 18.1228L63.9975 17.027H63.9406C63.5611 17.5061 63.1792 17.8334 62.795 18.009C62.4108 18.1797 61.9174 18.2651 61.3149 18.2651C60.5417 18.2651 59.9369 18.0564 59.5005 17.6389C59.0688 17.2215 58.8529 16.6309 58.8529 15.8672C58.8529 15.056 59.1542 14.444 59.7566 14.0313C60.3591 13.6186 61.277 13.3933 62.5104 13.3553L63.8695 13.3126V12.8928C63.8695 12.39 63.7509 12.0152 63.5137 11.7685C63.2812 11.5171 62.9183 11.3914 62.425 11.3914C62.0218 11.3914 61.6352 11.4507 61.2651 11.5693C60.8951 11.6879 60.5393 11.8278 60.1978 11.9891L59.657 10.7937C60.0839 10.5707 60.5512 10.4023 61.0588 10.2885C61.5664 10.1699 62.0455 10.1106 62.4961 10.1106C63.4971 10.1106 64.2513 10.3288 64.7589 10.7652C65.2712 11.2017 65.5274 11.8871 65.5274 12.8217V18.1228H64.332ZM61.8415 16.9843C62.4487 16.9843 62.9349 16.8159 63.3002 16.4791C63.6702 16.1375 63.8552 15.6608 63.8552 15.0489V14.3658L62.8448 14.4084C62.0573 14.4369 61.4834 14.5697 61.1228 14.8069C60.767 15.0394 60.5892 15.3975 60.5892 15.8814C60.5892 16.2324 60.6935 16.5052 60.9022 16.6997C61.111 16.8894 61.4241 16.9843 61.8415 16.9843Z" fill="black"></path>
      <path d="M54.4481 18.2651C53.2243 18.2651 52.266 17.9093 51.5734 17.1978C50.8856 16.4815 50.5417 15.4971 50.5417 14.2448C50.5417 12.9592 50.8619 11.9488 51.5023 11.2135C52.1427 10.4782 53.0226 10.1106 54.1422 10.1106C55.1811 10.1106 56.0017 10.4261 56.6042 11.057C57.2066 11.6879 57.5079 12.556 57.5079 13.6613V14.565H52.2636C52.2874 15.3287 52.4937 15.917 52.8827 16.3297C53.2717 16.7376 53.8196 16.9416 54.5264 16.9416C54.9913 16.9416 55.423 16.8989 55.8215 16.8135C56.2247 16.7234 56.6564 16.5763 57.1165 16.3724V17.7314C56.7085 17.9259 56.2958 18.0635 55.8784 18.1442C55.4609 18.2248 54.9842 18.2651 54.4481 18.2651ZM54.1422 11.3772C53.6109 11.3772 53.1839 11.5456 52.8614 11.8824C52.5435 12.2192 52.3538 12.7102 52.2921 13.3553H55.8642C55.8547 12.7054 55.6981 12.2145 55.3945 11.8824C55.0909 11.5456 54.6735 11.3772 54.1422 11.3772Z" fill="black"></path>
      <path d="M48.6846 18.1228H47.0053V13.2842C47.0053 12.677 46.882 12.2239 46.6353 11.9251C46.3934 11.6262 46.0068 11.4768 45.4755 11.4768C44.7686 11.4768 44.2516 11.6855 43.9242 12.103C43.5969 12.5204 43.4333 13.2201 43.4333 14.2021V18.1228H41.7611V10.2529H43.0704L43.3052 11.2847H43.3906C43.6278 10.9099 43.9646 10.6206 44.401 10.4166C44.8374 10.2126 45.3213 10.1106 45.8526 10.1106C47.7406 10.1106 48.6846 11.0712 48.6846 12.9924V18.1228Z" fill="black"></path>
      <path d="M39.363 18.1228H37.6908V10.2529H39.363V18.1228ZM37.5912 8.16799C37.5912 7.86913 37.6718 7.63906 37.8331 7.47777C37.9992 7.31648 38.234 7.23584 38.5376 7.23584C38.8317 7.23584 39.0594 7.31648 39.2207 7.47777C39.3867 7.63906 39.4697 7.86913 39.4697 8.16799C39.4697 8.45261 39.3867 8.67794 39.2207 8.84398C39.0594 9.00526 38.8317 9.08591 38.5376 9.08591C38.234 9.08591 37.9992 9.00526 37.8331 8.84398C37.6718 8.67794 37.5912 8.45261 37.5912 8.16799Z" fill="black"></path>
      <path d="M29.9703 18.1226V7.71948H31.671V16.6638H36.0756V18.1226H29.9703Z" fill="black"></path>
    </g>
    <defs>
      <clipPath id="clip0_40_735">
        <rect width="65.5272" height="24" fill="white" transform="translate(0 0.75)"></rect>
      </clipPath>
    </defs>
  </symbol>

  <symbol fill="none" viewBox="0 0 103 24" id="op-mainnet">
    <g clip-path="url(#clip0_39_657)">
      <path d="M35.9389 17.0535C35.078 17.0535 34.3301 16.9013 33.6955 16.597C33.0694 16.2927 32.5477 15.897 32.1303 15.4101C31.7215 14.9144 31.4129 14.384 31.2042 13.8188C31.0041 13.2449 30.9043 12.6928 30.9043 12.1624V11.8754C30.9043 11.2928 31.0086 10.7146 31.2173 10.1407C31.426 9.55809 31.739 9.03203 32.1564 8.56248C32.5823 8.09292 33.1085 7.71902 33.7346 7.44077C34.3607 7.15382 35.0954 7.01035 35.9389 7.01035C36.7736 7.01035 37.504 7.15382 38.1301 7.44077C38.7562 7.71902 39.2779 8.09292 39.6953 8.56248C40.1212 9.03203 40.4387 9.55809 40.6474 10.1407C40.8561 10.7146 40.9605 11.2928 40.9605 11.8754V12.1624C40.9605 12.6928 40.8561 13.2449 40.6474 13.8188C40.4473 14.384 40.1387 14.9144 39.7214 15.4101C39.3126 15.897 38.7908 16.2927 38.1562 16.597C37.5301 16.9013 36.791 17.0535 35.9389 17.0535ZM35.9389 15.3318C36.4258 15.3318 36.8605 15.2449 37.2432 15.071C37.6345 14.8971 37.9648 14.6579 38.2345 14.3536C38.5126 14.0406 38.7213 13.6884 38.8605 13.2971C39.0083 12.8971 39.0823 12.4754 39.0823 12.0319C39.0823 11.5537 39.0083 11.1146 38.8605 10.7146C38.7213 10.3146 38.5126 9.96678 38.2345 9.67114C37.9648 9.37549 37.6345 9.14507 37.2432 8.97985C36.8519 8.81463 36.417 8.73203 35.9389 8.73203C35.4518 8.73203 35.0128 8.81463 34.6215 8.97985C34.2302 9.14507 33.8954 9.37549 33.6172 9.67114C33.3476 9.96678 33.1389 10.3146 32.9911 10.7146C32.852 11.1146 32.7825 11.5537 32.7825 12.0319C32.7825 12.4754 32.852 12.8971 32.9911 13.2971C33.1389 13.6884 33.3476 14.0406 33.6172 14.3536C33.8954 14.6579 34.2302 14.8971 34.6215 15.071C35.0128 15.2449 35.4518 15.3318 35.9389 15.3318ZM43.8851 13.884V12.2797H45.7372C46.1112 12.2797 46.4242 12.2058 46.6763 12.058C46.9372 11.9102 47.1328 11.7059 47.2632 11.445C47.4024 11.1841 47.4719 10.8841 47.4719 10.545C47.4719 10.2059 47.4024 9.90591 47.2632 9.64505C47.1328 9.38419 46.9372 9.1842 46.6763 9.04507C46.4242 8.89725 46.1112 8.82334 45.7372 8.82334H43.8851V7.21904H45.5807C46.3806 7.21904 47.0588 7.34947 47.6154 7.61033C48.1805 7.87119 48.611 8.2451 48.9067 8.73203C49.2024 9.21029 49.3501 9.77982 49.3501 10.4407V10.6494C49.3501 11.3102 49.2024 11.8841 48.9067 12.3711C48.611 12.8493 48.1805 13.2232 47.6154 13.4928C47.0588 13.7536 46.3806 13.884 45.5807 13.884H43.8851ZM42.2938 16.8057V7.21904H44.1459V16.8057H42.2938ZM52.7808 16.8057V7.28425H55.3112L57.6981 12.971H57.9328L60.3067 7.28425H62.8762V16.8057H61.0371V8.67986L61.2719 8.70595L58.7024 14.8623H56.8111L54.2286 8.70595L54.4764 8.67986V16.8057H52.7808ZM68.9164 16.8057V14.7058H68.6164V12.3711C68.6164 11.9624 68.5164 11.658 68.3164 11.458C68.1163 11.258 67.8077 11.158 67.3904 11.158C67.1729 11.158 66.9121 11.1624 66.6078 11.1711C66.3033 11.1798 65.9948 11.1928 65.6817 11.2102C65.3773 11.2189 65.1034 11.232 64.86 11.2493V9.71026C65.0599 9.69288 65.286 9.67548 65.5382 9.65809C65.7904 9.64071 66.0469 9.63201 66.3078 9.63201C66.5772 9.6233 66.8295 9.61896 67.0643 9.61896C67.7947 9.61896 68.399 9.71461 68.8773 9.90591C69.3642 10.0972 69.7294 10.3972 69.9729 10.8059C70.225 11.2146 70.3511 11.7493 70.3511 12.4102V16.8057H68.9164ZM66.6339 16.9883C66.1207 16.9883 65.6687 16.897 65.2774 16.7144C64.8947 16.5318 64.5947 16.2709 64.3774 15.9318C64.1687 15.5927 64.0644 15.184 64.0644 14.7058C64.0644 14.184 64.1903 13.758 64.4426 13.4275C64.7035 13.0971 65.0642 12.8493 65.5252 12.6841C65.9948 12.5189 66.5426 12.4363 67.1686 12.4363H68.8121V13.5188H67.1425C66.7252 13.5188 66.4034 13.6232 66.1774 13.8319C65.9599 14.0319 65.8513 14.2927 65.8513 14.6145C65.8513 14.9362 65.9599 15.1971 66.1774 15.397C66.4034 15.597 66.7252 15.697 67.1425 15.697C67.3946 15.697 67.6251 15.6536 67.8338 15.5666C68.0511 15.471 68.2294 15.3144 68.3686 15.0971C68.5164 14.871 68.5989 14.5666 68.6164 14.184L69.0599 14.6927C69.0163 15.1884 68.8946 15.6057 68.6947 15.9449C68.5033 16.284 68.2337 16.5448 67.886 16.7274C67.5469 16.9013 67.1295 16.9883 66.6339 16.9883ZM72.1757 16.8057V9.72331H73.9887V16.8057H72.1757ZM71.1844 11.0798V9.72331H73.9887V11.0798H71.1844ZM72.8409 8.87551C72.4844 8.87551 72.2191 8.78421 72.0452 8.6016C71.88 8.4103 71.7974 8.17118 71.7974 7.88424C71.7974 7.59729 71.88 7.36251 72.0452 7.17991C72.2191 6.99731 72.4844 6.90601 72.8409 6.90601C73.1973 6.90601 73.4582 6.99731 73.6235 7.17991C73.7887 7.36251 73.8713 7.59729 73.8713 7.88424C73.8713 8.17118 73.7887 8.4103 73.6235 8.6016C73.4582 8.78421 73.1973 8.87551 72.8409 8.87551ZM75.6217 16.8057V9.72331H77.0564V12.7623H76.926C76.926 12.0406 77.0216 11.4407 77.2129 10.9624C77.4041 10.4755 77.6867 10.1103 78.0607 9.86678C78.4432 9.6233 78.9171 9.50158 79.4824 9.50158H79.5607C80.404 9.50158 81.0431 9.77548 81.478 10.3233C81.9127 10.8624 82.1301 11.6711 82.1301 12.7493V16.8057H80.3172V12.5928C80.3172 12.158 80.191 11.8059 79.9389 11.5363C79.6954 11.2667 79.3563 11.132 78.9216 11.132C78.4781 11.132 78.1172 11.2711 77.839 11.5493C77.5694 11.8189 77.4346 12.1841 77.4346 12.645V16.8057H75.6217ZM83.6226 16.8057V9.72331H85.0574V12.7623H84.927C84.927 12.0406 85.0227 11.4407 85.2139 10.9624C85.4053 10.4755 85.6879 10.1103 86.0617 9.86678C86.4444 9.6233 86.9183 9.50158 87.4834 9.50158H87.5616C88.4052 9.50158 89.0443 9.77548 89.479 10.3233C89.9139 10.8624 90.1311 11.6711 90.1311 12.7493V16.8057H88.3181V12.5928C88.3181 12.158 88.1922 11.8059 87.9399 11.5363C87.6966 11.2667 87.3574 11.132 86.9225 11.132C86.4791 11.132 86.1183 11.2711 85.84 11.5493C85.5705 11.8189 85.4356 12.1841 85.4356 12.645V16.8057H83.6226ZM94.7933 17.0535C94.1845 17.0535 93.6498 16.9492 93.189 16.7405C92.7368 16.5318 92.3585 16.2535 92.0542 15.9057C91.7585 15.5492 91.5325 15.1536 91.376 14.7188C91.2282 14.284 91.1543 13.8406 91.1543 13.3884V13.1406C91.1543 12.671 91.2282 12.2189 91.376 11.7841C91.5325 11.3406 91.7585 10.9494 92.0542 10.6102C92.3585 10.2624 92.7325 9.98851 93.1759 9.78852C93.6194 9.57983 94.1324 9.47549 94.715 9.47549C95.4803 9.47549 96.1194 9.64505 96.6324 9.98417C97.1541 10.3146 97.5454 10.7537 97.8062 11.3015C98.0671 11.8406 98.1975 12.4232 98.1975 13.0493V13.7014H91.9238V12.5928H97.0628L96.5019 13.1406C96.5019 12.6884 96.4367 12.3015 96.3063 11.9798C96.1758 11.658 95.9759 11.4102 95.7063 11.2363C95.4454 11.0624 95.1151 10.9754 94.715 10.9754C94.315 10.9754 93.9759 11.0667 93.6977 11.2493C93.4195 11.4319 93.2063 11.6972 93.0586 12.045C92.9194 12.3841 92.8499 12.7928 92.8499 13.271C92.8499 13.7145 92.9194 14.1101 93.0586 14.4579C93.1977 14.7971 93.4107 15.0666 93.6977 15.2666C93.9846 15.4579 94.3498 15.5536 94.7933 15.5536C95.2367 15.5536 95.5977 15.4666 95.8759 15.2927C96.154 15.1101 96.3324 14.8884 96.4106 14.6275H98.0801C97.9758 15.1144 97.7759 15.5405 97.4802 15.9057C97.1845 16.2709 96.8062 16.5535 96.3454 16.7535C95.8932 16.9535 95.3759 17.0535 94.7933 17.0535ZM102.334 16.897C101.682 16.897 101.142 16.8144 100.716 16.6492C100.299 16.4753 99.9859 16.1883 99.7772 15.7883C99.5685 15.3797 99.4642 14.8318 99.4642 14.1449L99.4772 7.72772H101.173L101.16 14.2623C101.16 14.6101 101.251 14.8797 101.434 15.071C101.625 15.2536 101.895 15.3449 102.242 15.3449H103.351V16.897H102.334ZM98.3425 11.0537V9.72331H103.351V11.0537H98.3425Z" fill="black"></path>
      <mask id="mask0_39_657" maskUnits="userSpaceOnUse" x="0" y="-1" width="25" height="25">
        <path d="M24.3 -0.0201416H0.300003V23.9799H24.3V-0.0201416Z" fill="white"></path>
      </mask>
      <g mask="url(#mask0_39_657)">
        <path d="M12.3 23.9799C18.9274 23.9799 24.3 18.6073 24.3 11.9799C24.3 5.35244 18.9274 -0.0201416 12.3 -0.0201416C5.67258 -0.0201416 0.300003 5.35244 0.300003 11.9799C0.300003 18.6073 5.67258 23.9799 12.3 23.9799Z" fill="#FF0420"></path>
        <path d="M8.80227 15.1691C8.08776 15.1691 7.50231 15.001 7.04598 14.6647C6.59565 14.3225 6.3705 13.8361 6.3705 13.2057C6.3705 13.0735 6.3855 12.9114 6.41553 12.7193C6.49359 12.287 6.60465 11.7676 6.74877 11.1612C7.15707 9.50993 8.21085 8.68433 9.91008 8.68433C10.3724 8.68433 10.7867 8.76239 11.153 8.91851C11.5193 9.0686 11.8075 9.29678 12.0176 9.60299C12.2278 9.90323 12.3329 10.2635 12.3329 10.6838C12.3329 10.8099 12.3178 10.969 12.2878 11.1612C12.1978 11.6955 12.0897 12.2149 11.9636 12.7193C11.7534 13.5419 11.3902 14.1573 10.8738 14.5656C10.3574 14.9679 9.6669 15.1691 8.80227 15.1691ZM8.92836 13.8721C9.2646 13.8721 9.54981 13.7731 9.78399 13.5749C10.0242 13.3768 10.1953 13.0735 10.2974 12.6652C10.4355 12.1008 10.5406 11.6085 10.6126 11.1882C10.6366 11.0621 10.6486 10.933 10.6486 10.8009C10.6486 10.2545 10.3634 9.98129 9.79299 9.98129C9.45675 9.98129 9.16854 10.0803 8.92836 10.2785C8.69418 10.4766 8.52606 10.7799 8.424 11.1882C8.31591 11.5905 8.20785 12.0828 8.09976 12.6652C8.07573 12.7853 8.06373 12.9114 8.06373 13.0435C8.06373 13.5959 8.35194 13.8721 8.92836 13.8721Z" fill="white"></path>
        <path d="M12.7467 15.0791C12.6806 15.0791 12.6296 15.058 12.5936 15.016C12.5636 14.968 12.5545 14.9139 12.5666 14.8539L13.8095 8.99959C13.8215 8.93353 13.8545 8.8795 13.9085 8.83747C13.9626 8.79544 14.0196 8.77441 14.0797 8.77441H16.4754C17.1419 8.77441 17.6763 8.9125 18.0786 9.18871C18.4869 9.46492 18.6911 9.86422 18.6911 10.3866C18.6911 10.5367 18.673 10.6928 18.637 10.8549C18.4869 11.5455 18.1837 12.0558 17.7273 12.3861C17.277 12.7163 16.6586 12.8814 15.872 12.8814H14.6561L14.2418 14.8539C14.2298 14.9199 14.1968 14.974 14.1427 15.016C14.0887 15.058 14.0316 15.0791 13.9716 15.0791H12.7467ZM15.935 11.6385C16.1872 11.6385 16.4064 11.5695 16.5925 11.4314C16.7846 11.2933 16.9107 11.0951 16.9708 10.8369C16.9888 10.7349 16.9978 10.6448 16.9978 10.5667C16.9978 10.3926 16.9468 10.2605 16.8447 10.1704C16.7426 10.0744 16.5685 10.0263 16.3223 10.0263H15.2415L14.8993 11.6385H15.935Z" fill="white"></path>
      </g>
    </g>
    <defs>
      <clipPath id="clip0_39_657">
        <rect width="103" height="24" fill="white"></rect>
      </clipPath>
    </defs>
  </symbol>

 </svg>
