<svg width="102" height="24" viewBox="0 0 102 24" fill="none" xmlns="http://www.w3.org/2000/svg">
<g clip-path="url(#clip0_110_140)">
<path d="M35.1187 17C34.2703 17 33.5333 16.85 32.9079 16.5501C32.2909 16.2502 31.7768 15.8603 31.3655 15.3805C30.9626 14.892 30.6585 14.3693 30.4529 13.8123C30.2556 13.2468 30.1572 12.7027 30.1572 12.1799V11.8972C30.1572 11.323 30.2601 10.7532 30.4657 10.1877C30.6714 9.61353 30.9798 9.09512 31.3912 8.63239C31.8109 8.16967 32.3295 7.80119 32.9464 7.52699C33.5634 7.24422 34.2874 7.10283 35.1187 7.10283C35.9413 7.10283 36.6611 7.24422 37.278 7.52699C37.895 7.80119 38.4092 8.16967 38.8205 8.63239C39.2402 9.09512 39.5531 9.61353 39.7588 10.1877C39.9644 10.7532 40.0673 11.323 40.0673 11.8972V12.1799C40.0673 12.7027 39.9644 13.2468 39.7588 13.8123C39.5616 14.3693 39.2575 14.892 38.8462 15.3805C38.4433 15.8603 37.9292 16.2502 37.3038 16.5501C36.6868 16.85 35.9584 17 35.1187 17ZM35.1187 15.3033C35.5985 15.3033 36.0269 15.2176 36.404 15.0463C36.7896 14.8749 37.1152 14.6392 37.3809 14.3393C37.655 14.0308 37.8607 13.6838 37.9978 13.2982C38.1435 12.904 38.2164 12.4884 38.2164 12.0514C38.2164 11.5801 38.1435 11.1474 37.9978 10.7532C37.8607 10.359 37.655 10.0163 37.3809 9.72494C37.1152 9.43358 36.7896 9.20652 36.404 9.0437C36.0184 8.88088 35.5898 8.79949 35.1187 8.79949C34.6387 8.79949 34.2061 8.88088 33.8205 9.0437C33.4349 9.20652 33.1049 9.43358 32.8307 9.72494C32.565 10.0163 32.3594 10.359 32.2138 10.7532C32.0766 11.1474 32.0081 11.5801 32.0081 12.0514C32.0081 12.4884 32.0766 12.904 32.2138 13.2982C32.3594 13.6838 32.565 14.0308 32.8307 14.3393C33.1049 14.6392 33.4349 14.8749 33.8205 15.0463C34.2061 15.2176 34.6387 15.3033 35.1187 15.3033ZM42.9494 13.8766V12.2956H44.7746C45.1431 12.2956 45.4516 12.2228 45.7 12.0771C45.9571 11.9315 46.1499 11.7301 46.2784 11.473C46.4156 11.2159 46.4841 10.9203 46.4841 10.5861C46.4841 10.2519 46.4156 9.9563 46.2784 9.69923C46.1499 9.44216 45.9571 9.24508 45.7 9.10797C45.4516 8.9623 45.1431 8.88946 44.7746 8.88946H42.9494V7.30848H44.6203C45.4086 7.30848 46.077 7.43702 46.6255 7.69409C47.1824 7.95116 47.6065 8.31963 47.898 8.79949C48.1894 9.27079 48.335 9.83204 48.335 10.4833V10.6889C48.335 11.3402 48.1894 11.9057 47.898 12.3856C47.6065 12.8569 47.1824 13.2254 46.6255 13.491C46.077 13.7481 45.4086 13.8766 44.6203 13.8766H42.9494ZM41.3812 16.7558V7.30848H43.2064V16.7558H41.3812ZM51.7158 16.7558V7.37275H54.2094L56.5616 12.9769H56.7929L59.1323 7.37275H61.6644V16.7558H59.852V8.74807L60.0834 8.77378L57.5513 14.8406H55.6875L53.1425 8.77378L53.3868 8.74807V16.7558H51.7158ZM67.6168 16.7558V14.6864H67.3212V12.3856C67.3212 11.9829 67.2226 11.6829 67.0256 11.4859C66.8284 11.2888 66.5243 11.1902 66.113 11.1902C65.8987 11.1902 65.6416 11.1945 65.3418 11.2031C65.0417 11.2117 64.7376 11.2245 64.4292 11.2416C64.1291 11.2502 63.8592 11.2631 63.6194 11.2802V9.7635C63.8164 9.74636 64.0392 9.72921 64.2878 9.71208C64.5362 9.69495 64.7891 9.68638 65.0461 9.68638C65.3116 9.6778 65.5603 9.67352 65.7916 9.67352C66.5114 9.67352 67.1069 9.76777 67.5783 9.9563C68.0581 10.1448 68.418 10.4405 68.658 10.8432C68.9064 11.2459 69.0307 11.7729 69.0307 12.4242V16.7558H67.6168ZM65.3675 16.9357C64.8618 16.9357 64.4163 16.8458 64.0307 16.6658C63.6536 16.4859 63.3579 16.2288 63.1438 15.8946C62.9382 15.5604 62.8353 15.1577 62.8353 14.6864C62.8353 14.1722 62.9595 13.7523 63.2081 13.4267C63.4652 13.1011 63.8206 12.8569 64.2749 12.6941C64.7376 12.5313 65.2775 12.4499 65.8945 12.4499H67.514V13.5167H65.8688C65.4574 13.5167 65.1403 13.6195 64.9176 13.8252C64.7033 14.0223 64.5963 14.2793 64.5963 14.5964C64.5963 14.9135 64.7033 15.1705 64.9176 15.3676C65.1403 15.5647 65.4574 15.6632 65.8688 15.6632C66.1172 15.6632 66.3443 15.6204 66.55 15.5347C66.7641 15.4405 66.9398 15.2862 67.077 15.072C67.2226 14.8492 67.3039 14.5493 67.3212 14.1722L67.7582 14.6735C67.7152 15.162 67.5953 15.5733 67.3983 15.9075C67.2097 16.2416 66.944 16.4987 66.6014 16.6787C66.2672 16.85 65.8559 16.9357 65.3675 16.9357ZM70.8287 16.7558V9.77635H72.6154V16.7558H70.8287ZM69.8519 11.1131V9.77635H72.6154V11.1131H69.8519ZM71.4842 8.94087C71.133 8.94087 70.8715 8.8509 70.7002 8.67095C70.5373 8.48243 70.456 8.24679 70.456 7.96401C70.456 7.68123 70.5373 7.44987 70.7002 7.26992C70.8715 7.08997 71.133 7 71.4842 7C71.8355 7 72.0926 7.08997 72.2555 7.26992C72.4183 7.44987 72.4997 7.68123 72.4997 7.96401C72.4997 8.24679 72.4183 8.48243 72.2555 8.67095C72.0926 8.8509 71.8355 8.94087 71.4842 8.94087ZM74.2246 16.7558V9.77635H75.6385V12.7712H75.51C75.51 12.06 75.6042 11.4687 75.7927 10.9974C75.9811 10.5176 76.2597 10.1577 76.6282 9.91774C77.0052 9.6778 77.4721 9.55784 78.0292 9.55784H78.1064C78.9374 9.55784 79.5672 9.82776 79.9958 10.3676C80.4242 10.8989 80.6385 11.6958 80.6385 12.7584V16.7558H78.8519V12.6041C78.8519 12.1757 78.7275 11.8286 78.4791 11.563C78.2391 11.2973 77.9049 11.1645 77.4765 11.1645C77.0395 11.1645 76.6838 11.3016 76.4097 11.5758C76.144 11.8415 76.0112 12.2014 76.0112 12.6555V16.7558H74.2246ZM82.1093 16.7558V9.77635H83.5232V12.7712H83.3946C83.3946 12.06 83.489 11.4687 83.6774 10.9974C83.866 10.5176 84.1446 10.1577 84.5129 9.91774C84.8901 9.6778 85.357 9.55784 85.9139 9.55784H85.991C86.8223 9.55784 87.4521 9.82776 87.8805 10.3676C88.3091 10.8989 88.5232 11.6958 88.5232 12.7584V16.7558H86.7365V12.6041C86.7365 12.1757 86.6124 11.8286 86.3638 11.563C86.124 11.2973 85.7898 11.1645 85.3612 11.1645C84.9242 11.1645 84.5687 11.3016 84.2944 11.5758C84.0289 11.8415 83.8959 12.2014 83.8959 12.6555V16.7558H82.1093ZM93.1176 17C92.5177 17 91.9907 16.8972 91.5366 16.6915C91.0909 16.4859 90.7182 16.2117 90.4183 15.8689C90.1269 15.5176 89.9042 15.1277 89.7499 14.6992C89.6043 14.2708 89.5314 13.8338 89.5314 13.3882V13.144C89.5314 12.6812 89.6043 12.2356 89.7499 11.8072C89.9042 11.3702 90.1269 10.9846 90.4183 10.6504C90.7182 10.3076 91.0867 10.0377 91.5237 9.84062C91.9607 9.63496 92.4663 9.53213 93.0404 9.53213C93.7946 9.53213 94.4244 9.69923 94.9299 10.0334C95.444 10.359 95.8296 10.7918 96.0867 11.3316C96.3438 11.8629 96.4723 12.437 96.4723 13.054V13.6967H90.2898V12.6041H95.3541L94.8014 13.144C94.8014 12.6984 94.7371 12.3171 94.6086 12C94.48 11.6829 94.283 11.4387 94.0173 11.2674C93.7602 11.096 93.4347 11.0103 93.0404 11.0103C92.6462 11.0103 92.312 11.1003 92.0379 11.2802C91.7637 11.4602 91.5537 11.7215 91.408 12.0643C91.2709 12.3985 91.2024 12.8012 91.2024 13.2725C91.2024 13.7095 91.2709 14.0994 91.408 14.4422C91.5452 14.7763 91.7551 15.042 92.0379 15.2391C92.3206 15.4276 92.6805 15.5219 93.1176 15.5219C93.5546 15.5219 93.9102 15.4362 94.1844 15.2648C94.4585 15.0848 94.6343 14.8663 94.7114 14.6093H96.3566C96.2538 15.0891 96.0568 15.509 95.7654 15.8689C95.474 16.2288 95.1012 16.5073 94.6471 16.7044C94.2015 16.9015 93.6917 17 93.1176 17ZM100.548 16.8458C99.9057 16.8458 99.3744 16.7644 98.9545 16.6015C98.5432 16.4302 98.2347 16.1474 98.0291 15.7532C97.8234 15.3505 97.7206 14.8106 97.7206 14.1337L97.7334 7.80977H99.4044L99.3915 14.2494C99.3915 14.5921 99.4815 14.8577 99.6614 15.0463C99.85 15.2262 100.116 15.3162 100.458 15.3162H101.551V16.8458H100.548ZM96.6152 11.0874V9.77635H101.551V11.0874H96.6152Z" fill="black"/>
<mask id="mask0_110_140" style="mask-type:luminance" maskUnits="userSpaceOnUse" x="-1" y="0" width="25" height="24">
<path d="M23.553 0H-0.447021V24H23.553V0Z" fill="white"/>
</mask>
<g mask="url(#mask0_110_140)">
<path d="M11.553 24C18.1804 24 23.553 18.6274 23.553 12C23.553 5.37258 18.1804 0 11.553 0C4.92556 0 -0.447021 5.37258 -0.447021 12C-0.447021 18.6274 4.92556 24 11.553 24Z" fill="#FF0420"/>
<path d="M8.05531 15.1894C7.3408 15.1894 6.75535 15.0212 6.29902 14.685C5.84869 14.3427 5.62354 13.8564 5.62354 13.2259C5.62354 13.0938 5.63854 12.9317 5.66857 12.7396C5.74663 12.3072 5.85769 11.7878 6.00181 11.1814C6.41011 9.53019 7.46389 8.70459 9.16312 8.70459C9.62548 8.70459 10.0398 8.78265 10.406 8.93877C10.7723 9.08886 11.0605 9.31704 11.2707 9.62325C11.4808 9.92349 11.5859 10.2838 11.5859 10.7041C11.5859 10.8302 11.5709 10.9893 11.5409 11.1814C11.4508 11.7158 11.3427 12.2352 11.2166 12.7396C11.0065 13.5622 10.6432 14.1776 10.1268 14.5859C9.61045 14.9882 8.91994 15.1894 8.05531 15.1894ZM8.1814 13.8924C8.51764 13.8924 8.80285 13.7933 9.03703 13.5952C9.27721 13.397 9.44833 13.0938 9.55042 12.6855C9.68851 12.1211 9.7936 11.6287 9.86563 11.2084C9.88966 11.0823 9.90166 10.9532 9.90166 10.8211C9.90166 10.2747 9.61645 10.0015 9.04603 10.0015C8.70979 10.0015 8.42158 10.1006 8.1814 10.2988C7.94722 10.4969 7.7791 10.8001 7.67704 11.2084C7.56895 11.6107 7.46089 12.1031 7.3528 12.6855C7.32877 12.8056 7.31677 12.9317 7.31677 13.0638C7.31677 13.6162 7.60498 13.8924 8.1814 13.8924Z" fill="white"/>
<path d="M11.9996 15.0993C11.9335 15.0993 11.8825 15.0783 11.8465 15.0363C11.8165 14.9882 11.8075 14.9342 11.8195 14.8741L13.0624 9.01986C13.0744 8.9538 13.1074 8.89977 13.1614 8.85774C13.2155 8.81571 13.2725 8.79468 13.3326 8.79468H15.7283C16.3948 8.79468 16.9292 8.93277 17.3315 9.20898C17.7398 9.48519 17.944 9.88449 17.944 10.4069C17.944 10.557 17.926 10.7131 17.8899 10.8752C17.7398 11.5657 17.4366 12.0761 16.9803 12.4063C16.5299 12.7366 15.9115 12.9017 15.1249 12.9017H13.909L13.4947 14.8741C13.4827 14.9402 13.4497 14.9942 13.3956 15.0363C13.3416 15.0783 13.2846 15.0993 13.2245 15.0993H11.9996ZM15.1879 11.6588C15.4401 11.6588 15.6593 11.5897 15.8454 11.4516C16.0376 11.3135 16.1637 11.1154 16.2237 10.8572C16.2417 10.7551 16.2507 10.6651 16.2507 10.587C16.2507 10.4129 16.1997 10.2808 16.0976 10.1907C15.9955 10.0946 15.8214 10.0466 15.5752 10.0466H14.4944L14.1522 11.6588H15.1879Z" fill="white"/>
</g>
</g>
<defs>
<clipPath id="clip0_110_140">
<rect width="102" height="24" fill="white"/>
</clipPath>
</defs>
</svg>
