<svg width="103" height="24" viewBox="0 0 103 24" fill="none" xmlns="http://www.w3.org/2000/svg">
<g clip-path="url(#clip0_39_657)">
<path d="M35.9389 17.0535C35.078 17.0535 34.3301 16.9013 33.6955 16.597C33.0694 16.2927 32.5477 15.897 32.1303 15.4101C31.7215 14.9144 31.4129 14.384 31.2042 13.8188C31.0041 13.2449 30.9043 12.6928 30.9043 12.1624V11.8754C30.9043 11.2928 31.0086 10.7146 31.2173 10.1407C31.426 9.55809 31.739 9.03203 32.1564 8.56248C32.5823 8.09292 33.1085 7.71902 33.7346 7.44077C34.3607 7.15382 35.0954 7.01035 35.9389 7.01035C36.7736 7.01035 37.504 7.15382 38.1301 7.44077C38.7562 7.71902 39.2779 8.09292 39.6953 8.56248C40.1212 9.03203 40.4387 9.55809 40.6474 10.1407C40.8561 10.7146 40.9605 11.2928 40.9605 11.8754V12.1624C40.9605 12.6928 40.8561 13.2449 40.6474 13.8188C40.4473 14.384 40.1387 14.9144 39.7214 15.4101C39.3126 15.897 38.7908 16.2927 38.1562 16.597C37.5301 16.9013 36.791 17.0535 35.9389 17.0535ZM35.9389 15.3318C36.4258 15.3318 36.8605 15.2449 37.2432 15.071C37.6345 14.8971 37.9648 14.6579 38.2345 14.3536C38.5126 14.0406 38.7213 13.6884 38.8605 13.2971C39.0083 12.8971 39.0823 12.4754 39.0823 12.0319C39.0823 11.5537 39.0083 11.1146 38.8605 10.7146C38.7213 10.3146 38.5126 9.96678 38.2345 9.67114C37.9648 9.37549 37.6345 9.14507 37.2432 8.97985C36.8519 8.81463 36.417 8.73203 35.9389 8.73203C35.4518 8.73203 35.0128 8.81463 34.6215 8.97985C34.2302 9.14507 33.8954 9.37549 33.6172 9.67114C33.3476 9.96678 33.1389 10.3146 32.9911 10.7146C32.852 11.1146 32.7825 11.5537 32.7825 12.0319C32.7825 12.4754 32.852 12.8971 32.9911 13.2971C33.1389 13.6884 33.3476 14.0406 33.6172 14.3536C33.8954 14.6579 34.2302 14.8971 34.6215 15.071C35.0128 15.2449 35.4518 15.3318 35.9389 15.3318ZM43.8851 13.884V12.2797H45.7372C46.1112 12.2797 46.4242 12.2058 46.6763 12.058C46.9372 11.9102 47.1328 11.7059 47.2632 11.445C47.4024 11.1841 47.4719 10.8841 47.4719 10.545C47.4719 10.2059 47.4024 9.90591 47.2632 9.64505C47.1328 9.38419 46.9372 9.1842 46.6763 9.04507C46.4242 8.89725 46.1112 8.82334 45.7372 8.82334H43.8851V7.21904H45.5807C46.3806 7.21904 47.0588 7.34947 47.6154 7.61033C48.1805 7.87119 48.611 8.2451 48.9067 8.73203C49.2024 9.21029 49.3501 9.77982 49.3501 10.4407V10.6494C49.3501 11.3102 49.2024 11.8841 48.9067 12.3711C48.611 12.8493 48.1805 13.2232 47.6154 13.4928C47.0588 13.7536 46.3806 13.884 45.5807 13.884H43.8851ZM42.2938 16.8057V7.21904H44.1459V16.8057H42.2938ZM52.7808 16.8057V7.28425H55.3112L57.6981 12.971H57.9328L60.3067 7.28425H62.8762V16.8057H61.0371V8.67986L61.2719 8.70595L58.7024 14.8623H56.8111L54.2286 8.70595L54.4764 8.67986V16.8057H52.7808ZM68.9164 16.8057V14.7058H68.6164V12.3711C68.6164 11.9624 68.5164 11.658 68.3164 11.458C68.1163 11.258 67.8077 11.158 67.3904 11.158C67.1729 11.158 66.9121 11.1624 66.6078 11.1711C66.3033 11.1798 65.9948 11.1928 65.6817 11.2102C65.3773 11.2189 65.1034 11.232 64.86 11.2493V9.71026C65.0599 9.69288 65.286 9.67548 65.5382 9.65809C65.7904 9.64071 66.0469 9.63201 66.3078 9.63201C66.5772 9.6233 66.8295 9.61896 67.0643 9.61896C67.7947 9.61896 68.399 9.71461 68.8773 9.90591C69.3642 10.0972 69.7294 10.3972 69.9729 10.8059C70.225 11.2146 70.3511 11.7493 70.3511 12.4102V16.8057H68.9164ZM66.6339 16.9883C66.1207 16.9883 65.6687 16.897 65.2774 16.7144C64.8947 16.5318 64.5947 16.2709 64.3774 15.9318C64.1687 15.5927 64.0644 15.184 64.0644 14.7058C64.0644 14.184 64.1903 13.758 64.4426 13.4275C64.7035 13.0971 65.0642 12.8493 65.5252 12.6841C65.9948 12.5189 66.5426 12.4363 67.1686 12.4363H68.8121V13.5188H67.1425C66.7252 13.5188 66.4034 13.6232 66.1774 13.8319C65.9599 14.0319 65.8513 14.2927 65.8513 14.6145C65.8513 14.9362 65.9599 15.1971 66.1774 15.397C66.4034 15.597 66.7252 15.697 67.1425 15.697C67.3946 15.697 67.6251 15.6536 67.8338 15.5666C68.0511 15.471 68.2294 15.3144 68.3686 15.0971C68.5164 14.871 68.5989 14.5666 68.6164 14.184L69.0599 14.6927C69.0163 15.1884 68.8946 15.6057 68.6947 15.9449C68.5033 16.284 68.2337 16.5448 67.886 16.7274C67.5469 16.9013 67.1295 16.9883 66.6339 16.9883ZM72.1757 16.8057V9.72331H73.9887V16.8057H72.1757ZM71.1844 11.0798V9.72331H73.9887V11.0798H71.1844ZM72.8409 8.87551C72.4844 8.87551 72.2191 8.78421 72.0452 8.6016C71.88 8.4103 71.7974 8.17118 71.7974 7.88424C71.7974 7.59729 71.88 7.36251 72.0452 7.17991C72.2191 6.99731 72.4844 6.90601 72.8409 6.90601C73.1973 6.90601 73.4582 6.99731 73.6235 7.17991C73.7887 7.36251 73.8713 7.59729 73.8713 7.88424C73.8713 8.17118 73.7887 8.4103 73.6235 8.6016C73.4582 8.78421 73.1973 8.87551 72.8409 8.87551ZM75.6217 16.8057V9.72331H77.0564V12.7623H76.926C76.926 12.0406 77.0216 11.4407 77.2129 10.9624C77.4041 10.4755 77.6867 10.1103 78.0607 9.86678C78.4432 9.6233 78.9171 9.50158 79.4824 9.50158H79.5607C80.404 9.50158 81.0431 9.77548 81.478 10.3233C81.9127 10.8624 82.1301 11.6711 82.1301 12.7493V16.8057H80.3172V12.5928C80.3172 12.158 80.191 11.8059 79.9389 11.5363C79.6954 11.2667 79.3563 11.132 78.9216 11.132C78.4781 11.132 78.1172 11.2711 77.839 11.5493C77.5694 11.8189 77.4346 12.1841 77.4346 12.645V16.8057H75.6217ZM83.6226 16.8057V9.72331H85.0574V12.7623H84.927C84.927 12.0406 85.0227 11.4407 85.2139 10.9624C85.4053 10.4755 85.6879 10.1103 86.0617 9.86678C86.4444 9.6233 86.9183 9.50158 87.4834 9.50158H87.5616C88.4052 9.50158 89.0443 9.77548 89.479 10.3233C89.9139 10.8624 90.1311 11.6711 90.1311 12.7493V16.8057H88.3181V12.5928C88.3181 12.158 88.1922 11.8059 87.9399 11.5363C87.6966 11.2667 87.3574 11.132 86.9225 11.132C86.4791 11.132 86.1183 11.2711 85.84 11.5493C85.5705 11.8189 85.4356 12.1841 85.4356 12.645V16.8057H83.6226ZM94.7933 17.0535C94.1845 17.0535 93.6498 16.9492 93.189 16.7405C92.7368 16.5318 92.3585 16.2535 92.0542 15.9057C91.7585 15.5492 91.5325 15.1536 91.376 14.7188C91.2282 14.284 91.1543 13.8406 91.1543 13.3884V13.1406C91.1543 12.671 91.2282 12.2189 91.376 11.7841C91.5325 11.3406 91.7585 10.9494 92.0542 10.6102C92.3585 10.2624 92.7325 9.98851 93.1759 9.78852C93.6194 9.57983 94.1324 9.47549 94.715 9.47549C95.4803 9.47549 96.1194 9.64505 96.6324 9.98417C97.1541 10.3146 97.5454 10.7537 97.8062 11.3015C98.0671 11.8406 98.1975 12.4232 98.1975 13.0493V13.7014H91.9238V12.5928H97.0628L96.5019 13.1406C96.5019 12.6884 96.4367 12.3015 96.3063 11.9798C96.1758 11.658 95.9759 11.4102 95.7063 11.2363C95.4454 11.0624 95.1151 10.9754 94.715 10.9754C94.315 10.9754 93.9759 11.0667 93.6977 11.2493C93.4195 11.4319 93.2063 11.6972 93.0586 12.045C92.9194 12.3841 92.8499 12.7928 92.8499 13.271C92.8499 13.7145 92.9194 14.1101 93.0586 14.4579C93.1977 14.7971 93.4107 15.0666 93.6977 15.2666C93.9846 15.4579 94.3498 15.5536 94.7933 15.5536C95.2367 15.5536 95.5977 15.4666 95.8759 15.2927C96.154 15.1101 96.3324 14.8884 96.4106 14.6275H98.0801C97.9758 15.1144 97.7759 15.5405 97.4802 15.9057C97.1845 16.2709 96.8062 16.5535 96.3454 16.7535C95.8932 16.9535 95.3759 17.0535 94.7933 17.0535ZM102.334 16.897C101.682 16.897 101.142 16.8144 100.716 16.6492C100.299 16.4753 99.9859 16.1883 99.7772 15.7883C99.5685 15.3797 99.4642 14.8318 99.4642 14.1449L99.4772 7.72772H101.173L101.16 14.2623C101.16 14.6101 101.251 14.8797 101.434 15.071C101.625 15.2536 101.895 15.3449 102.242 15.3449H103.351V16.897H102.334ZM98.3425 11.0537V9.72331H103.351V11.0537H98.3425Z" fill="black"/>
<mask id="mask0_39_657" style="mask-type:luminance" maskUnits="userSpaceOnUse" x="0" y="-1" width="25" height="25">
<path d="M24.3 -0.0201416H0.300003V23.9799H24.3V-0.0201416Z" fill="white"/>
</mask>
<g mask="url(#mask0_39_657)">
<path d="M12.3 23.9799C18.9274 23.9799 24.3 18.6073 24.3 11.9799C24.3 5.35244 18.9274 -0.0201416 12.3 -0.0201416C5.67258 -0.0201416 0.300003 5.35244 0.300003 11.9799C0.300003 18.6073 5.67258 23.9799 12.3 23.9799Z" fill="#FF0420"/>
<path d="M8.80227 15.1691C8.08776 15.1691 7.50231 15.001 7.04598 14.6647C6.59565 14.3225 6.3705 13.8361 6.3705 13.2057C6.3705 13.0735 6.3855 12.9114 6.41553 12.7193C6.49359 12.287 6.60465 11.7676 6.74877 11.1612C7.15707 9.50993 8.21085 8.68433 9.91008 8.68433C10.3724 8.68433 10.7867 8.76239 11.153 8.91851C11.5193 9.0686 11.8075 9.29678 12.0176 9.60299C12.2278 9.90323 12.3329 10.2635 12.3329 10.6838C12.3329 10.8099 12.3178 10.969 12.2878 11.1612C12.1978 11.6955 12.0897 12.2149 11.9636 12.7193C11.7534 13.5419 11.3902 14.1573 10.8738 14.5656C10.3574 14.9679 9.6669 15.1691 8.80227 15.1691ZM8.92836 13.8721C9.2646 13.8721 9.54981 13.7731 9.78399 13.5749C10.0242 13.3768 10.1953 13.0735 10.2974 12.6652C10.4355 12.1008 10.5406 11.6085 10.6126 11.1882C10.6366 11.0621 10.6486 10.933 10.6486 10.8009C10.6486 10.2545 10.3634 9.98129 9.79299 9.98129C9.45675 9.98129 9.16854 10.0803 8.92836 10.2785C8.69418 10.4766 8.52606 10.7799 8.424 11.1882C8.31591 11.5905 8.20785 12.0828 8.09976 12.6652C8.07573 12.7853 8.06373 12.9114 8.06373 13.0435C8.06373 13.5959 8.35194 13.8721 8.92836 13.8721Z" fill="white"/>
<path d="M12.7467 15.0791C12.6806 15.0791 12.6296 15.058 12.5936 15.016C12.5636 14.968 12.5545 14.9139 12.5666 14.8539L13.8095 8.99959C13.8215 8.93353 13.8545 8.8795 13.9085 8.83747C13.9626 8.79544 14.0196 8.77441 14.0797 8.77441H16.4754C17.1419 8.77441 17.6763 8.9125 18.0786 9.18871C18.4869 9.46492 18.6911 9.86422 18.6911 10.3866C18.6911 10.5367 18.673 10.6928 18.637 10.8549C18.4869 11.5455 18.1837 12.0558 17.7273 12.3861C17.277 12.7163 16.6586 12.8814 15.872 12.8814H14.6561L14.2418 14.8539C14.2298 14.9199 14.1968 14.974 14.1427 15.016C14.0887 15.058 14.0316 15.0791 13.9716 15.0791H12.7467ZM15.935 11.6385C16.1872 11.6385 16.4064 11.5695 16.5925 11.4314C16.7846 11.2933 16.9107 11.0951 16.9708 10.8369C16.9888 10.7349 16.9978 10.6448 16.9978 10.5667C16.9978 10.3926 16.9468 10.2605 16.8447 10.1704C16.7426 10.0744 16.5685 10.0263 16.3223 10.0263H15.2415L14.8993 11.6385H15.935Z" fill="white"/>
</g>
</g>
<defs>
<clipPath id="clip0_39_657">
<rect width="103" height="24" fill="white"/>
</clipPath>
</defs>
</svg>
