<svg width="104" height="24" viewBox="0 0 104 24" fill="none" xmlns="http://www.w3.org/2000/svg">
<g clip-path="url(#clip0_108_57)">
<path d="M26.7381 18.9376L22.2957 23.7016C22.2004 23.8088 22.0813 23.8922 21.9503 23.9398C21.8193 23.9994 21.6883 24.0232 21.5454 24.0232H21.5334H0.500294C0.405013 24.0232 0.309733 23.9875 0.226363 23.9398C0.142992 23.8803 0.071532 23.8088 0.0358019 23.7135C7.17379e-05 23.6183 -0.0118383 23.523 7.17379e-05 23.4158C0.0119818 23.3205 0.059622 23.2252 0.131082 23.1538L4.56162 18.3897C4.6569 18.2826 4.776 18.1992 4.90701 18.1515C5.03802 18.092 5.18094 18.0682 5.31195 18.0682H26.3451C26.4404 18.0682 26.5476 18.092 26.6309 18.1515C26.7143 18.2111 26.7858 18.2826 26.8215 18.3778C26.8572 18.4731 26.8811 18.5684 26.8572 18.6756C26.8453 18.7709 26.7977 18.8661 26.7262 18.9376H26.7381ZM22.2957 9.35002C22.2004 9.24283 22.0813 9.15946 21.9503 9.11182C21.8193 9.05227 21.6764 9.02845 21.5454 9.02845H0.512204C0.416924 9.02845 0.309733 9.05227 0.226363 9.11182C0.142992 9.17137 0.071532 9.24283 0.0358019 9.33811C7.17379e-05 9.43339 -0.0118383 9.52867 7.17379e-05 9.63586C0.0119818 9.73114 0.059622 9.82642 0.131082 9.89788L4.56162 14.6619C4.6569 14.7691 4.776 14.8525 4.90701 14.9001C5.03802 14.9597 5.18094 14.9835 5.31195 14.9835H26.3451C26.4404 14.9835 26.5476 14.9477 26.6309 14.9001C26.7143 14.8406 26.7858 14.7691 26.8215 14.6738C26.8572 14.5785 26.8691 14.4833 26.8572 14.3761C26.8453 14.2808 26.7977 14.1855 26.7262 14.114L22.2957 9.35002ZM0.512204 5.93183H21.5454C21.6883 5.93183 21.8312 5.90801 21.9503 5.84846C22.0813 5.78891 22.2004 5.70554 22.2957 5.61026L26.7381 0.84624C26.8096 0.77478 26.8572 0.6795 26.8691 0.584219C26.8811 0.488939 26.8691 0.381748 26.8334 0.286468C26.7977 0.191188 26.7262 0.119727 26.6429 0.060177C26.5595 0.0125368 26.4761 -0.0231934 26.3808 -0.0231934H26.357H5.32386H5.31195C5.16903 -0.0231934 5.03802 0.0125368 4.90701 0.060177C4.776 0.119727 4.6569 0.203098 4.56162 0.298378L0.131082 5.0624C0.059622 5.13386 0.0119818 5.22914 7.17379e-05 5.32442C-0.0118383 5.4197 7.17379e-05 5.52689 0.0358019 5.62217C0.071532 5.71745 0.142992 5.78891 0.226363 5.84846C0.309733 5.90801 0.405013 5.93183 0.512204 5.93183Z" fill="url(#paint0_linear_108_57)"/>
<path d="M45.4677 11.0027H39.4061V9.0078H47.0456V7.01294H39.3869C39.1239 7.01294 38.8673 7.06425 38.6236 7.16047C38.3798 7.25668 38.1618 7.40421 37.9757 7.59023C37.7897 7.77624 37.6422 7.99433 37.5396 8.23166C37.4369 8.47541 37.3856 8.73198 37.3856 8.99497V11.0155C37.3856 11.2785 37.4369 11.535 37.5396 11.7788C37.6422 12.0225 37.7897 12.2406 37.9757 12.4266C38.1618 12.6127 38.3798 12.7538 38.6236 12.8564C38.8673 12.9526 39.1239 13.0039 39.3869 13.0039H45.4548V14.9988H37.5267V16.9936H45.4677C45.7307 16.9936 45.9872 16.9423 46.231 16.8461C46.4747 16.7499 46.6928 16.6024 46.8788 16.4163C47.0648 16.2303 47.2124 16.0122 47.315 15.7749C47.4176 15.5312 47.4689 15.2746 47.4689 15.0116V12.9911C47.4689 12.7281 47.4176 12.4715 47.315 12.2278C47.2124 11.984 47.0648 11.766 46.8788 11.5799C46.6928 11.3939 46.4747 11.2528 46.231 11.1502C45.9872 11.054 45.7307 11.0027 45.4677 11.0027Z" fill="black"/>
<path d="M57.2059 7.01294H51.1187C50.8557 7.01294 50.5991 7.05784 50.3554 7.16047C50.1117 7.25668 49.8936 7.40421 49.7076 7.59023C49.5215 7.77624 49.374 7.99433 49.2714 8.23166C49.1687 8.47541 49.1174 8.73198 49.1174 8.99497V15.0116C49.1174 15.2746 49.1752 15.5312 49.2714 15.7749C49.374 16.0187 49.5215 16.2367 49.7076 16.4163C49.8936 16.6024 50.1181 16.7435 50.3554 16.8461C50.5991 16.9423 50.8557 16.9936 51.1187 16.9936H57.2059C57.4689 16.9936 57.7255 16.9423 57.9692 16.8461C58.213 16.7499 58.431 16.6024 58.6171 16.4163C58.8031 16.2303 58.9506 16.0122 59.0532 15.7749C59.1559 15.5312 59.2072 15.2746 59.2072 15.0116V8.99497C59.2072 8.73198 59.1559 8.47541 59.0532 8.23166C58.9506 7.98792 58.8031 7.76983 58.6171 7.59023C58.431 7.40421 58.213 7.2631 57.9692 7.16047C57.7255 7.06425 57.4689 7.01294 57.2059 7.01294ZM57.1931 14.9988H51.1379V9.0078H57.1867V14.9988H57.1931Z" fill="black"/>
<path d="M78.5207 7.01299H72.5875C72.3245 7.01299 72.0679 7.0643 71.8241 7.16052C71.5804 7.25673 71.3623 7.40426 71.1763 7.59028C70.9903 7.77629 70.8428 7.99438 70.7401 8.23171C70.6375 8.47546 70.5862 8.73203 70.5862 8.99502V16.9937H72.6067V13.716H78.5143V16.9937H80.5348V8.99502C80.5348 8.73203 80.4771 8.47546 80.3809 8.23171C80.2782 7.98797 80.1307 7.76988 79.9447 7.58386C79.7587 7.39785 79.5342 7.25673 79.2904 7.1541C79.0467 7.05789 78.7837 7.00657 78.5207 7.01299ZM78.5079 11.7211H72.6003V9.01426H78.5079V11.7211Z" fill="black"/>
<path d="M102.138 7.01294H96.205C95.942 7.01294 95.6854 7.06425 95.4417 7.16047C95.198 7.25668 94.9799 7.40421 94.7939 7.59023C94.6078 7.77624 94.4603 7.99433 94.3577 8.23166C94.255 8.47541 94.2037 8.73198 94.2037 8.99497V16.9936H96.2242V13.7159H102.119V16.9936H104.14V8.99497C104.14 8.73198 104.088 8.47541 103.986 8.23166C103.883 7.98792 103.735 7.76983 103.549 7.59023C103.363 7.40421 103.145 7.2631 102.902 7.16047C102.658 7.06425 102.401 7.01294 102.138 7.01294ZM102.119 11.7211H96.2114V9.01421H102.119V11.7211Z" fill="black"/>
<path d="M90.3872 14.9923H89.579L86.6861 7.84669C86.5899 7.60295 86.4167 7.39127 86.1987 7.23733C85.9806 7.0898 85.7176 7.00641 85.4546 7.00641H83.6586C83.4854 7.00641 83.3122 7.03849 83.1518 7.10263C82.9915 7.16677 82.844 7.26299 82.7221 7.39127C82.6002 7.51315 82.4976 7.66068 82.4334 7.82103C82.3629 7.98139 82.3308 8.15458 82.3308 8.32777V16.9871H84.3513V9.00127H85.1595L88.0524 16.1468C88.155 16.3906 88.3282 16.6023 88.5463 16.7498C88.7644 16.8973 89.0274 16.9743 89.2904 16.9743H91.0864C91.2596 16.9743 91.4327 16.9422 91.5931 16.8781C91.7535 16.8139 91.901 16.7177 92.0229 16.5894C92.1447 16.4676 92.2474 16.32 92.3115 16.1597C92.3821 15.9993 92.4141 15.8261 92.4141 15.6529V7H90.3872V14.9858V14.9923Z" fill="black"/>
<path d="M63.0238 7.01294H61.0033V15.0116C61.0033 15.2746 61.061 15.5312 61.1572 15.7749C61.2599 16.0187 61.4074 16.2367 61.5934 16.4228C61.7794 16.6088 62.0039 16.7499 62.2413 16.8525C62.485 16.9487 62.7416 17.0001 63.0046 17.0001H69.0725V15.0052H63.0174V7.01935L63.0238 7.01294Z" fill="black"/>
</g>
<defs>
<linearGradient id="paint0_linear_108_57" x1="2.50214" y1="24.3327" x2="24.3802" y2="-0.332018" gradientUnits="userSpaceOnUse">
<stop stop-color="#9944FF"/>
<stop offset="0.0784314" stop-color="#9944FF"/>
<stop offset="0.301961" stop-color="#8752F2"/>
<stop offset="0.501961" stop-color="#5497D4"/>
<stop offset="0.6" stop-color="#42B3CA"/>
<stop offset="0.721569" stop-color="#28DFB8"/>
<stop offset="0.968627" stop-color="#18FB9A"/>
<stop offset="1" stop-color="#18FB9A"/>
</linearGradient>
<clipPath id="clip0_108_57">
<rect width="104" height="24" fill="white"/>
</clipPath>
</defs>
</svg>
